G75*
%MOIN*%
%OFA0B0*%
%FSLAX25Y25*%
%IPPOS*%
%LPD*%
%AMOC8*
5,1,8,0,0,1.08239X$1,22.5*
%
%ADD10C,0.00800*%
%ADD11R,0.02500X0.05000*%
%ADD12C,0.03937*%
%ADD13C,0.03937*%
%ADD14C,0.07400*%
%ADD15C,0.02300*%
%ADD16C,0.02378*%
D10*
X0111189Y0067000D02*
X0113489Y0068930D01*
X0115129Y0071770D01*
X0115129Y0071770D01*
X0115699Y0075000D01*
X0115129Y0078230D01*
X0113489Y0081070D01*
X0110977Y0083178D01*
X0110977Y0083178D01*
X0107895Y0084300D01*
X0104615Y0084300D01*
X0101533Y0083178D01*
X0099021Y0081070D01*
X0098255Y0079744D01*
X0098255Y0170256D01*
X0099021Y0168930D01*
X0099021Y0168930D01*
X0101533Y0166822D01*
X0101533Y0166822D01*
X0104615Y0165700D01*
X0107895Y0165700D01*
X0110977Y0166822D01*
X0113489Y0168930D01*
X0115129Y0171770D01*
X0115129Y0171770D01*
X0115699Y0175000D01*
X0115129Y0178230D01*
X0113489Y0181070D01*
X0111189Y0183000D01*
X0281321Y0183000D01*
X0279021Y0181070D01*
X0277381Y0178230D01*
X0276812Y0175000D01*
X0276914Y0174420D01*
X0273005Y0178328D01*
X0271833Y0179500D01*
X0227144Y0179500D01*
X0226813Y0179831D01*
X0225802Y0180250D01*
X0224708Y0180250D01*
X0223697Y0179831D01*
X0223366Y0179500D01*
X0213083Y0179500D01*
X0211583Y0181000D01*
X0207677Y0181000D01*
X0206177Y0179500D01*
X0162677Y0179500D01*
X0161505Y0178328D01*
X0160677Y0177500D01*
X0159505Y0176328D01*
X0159505Y0161078D01*
X0152927Y0154500D01*
X0141144Y0154500D01*
X0140813Y0154831D01*
X0139802Y0155250D01*
X0138708Y0155250D01*
X0137697Y0154831D01*
X0136924Y0154058D01*
X0136505Y0153047D01*
X0136505Y0151953D01*
X0136924Y0150942D01*
X0137697Y0150169D01*
X0138708Y0149750D01*
X0139802Y0149750D01*
X0140813Y0150169D01*
X0141144Y0150500D01*
X0154583Y0150500D01*
X0155755Y0151672D01*
X0163505Y0159422D01*
X0163505Y0174672D01*
X0164333Y0175500D01*
X0167992Y0175500D01*
X0167155Y0174663D01*
X0167155Y0097604D01*
X0166802Y0097750D01*
X0165708Y0097750D01*
X0164697Y0097331D01*
X0163924Y0096558D01*
X0163505Y0095547D01*
X0163505Y0094453D01*
X0163924Y0093442D01*
X0164697Y0092669D01*
X0165708Y0092250D01*
X0166802Y0092250D01*
X0167155Y0092396D01*
X0167155Y0075337D01*
X0168092Y0074400D01*
X0272418Y0074400D01*
X0273355Y0075337D01*
X0273355Y0093500D01*
X0286140Y0093500D01*
X0286762Y0091998D01*
X0288253Y0090507D01*
X0290201Y0089700D01*
X0292309Y0089700D01*
X0294255Y0090506D01*
X0294255Y0079744D01*
X0293489Y0081070D01*
X0290977Y0083178D01*
X0290977Y0083178D01*
X0287895Y0084300D01*
X0284615Y0084300D01*
X0281533Y0083178D01*
X0279021Y0081070D01*
X0277381Y0078230D01*
X0276812Y0075000D01*
X0277381Y0071770D01*
X0279021Y0068930D01*
X0279021Y0068930D01*
X0281321Y0067000D01*
X0131615Y0067000D01*
X0133014Y0069799D01*
X0132490Y0071371D01*
X0131009Y0072112D01*
X0129454Y0071593D01*
X0127899Y0072112D01*
X0127247Y0071785D01*
X0126850Y0072182D01*
X0126524Y0072508D01*
X0125678Y0073354D01*
X0124022Y0073354D01*
X0123427Y0072759D01*
X0122898Y0072230D01*
X0122698Y0072431D01*
X0121775Y0073354D01*
X0120374Y0073354D01*
X0120238Y0073354D01*
X0120118Y0073354D01*
X0120118Y0073354D01*
X0118717Y0073354D01*
X0118717Y0073354D01*
X0117767Y0072404D01*
X0117545Y0072182D01*
X0116858Y0071495D01*
X0116845Y0071481D01*
X0116845Y0070670D01*
X0116845Y0069380D01*
X0116845Y0069380D01*
X0116845Y0068568D01*
X0116845Y0067022D01*
X0116867Y0067000D01*
X0111189Y0067000D01*
X0111661Y0067396D02*
X0116845Y0067396D01*
X0116845Y0068194D02*
X0112612Y0068194D01*
X0113489Y0068930D02*
X0113489Y0068930D01*
X0113489Y0068930D01*
X0113525Y0068993D02*
X0116845Y0068993D01*
X0116845Y0069791D02*
X0113986Y0069791D01*
X0114447Y0070590D02*
X0116845Y0070590D01*
X0116845Y0071388D02*
X0114908Y0071388D01*
X0115202Y0072187D02*
X0117550Y0072187D01*
X0117545Y0072182D02*
X0117545Y0072182D01*
X0116845Y0071481D02*
X0116845Y0071481D01*
X0115343Y0072985D02*
X0118349Y0072985D01*
X0118717Y0073354D02*
X0118717Y0073354D01*
X0120374Y0073354D02*
X0120374Y0073354D01*
X0121775Y0073354D02*
X0121775Y0073354D01*
X0121775Y0073354D01*
X0122144Y0072985D02*
X0123653Y0072985D01*
X0124850Y0071354D02*
X0126251Y0069952D01*
X0128053Y0069952D02*
X0129454Y0067150D01*
X0130855Y0069952D01*
X0132751Y0070590D02*
X0278063Y0070590D01*
X0277602Y0071388D02*
X0132456Y0071388D01*
X0133010Y0069791D02*
X0278524Y0069791D01*
X0278985Y0068993D02*
X0132611Y0068993D01*
X0132212Y0068194D02*
X0279898Y0068194D01*
X0280849Y0067396D02*
X0131813Y0067396D01*
X0126251Y0067150D02*
X0123449Y0067150D01*
X0124850Y0067150D02*
X0124850Y0071354D01*
X0126047Y0072985D02*
X0277167Y0072985D01*
X0277308Y0072187D02*
X0126845Y0072187D01*
X0126850Y0072182D02*
X0126850Y0072182D01*
X0121647Y0070653D02*
X0120947Y0071354D01*
X0119545Y0071354D01*
X0118845Y0070653D01*
X0118845Y0069952D01*
X0119545Y0069252D01*
X0118845Y0068551D01*
X0118845Y0067851D01*
X0119545Y0067150D01*
X0120947Y0067150D01*
X0121647Y0067851D01*
X0120246Y0069252D02*
X0119545Y0069252D01*
X0115484Y0073784D02*
X0277026Y0073784D01*
X0276885Y0074582D02*
X0272600Y0074582D01*
X0273355Y0075381D02*
X0276879Y0075381D01*
X0276812Y0075000D02*
X0276812Y0075000D01*
X0277020Y0076179D02*
X0273355Y0076179D01*
X0273355Y0076978D02*
X0277160Y0076978D01*
X0277301Y0077776D02*
X0273355Y0077776D01*
X0273355Y0078575D02*
X0277580Y0078575D01*
X0277381Y0078230D02*
X0277381Y0078230D01*
X0278041Y0079373D02*
X0273355Y0079373D01*
X0273355Y0080172D02*
X0278502Y0080172D01*
X0278963Y0080970D02*
X0273355Y0080970D01*
X0273355Y0081769D02*
X0279854Y0081769D01*
X0279021Y0081070D02*
X0279021Y0081070D01*
X0280805Y0082567D02*
X0273355Y0082567D01*
X0273355Y0083366D02*
X0282048Y0083366D01*
X0284242Y0084164D02*
X0273355Y0084164D01*
X0273355Y0084963D02*
X0294255Y0084963D01*
X0294255Y0085761D02*
X0273355Y0085761D01*
X0273355Y0086560D02*
X0294255Y0086560D01*
X0294255Y0087358D02*
X0273355Y0087358D01*
X0273355Y0088157D02*
X0294255Y0088157D01*
X0294255Y0088955D02*
X0273355Y0088955D01*
X0273355Y0089754D02*
X0290071Y0089754D01*
X0288207Y0090552D02*
X0273355Y0090552D01*
X0273355Y0091351D02*
X0287409Y0091351D01*
X0286699Y0092149D02*
X0273355Y0092149D01*
X0273355Y0092948D02*
X0286368Y0092948D01*
X0290755Y0095500D02*
X0291255Y0095000D01*
X0290755Y0095500D02*
X0266255Y0095500D01*
X0201505Y0095500D01*
X0213755Y0098000D02*
X0284255Y0098000D01*
X0291255Y0105000D01*
X0283942Y0110515D02*
X0273355Y0110515D01*
X0273355Y0109717D02*
X0283143Y0109717D01*
X0282345Y0108918D02*
X0273355Y0108918D01*
X0273355Y0108120D02*
X0281546Y0108120D01*
X0280748Y0107321D02*
X0273355Y0107321D01*
X0273355Y0106523D02*
X0279949Y0106523D01*
X0279151Y0105724D02*
X0273355Y0105724D01*
X0273355Y0104926D02*
X0278352Y0104926D01*
X0277554Y0104127D02*
X0273355Y0104127D01*
X0273355Y0103329D02*
X0276755Y0103329D01*
X0275957Y0102530D02*
X0273355Y0102530D01*
X0273355Y0102000D02*
X0273355Y0170072D01*
X0279755Y0163672D01*
X0279755Y0133672D01*
X0273355Y0133672D01*
X0273355Y0134470D02*
X0279755Y0134470D01*
X0279755Y0133672D02*
X0280927Y0132500D01*
X0286370Y0127056D01*
X0285955Y0126054D01*
X0285955Y0123946D01*
X0286762Y0121998D01*
X0288253Y0120507D01*
X0289477Y0120000D01*
X0288253Y0119493D01*
X0286762Y0118002D01*
X0285955Y0116054D01*
X0285955Y0113946D01*
X0286370Y0112944D01*
X0275427Y0102000D01*
X0273355Y0102000D01*
X0276255Y0100000D02*
X0218755Y0100000D01*
X0217255Y0101500D01*
X0184255Y0095000D02*
X0166255Y0095000D01*
X0164306Y0096940D02*
X0150570Y0096940D01*
X0150630Y0096797D02*
X0150211Y0097808D01*
X0149880Y0098139D01*
X0149880Y0099954D01*
X0148708Y0101125D01*
X0132505Y0117328D01*
X0132505Y0117797D01*
X0132086Y0118808D01*
X0131587Y0119308D01*
X0131587Y0140468D01*
X0131918Y0140799D01*
X0132337Y0141810D01*
X0132337Y0142904D01*
X0131918Y0143915D01*
X0131587Y0144246D01*
X0131587Y0157503D01*
X0134583Y0160500D01*
X0149866Y0160500D01*
X0150197Y0160169D01*
X0151208Y0159750D01*
X0152302Y0159750D01*
X0153313Y0160169D01*
X0154086Y0160942D01*
X0154505Y0161953D01*
X0154505Y0163047D01*
X0154086Y0164058D01*
X0153313Y0164831D01*
X0152302Y0165250D01*
X0151208Y0165250D01*
X0150197Y0164831D01*
X0149866Y0164500D01*
X0132927Y0164500D01*
X0127587Y0159160D01*
X0127587Y0144286D01*
X0126839Y0145033D01*
X0125528Y0145576D01*
X0119778Y0145576D01*
X0118466Y0145033D01*
X0117462Y0144029D01*
X0116919Y0142718D01*
X0116919Y0141298D01*
X0117462Y0139986D01*
X0118466Y0138983D01*
X0118913Y0138797D01*
X0118125Y0138009D01*
X0117687Y0136951D01*
X0117687Y0135805D01*
X0118125Y0134747D01*
X0118935Y0133937D01*
X0119993Y0133498D01*
X0121139Y0133498D01*
X0122197Y0133937D01*
X0123007Y0134747D01*
X0123446Y0135805D01*
X0123446Y0136951D01*
X0123007Y0138009D01*
X0122577Y0138439D01*
X0125528Y0138439D01*
X0126839Y0138983D01*
X0127587Y0139730D01*
X0127587Y0118971D01*
X0127424Y0118808D01*
X0127005Y0117797D01*
X0127005Y0116703D01*
X0127424Y0115692D01*
X0128197Y0114919D01*
X0129208Y0114500D01*
X0129677Y0114500D01*
X0135975Y0108202D01*
X0135598Y0108046D01*
X0134705Y0107153D01*
X0134222Y0105986D01*
X0134222Y0104723D01*
X0134705Y0103556D01*
X0135598Y0102663D01*
X0136765Y0102180D01*
X0138028Y0102180D01*
X0139195Y0102663D01*
X0140088Y0103556D01*
X0140244Y0103932D01*
X0145880Y0098297D01*
X0145880Y0098139D01*
X0145549Y0097808D01*
X0145130Y0096797D01*
X0145130Y0095703D01*
X0145549Y0094692D01*
X0145855Y0094386D01*
X0145855Y0094100D01*
X0142742Y0094100D01*
X0141805Y0093163D01*
X0141805Y0092789D01*
X0140700Y0092789D01*
X0139675Y0092364D01*
X0138891Y0091580D01*
X0138466Y0090555D01*
X0138466Y0089445D01*
X0138891Y0088420D01*
X0139675Y0087636D01*
X0140700Y0087211D01*
X0141805Y0087211D01*
X0141805Y0086837D01*
X0142742Y0085900D01*
X0149768Y0085900D01*
X0150705Y0086837D01*
X0150705Y0093163D01*
X0149855Y0094013D01*
X0149855Y0094336D01*
X0150211Y0094692D01*
X0150630Y0095703D01*
X0150630Y0096797D01*
X0150630Y0096142D02*
X0163752Y0096142D01*
X0163505Y0095343D02*
X0150481Y0095343D01*
X0150064Y0094545D02*
X0163505Y0094545D01*
X0163798Y0093746D02*
X0150121Y0093746D01*
X0150705Y0092948D02*
X0164418Y0092948D01*
X0167155Y0092149D02*
X0150705Y0092149D01*
X0150705Y0091351D02*
X0167155Y0091351D01*
X0167155Y0090552D02*
X0150705Y0090552D01*
X0150705Y0089754D02*
X0167155Y0089754D01*
X0167155Y0088955D02*
X0150705Y0088955D01*
X0150705Y0088157D02*
X0167155Y0088157D01*
X0167155Y0087358D02*
X0150705Y0087358D01*
X0150428Y0086560D02*
X0167155Y0086560D01*
X0167155Y0085761D02*
X0119802Y0085761D01*
X0119824Y0085710D02*
X0119280Y0087021D01*
X0118276Y0088025D01*
X0116965Y0088568D01*
X0115545Y0088568D01*
X0114234Y0088025D01*
X0113230Y0087021D01*
X0112687Y0085710D01*
X0112687Y0084290D01*
X0113230Y0082979D01*
X0114234Y0081975D01*
X0115545Y0081431D01*
X0116965Y0081431D01*
X0118276Y0081975D01*
X0119280Y0082979D01*
X0119824Y0084290D01*
X0119824Y0085710D01*
X0119824Y0084963D02*
X0167155Y0084963D01*
X0167155Y0084164D02*
X0162608Y0084164D01*
X0162241Y0084317D02*
X0160978Y0084317D01*
X0159811Y0083833D01*
X0158918Y0082940D01*
X0158435Y0081773D01*
X0158435Y0080510D01*
X0158918Y0079343D01*
X0159811Y0078450D01*
X0160978Y0077967D01*
X0162241Y0077967D01*
X0163408Y0078450D01*
X0164301Y0079343D01*
X0164784Y0080510D01*
X0164784Y0081773D01*
X0164301Y0082940D01*
X0163408Y0083833D01*
X0162241Y0084317D01*
X0160610Y0084164D02*
X0119771Y0084164D01*
X0119441Y0083366D02*
X0159344Y0083366D01*
X0158763Y0082567D02*
X0118869Y0082567D01*
X0117779Y0081769D02*
X0158435Y0081769D01*
X0158435Y0080970D02*
X0113547Y0080970D01*
X0113489Y0081070D02*
X0113489Y0081070D01*
X0114008Y0080172D02*
X0158575Y0080172D01*
X0158906Y0079373D02*
X0114469Y0079373D01*
X0114930Y0078575D02*
X0159687Y0078575D01*
X0163532Y0078575D02*
X0167155Y0078575D01*
X0167155Y0079373D02*
X0164313Y0079373D01*
X0164644Y0080172D02*
X0167155Y0080172D01*
X0167155Y0080970D02*
X0164784Y0080970D01*
X0164784Y0081769D02*
X0167155Y0081769D01*
X0167155Y0082567D02*
X0164455Y0082567D01*
X0163875Y0083366D02*
X0167155Y0083366D01*
X0167155Y0077776D02*
X0115209Y0077776D01*
X0115129Y0078230D02*
X0115129Y0078230D01*
X0115350Y0076978D02*
X0167155Y0076978D01*
X0167155Y0076179D02*
X0115491Y0076179D01*
X0115631Y0075381D02*
X0167155Y0075381D01*
X0167910Y0074582D02*
X0115625Y0074582D01*
X0115699Y0075000D02*
X0115699Y0075000D01*
X0114731Y0081769D02*
X0112657Y0081769D01*
X0111705Y0082567D02*
X0113641Y0082567D01*
X0113069Y0083366D02*
X0110462Y0083366D01*
X0108268Y0084164D02*
X0112739Y0084164D01*
X0112687Y0084963D02*
X0098255Y0084963D01*
X0098255Y0085761D02*
X0112708Y0085761D01*
X0113039Y0086560D02*
X0098255Y0086560D01*
X0098255Y0087358D02*
X0113567Y0087358D01*
X0114551Y0088157D02*
X0098255Y0088157D01*
X0098255Y0088955D02*
X0138669Y0088955D01*
X0138466Y0089754D02*
X0098255Y0089754D01*
X0098255Y0090552D02*
X0138466Y0090552D01*
X0138796Y0091351D02*
X0098255Y0091351D01*
X0098255Y0092149D02*
X0139460Y0092149D01*
X0141805Y0092948D02*
X0098255Y0092948D01*
X0098255Y0093746D02*
X0142389Y0093746D01*
X0145279Y0095343D02*
X0098255Y0095343D01*
X0098255Y0094545D02*
X0145696Y0094545D01*
X0145130Y0096142D02*
X0098255Y0096142D01*
X0098255Y0096940D02*
X0145189Y0096940D01*
X0145520Y0097739D02*
X0098255Y0097739D01*
X0098255Y0098537D02*
X0145639Y0098537D01*
X0144841Y0099336D02*
X0098255Y0099336D01*
X0098255Y0100134D02*
X0144042Y0100134D01*
X0143244Y0100933D02*
X0098255Y0100933D01*
X0098255Y0101732D02*
X0142445Y0101732D01*
X0141647Y0102530D02*
X0138874Y0102530D01*
X0139861Y0103329D02*
X0140848Y0103329D01*
X0143311Y0106523D02*
X0167155Y0106523D01*
X0167155Y0107321D02*
X0142512Y0107321D01*
X0141714Y0108120D02*
X0167155Y0108120D01*
X0167155Y0108918D02*
X0140915Y0108918D01*
X0140117Y0109717D02*
X0167155Y0109717D01*
X0167155Y0110515D02*
X0139318Y0110515D01*
X0138520Y0111314D02*
X0167155Y0111314D01*
X0167155Y0112112D02*
X0137721Y0112112D01*
X0136923Y0112911D02*
X0167155Y0112911D01*
X0167155Y0113709D02*
X0136124Y0113709D01*
X0135326Y0114508D02*
X0167155Y0114508D01*
X0167155Y0115306D02*
X0134527Y0115306D01*
X0133729Y0116105D02*
X0167155Y0116105D01*
X0167155Y0116903D02*
X0132930Y0116903D01*
X0132505Y0117702D02*
X0167155Y0117702D01*
X0167155Y0118500D02*
X0132214Y0118500D01*
X0131595Y0119299D02*
X0167155Y0119299D01*
X0167155Y0120097D02*
X0131587Y0120097D01*
X0131587Y0120896D02*
X0167155Y0120896D01*
X0167155Y0121694D02*
X0131587Y0121694D01*
X0131587Y0122493D02*
X0167155Y0122493D01*
X0167155Y0123291D02*
X0131587Y0123291D01*
X0131587Y0124090D02*
X0167155Y0124090D01*
X0167155Y0124888D02*
X0131587Y0124888D01*
X0131587Y0125687D02*
X0167155Y0125687D01*
X0167155Y0126485D02*
X0131587Y0126485D01*
X0131587Y0127284D02*
X0167155Y0127284D01*
X0167155Y0128082D02*
X0131587Y0128082D01*
X0131587Y0128881D02*
X0167155Y0128881D01*
X0167155Y0129679D02*
X0131587Y0129679D01*
X0131587Y0130478D02*
X0167155Y0130478D01*
X0167155Y0131276D02*
X0131587Y0131276D01*
X0131587Y0132075D02*
X0167155Y0132075D01*
X0167155Y0132873D02*
X0131587Y0132873D01*
X0131587Y0133672D02*
X0167155Y0133672D01*
X0167155Y0134470D02*
X0131587Y0134470D01*
X0131587Y0135269D02*
X0167155Y0135269D01*
X0167155Y0136068D02*
X0131587Y0136068D01*
X0131587Y0136866D02*
X0167155Y0136866D01*
X0167155Y0137665D02*
X0131587Y0137665D01*
X0131587Y0138463D02*
X0167155Y0138463D01*
X0167155Y0139262D02*
X0131587Y0139262D01*
X0131587Y0140060D02*
X0167155Y0140060D01*
X0167155Y0140859D02*
X0131942Y0140859D01*
X0132273Y0141657D02*
X0167155Y0141657D01*
X0167155Y0142456D02*
X0132337Y0142456D01*
X0132192Y0143254D02*
X0167155Y0143254D01*
X0167155Y0144053D02*
X0131780Y0144053D01*
X0131587Y0144851D02*
X0167155Y0144851D01*
X0167155Y0145650D02*
X0131587Y0145650D01*
X0131587Y0146448D02*
X0167155Y0146448D01*
X0167155Y0147247D02*
X0131587Y0147247D01*
X0131587Y0148045D02*
X0167155Y0148045D01*
X0167155Y0148844D02*
X0131587Y0148844D01*
X0131587Y0149642D02*
X0167155Y0149642D01*
X0167155Y0150441D02*
X0141085Y0150441D01*
X0139255Y0152500D02*
X0153755Y0152500D01*
X0161505Y0160250D01*
X0161505Y0175500D01*
X0163505Y0177500D01*
X0207005Y0177500D01*
X0208505Y0179000D01*
X0210755Y0179000D01*
X0212255Y0177500D01*
X0225255Y0177500D01*
X0271005Y0177500D01*
X0283755Y0164750D01*
X0283755Y0142500D01*
X0291255Y0135000D01*
X0283747Y0129679D02*
X0273355Y0129679D01*
X0273355Y0128881D02*
X0284546Y0128881D01*
X0285344Y0128082D02*
X0273355Y0128082D01*
X0273355Y0127284D02*
X0286143Y0127284D01*
X0286134Y0126485D02*
X0273355Y0126485D01*
X0273355Y0125687D02*
X0285955Y0125687D01*
X0285955Y0124888D02*
X0273355Y0124888D01*
X0273355Y0124090D02*
X0285955Y0124090D01*
X0286226Y0123291D02*
X0273355Y0123291D01*
X0273355Y0122493D02*
X0286557Y0122493D01*
X0287065Y0121694D02*
X0273355Y0121694D01*
X0273355Y0120896D02*
X0287864Y0120896D01*
X0289242Y0120097D02*
X0273355Y0120097D01*
X0273355Y0119299D02*
X0288059Y0119299D01*
X0287260Y0118500D02*
X0273355Y0118500D01*
X0273355Y0117702D02*
X0286638Y0117702D01*
X0286307Y0116903D02*
X0273355Y0116903D01*
X0273355Y0116105D02*
X0285976Y0116105D01*
X0285955Y0115306D02*
X0273355Y0115306D01*
X0273355Y0114508D02*
X0285955Y0114508D01*
X0286053Y0113709D02*
X0273355Y0113709D01*
X0273355Y0112911D02*
X0286337Y0112911D01*
X0285539Y0112112D02*
X0273355Y0112112D01*
X0273355Y0111314D02*
X0284740Y0111314D01*
X0291255Y0115000D02*
X0276255Y0100000D01*
X0266755Y0095500D02*
X0266255Y0095500D01*
X0284615Y0084300D02*
X0284615Y0084300D01*
X0288268Y0084164D02*
X0294255Y0084164D01*
X0294255Y0083366D02*
X0290462Y0083366D01*
X0291705Y0082567D02*
X0294255Y0082567D01*
X0294255Y0081769D02*
X0292657Y0081769D01*
X0293489Y0081070D02*
X0293489Y0081070D01*
X0293547Y0080970D02*
X0294255Y0080970D01*
X0294255Y0080172D02*
X0294008Y0080172D01*
X0294255Y0089754D02*
X0292439Y0089754D01*
X0277381Y0071770D02*
X0277381Y0071770D01*
X0233005Y0143750D02*
X0184255Y0095000D01*
X0167155Y0097739D02*
X0166829Y0097739D01*
X0167155Y0098537D02*
X0149880Y0098537D01*
X0149880Y0099336D02*
X0167155Y0099336D01*
X0167155Y0100134D02*
X0149699Y0100134D01*
X0148900Y0100933D02*
X0167155Y0100933D01*
X0167155Y0101732D02*
X0148102Y0101732D01*
X0147303Y0102530D02*
X0167155Y0102530D01*
X0167155Y0103329D02*
X0146505Y0103329D01*
X0145706Y0104127D02*
X0167155Y0104127D01*
X0167155Y0104926D02*
X0144908Y0104926D01*
X0144109Y0105724D02*
X0167155Y0105724D01*
X0165681Y0097739D02*
X0150240Y0097739D01*
X0147880Y0099125D02*
X0147880Y0096250D01*
X0147855Y0096225D01*
X0147855Y0090000D01*
X0144655Y0090000D02*
X0141255Y0090000D01*
X0140345Y0087358D02*
X0118943Y0087358D01*
X0119471Y0086560D02*
X0142083Y0086560D01*
X0139154Y0088157D02*
X0117959Y0088157D01*
X0104242Y0084164D02*
X0098255Y0084164D01*
X0098255Y0083366D02*
X0102048Y0083366D01*
X0101533Y0083178D02*
X0101533Y0083178D01*
X0100805Y0082567D02*
X0098255Y0082567D01*
X0098255Y0081769D02*
X0099854Y0081769D01*
X0099021Y0081070D02*
X0099021Y0081070D01*
X0099021Y0081070D01*
X0098963Y0080970D02*
X0098255Y0080970D01*
X0098255Y0080172D02*
X0098502Y0080172D01*
X0098255Y0102530D02*
X0135919Y0102530D01*
X0134933Y0103329D02*
X0098255Y0103329D01*
X0098255Y0104127D02*
X0134469Y0104127D01*
X0134222Y0104926D02*
X0126740Y0104926D01*
X0126839Y0104967D02*
X0127843Y0105971D01*
X0128387Y0107282D01*
X0128387Y0108702D01*
X0127843Y0110014D01*
X0126839Y0111017D01*
X0125528Y0111561D01*
X0122577Y0111561D01*
X0123007Y0111991D01*
X0123446Y0113049D01*
X0123446Y0114195D01*
X0123007Y0115253D01*
X0122197Y0116063D01*
X0121139Y0116502D01*
X0119993Y0116502D01*
X0118935Y0116063D01*
X0118125Y0115253D01*
X0117687Y0114195D01*
X0117687Y0113049D01*
X0118125Y0111991D01*
X0118913Y0111203D01*
X0118466Y0111017D01*
X0117462Y0110014D01*
X0116919Y0108702D01*
X0116919Y0107282D01*
X0117462Y0105971D01*
X0118466Y0104967D01*
X0119778Y0104424D01*
X0125528Y0104424D01*
X0126839Y0104967D01*
X0127597Y0105724D02*
X0134222Y0105724D01*
X0134444Y0106523D02*
X0128072Y0106523D01*
X0128387Y0107321D02*
X0134874Y0107321D01*
X0135777Y0108120D02*
X0128387Y0108120D01*
X0128297Y0108918D02*
X0135259Y0108918D01*
X0134460Y0109717D02*
X0127966Y0109717D01*
X0127342Y0110515D02*
X0133661Y0110515D01*
X0132863Y0111314D02*
X0126124Y0111314D01*
X0123388Y0112911D02*
X0131266Y0112911D01*
X0130467Y0113709D02*
X0123446Y0113709D01*
X0123316Y0114508D02*
X0129189Y0114508D01*
X0127810Y0115306D02*
X0122954Y0115306D01*
X0122097Y0116105D02*
X0127253Y0116105D01*
X0127005Y0116903D02*
X0098255Y0116903D01*
X0098255Y0116105D02*
X0119035Y0116105D01*
X0118178Y0115306D02*
X0098255Y0115306D01*
X0098255Y0114508D02*
X0117816Y0114508D01*
X0117687Y0113709D02*
X0098255Y0113709D01*
X0098255Y0112911D02*
X0117744Y0112911D01*
X0118075Y0112112D02*
X0098255Y0112112D01*
X0098255Y0111314D02*
X0103709Y0111314D01*
X0104305Y0111561D02*
X0102994Y0111017D01*
X0101990Y0110014D01*
X0101446Y0108702D01*
X0101446Y0107282D01*
X0101990Y0105971D01*
X0102994Y0104967D01*
X0104305Y0104424D01*
X0108087Y0104424D01*
X0109398Y0104967D01*
X0110402Y0105971D01*
X0110946Y0107282D01*
X0110946Y0108702D01*
X0110402Y0110014D01*
X0109398Y0111017D01*
X0108087Y0111561D01*
X0104305Y0111561D01*
X0102491Y0110515D02*
X0098255Y0110515D01*
X0098255Y0109717D02*
X0101867Y0109717D01*
X0101536Y0108918D02*
X0098255Y0108918D01*
X0098255Y0108120D02*
X0101446Y0108120D01*
X0101446Y0107321D02*
X0098255Y0107321D01*
X0098255Y0106523D02*
X0101761Y0106523D01*
X0102236Y0105724D02*
X0098255Y0105724D01*
X0098255Y0104926D02*
X0103093Y0104926D01*
X0109299Y0104926D02*
X0118566Y0104926D01*
X0117709Y0105724D02*
X0110156Y0105724D01*
X0110631Y0106523D02*
X0117234Y0106523D01*
X0116919Y0107321D02*
X0110946Y0107321D01*
X0110946Y0108120D02*
X0116919Y0108120D01*
X0117008Y0108918D02*
X0110856Y0108918D01*
X0110525Y0109717D02*
X0117339Y0109717D01*
X0117964Y0110515D02*
X0109901Y0110515D01*
X0108683Y0111314D02*
X0118802Y0111314D01*
X0123057Y0112112D02*
X0132064Y0112112D01*
X0129755Y0117250D02*
X0147880Y0099125D01*
X0129755Y0117250D02*
X0129587Y0117419D01*
X0129587Y0140000D01*
X0129587Y0158331D01*
X0133755Y0162500D01*
X0151755Y0162500D01*
X0154505Y0162418D02*
X0159505Y0162418D01*
X0159505Y0161620D02*
X0154367Y0161620D01*
X0153966Y0160821D02*
X0159248Y0160821D01*
X0158449Y0160023D02*
X0152961Y0160023D01*
X0150549Y0160023D02*
X0134106Y0160023D01*
X0133308Y0159224D02*
X0157651Y0159224D01*
X0156852Y0158426D02*
X0132509Y0158426D01*
X0131711Y0157627D02*
X0156054Y0157627D01*
X0155255Y0156829D02*
X0131587Y0156829D01*
X0131587Y0156030D02*
X0154457Y0156030D01*
X0153658Y0155232D02*
X0139846Y0155232D01*
X0138664Y0155232D02*
X0131587Y0155232D01*
X0131587Y0154433D02*
X0137299Y0154433D01*
X0136749Y0153635D02*
X0131587Y0153635D01*
X0131587Y0152836D02*
X0136505Y0152836D01*
X0136505Y0152038D02*
X0131587Y0152038D01*
X0131587Y0151239D02*
X0136801Y0151239D01*
X0137425Y0150441D02*
X0131587Y0150441D01*
X0127587Y0150441D02*
X0098255Y0150441D01*
X0098255Y0151239D02*
X0127587Y0151239D01*
X0127587Y0152038D02*
X0098255Y0152038D01*
X0098255Y0152836D02*
X0127587Y0152836D01*
X0127587Y0153635D02*
X0098255Y0153635D01*
X0098255Y0154433D02*
X0127587Y0154433D01*
X0127587Y0155232D02*
X0098255Y0155232D01*
X0098255Y0156030D02*
X0127587Y0156030D01*
X0127587Y0156829D02*
X0098255Y0156829D01*
X0098255Y0157627D02*
X0127587Y0157627D01*
X0127587Y0158426D02*
X0098255Y0158426D01*
X0098255Y0159224D02*
X0127651Y0159224D01*
X0128449Y0160023D02*
X0098255Y0160023D01*
X0098255Y0160821D02*
X0129248Y0160821D01*
X0130047Y0161620D02*
X0098255Y0161620D01*
X0098255Y0162418D02*
X0130845Y0162418D01*
X0131644Y0163217D02*
X0098255Y0163217D01*
X0098255Y0164015D02*
X0132442Y0164015D01*
X0150180Y0164814D02*
X0098255Y0164814D01*
X0098255Y0165612D02*
X0159505Y0165612D01*
X0159505Y0164814D02*
X0153330Y0164814D01*
X0154104Y0164015D02*
X0159505Y0164015D01*
X0159505Y0163217D02*
X0154435Y0163217D01*
X0159505Y0166411D02*
X0109848Y0166411D01*
X0110977Y0166822D02*
X0110977Y0166822D01*
X0111439Y0167209D02*
X0159505Y0167209D01*
X0159505Y0168008D02*
X0112391Y0168008D01*
X0113342Y0168806D02*
X0159505Y0168806D01*
X0159505Y0169605D02*
X0113879Y0169605D01*
X0113489Y0168930D02*
X0113489Y0168930D01*
X0113489Y0168930D01*
X0114340Y0170403D02*
X0159505Y0170403D01*
X0159505Y0171202D02*
X0114801Y0171202D01*
X0115170Y0172001D02*
X0159505Y0172001D01*
X0159505Y0172799D02*
X0115310Y0172799D01*
X0115451Y0173598D02*
X0159505Y0173598D01*
X0159505Y0174396D02*
X0115592Y0174396D01*
X0115699Y0175000D02*
X0115699Y0175000D01*
X0115664Y0175195D02*
X0159505Y0175195D01*
X0159505Y0175993D02*
X0115523Y0175993D01*
X0115383Y0176792D02*
X0159968Y0176792D01*
X0160767Y0177590D02*
X0115242Y0177590D01*
X0115129Y0178230D02*
X0115129Y0178230D01*
X0115037Y0178389D02*
X0161565Y0178389D01*
X0161505Y0178328D02*
X0161505Y0178328D01*
X0162364Y0179187D02*
X0114576Y0179187D01*
X0114115Y0179986D02*
X0206662Y0179986D01*
X0207461Y0180784D02*
X0113654Y0180784D01*
X0113489Y0181070D02*
X0113489Y0181070D01*
X0112878Y0181583D02*
X0279632Y0181583D01*
X0279021Y0181070D02*
X0279021Y0181070D01*
X0279021Y0181070D01*
X0278856Y0180784D02*
X0211799Y0180784D01*
X0212598Y0179986D02*
X0224070Y0179986D01*
X0226440Y0179986D02*
X0278395Y0179986D01*
X0277934Y0179187D02*
X0272146Y0179187D01*
X0272945Y0178389D02*
X0277473Y0178389D01*
X0277381Y0178230D02*
X0277381Y0178230D01*
X0277268Y0177590D02*
X0273743Y0177590D01*
X0274542Y0176792D02*
X0277128Y0176792D01*
X0276987Y0175993D02*
X0275340Y0175993D01*
X0276139Y0175195D02*
X0276846Y0175195D01*
X0276812Y0175000D02*
X0276812Y0175000D01*
X0270755Y0175500D02*
X0219005Y0175500D01*
X0217255Y0173750D01*
X0217255Y0154500D01*
X0211327Y0175600D02*
X0207933Y0175600D01*
X0209005Y0176672D01*
X0209333Y0177000D01*
X0209927Y0177000D01*
X0211327Y0175600D01*
X0210934Y0175993D02*
X0208327Y0175993D01*
X0209125Y0176792D02*
X0210135Y0176792D01*
X0167687Y0175195D02*
X0164028Y0175195D01*
X0163505Y0174396D02*
X0167155Y0174396D01*
X0167155Y0173598D02*
X0163505Y0173598D01*
X0163505Y0172799D02*
X0167155Y0172799D01*
X0167155Y0172001D02*
X0163505Y0172001D01*
X0163505Y0171202D02*
X0167155Y0171202D01*
X0167155Y0170403D02*
X0163505Y0170403D01*
X0163505Y0169605D02*
X0167155Y0169605D01*
X0167155Y0168806D02*
X0163505Y0168806D01*
X0163505Y0168008D02*
X0167155Y0168008D01*
X0167155Y0167209D02*
X0163505Y0167209D01*
X0163505Y0166411D02*
X0167155Y0166411D01*
X0167155Y0165612D02*
X0163505Y0165612D01*
X0163505Y0164814D02*
X0167155Y0164814D01*
X0167155Y0164015D02*
X0163505Y0164015D01*
X0163505Y0163217D02*
X0167155Y0163217D01*
X0167155Y0162418D02*
X0163505Y0162418D01*
X0163505Y0161620D02*
X0167155Y0161620D01*
X0167155Y0160821D02*
X0163505Y0160821D01*
X0163505Y0160023D02*
X0167155Y0160023D01*
X0167155Y0159224D02*
X0163308Y0159224D01*
X0162509Y0158426D02*
X0167155Y0158426D01*
X0167155Y0157627D02*
X0161711Y0157627D01*
X0160912Y0156829D02*
X0167155Y0156829D01*
X0167155Y0156030D02*
X0160114Y0156030D01*
X0159315Y0155232D02*
X0167155Y0155232D01*
X0167155Y0154433D02*
X0158517Y0154433D01*
X0157718Y0153635D02*
X0167155Y0153635D01*
X0167155Y0152836D02*
X0156920Y0152836D01*
X0156121Y0152038D02*
X0167155Y0152038D01*
X0167155Y0151239D02*
X0155323Y0151239D01*
X0129587Y0142357D02*
X0129587Y0140000D01*
X0127587Y0139262D02*
X0127118Y0139262D01*
X0127587Y0138463D02*
X0125585Y0138463D01*
X0127587Y0137665D02*
X0123150Y0137665D01*
X0123446Y0136866D02*
X0127587Y0136866D01*
X0127587Y0136068D02*
X0123446Y0136068D01*
X0123224Y0135269D02*
X0127587Y0135269D01*
X0127587Y0134470D02*
X0122731Y0134470D01*
X0121558Y0133672D02*
X0127587Y0133672D01*
X0127587Y0132873D02*
X0098255Y0132873D01*
X0098255Y0132075D02*
X0127587Y0132075D01*
X0127587Y0131276D02*
X0098255Y0131276D01*
X0098255Y0130478D02*
X0127587Y0130478D01*
X0127587Y0129679D02*
X0098255Y0129679D01*
X0098255Y0128881D02*
X0127587Y0128881D01*
X0127587Y0128082D02*
X0122312Y0128082D01*
X0122063Y0128331D02*
X0121052Y0128750D01*
X0119958Y0128750D01*
X0118947Y0128331D01*
X0118174Y0127558D01*
X0117755Y0126547D01*
X0117755Y0125453D01*
X0118174Y0124442D01*
X0118505Y0124111D01*
X0118505Y0123639D01*
X0118174Y0123308D01*
X0117755Y0122297D01*
X0117755Y0121203D01*
X0118174Y0120192D01*
X0118947Y0119419D01*
X0119958Y0119000D01*
X0121052Y0119000D01*
X0122063Y0119419D01*
X0122836Y0120192D01*
X0123255Y0121203D01*
X0123255Y0122297D01*
X0122836Y0123308D01*
X0122505Y0123639D01*
X0122505Y0124111D01*
X0122836Y0124442D01*
X0123255Y0125453D01*
X0123255Y0126547D01*
X0122836Y0127558D01*
X0122063Y0128331D01*
X0122950Y0127284D02*
X0127587Y0127284D01*
X0127587Y0126485D02*
X0123255Y0126485D01*
X0123255Y0125687D02*
X0127587Y0125687D01*
X0127587Y0124888D02*
X0123021Y0124888D01*
X0122505Y0124090D02*
X0127587Y0124090D01*
X0127587Y0123291D02*
X0122843Y0123291D01*
X0123174Y0122493D02*
X0127587Y0122493D01*
X0127587Y0121694D02*
X0123255Y0121694D01*
X0123128Y0120896D02*
X0127587Y0120896D01*
X0127587Y0120097D02*
X0122741Y0120097D01*
X0121773Y0119299D02*
X0127587Y0119299D01*
X0127296Y0118500D02*
X0098255Y0118500D01*
X0098255Y0117702D02*
X0127005Y0117702D01*
X0120505Y0121750D02*
X0120505Y0126000D01*
X0117989Y0124888D02*
X0098255Y0124888D01*
X0098255Y0124090D02*
X0118505Y0124090D01*
X0118167Y0123291D02*
X0098255Y0123291D01*
X0098255Y0122493D02*
X0117836Y0122493D01*
X0117755Y0121694D02*
X0098255Y0121694D01*
X0098255Y0120896D02*
X0117882Y0120896D01*
X0118269Y0120097D02*
X0098255Y0120097D01*
X0098255Y0119299D02*
X0119237Y0119299D01*
X0117755Y0125687D02*
X0098255Y0125687D01*
X0098255Y0126485D02*
X0117755Y0126485D01*
X0118060Y0127284D02*
X0098255Y0127284D01*
X0098255Y0128082D02*
X0118698Y0128082D01*
X0119574Y0133672D02*
X0098255Y0133672D01*
X0098255Y0134470D02*
X0118401Y0134470D01*
X0117909Y0135269D02*
X0098255Y0135269D01*
X0098255Y0136068D02*
X0117687Y0136068D01*
X0117687Y0136866D02*
X0098255Y0136866D01*
X0098255Y0137665D02*
X0117982Y0137665D01*
X0118579Y0138463D02*
X0108144Y0138463D01*
X0108087Y0138439D02*
X0109398Y0138983D01*
X0110402Y0139986D01*
X0110946Y0141298D01*
X0110946Y0142718D01*
X0110402Y0144029D01*
X0109398Y0145033D01*
X0108087Y0145576D01*
X0104305Y0145576D01*
X0102994Y0145033D01*
X0101990Y0144029D01*
X0101446Y0142718D01*
X0101446Y0141298D01*
X0101990Y0139986D01*
X0102994Y0138983D01*
X0104305Y0138439D01*
X0108087Y0138439D01*
X0109677Y0139262D02*
X0118187Y0139262D01*
X0117432Y0140060D02*
X0110433Y0140060D01*
X0110764Y0140859D02*
X0117101Y0140859D01*
X0116919Y0141657D02*
X0110946Y0141657D01*
X0110946Y0142456D02*
X0116919Y0142456D01*
X0117141Y0143254D02*
X0110723Y0143254D01*
X0110379Y0144053D02*
X0117485Y0144053D01*
X0118284Y0144851D02*
X0109580Y0144851D01*
X0102812Y0144851D02*
X0098255Y0144851D01*
X0098255Y0144053D02*
X0102013Y0144053D01*
X0101669Y0143254D02*
X0098255Y0143254D01*
X0098255Y0142456D02*
X0101446Y0142456D01*
X0101446Y0141657D02*
X0098255Y0141657D01*
X0098255Y0140859D02*
X0101628Y0140859D01*
X0101959Y0140060D02*
X0098255Y0140060D01*
X0098255Y0139262D02*
X0102715Y0139262D01*
X0104248Y0138463D02*
X0098255Y0138463D01*
X0098255Y0145650D02*
X0127587Y0145650D01*
X0127587Y0146448D02*
X0098255Y0146448D01*
X0098255Y0147247D02*
X0127587Y0147247D01*
X0127587Y0148045D02*
X0098255Y0148045D01*
X0098255Y0148844D02*
X0127587Y0148844D01*
X0127587Y0149642D02*
X0098255Y0149642D01*
X0098255Y0166411D02*
X0102662Y0166411D01*
X0101071Y0167209D02*
X0098255Y0167209D01*
X0098255Y0168008D02*
X0100120Y0168008D01*
X0099168Y0168806D02*
X0098255Y0168806D01*
X0098255Y0169605D02*
X0098631Y0169605D01*
X0111927Y0182381D02*
X0280583Y0182381D01*
X0270755Y0175500D02*
X0281755Y0164500D01*
X0281755Y0134500D01*
X0291255Y0125000D01*
X0282949Y0130478D02*
X0273355Y0130478D01*
X0273355Y0131276D02*
X0282150Y0131276D01*
X0281352Y0132075D02*
X0273355Y0132075D01*
X0273355Y0132873D02*
X0280553Y0132873D01*
X0279755Y0135269D02*
X0273355Y0135269D01*
X0273355Y0136068D02*
X0279755Y0136068D01*
X0279755Y0136866D02*
X0273355Y0136866D01*
X0273355Y0137665D02*
X0279755Y0137665D01*
X0279755Y0138463D02*
X0273355Y0138463D01*
X0273355Y0139262D02*
X0279755Y0139262D01*
X0279755Y0140060D02*
X0273355Y0140060D01*
X0273355Y0140859D02*
X0279755Y0140859D01*
X0279755Y0141657D02*
X0273355Y0141657D01*
X0273355Y0142456D02*
X0279755Y0142456D01*
X0279755Y0143254D02*
X0273355Y0143254D01*
X0273355Y0144053D02*
X0279755Y0144053D01*
X0279755Y0144851D02*
X0273355Y0144851D01*
X0273355Y0145650D02*
X0279755Y0145650D01*
X0279755Y0146448D02*
X0273355Y0146448D01*
X0273355Y0147247D02*
X0279755Y0147247D01*
X0279755Y0148045D02*
X0273355Y0148045D01*
X0273355Y0148844D02*
X0279755Y0148844D01*
X0279755Y0149642D02*
X0273355Y0149642D01*
X0273355Y0150441D02*
X0279755Y0150441D01*
X0279755Y0151239D02*
X0273355Y0151239D01*
X0273355Y0152038D02*
X0279755Y0152038D01*
X0279755Y0152836D02*
X0273355Y0152836D01*
X0273355Y0153635D02*
X0279755Y0153635D01*
X0279755Y0154433D02*
X0273355Y0154433D01*
X0273355Y0155232D02*
X0279755Y0155232D01*
X0279755Y0156030D02*
X0273355Y0156030D01*
X0273355Y0156829D02*
X0279755Y0156829D01*
X0279755Y0157627D02*
X0273355Y0157627D01*
X0273355Y0158426D02*
X0279755Y0158426D01*
X0279755Y0159224D02*
X0273355Y0159224D01*
X0273355Y0160023D02*
X0279755Y0160023D01*
X0279755Y0160821D02*
X0273355Y0160821D01*
X0273355Y0161620D02*
X0279755Y0161620D01*
X0279755Y0162418D02*
X0273355Y0162418D01*
X0273355Y0163217D02*
X0279755Y0163217D01*
X0279411Y0164015D02*
X0273355Y0164015D01*
X0273355Y0164814D02*
X0278613Y0164814D01*
X0277814Y0165612D02*
X0273355Y0165612D01*
X0273355Y0166411D02*
X0277016Y0166411D01*
X0276217Y0167209D02*
X0273355Y0167209D01*
X0273355Y0168008D02*
X0275419Y0168008D01*
X0274620Y0168806D02*
X0273355Y0168806D01*
X0273355Y0169605D02*
X0273822Y0169605D01*
X0285633Y0165700D02*
X0287895Y0165700D01*
X0290977Y0166822D01*
X0293489Y0168930D01*
X0293489Y0168930D01*
X0294255Y0170256D01*
X0294255Y0159494D01*
X0292309Y0160300D01*
X0290201Y0160300D01*
X0288253Y0159493D01*
X0286762Y0158002D01*
X0285955Y0156054D01*
X0285955Y0153946D01*
X0286762Y0151998D01*
X0288253Y0150507D01*
X0289768Y0149879D01*
X0289297Y0149726D01*
X0288582Y0149362D01*
X0287933Y0148890D01*
X0287365Y0148322D01*
X0286893Y0147673D01*
X0286529Y0146958D01*
X0286281Y0146194D01*
X0286155Y0145401D01*
X0286155Y0145400D01*
X0290855Y0145400D01*
X0290855Y0144600D01*
X0286155Y0144600D01*
X0286155Y0144599D01*
X0286281Y0143806D01*
X0286529Y0143042D01*
X0286893Y0142327D01*
X0287256Y0141827D01*
X0285755Y0143328D01*
X0285755Y0165578D01*
X0285633Y0165700D01*
X0285721Y0165612D02*
X0294255Y0165612D01*
X0294255Y0164814D02*
X0285755Y0164814D01*
X0285755Y0164015D02*
X0294255Y0164015D01*
X0294255Y0163217D02*
X0285755Y0163217D01*
X0285755Y0162418D02*
X0294255Y0162418D01*
X0294255Y0161620D02*
X0285755Y0161620D01*
X0285755Y0160821D02*
X0294255Y0160821D01*
X0294255Y0160023D02*
X0292978Y0160023D01*
X0289532Y0160023D02*
X0285755Y0160023D01*
X0285755Y0159224D02*
X0287984Y0159224D01*
X0287186Y0158426D02*
X0285755Y0158426D01*
X0285755Y0157627D02*
X0286607Y0157627D01*
X0286276Y0156829D02*
X0285755Y0156829D01*
X0285755Y0156030D02*
X0285955Y0156030D01*
X0285955Y0155232D02*
X0285755Y0155232D01*
X0285755Y0154433D02*
X0285955Y0154433D01*
X0286084Y0153635D02*
X0285755Y0153635D01*
X0285755Y0152836D02*
X0286415Y0152836D01*
X0286745Y0152038D02*
X0285755Y0152038D01*
X0285755Y0151239D02*
X0287521Y0151239D01*
X0288413Y0150441D02*
X0285755Y0150441D01*
X0285755Y0149642D02*
X0289132Y0149642D01*
X0287886Y0148844D02*
X0285755Y0148844D01*
X0285755Y0148045D02*
X0287164Y0148045D01*
X0286676Y0147247D02*
X0285755Y0147247D01*
X0285755Y0146448D02*
X0286363Y0146448D01*
X0286194Y0145650D02*
X0285755Y0145650D01*
X0285755Y0144851D02*
X0290855Y0144851D01*
X0286460Y0143254D02*
X0285829Y0143254D01*
X0285755Y0144053D02*
X0286242Y0144053D01*
X0286628Y0142456D02*
X0286828Y0142456D01*
X0289848Y0166411D02*
X0294255Y0166411D01*
X0294255Y0167209D02*
X0291439Y0167209D01*
X0290977Y0166822D02*
X0290977Y0166822D01*
X0292390Y0168008D02*
X0294255Y0168008D01*
X0294255Y0168806D02*
X0293342Y0168806D01*
X0293879Y0169605D02*
X0294255Y0169605D01*
X0127587Y0144851D02*
X0127021Y0144851D01*
D11*
X0144655Y0090000D03*
X0147855Y0090000D03*
D12*
X0120487Y0107992D02*
X0120487Y0107992D01*
X0124819Y0107992D01*
X0124819Y0107992D01*
X0120487Y0107992D01*
X0105015Y0107992D02*
X0105015Y0107992D01*
X0107377Y0107992D01*
X0107377Y0107992D01*
X0105015Y0107992D01*
X0105015Y0142008D02*
X0105015Y0142008D01*
X0107377Y0142008D01*
X0107377Y0142008D01*
X0105015Y0142008D01*
X0120487Y0142008D02*
X0120487Y0142008D01*
X0124819Y0142008D01*
X0124819Y0142008D01*
X0120487Y0142008D01*
D13*
X0116255Y0085000D03*
X0251255Y0170000D03*
D14*
X0291255Y0155000D03*
X0291255Y0145000D03*
X0291255Y0135000D03*
X0291255Y0125000D03*
X0291255Y0115000D03*
X0291255Y0105000D03*
X0291255Y0095000D03*
D15*
X0281255Y0110000D03*
X0286255Y0120000D03*
X0279005Y0140250D03*
X0278505Y0148500D03*
X0278755Y0163000D03*
X0274755Y0180500D03*
X0225255Y0177500D03*
X0209505Y0177000D03*
X0217255Y0154500D03*
X0233005Y0143750D03*
X0151755Y0162500D03*
X0139255Y0152500D03*
X0129587Y0142357D03*
X0120505Y0126000D03*
X0120505Y0121750D03*
X0129755Y0117250D03*
X0147880Y0096250D03*
X0166255Y0095000D03*
X0201505Y0095500D03*
X0241255Y0070000D03*
D16*
X0213755Y0098000D03*
X0217255Y0101500D03*
X0141255Y0090000D03*
M02*
