%
M48
M72
T01C0.0130
T02C0.0138
T03C0.0256
T04C0.0315
T05C0.0400
T06C0.1300
%
T01
X16626Y9500
X14788Y9625
X12976Y11725
X12051Y12175
X12051Y12600
X12959Y14236
X13926Y15250
X15176Y16250
X20951Y17700
X22526Y17750
X21726Y15450
X23301Y14375
X27851Y14850
X27901Y14025
X28626Y12000
X28126Y11000
X24126Y7000
X20151Y9550
X27876Y16300
X27476Y18050
T02
X21726Y10150
X21376Y9800
X14126Y9000
T03
X12057Y11362
X12057Y13638
T04
X13740Y10535
X16161Y8114
T05
X29126Y9500
X29126Y10500
X29126Y11500
X29126Y12500
X29126Y13500
X29126Y14500
X29126Y15500
T06
X10626Y7500
X28626Y7500
X28626Y17500
X10626Y17500
M30
