G75*
%MOIN*%
%OFA0B0*%
%FSLAX25Y25*%
%IPPOS*%
%LPD*%
%AMOC8*
5,1,8,0,0,1.08239X$1,22.5*
%
%ADD10C,0.01990*%
%ADD11R,0.04737X0.05131*%
%ADD12C,0.13800*%
%ADD13R,0.04343X0.03950*%
%ADD14R,0.10643X0.13398*%
%ADD15C,0.03950*%
%ADD16C,0.04737*%
%ADD17R,0.05524X0.03162*%
%ADD18R,0.04737X0.01981*%
%ADD19R,0.04737X0.03162*%
%ADD20C,0.03359*%
%ADD21C,0.00039*%
%ADD22R,0.05131X0.04737*%
%ADD23R,0.04146X0.07493*%
%ADD24C,0.08200*%
D10*
X0101429Y0091127D02*
X0101429Y0093873D01*
X0104175Y0093873D01*
X0104175Y0091127D01*
X0101429Y0091127D01*
X0101429Y0093017D02*
X0104175Y0093017D01*
X0108335Y0093873D02*
X0108335Y0091127D01*
X0108335Y0093873D02*
X0111081Y0093873D01*
X0111081Y0091127D01*
X0108335Y0091127D01*
X0108335Y0093017D02*
X0111081Y0093017D01*
D11*
X0116255Y0092904D03*
X0116255Y0099596D03*
X0166255Y0104154D03*
X0166255Y0110846D03*
X0135255Y0170154D03*
X0135255Y0176846D03*
D12*
X0106255Y0075000D03*
X0286255Y0075000D03*
X0286255Y0175000D03*
X0106255Y0175000D03*
D13*
X0160192Y0121240D03*
X0151924Y0117500D03*
X0160192Y0113760D03*
D14*
X0146255Y0105748D03*
X0146255Y0074252D03*
D15*
X0161609Y0081142D03*
X0137397Y0105354D03*
D16*
X0116255Y0085000D03*
X0251255Y0170000D03*
D17*
X0157279Y0162500D03*
X0157279Y0157500D03*
X0157279Y0152500D03*
X0157279Y0147500D03*
X0157279Y0142500D03*
X0157279Y0137500D03*
X0157279Y0132500D03*
X0157279Y0127500D03*
X0135231Y0127500D03*
X0135231Y0132500D03*
X0135231Y0137500D03*
X0135231Y0142500D03*
X0135231Y0147500D03*
X0135231Y0152500D03*
X0135231Y0157500D03*
X0135231Y0162500D03*
D18*
X0124916Y0131890D03*
X0124916Y0129921D03*
X0124916Y0127953D03*
X0124916Y0125984D03*
X0124916Y0124016D03*
X0124916Y0122047D03*
X0124916Y0120079D03*
X0124916Y0118110D03*
D19*
X0124916Y0115354D03*
X0124916Y0112303D03*
X0124916Y0134646D03*
X0124916Y0137697D03*
D20*
X0120566Y0136378D03*
X0120566Y0113622D03*
D21*
X0120271Y0110354D02*
X0119772Y0110274D01*
X0119304Y0110084D01*
X0118889Y0109795D01*
X0118549Y0109421D01*
X0118301Y0108981D01*
X0118158Y0108496D01*
X0118125Y0107992D01*
X0118158Y0107488D01*
X0118301Y0107003D01*
X0118549Y0106563D01*
X0118889Y0106189D01*
X0119304Y0105900D01*
X0119772Y0105711D01*
X0120271Y0105630D01*
X0124995Y0105630D01*
X0125437Y0105691D01*
X0125859Y0105837D01*
X0126243Y0106062D01*
X0126577Y0106358D01*
X0126846Y0106714D01*
X0127041Y0107115D01*
X0127154Y0107547D01*
X0127180Y0107992D01*
X0127154Y0108437D01*
X0127041Y0108869D01*
X0126846Y0109270D01*
X0126577Y0109626D01*
X0126243Y0109922D01*
X0125859Y0110147D01*
X0125437Y0110293D01*
X0124995Y0110354D01*
X0120271Y0110354D01*
X0120207Y0110344D02*
X0125070Y0110344D01*
X0125344Y0110306D02*
X0119973Y0110306D01*
X0119758Y0110268D02*
X0125509Y0110268D01*
X0125619Y0110230D02*
X0119665Y0110230D01*
X0119571Y0110193D02*
X0125728Y0110193D01*
X0125838Y0110155D02*
X0119478Y0110155D01*
X0119384Y0110117D02*
X0125911Y0110117D01*
X0125976Y0110079D02*
X0119296Y0110079D01*
X0119242Y0110041D02*
X0126040Y0110041D01*
X0126105Y0110003D02*
X0119187Y0110003D01*
X0119133Y0109965D02*
X0126170Y0109965D01*
X0126234Y0109927D02*
X0119079Y0109927D01*
X0119024Y0109889D02*
X0126280Y0109889D01*
X0126323Y0109852D02*
X0118970Y0109852D01*
X0118916Y0109814D02*
X0126365Y0109814D01*
X0126408Y0109776D02*
X0118872Y0109776D01*
X0118837Y0109738D02*
X0126451Y0109738D01*
X0126493Y0109700D02*
X0118803Y0109700D01*
X0118768Y0109662D02*
X0126536Y0109662D01*
X0126578Y0109624D02*
X0118734Y0109624D01*
X0118700Y0109586D02*
X0126607Y0109586D01*
X0126635Y0109549D02*
X0118665Y0109549D01*
X0118631Y0109511D02*
X0126664Y0109511D01*
X0126693Y0109473D02*
X0118596Y0109473D01*
X0118562Y0109435D02*
X0126722Y0109435D01*
X0126750Y0109397D02*
X0118536Y0109397D01*
X0118514Y0109359D02*
X0126779Y0109359D01*
X0126808Y0109321D02*
X0118493Y0109321D01*
X0118472Y0109283D02*
X0126836Y0109283D01*
X0126858Y0109245D02*
X0118450Y0109245D01*
X0118429Y0109208D02*
X0126877Y0109208D01*
X0126895Y0109170D02*
X0118408Y0109170D01*
X0118386Y0109132D02*
X0126913Y0109132D01*
X0126932Y0109094D02*
X0118365Y0109094D01*
X0118344Y0109056D02*
X0126950Y0109056D01*
X0126969Y0109018D02*
X0118322Y0109018D01*
X0118301Y0108980D02*
X0126987Y0108980D01*
X0127005Y0108942D02*
X0118290Y0108942D01*
X0118279Y0108905D02*
X0127024Y0108905D01*
X0127042Y0108867D02*
X0118267Y0108867D01*
X0118256Y0108829D02*
X0127052Y0108829D01*
X0127061Y0108791D02*
X0118245Y0108791D01*
X0118234Y0108753D02*
X0127071Y0108753D01*
X0127081Y0108715D02*
X0118223Y0108715D01*
X0118211Y0108677D02*
X0127091Y0108677D01*
X0127101Y0108639D02*
X0118200Y0108639D01*
X0118189Y0108601D02*
X0127111Y0108601D01*
X0127121Y0108564D02*
X0118178Y0108564D01*
X0118166Y0108526D02*
X0127131Y0108526D01*
X0127141Y0108488D02*
X0118157Y0108488D01*
X0118155Y0108450D02*
X0127151Y0108450D01*
X0127155Y0108412D02*
X0118152Y0108412D01*
X0118150Y0108374D02*
X0127158Y0108374D01*
X0127160Y0108336D02*
X0118147Y0108336D01*
X0118145Y0108298D02*
X0127162Y0108298D01*
X0127164Y0108261D02*
X0118142Y0108261D01*
X0118140Y0108223D02*
X0127167Y0108223D01*
X0127169Y0108185D02*
X0118138Y0108185D01*
X0118135Y0108147D02*
X0127171Y0108147D01*
X0127173Y0108109D02*
X0118133Y0108109D01*
X0118130Y0108071D02*
X0127176Y0108071D01*
X0127178Y0108033D02*
X0118128Y0108033D01*
X0118125Y0107995D02*
X0127180Y0107995D01*
X0127178Y0107958D02*
X0118127Y0107958D01*
X0118130Y0107920D02*
X0127176Y0107920D01*
X0127174Y0107882D02*
X0118132Y0107882D01*
X0118135Y0107844D02*
X0127171Y0107844D01*
X0127169Y0107806D02*
X0118137Y0107806D01*
X0118140Y0107768D02*
X0127167Y0107768D01*
X0127165Y0107730D02*
X0118142Y0107730D01*
X0118144Y0107692D02*
X0127162Y0107692D01*
X0127160Y0107654D02*
X0118147Y0107654D01*
X0118149Y0107617D02*
X0127158Y0107617D01*
X0127156Y0107579D02*
X0118152Y0107579D01*
X0118154Y0107541D02*
X0127152Y0107541D01*
X0127142Y0107503D02*
X0118157Y0107503D01*
X0118164Y0107465D02*
X0127132Y0107465D01*
X0127123Y0107427D02*
X0118176Y0107427D01*
X0118187Y0107389D02*
X0127113Y0107389D01*
X0127103Y0107351D02*
X0118198Y0107351D01*
X0118209Y0107314D02*
X0127093Y0107314D01*
X0127083Y0107276D02*
X0118221Y0107276D01*
X0118232Y0107238D02*
X0127073Y0107238D01*
X0127063Y0107200D02*
X0118243Y0107200D01*
X0118254Y0107162D02*
X0127053Y0107162D01*
X0127043Y0107124D02*
X0118266Y0107124D01*
X0118277Y0107086D02*
X0127027Y0107086D01*
X0127009Y0107048D02*
X0118288Y0107048D01*
X0118299Y0107010D02*
X0126990Y0107010D01*
X0126972Y0106973D02*
X0118319Y0106973D01*
X0118340Y0106935D02*
X0126953Y0106935D01*
X0126935Y0106897D02*
X0118361Y0106897D01*
X0118383Y0106859D02*
X0126917Y0106859D01*
X0126898Y0106821D02*
X0118404Y0106821D01*
X0118425Y0106783D02*
X0126880Y0106783D01*
X0126861Y0106745D02*
X0118447Y0106745D01*
X0118468Y0106707D02*
X0126841Y0106707D01*
X0126813Y0106670D02*
X0118489Y0106670D01*
X0118511Y0106632D02*
X0126784Y0106632D01*
X0126755Y0106594D02*
X0118532Y0106594D01*
X0118556Y0106556D02*
X0126727Y0106556D01*
X0126698Y0106518D02*
X0118590Y0106518D01*
X0118625Y0106480D02*
X0126669Y0106480D01*
X0126640Y0106442D02*
X0118659Y0106442D01*
X0118694Y0106404D02*
X0126612Y0106404D01*
X0126583Y0106366D02*
X0118728Y0106366D01*
X0118762Y0106329D02*
X0126543Y0106329D01*
X0126501Y0106291D02*
X0118797Y0106291D01*
X0118831Y0106253D02*
X0126458Y0106253D01*
X0126415Y0106215D02*
X0118866Y0106215D01*
X0118906Y0106177D02*
X0126373Y0106177D01*
X0126330Y0106139D02*
X0118961Y0106139D01*
X0119015Y0106101D02*
X0126287Y0106101D01*
X0126245Y0106063D02*
X0119069Y0106063D01*
X0119124Y0106026D02*
X0126181Y0106026D01*
X0126116Y0105988D02*
X0119178Y0105988D01*
X0119232Y0105950D02*
X0126051Y0105950D01*
X0125987Y0105912D02*
X0119287Y0105912D01*
X0119368Y0105874D02*
X0125922Y0105874D01*
X0125856Y0105836D02*
X0119462Y0105836D01*
X0119555Y0105798D02*
X0125747Y0105798D01*
X0125638Y0105760D02*
X0119649Y0105760D01*
X0119742Y0105723D02*
X0125528Y0105723D01*
X0125392Y0105685D02*
X0119932Y0105685D01*
X0120167Y0105647D02*
X0125117Y0105647D01*
X0109692Y0107530D02*
X0109555Y0107085D01*
X0109334Y0106676D01*
X0109038Y0106318D01*
X0108677Y0106024D01*
X0108266Y0105807D01*
X0107820Y0105674D01*
X0107357Y0105630D01*
X0104995Y0105630D01*
X0104536Y0105677D01*
X0104096Y0105813D01*
X0103690Y0106032D01*
X0103335Y0106326D01*
X0103044Y0106684D01*
X0102828Y0107091D01*
X0102696Y0107533D01*
X0102653Y0107992D01*
X0102709Y0108516D01*
X0102881Y0109014D01*
X0103160Y0109461D01*
X0103531Y0109835D01*
X0103976Y0110117D01*
X0104472Y0110293D01*
X0104995Y0110354D01*
X0107357Y0110354D01*
X0107886Y0110297D01*
X0108388Y0110124D01*
X0108839Y0109843D01*
X0109216Y0109469D01*
X0109500Y0109020D01*
X0109678Y0108520D01*
X0109739Y0107992D01*
X0109692Y0107530D01*
X0109693Y0107541D02*
X0102695Y0107541D01*
X0102692Y0107579D02*
X0109697Y0107579D01*
X0109701Y0107617D02*
X0102688Y0107617D01*
X0102685Y0107654D02*
X0109705Y0107654D01*
X0109709Y0107692D02*
X0102681Y0107692D01*
X0102677Y0107730D02*
X0109712Y0107730D01*
X0109716Y0107768D02*
X0102674Y0107768D01*
X0102670Y0107806D02*
X0109720Y0107806D01*
X0109724Y0107844D02*
X0102667Y0107844D01*
X0102663Y0107882D02*
X0109728Y0107882D01*
X0109732Y0107920D02*
X0102660Y0107920D01*
X0102656Y0107958D02*
X0109736Y0107958D01*
X0109739Y0107995D02*
X0102653Y0107995D01*
X0102657Y0108033D02*
X0109735Y0108033D01*
X0109730Y0108071D02*
X0102661Y0108071D01*
X0102665Y0108109D02*
X0109726Y0108109D01*
X0109721Y0108147D02*
X0102669Y0108147D01*
X0102674Y0108185D02*
X0109717Y0108185D01*
X0109712Y0108223D02*
X0102678Y0108223D01*
X0102682Y0108261D02*
X0109708Y0108261D01*
X0109704Y0108298D02*
X0102686Y0108298D01*
X0102690Y0108336D02*
X0109699Y0108336D01*
X0109695Y0108374D02*
X0102694Y0108374D01*
X0102698Y0108412D02*
X0109690Y0108412D01*
X0109686Y0108450D02*
X0102702Y0108450D01*
X0102706Y0108488D02*
X0109681Y0108488D01*
X0109676Y0108526D02*
X0102713Y0108526D01*
X0102726Y0108564D02*
X0109662Y0108564D01*
X0109649Y0108601D02*
X0102739Y0108601D01*
X0102752Y0108639D02*
X0109635Y0108639D01*
X0109622Y0108677D02*
X0102765Y0108677D01*
X0102778Y0108715D02*
X0109608Y0108715D01*
X0109595Y0108753D02*
X0102791Y0108753D01*
X0102804Y0108791D02*
X0109581Y0108791D01*
X0109568Y0108829D02*
X0102818Y0108829D01*
X0102831Y0108867D02*
X0109555Y0108867D01*
X0109541Y0108905D02*
X0102844Y0108905D01*
X0102857Y0108942D02*
X0109528Y0108942D01*
X0109514Y0108980D02*
X0102870Y0108980D01*
X0102884Y0109018D02*
X0109501Y0109018D01*
X0109477Y0109056D02*
X0102908Y0109056D01*
X0102931Y0109094D02*
X0109453Y0109094D01*
X0109429Y0109132D02*
X0102955Y0109132D01*
X0102978Y0109170D02*
X0109405Y0109170D01*
X0109381Y0109208D02*
X0103002Y0109208D01*
X0103026Y0109245D02*
X0109357Y0109245D01*
X0109333Y0109283D02*
X0103049Y0109283D01*
X0103073Y0109321D02*
X0109309Y0109321D01*
X0109285Y0109359D02*
X0103096Y0109359D01*
X0103120Y0109397D02*
X0109261Y0109397D01*
X0109237Y0109435D02*
X0103144Y0109435D01*
X0103171Y0109473D02*
X0109212Y0109473D01*
X0109174Y0109511D02*
X0103209Y0109511D01*
X0103247Y0109549D02*
X0109135Y0109549D01*
X0109097Y0109586D02*
X0103284Y0109586D01*
X0103322Y0109624D02*
X0109059Y0109624D01*
X0109021Y0109662D02*
X0103359Y0109662D01*
X0103397Y0109700D02*
X0108983Y0109700D01*
X0108944Y0109738D02*
X0103434Y0109738D01*
X0103472Y0109776D02*
X0108906Y0109776D01*
X0108868Y0109814D02*
X0103510Y0109814D01*
X0103557Y0109852D02*
X0108825Y0109852D01*
X0108764Y0109889D02*
X0103617Y0109889D01*
X0103676Y0109927D02*
X0108703Y0109927D01*
X0108642Y0109965D02*
X0103736Y0109965D01*
X0103796Y0110003D02*
X0108581Y0110003D01*
X0108520Y0110041D02*
X0103856Y0110041D01*
X0103915Y0110079D02*
X0108460Y0110079D01*
X0108399Y0110117D02*
X0103975Y0110117D01*
X0104081Y0110155D02*
X0108298Y0110155D01*
X0108188Y0110193D02*
X0104188Y0110193D01*
X0104295Y0110230D02*
X0108079Y0110230D01*
X0107969Y0110268D02*
X0104402Y0110268D01*
X0104583Y0110306D02*
X0107802Y0110306D01*
X0107452Y0110344D02*
X0104907Y0110344D01*
X0102705Y0107503D02*
X0109684Y0107503D01*
X0109672Y0107465D02*
X0102716Y0107465D01*
X0102728Y0107427D02*
X0109660Y0107427D01*
X0109649Y0107389D02*
X0102739Y0107389D01*
X0102750Y0107351D02*
X0109637Y0107351D01*
X0109625Y0107314D02*
X0102762Y0107314D01*
X0102773Y0107276D02*
X0109614Y0107276D01*
X0109602Y0107238D02*
X0102784Y0107238D01*
X0102796Y0107200D02*
X0109590Y0107200D01*
X0109579Y0107162D02*
X0102807Y0107162D01*
X0102818Y0107124D02*
X0109567Y0107124D01*
X0109555Y0107086D02*
X0102831Y0107086D01*
X0102851Y0107048D02*
X0109535Y0107048D01*
X0109515Y0107010D02*
X0102871Y0107010D01*
X0102891Y0106973D02*
X0109494Y0106973D01*
X0109474Y0106935D02*
X0102911Y0106935D01*
X0102931Y0106897D02*
X0109453Y0106897D01*
X0109433Y0106859D02*
X0102951Y0106859D01*
X0102971Y0106821D02*
X0109412Y0106821D01*
X0109392Y0106783D02*
X0102991Y0106783D01*
X0103011Y0106745D02*
X0109372Y0106745D01*
X0109351Y0106707D02*
X0103031Y0106707D01*
X0103055Y0106670D02*
X0109329Y0106670D01*
X0109297Y0106632D02*
X0103086Y0106632D01*
X0103117Y0106594D02*
X0109266Y0106594D01*
X0109235Y0106556D02*
X0103148Y0106556D01*
X0103178Y0106518D02*
X0109203Y0106518D01*
X0109172Y0106480D02*
X0103209Y0106480D01*
X0103240Y0106442D02*
X0109141Y0106442D01*
X0109109Y0106404D02*
X0103271Y0106404D01*
X0103302Y0106366D02*
X0109078Y0106366D01*
X0109047Y0106329D02*
X0103333Y0106329D01*
X0103377Y0106291D02*
X0109004Y0106291D01*
X0108958Y0106253D02*
X0103423Y0106253D01*
X0103469Y0106215D02*
X0108911Y0106215D01*
X0108865Y0106177D02*
X0103515Y0106177D01*
X0103560Y0106139D02*
X0108818Y0106139D01*
X0108772Y0106101D02*
X0103606Y0106101D01*
X0103652Y0106063D02*
X0108725Y0106063D01*
X0108679Y0106026D02*
X0103702Y0106026D01*
X0103772Y0105988D02*
X0108608Y0105988D01*
X0108536Y0105950D02*
X0103842Y0105950D01*
X0103912Y0105912D02*
X0108465Y0105912D01*
X0108393Y0105874D02*
X0103982Y0105874D01*
X0104052Y0105836D02*
X0108322Y0105836D01*
X0108238Y0105798D02*
X0104143Y0105798D01*
X0104266Y0105760D02*
X0108111Y0105760D01*
X0107984Y0105723D02*
X0104389Y0105723D01*
X0104512Y0105685D02*
X0107857Y0105685D01*
X0107536Y0105647D02*
X0104831Y0105647D01*
X0104995Y0139646D02*
X0104536Y0139693D01*
X0104096Y0139828D01*
X0103690Y0140048D01*
X0103335Y0140342D01*
X0103044Y0140699D01*
X0102828Y0141107D01*
X0102696Y0141549D01*
X0102653Y0142008D01*
X0102709Y0142532D01*
X0102881Y0143030D01*
X0103160Y0143477D01*
X0103531Y0143851D01*
X0103976Y0144133D01*
X0104472Y0144309D01*
X0104995Y0144370D01*
X0107357Y0144370D01*
X0107886Y0144313D01*
X0108388Y0144139D01*
X0108839Y0143859D01*
X0109216Y0143485D01*
X0109500Y0143036D01*
X0109678Y0142535D01*
X0109739Y0142008D01*
X0109692Y0141545D01*
X0109555Y0141101D01*
X0109334Y0140692D01*
X0109038Y0140333D01*
X0108677Y0140040D01*
X0108266Y0139822D01*
X0107820Y0139689D01*
X0107357Y0139646D01*
X0104995Y0139646D01*
X0104814Y0139664D02*
X0107554Y0139664D01*
X0107863Y0139702D02*
X0104506Y0139702D01*
X0104383Y0139740D02*
X0107990Y0139740D01*
X0108117Y0139778D02*
X0104260Y0139778D01*
X0104137Y0139816D02*
X0108243Y0139816D01*
X0108325Y0139854D02*
X0104049Y0139854D01*
X0103979Y0139892D02*
X0108396Y0139892D01*
X0108468Y0139929D02*
X0103909Y0139929D01*
X0103839Y0139967D02*
X0108540Y0139967D01*
X0108611Y0140005D02*
X0103769Y0140005D01*
X0103698Y0140043D02*
X0108681Y0140043D01*
X0108727Y0140081D02*
X0103650Y0140081D01*
X0103604Y0140119D02*
X0108774Y0140119D01*
X0108820Y0140157D02*
X0103558Y0140157D01*
X0103512Y0140195D02*
X0108867Y0140195D01*
X0108913Y0140232D02*
X0103467Y0140232D01*
X0103421Y0140270D02*
X0108960Y0140270D01*
X0109007Y0140308D02*
X0103375Y0140308D01*
X0103331Y0140346D02*
X0109048Y0140346D01*
X0109079Y0140384D02*
X0103300Y0140384D01*
X0103269Y0140422D02*
X0109111Y0140422D01*
X0109142Y0140460D02*
X0103239Y0140460D01*
X0103208Y0140498D02*
X0109173Y0140498D01*
X0109205Y0140536D02*
X0103177Y0140536D01*
X0103146Y0140573D02*
X0109236Y0140573D01*
X0109268Y0140611D02*
X0103115Y0140611D01*
X0103085Y0140649D02*
X0109299Y0140649D01*
X0109330Y0140687D02*
X0103054Y0140687D01*
X0103030Y0140725D02*
X0109352Y0140725D01*
X0109372Y0140763D02*
X0103010Y0140763D01*
X0102990Y0140801D02*
X0109393Y0140801D01*
X0109413Y0140839D02*
X0102970Y0140839D01*
X0102950Y0140876D02*
X0109434Y0140876D01*
X0109454Y0140914D02*
X0102930Y0140914D01*
X0102910Y0140952D02*
X0109475Y0140952D01*
X0109495Y0140990D02*
X0102890Y0140990D01*
X0102870Y0141028D02*
X0109516Y0141028D01*
X0109536Y0141066D02*
X0102850Y0141066D01*
X0102830Y0141104D02*
X0109556Y0141104D01*
X0109568Y0141142D02*
X0102818Y0141142D01*
X0102806Y0141179D02*
X0109579Y0141179D01*
X0109591Y0141217D02*
X0102795Y0141217D01*
X0102784Y0141255D02*
X0109603Y0141255D01*
X0109614Y0141293D02*
X0102772Y0141293D01*
X0102761Y0141331D02*
X0109626Y0141331D01*
X0109638Y0141369D02*
X0102750Y0141369D01*
X0102738Y0141407D02*
X0109649Y0141407D01*
X0109661Y0141445D02*
X0102727Y0141445D01*
X0102716Y0141483D02*
X0109673Y0141483D01*
X0109684Y0141520D02*
X0102704Y0141520D01*
X0102695Y0141558D02*
X0109693Y0141558D01*
X0109697Y0141596D02*
X0102692Y0141596D01*
X0102688Y0141634D02*
X0109701Y0141634D01*
X0109705Y0141672D02*
X0102684Y0141672D01*
X0102681Y0141710D02*
X0109709Y0141710D01*
X0109713Y0141748D02*
X0102677Y0141748D01*
X0102674Y0141786D02*
X0109716Y0141786D01*
X0109720Y0141823D02*
X0102670Y0141823D01*
X0102667Y0141861D02*
X0109724Y0141861D01*
X0109728Y0141899D02*
X0102663Y0141899D01*
X0102659Y0141937D02*
X0109732Y0141937D01*
X0109736Y0141975D02*
X0102656Y0141975D01*
X0102653Y0142013D02*
X0109739Y0142013D01*
X0109734Y0142051D02*
X0102657Y0142051D01*
X0102661Y0142089D02*
X0109730Y0142089D01*
X0109725Y0142127D02*
X0102666Y0142127D01*
X0102670Y0142164D02*
X0109721Y0142164D01*
X0109717Y0142202D02*
X0102674Y0142202D01*
X0102678Y0142240D02*
X0109712Y0142240D01*
X0109708Y0142278D02*
X0102682Y0142278D01*
X0102686Y0142316D02*
X0109703Y0142316D01*
X0109699Y0142354D02*
X0102690Y0142354D01*
X0102694Y0142392D02*
X0109694Y0142392D01*
X0109690Y0142430D02*
X0102698Y0142430D01*
X0102703Y0142467D02*
X0109686Y0142467D01*
X0109681Y0142505D02*
X0102707Y0142505D01*
X0102714Y0142543D02*
X0109675Y0142543D01*
X0109661Y0142581D02*
X0102727Y0142581D01*
X0102740Y0142619D02*
X0109648Y0142619D01*
X0109635Y0142657D02*
X0102753Y0142657D01*
X0102766Y0142695D02*
X0109621Y0142695D01*
X0109608Y0142733D02*
X0102779Y0142733D01*
X0102792Y0142771D02*
X0109594Y0142771D01*
X0109581Y0142808D02*
X0102805Y0142808D01*
X0102818Y0142846D02*
X0109567Y0142846D01*
X0109554Y0142884D02*
X0102831Y0142884D01*
X0102844Y0142922D02*
X0109541Y0142922D01*
X0109527Y0142960D02*
X0102857Y0142960D01*
X0102870Y0142998D02*
X0109514Y0142998D01*
X0109500Y0143036D02*
X0102885Y0143036D01*
X0102909Y0143074D02*
X0109476Y0143074D01*
X0109452Y0143111D02*
X0102932Y0143111D01*
X0102956Y0143149D02*
X0109428Y0143149D01*
X0109404Y0143187D02*
X0102980Y0143187D01*
X0103003Y0143225D02*
X0109380Y0143225D01*
X0109356Y0143263D02*
X0103027Y0143263D01*
X0103050Y0143301D02*
X0109332Y0143301D01*
X0109308Y0143339D02*
X0103074Y0143339D01*
X0103097Y0143377D02*
X0109284Y0143377D01*
X0109260Y0143414D02*
X0103121Y0143414D01*
X0103145Y0143452D02*
X0109236Y0143452D01*
X0109210Y0143490D02*
X0103173Y0143490D01*
X0103211Y0143528D02*
X0109172Y0143528D01*
X0109134Y0143566D02*
X0103248Y0143566D01*
X0103286Y0143604D02*
X0109095Y0143604D01*
X0109057Y0143642D02*
X0103323Y0143642D01*
X0103361Y0143680D02*
X0109019Y0143680D01*
X0108981Y0143718D02*
X0103399Y0143718D01*
X0103436Y0143755D02*
X0108943Y0143755D01*
X0108904Y0143793D02*
X0103474Y0143793D01*
X0103511Y0143831D02*
X0108866Y0143831D01*
X0108822Y0143869D02*
X0103560Y0143869D01*
X0103619Y0143907D02*
X0108761Y0143907D01*
X0108700Y0143945D02*
X0103679Y0143945D01*
X0103739Y0143983D02*
X0108639Y0143983D01*
X0108578Y0144021D02*
X0103799Y0144021D01*
X0103858Y0144058D02*
X0108518Y0144058D01*
X0108457Y0144096D02*
X0103918Y0144096D01*
X0103979Y0144134D02*
X0108396Y0144134D01*
X0108293Y0144172D02*
X0104086Y0144172D01*
X0104193Y0144210D02*
X0108183Y0144210D01*
X0108074Y0144248D02*
X0104300Y0144248D01*
X0104407Y0144286D02*
X0107964Y0144286D01*
X0107785Y0144324D02*
X0104598Y0144324D01*
X0104922Y0144362D02*
X0107436Y0144362D01*
X0118158Y0142512D02*
X0118125Y0142008D01*
X0118158Y0141504D01*
X0118301Y0141019D01*
X0118549Y0140579D01*
X0118889Y0140205D01*
X0119304Y0139916D01*
X0119772Y0139726D01*
X0120271Y0139646D01*
X0124995Y0139646D01*
X0125437Y0139707D01*
X0125859Y0139853D01*
X0126243Y0140078D01*
X0126577Y0140374D01*
X0126846Y0140730D01*
X0127041Y0141131D01*
X0127154Y0141563D01*
X0127180Y0142008D01*
X0127154Y0142453D01*
X0127041Y0142885D01*
X0126846Y0143286D01*
X0126577Y0143642D01*
X0118736Y0143642D01*
X0118770Y0143680D02*
X0126534Y0143680D01*
X0126491Y0143718D02*
X0118804Y0143718D01*
X0118839Y0143755D02*
X0126449Y0143755D01*
X0126406Y0143793D02*
X0118873Y0143793D01*
X0118889Y0143811D02*
X0119304Y0144100D01*
X0119772Y0144289D01*
X0120271Y0144370D01*
X0124995Y0144370D01*
X0125437Y0144309D01*
X0125859Y0144163D01*
X0126243Y0143938D01*
X0126577Y0143642D01*
X0126605Y0143604D02*
X0118701Y0143604D01*
X0118667Y0143566D02*
X0126634Y0143566D01*
X0126663Y0143528D02*
X0118632Y0143528D01*
X0118598Y0143490D02*
X0126692Y0143490D01*
X0126720Y0143452D02*
X0118564Y0143452D01*
X0118549Y0143437D02*
X0118889Y0143811D01*
X0118918Y0143831D02*
X0126363Y0143831D01*
X0126321Y0143869D02*
X0118973Y0143869D01*
X0119027Y0143907D02*
X0126278Y0143907D01*
X0126231Y0143945D02*
X0119081Y0143945D01*
X0119136Y0143983D02*
X0126167Y0143983D01*
X0126102Y0144021D02*
X0119190Y0144021D01*
X0119244Y0144058D02*
X0126037Y0144058D01*
X0125973Y0144096D02*
X0119299Y0144096D01*
X0119388Y0144134D02*
X0125908Y0144134D01*
X0125833Y0144172D02*
X0119482Y0144172D01*
X0119576Y0144210D02*
X0125723Y0144210D01*
X0125614Y0144248D02*
X0119669Y0144248D01*
X0119763Y0144286D02*
X0125504Y0144286D01*
X0125332Y0144324D02*
X0119983Y0144324D01*
X0120218Y0144362D02*
X0125057Y0144362D01*
X0126749Y0143414D02*
X0118537Y0143414D01*
X0118549Y0143437D02*
X0118301Y0142997D01*
X0118158Y0142512D01*
X0118157Y0142505D02*
X0127140Y0142505D01*
X0127150Y0142467D02*
X0118155Y0142467D01*
X0118152Y0142430D02*
X0127155Y0142430D01*
X0127158Y0142392D02*
X0118150Y0142392D01*
X0118147Y0142354D02*
X0127160Y0142354D01*
X0127162Y0142316D02*
X0118145Y0142316D01*
X0118143Y0142278D02*
X0127164Y0142278D01*
X0127166Y0142240D02*
X0118140Y0142240D01*
X0118138Y0142202D02*
X0127169Y0142202D01*
X0127171Y0142164D02*
X0118135Y0142164D01*
X0118133Y0142127D02*
X0127173Y0142127D01*
X0127175Y0142089D02*
X0118130Y0142089D01*
X0118128Y0142051D02*
X0127178Y0142051D01*
X0127180Y0142013D02*
X0118125Y0142013D01*
X0118127Y0141975D02*
X0127178Y0141975D01*
X0127176Y0141937D02*
X0118130Y0141937D01*
X0118132Y0141899D02*
X0127174Y0141899D01*
X0127172Y0141861D02*
X0118135Y0141861D01*
X0118137Y0141823D02*
X0127169Y0141823D01*
X0127167Y0141786D02*
X0118139Y0141786D01*
X0118142Y0141748D02*
X0127165Y0141748D01*
X0127163Y0141710D02*
X0118144Y0141710D01*
X0118147Y0141672D02*
X0127160Y0141672D01*
X0127158Y0141634D02*
X0118149Y0141634D01*
X0118152Y0141596D02*
X0127156Y0141596D01*
X0127153Y0141558D02*
X0118154Y0141558D01*
X0118156Y0141520D02*
X0127143Y0141520D01*
X0127133Y0141483D02*
X0118164Y0141483D01*
X0118175Y0141445D02*
X0127123Y0141445D01*
X0127113Y0141407D02*
X0118186Y0141407D01*
X0118198Y0141369D02*
X0127103Y0141369D01*
X0127093Y0141331D02*
X0118209Y0141331D01*
X0118220Y0141293D02*
X0127083Y0141293D01*
X0127074Y0141255D02*
X0118231Y0141255D01*
X0118243Y0141217D02*
X0127064Y0141217D01*
X0127054Y0141179D02*
X0118254Y0141179D01*
X0118265Y0141142D02*
X0127044Y0141142D01*
X0127028Y0141104D02*
X0118276Y0141104D01*
X0118288Y0141066D02*
X0127009Y0141066D01*
X0126991Y0141028D02*
X0118299Y0141028D01*
X0118318Y0140990D02*
X0126973Y0140990D01*
X0126954Y0140952D02*
X0118339Y0140952D01*
X0118360Y0140914D02*
X0126936Y0140914D01*
X0126918Y0140876D02*
X0118382Y0140876D01*
X0118403Y0140839D02*
X0126899Y0140839D01*
X0126881Y0140801D02*
X0118424Y0140801D01*
X0118446Y0140763D02*
X0126862Y0140763D01*
X0126843Y0140725D02*
X0118467Y0140725D01*
X0118489Y0140687D02*
X0126814Y0140687D01*
X0126785Y0140649D02*
X0118510Y0140649D01*
X0118531Y0140611D02*
X0126757Y0140611D01*
X0126728Y0140573D02*
X0118554Y0140573D01*
X0118589Y0140536D02*
X0126699Y0140536D01*
X0126670Y0140498D02*
X0118623Y0140498D01*
X0118658Y0140460D02*
X0126642Y0140460D01*
X0126613Y0140422D02*
X0118692Y0140422D01*
X0118726Y0140384D02*
X0126584Y0140384D01*
X0126545Y0140346D02*
X0118761Y0140346D01*
X0118795Y0140308D02*
X0126503Y0140308D01*
X0126460Y0140270D02*
X0118830Y0140270D01*
X0118864Y0140232D02*
X0126417Y0140232D01*
X0126375Y0140195D02*
X0118904Y0140195D01*
X0118958Y0140157D02*
X0126332Y0140157D01*
X0126289Y0140119D02*
X0119013Y0140119D01*
X0119067Y0140081D02*
X0126247Y0140081D01*
X0126184Y0140043D02*
X0119121Y0140043D01*
X0119176Y0140005D02*
X0126119Y0140005D01*
X0126054Y0139967D02*
X0119230Y0139967D01*
X0119284Y0139929D02*
X0125990Y0139929D01*
X0125925Y0139892D02*
X0119364Y0139892D01*
X0119457Y0139854D02*
X0125860Y0139854D01*
X0125752Y0139816D02*
X0119551Y0139816D01*
X0119644Y0139778D02*
X0125643Y0139778D01*
X0125533Y0139740D02*
X0119738Y0139740D01*
X0119921Y0139702D02*
X0125404Y0139702D01*
X0125130Y0139664D02*
X0120156Y0139664D01*
X0118167Y0142543D02*
X0127130Y0142543D01*
X0127120Y0142581D02*
X0118178Y0142581D01*
X0118189Y0142619D02*
X0127111Y0142619D01*
X0127101Y0142657D02*
X0118201Y0142657D01*
X0118212Y0142695D02*
X0127091Y0142695D01*
X0127081Y0142733D02*
X0118223Y0142733D01*
X0118234Y0142771D02*
X0127071Y0142771D01*
X0127061Y0142808D02*
X0118246Y0142808D01*
X0118257Y0142846D02*
X0127051Y0142846D01*
X0127041Y0142884D02*
X0118268Y0142884D01*
X0118279Y0142922D02*
X0127023Y0142922D01*
X0127005Y0142960D02*
X0118291Y0142960D01*
X0118302Y0142998D02*
X0126986Y0142998D01*
X0126968Y0143036D02*
X0118323Y0143036D01*
X0118345Y0143074D02*
X0126949Y0143074D01*
X0126931Y0143111D02*
X0118366Y0143111D01*
X0118387Y0143149D02*
X0126913Y0143149D01*
X0126894Y0143187D02*
X0118409Y0143187D01*
X0118430Y0143225D02*
X0126876Y0143225D01*
X0126857Y0143263D02*
X0118451Y0143263D01*
X0118473Y0143301D02*
X0126835Y0143301D01*
X0126806Y0143339D02*
X0118494Y0143339D01*
X0118515Y0143377D02*
X0126778Y0143377D01*
D22*
X0109602Y0150000D03*
X0102909Y0150000D03*
X0142909Y0170000D03*
X0149602Y0170000D03*
X0149602Y0177500D03*
X0142909Y0177500D03*
X0109602Y0100000D03*
X0102909Y0100000D03*
X0227909Y0070000D03*
X0234602Y0070000D03*
D23*
X0233040Y0089574D03*
X0217292Y0089574D03*
X0201544Y0089574D03*
X0209418Y0101385D03*
X0225166Y0101385D03*
X0217292Y0148674D03*
X0201544Y0148674D03*
X0209418Y0160485D03*
X0225166Y0160485D03*
X0240914Y0160485D03*
X0233040Y0148674D03*
X0248788Y0148674D03*
D24*
X0291255Y0145000D03*
X0291255Y0155000D03*
X0291255Y0135000D03*
X0291255Y0125000D03*
X0291255Y0115000D03*
X0291255Y0105000D03*
X0291255Y0095000D03*
M02*
