G75*
%MOIN*%
%OFA0B0*%
%FSLAX25Y25*%
%IPPOS*%
%LPD*%
%AMOC8*
5,1,8,0,0,1.08239X$1,22.5*
%
%ADD10C,0.00039*%
D10*
X0104995Y0106811D02*
X0107436Y0106811D01*
X0107503Y0106813D01*
X0107571Y0106819D01*
X0107637Y0106828D01*
X0107703Y0106842D01*
X0107769Y0106859D01*
X0107833Y0106880D01*
X0107896Y0106904D01*
X0107957Y0106932D01*
X0108017Y0106964D01*
X0108074Y0106998D01*
X0108130Y0107037D01*
X0108184Y0107078D01*
X0108235Y0107122D01*
X0108283Y0107169D01*
X0108329Y0107219D01*
X0108371Y0107271D01*
X0108411Y0107325D01*
X0108447Y0107382D01*
X0108481Y0107441D01*
X0108510Y0107501D01*
X0108537Y0107564D01*
X0108559Y0107627D01*
X0108578Y0107692D01*
X0108593Y0107757D01*
X0108605Y0107824D01*
X0108613Y0107891D01*
X0108617Y0107958D01*
X0108617Y0108026D01*
X0108613Y0108093D01*
X0108605Y0108160D01*
X0108593Y0108227D01*
X0108578Y0108292D01*
X0108559Y0108357D01*
X0108537Y0108420D01*
X0108510Y0108483D01*
X0108481Y0108543D01*
X0108447Y0108602D01*
X0108411Y0108659D01*
X0108371Y0108713D01*
X0108329Y0108765D01*
X0108283Y0108815D01*
X0108235Y0108862D01*
X0108184Y0108906D01*
X0108130Y0108947D01*
X0108074Y0108986D01*
X0108017Y0109020D01*
X0107957Y0109052D01*
X0107896Y0109080D01*
X0107833Y0109104D01*
X0107769Y0109125D01*
X0107703Y0109142D01*
X0107637Y0109156D01*
X0107571Y0109165D01*
X0107503Y0109171D01*
X0107436Y0109173D01*
X0104995Y0109173D01*
X0104928Y0109171D01*
X0104860Y0109165D01*
X0104794Y0109156D01*
X0104728Y0109142D01*
X0104662Y0109125D01*
X0104598Y0109104D01*
X0104535Y0109080D01*
X0104474Y0109052D01*
X0104414Y0109020D01*
X0104357Y0108986D01*
X0104301Y0108947D01*
X0104247Y0108906D01*
X0104196Y0108862D01*
X0104148Y0108815D01*
X0104102Y0108765D01*
X0104060Y0108713D01*
X0104020Y0108659D01*
X0103984Y0108602D01*
X0103950Y0108543D01*
X0103921Y0108483D01*
X0103894Y0108420D01*
X0103872Y0108357D01*
X0103853Y0108292D01*
X0103838Y0108227D01*
X0103826Y0108160D01*
X0103818Y0108093D01*
X0103814Y0108026D01*
X0103814Y0107958D01*
X0103818Y0107891D01*
X0103826Y0107824D01*
X0103838Y0107757D01*
X0103853Y0107692D01*
X0103872Y0107627D01*
X0103894Y0107564D01*
X0103921Y0107501D01*
X0103950Y0107441D01*
X0103984Y0107382D01*
X0104020Y0107325D01*
X0104060Y0107271D01*
X0104102Y0107219D01*
X0104148Y0107169D01*
X0104196Y0107122D01*
X0104247Y0107078D01*
X0104301Y0107037D01*
X0104357Y0106998D01*
X0104414Y0106964D01*
X0104474Y0106932D01*
X0104535Y0106904D01*
X0104598Y0106880D01*
X0104662Y0106859D01*
X0104728Y0106842D01*
X0104794Y0106828D01*
X0104860Y0106819D01*
X0104928Y0106813D01*
X0104995Y0106811D01*
X0120487Y0106811D02*
X0124818Y0106811D01*
X0124885Y0106813D01*
X0124953Y0106819D01*
X0125019Y0106828D01*
X0125085Y0106842D01*
X0125151Y0106859D01*
X0125215Y0106880D01*
X0125278Y0106904D01*
X0125339Y0106932D01*
X0125399Y0106964D01*
X0125456Y0106998D01*
X0125512Y0107037D01*
X0125566Y0107078D01*
X0125617Y0107122D01*
X0125665Y0107169D01*
X0125711Y0107219D01*
X0125753Y0107271D01*
X0125793Y0107325D01*
X0125829Y0107382D01*
X0125863Y0107441D01*
X0125892Y0107501D01*
X0125919Y0107564D01*
X0125941Y0107627D01*
X0125960Y0107692D01*
X0125975Y0107757D01*
X0125987Y0107824D01*
X0125995Y0107891D01*
X0125999Y0107958D01*
X0125999Y0108026D01*
X0125995Y0108093D01*
X0125987Y0108160D01*
X0125975Y0108227D01*
X0125960Y0108292D01*
X0125941Y0108357D01*
X0125919Y0108420D01*
X0125892Y0108483D01*
X0125863Y0108543D01*
X0125829Y0108602D01*
X0125793Y0108659D01*
X0125753Y0108713D01*
X0125711Y0108765D01*
X0125665Y0108815D01*
X0125617Y0108862D01*
X0125566Y0108906D01*
X0125512Y0108947D01*
X0125456Y0108986D01*
X0125399Y0109020D01*
X0125339Y0109052D01*
X0125278Y0109080D01*
X0125215Y0109104D01*
X0125151Y0109125D01*
X0125085Y0109142D01*
X0125019Y0109156D01*
X0124953Y0109165D01*
X0124885Y0109171D01*
X0124818Y0109173D01*
X0120487Y0109173D01*
X0120420Y0109171D01*
X0120352Y0109165D01*
X0120286Y0109156D01*
X0120220Y0109142D01*
X0120154Y0109125D01*
X0120090Y0109104D01*
X0120027Y0109080D01*
X0119966Y0109052D01*
X0119906Y0109020D01*
X0119849Y0108986D01*
X0119793Y0108947D01*
X0119739Y0108906D01*
X0119688Y0108862D01*
X0119640Y0108815D01*
X0119594Y0108765D01*
X0119552Y0108713D01*
X0119512Y0108659D01*
X0119476Y0108602D01*
X0119442Y0108543D01*
X0119413Y0108483D01*
X0119386Y0108420D01*
X0119364Y0108357D01*
X0119345Y0108292D01*
X0119330Y0108227D01*
X0119318Y0108160D01*
X0119310Y0108093D01*
X0119306Y0108026D01*
X0119306Y0107958D01*
X0119310Y0107891D01*
X0119318Y0107824D01*
X0119330Y0107757D01*
X0119345Y0107692D01*
X0119364Y0107627D01*
X0119386Y0107564D01*
X0119413Y0107501D01*
X0119442Y0107441D01*
X0119476Y0107382D01*
X0119512Y0107325D01*
X0119552Y0107271D01*
X0119594Y0107219D01*
X0119640Y0107169D01*
X0119688Y0107122D01*
X0119739Y0107078D01*
X0119793Y0107037D01*
X0119849Y0106998D01*
X0119906Y0106964D01*
X0119966Y0106932D01*
X0120027Y0106904D01*
X0120090Y0106880D01*
X0120154Y0106859D01*
X0120220Y0106842D01*
X0120286Y0106828D01*
X0120352Y0106819D01*
X0120420Y0106813D01*
X0120487Y0106811D01*
X0120487Y0140827D02*
X0124818Y0140827D01*
X0124885Y0140829D01*
X0124953Y0140835D01*
X0125019Y0140844D01*
X0125085Y0140858D01*
X0125151Y0140875D01*
X0125215Y0140896D01*
X0125278Y0140920D01*
X0125339Y0140948D01*
X0125399Y0140980D01*
X0125456Y0141014D01*
X0125512Y0141053D01*
X0125566Y0141094D01*
X0125617Y0141138D01*
X0125665Y0141185D01*
X0125711Y0141235D01*
X0125753Y0141287D01*
X0125793Y0141341D01*
X0125829Y0141398D01*
X0125863Y0141457D01*
X0125892Y0141517D01*
X0125919Y0141580D01*
X0125941Y0141643D01*
X0125960Y0141708D01*
X0125975Y0141773D01*
X0125987Y0141840D01*
X0125995Y0141907D01*
X0125999Y0141974D01*
X0125999Y0142042D01*
X0125995Y0142109D01*
X0125987Y0142176D01*
X0125975Y0142243D01*
X0125960Y0142308D01*
X0125941Y0142373D01*
X0125919Y0142436D01*
X0125892Y0142499D01*
X0125863Y0142559D01*
X0125829Y0142618D01*
X0125793Y0142675D01*
X0125753Y0142729D01*
X0125711Y0142781D01*
X0125665Y0142831D01*
X0125617Y0142878D01*
X0125566Y0142922D01*
X0125512Y0142963D01*
X0125456Y0143002D01*
X0125399Y0143036D01*
X0125339Y0143068D01*
X0125278Y0143096D01*
X0125215Y0143120D01*
X0125151Y0143141D01*
X0125085Y0143158D01*
X0125019Y0143172D01*
X0124953Y0143181D01*
X0124885Y0143187D01*
X0124818Y0143189D01*
X0120487Y0143189D01*
X0120420Y0143187D01*
X0120352Y0143181D01*
X0120286Y0143172D01*
X0120220Y0143158D01*
X0120154Y0143141D01*
X0120090Y0143120D01*
X0120027Y0143096D01*
X0119966Y0143068D01*
X0119906Y0143036D01*
X0119849Y0143002D01*
X0119793Y0142963D01*
X0119739Y0142922D01*
X0119688Y0142878D01*
X0119640Y0142831D01*
X0119594Y0142781D01*
X0119552Y0142729D01*
X0119512Y0142675D01*
X0119476Y0142618D01*
X0119442Y0142559D01*
X0119413Y0142499D01*
X0119386Y0142436D01*
X0119364Y0142373D01*
X0119345Y0142308D01*
X0119330Y0142243D01*
X0119318Y0142176D01*
X0119310Y0142109D01*
X0119306Y0142042D01*
X0119306Y0141974D01*
X0119310Y0141907D01*
X0119318Y0141840D01*
X0119330Y0141773D01*
X0119345Y0141708D01*
X0119364Y0141643D01*
X0119386Y0141580D01*
X0119413Y0141517D01*
X0119442Y0141457D01*
X0119476Y0141398D01*
X0119512Y0141341D01*
X0119552Y0141287D01*
X0119594Y0141235D01*
X0119640Y0141185D01*
X0119688Y0141138D01*
X0119739Y0141094D01*
X0119793Y0141053D01*
X0119849Y0141014D01*
X0119906Y0140980D01*
X0119966Y0140948D01*
X0120027Y0140920D01*
X0120090Y0140896D01*
X0120154Y0140875D01*
X0120220Y0140858D01*
X0120286Y0140844D01*
X0120352Y0140835D01*
X0120420Y0140829D01*
X0120487Y0140827D01*
X0107436Y0140827D02*
X0104995Y0140827D01*
X0104928Y0140829D01*
X0104860Y0140835D01*
X0104794Y0140844D01*
X0104728Y0140858D01*
X0104662Y0140875D01*
X0104598Y0140896D01*
X0104535Y0140920D01*
X0104474Y0140948D01*
X0104414Y0140980D01*
X0104357Y0141014D01*
X0104301Y0141053D01*
X0104247Y0141094D01*
X0104196Y0141138D01*
X0104148Y0141185D01*
X0104102Y0141235D01*
X0104060Y0141287D01*
X0104020Y0141341D01*
X0103984Y0141398D01*
X0103950Y0141457D01*
X0103921Y0141517D01*
X0103894Y0141580D01*
X0103872Y0141643D01*
X0103853Y0141708D01*
X0103838Y0141773D01*
X0103826Y0141840D01*
X0103818Y0141907D01*
X0103814Y0141974D01*
X0103814Y0142042D01*
X0103818Y0142109D01*
X0103826Y0142176D01*
X0103838Y0142243D01*
X0103853Y0142308D01*
X0103872Y0142373D01*
X0103894Y0142436D01*
X0103921Y0142499D01*
X0103950Y0142559D01*
X0103984Y0142618D01*
X0104020Y0142675D01*
X0104060Y0142729D01*
X0104102Y0142781D01*
X0104148Y0142831D01*
X0104196Y0142878D01*
X0104247Y0142922D01*
X0104301Y0142963D01*
X0104357Y0143002D01*
X0104414Y0143036D01*
X0104474Y0143068D01*
X0104535Y0143096D01*
X0104598Y0143120D01*
X0104662Y0143141D01*
X0104728Y0143158D01*
X0104794Y0143172D01*
X0104860Y0143181D01*
X0104928Y0143187D01*
X0104995Y0143189D01*
X0107436Y0143189D01*
X0107503Y0143187D01*
X0107571Y0143181D01*
X0107637Y0143172D01*
X0107703Y0143158D01*
X0107769Y0143141D01*
X0107833Y0143120D01*
X0107896Y0143096D01*
X0107957Y0143068D01*
X0108017Y0143036D01*
X0108074Y0143002D01*
X0108130Y0142963D01*
X0108184Y0142922D01*
X0108235Y0142878D01*
X0108283Y0142831D01*
X0108329Y0142781D01*
X0108371Y0142729D01*
X0108411Y0142675D01*
X0108447Y0142618D01*
X0108481Y0142559D01*
X0108510Y0142499D01*
X0108537Y0142436D01*
X0108559Y0142373D01*
X0108578Y0142308D01*
X0108593Y0142243D01*
X0108605Y0142176D01*
X0108613Y0142109D01*
X0108617Y0142042D01*
X0108617Y0141974D01*
X0108613Y0141907D01*
X0108605Y0141840D01*
X0108593Y0141773D01*
X0108578Y0141708D01*
X0108559Y0141643D01*
X0108537Y0141580D01*
X0108510Y0141517D01*
X0108481Y0141457D01*
X0108447Y0141398D01*
X0108411Y0141341D01*
X0108371Y0141287D01*
X0108329Y0141235D01*
X0108283Y0141185D01*
X0108235Y0141138D01*
X0108184Y0141094D01*
X0108130Y0141053D01*
X0108074Y0141014D01*
X0108017Y0140980D01*
X0107957Y0140948D01*
X0107896Y0140920D01*
X0107833Y0140896D01*
X0107769Y0140875D01*
X0107703Y0140858D01*
X0107637Y0140844D01*
X0107571Y0140835D01*
X0107503Y0140829D01*
X0107436Y0140827D01*
M02*
