G75*
%MOIN*%
%OFA0B0*%
%FSLAX25Y25*%
%IPPOS*%
%LPD*%
%AMOC8*
5,1,8,0,0,1.08239X$1,22.5*
%
%ADD10C,0.00800*%
%ADD11C,0.00000*%
%ADD12C,0.00039*%
D10*
X0096255Y0065000D02*
X0096255Y0185000D01*
X0296255Y0185000D01*
X0296255Y0065000D01*
X0096255Y0065000D01*
D11*
X0099755Y0075000D02*
X0099757Y0075161D01*
X0099763Y0075321D01*
X0099773Y0075482D01*
X0099787Y0075642D01*
X0099805Y0075802D01*
X0099826Y0075961D01*
X0099852Y0076120D01*
X0099882Y0076278D01*
X0099915Y0076435D01*
X0099953Y0076592D01*
X0099994Y0076747D01*
X0100039Y0076901D01*
X0100088Y0077054D01*
X0100141Y0077206D01*
X0100197Y0077357D01*
X0100258Y0077506D01*
X0100321Y0077654D01*
X0100389Y0077800D01*
X0100460Y0077944D01*
X0100534Y0078086D01*
X0100612Y0078227D01*
X0100694Y0078365D01*
X0100779Y0078502D01*
X0100867Y0078636D01*
X0100959Y0078768D01*
X0101054Y0078898D01*
X0101152Y0079026D01*
X0101253Y0079151D01*
X0101357Y0079273D01*
X0101464Y0079393D01*
X0101574Y0079510D01*
X0101687Y0079625D01*
X0101803Y0079736D01*
X0101922Y0079845D01*
X0102043Y0079950D01*
X0102167Y0080053D01*
X0102293Y0080153D01*
X0102421Y0080249D01*
X0102552Y0080342D01*
X0102686Y0080432D01*
X0102821Y0080519D01*
X0102959Y0080602D01*
X0103098Y0080682D01*
X0103240Y0080758D01*
X0103383Y0080831D01*
X0103528Y0080900D01*
X0103675Y0080966D01*
X0103823Y0081028D01*
X0103973Y0081086D01*
X0104124Y0081141D01*
X0104277Y0081192D01*
X0104431Y0081239D01*
X0104586Y0081282D01*
X0104742Y0081321D01*
X0104898Y0081357D01*
X0105056Y0081388D01*
X0105214Y0081416D01*
X0105373Y0081440D01*
X0105533Y0081460D01*
X0105693Y0081476D01*
X0105853Y0081488D01*
X0106014Y0081496D01*
X0106175Y0081500D01*
X0106335Y0081500D01*
X0106496Y0081496D01*
X0106657Y0081488D01*
X0106817Y0081476D01*
X0106977Y0081460D01*
X0107137Y0081440D01*
X0107296Y0081416D01*
X0107454Y0081388D01*
X0107612Y0081357D01*
X0107768Y0081321D01*
X0107924Y0081282D01*
X0108079Y0081239D01*
X0108233Y0081192D01*
X0108386Y0081141D01*
X0108537Y0081086D01*
X0108687Y0081028D01*
X0108835Y0080966D01*
X0108982Y0080900D01*
X0109127Y0080831D01*
X0109270Y0080758D01*
X0109412Y0080682D01*
X0109551Y0080602D01*
X0109689Y0080519D01*
X0109824Y0080432D01*
X0109958Y0080342D01*
X0110089Y0080249D01*
X0110217Y0080153D01*
X0110343Y0080053D01*
X0110467Y0079950D01*
X0110588Y0079845D01*
X0110707Y0079736D01*
X0110823Y0079625D01*
X0110936Y0079510D01*
X0111046Y0079393D01*
X0111153Y0079273D01*
X0111257Y0079151D01*
X0111358Y0079026D01*
X0111456Y0078898D01*
X0111551Y0078768D01*
X0111643Y0078636D01*
X0111731Y0078502D01*
X0111816Y0078365D01*
X0111898Y0078227D01*
X0111976Y0078086D01*
X0112050Y0077944D01*
X0112121Y0077800D01*
X0112189Y0077654D01*
X0112252Y0077506D01*
X0112313Y0077357D01*
X0112369Y0077206D01*
X0112422Y0077054D01*
X0112471Y0076901D01*
X0112516Y0076747D01*
X0112557Y0076592D01*
X0112595Y0076435D01*
X0112628Y0076278D01*
X0112658Y0076120D01*
X0112684Y0075961D01*
X0112705Y0075802D01*
X0112723Y0075642D01*
X0112737Y0075482D01*
X0112747Y0075321D01*
X0112753Y0075161D01*
X0112755Y0075000D01*
X0112753Y0074839D01*
X0112747Y0074679D01*
X0112737Y0074518D01*
X0112723Y0074358D01*
X0112705Y0074198D01*
X0112684Y0074039D01*
X0112658Y0073880D01*
X0112628Y0073722D01*
X0112595Y0073565D01*
X0112557Y0073408D01*
X0112516Y0073253D01*
X0112471Y0073099D01*
X0112422Y0072946D01*
X0112369Y0072794D01*
X0112313Y0072643D01*
X0112252Y0072494D01*
X0112189Y0072346D01*
X0112121Y0072200D01*
X0112050Y0072056D01*
X0111976Y0071914D01*
X0111898Y0071773D01*
X0111816Y0071635D01*
X0111731Y0071498D01*
X0111643Y0071364D01*
X0111551Y0071232D01*
X0111456Y0071102D01*
X0111358Y0070974D01*
X0111257Y0070849D01*
X0111153Y0070727D01*
X0111046Y0070607D01*
X0110936Y0070490D01*
X0110823Y0070375D01*
X0110707Y0070264D01*
X0110588Y0070155D01*
X0110467Y0070050D01*
X0110343Y0069947D01*
X0110217Y0069847D01*
X0110089Y0069751D01*
X0109958Y0069658D01*
X0109824Y0069568D01*
X0109689Y0069481D01*
X0109551Y0069398D01*
X0109412Y0069318D01*
X0109270Y0069242D01*
X0109127Y0069169D01*
X0108982Y0069100D01*
X0108835Y0069034D01*
X0108687Y0068972D01*
X0108537Y0068914D01*
X0108386Y0068859D01*
X0108233Y0068808D01*
X0108079Y0068761D01*
X0107924Y0068718D01*
X0107768Y0068679D01*
X0107612Y0068643D01*
X0107454Y0068612D01*
X0107296Y0068584D01*
X0107137Y0068560D01*
X0106977Y0068540D01*
X0106817Y0068524D01*
X0106657Y0068512D01*
X0106496Y0068504D01*
X0106335Y0068500D01*
X0106175Y0068500D01*
X0106014Y0068504D01*
X0105853Y0068512D01*
X0105693Y0068524D01*
X0105533Y0068540D01*
X0105373Y0068560D01*
X0105214Y0068584D01*
X0105056Y0068612D01*
X0104898Y0068643D01*
X0104742Y0068679D01*
X0104586Y0068718D01*
X0104431Y0068761D01*
X0104277Y0068808D01*
X0104124Y0068859D01*
X0103973Y0068914D01*
X0103823Y0068972D01*
X0103675Y0069034D01*
X0103528Y0069100D01*
X0103383Y0069169D01*
X0103240Y0069242D01*
X0103098Y0069318D01*
X0102959Y0069398D01*
X0102821Y0069481D01*
X0102686Y0069568D01*
X0102552Y0069658D01*
X0102421Y0069751D01*
X0102293Y0069847D01*
X0102167Y0069947D01*
X0102043Y0070050D01*
X0101922Y0070155D01*
X0101803Y0070264D01*
X0101687Y0070375D01*
X0101574Y0070490D01*
X0101464Y0070607D01*
X0101357Y0070727D01*
X0101253Y0070849D01*
X0101152Y0070974D01*
X0101054Y0071102D01*
X0100959Y0071232D01*
X0100867Y0071364D01*
X0100779Y0071498D01*
X0100694Y0071635D01*
X0100612Y0071773D01*
X0100534Y0071914D01*
X0100460Y0072056D01*
X0100389Y0072200D01*
X0100321Y0072346D01*
X0100258Y0072494D01*
X0100197Y0072643D01*
X0100141Y0072794D01*
X0100088Y0072946D01*
X0100039Y0073099D01*
X0099994Y0073253D01*
X0099953Y0073408D01*
X0099915Y0073565D01*
X0099882Y0073722D01*
X0099852Y0073880D01*
X0099826Y0074039D01*
X0099805Y0074198D01*
X0099787Y0074358D01*
X0099773Y0074518D01*
X0099763Y0074679D01*
X0099757Y0074839D01*
X0099755Y0075000D01*
X0135822Y0105354D02*
X0135824Y0105433D01*
X0135830Y0105512D01*
X0135840Y0105591D01*
X0135854Y0105669D01*
X0135871Y0105746D01*
X0135893Y0105822D01*
X0135918Y0105897D01*
X0135948Y0105970D01*
X0135980Y0106042D01*
X0136017Y0106113D01*
X0136057Y0106181D01*
X0136100Y0106247D01*
X0136146Y0106311D01*
X0136196Y0106373D01*
X0136249Y0106432D01*
X0136304Y0106488D01*
X0136363Y0106542D01*
X0136424Y0106592D01*
X0136487Y0106640D01*
X0136553Y0106684D01*
X0136621Y0106725D01*
X0136691Y0106762D01*
X0136762Y0106796D01*
X0136836Y0106826D01*
X0136910Y0106852D01*
X0136986Y0106874D01*
X0137063Y0106893D01*
X0137141Y0106908D01*
X0137219Y0106919D01*
X0137298Y0106926D01*
X0137377Y0106929D01*
X0137456Y0106928D01*
X0137535Y0106923D01*
X0137614Y0106914D01*
X0137692Y0106901D01*
X0137769Y0106884D01*
X0137846Y0106864D01*
X0137921Y0106839D01*
X0137995Y0106811D01*
X0138068Y0106779D01*
X0138138Y0106744D01*
X0138207Y0106705D01*
X0138274Y0106662D01*
X0138339Y0106616D01*
X0138401Y0106568D01*
X0138461Y0106516D01*
X0138518Y0106461D01*
X0138572Y0106403D01*
X0138623Y0106343D01*
X0138671Y0106280D01*
X0138716Y0106215D01*
X0138758Y0106147D01*
X0138796Y0106078D01*
X0138830Y0106007D01*
X0138861Y0105934D01*
X0138889Y0105859D01*
X0138912Y0105784D01*
X0138932Y0105707D01*
X0138948Y0105630D01*
X0138960Y0105551D01*
X0138968Y0105473D01*
X0138972Y0105394D01*
X0138972Y0105314D01*
X0138968Y0105235D01*
X0138960Y0105157D01*
X0138948Y0105078D01*
X0138932Y0105001D01*
X0138912Y0104924D01*
X0138889Y0104849D01*
X0138861Y0104774D01*
X0138830Y0104701D01*
X0138796Y0104630D01*
X0138758Y0104561D01*
X0138716Y0104493D01*
X0138671Y0104428D01*
X0138623Y0104365D01*
X0138572Y0104305D01*
X0138518Y0104247D01*
X0138461Y0104192D01*
X0138401Y0104140D01*
X0138339Y0104092D01*
X0138274Y0104046D01*
X0138207Y0104003D01*
X0138138Y0103964D01*
X0138068Y0103929D01*
X0137995Y0103897D01*
X0137921Y0103869D01*
X0137846Y0103844D01*
X0137769Y0103824D01*
X0137692Y0103807D01*
X0137614Y0103794D01*
X0137535Y0103785D01*
X0137456Y0103780D01*
X0137377Y0103779D01*
X0137298Y0103782D01*
X0137219Y0103789D01*
X0137141Y0103800D01*
X0137063Y0103815D01*
X0136986Y0103834D01*
X0136910Y0103856D01*
X0136836Y0103882D01*
X0136762Y0103912D01*
X0136691Y0103946D01*
X0136621Y0103983D01*
X0136553Y0104024D01*
X0136487Y0104068D01*
X0136424Y0104116D01*
X0136363Y0104166D01*
X0136304Y0104220D01*
X0136249Y0104276D01*
X0136196Y0104335D01*
X0136146Y0104397D01*
X0136100Y0104461D01*
X0136057Y0104527D01*
X0136017Y0104595D01*
X0135980Y0104666D01*
X0135948Y0104738D01*
X0135918Y0104811D01*
X0135893Y0104886D01*
X0135871Y0104962D01*
X0135854Y0105039D01*
X0135840Y0105117D01*
X0135830Y0105196D01*
X0135824Y0105275D01*
X0135822Y0105354D01*
X0119286Y0113622D02*
X0119288Y0113693D01*
X0119294Y0113764D01*
X0119304Y0113835D01*
X0119318Y0113904D01*
X0119335Y0113973D01*
X0119357Y0114041D01*
X0119382Y0114108D01*
X0119411Y0114173D01*
X0119443Y0114236D01*
X0119479Y0114298D01*
X0119518Y0114357D01*
X0119561Y0114414D01*
X0119606Y0114469D01*
X0119655Y0114521D01*
X0119706Y0114570D01*
X0119760Y0114616D01*
X0119817Y0114660D01*
X0119875Y0114700D01*
X0119936Y0114736D01*
X0119999Y0114770D01*
X0120064Y0114799D01*
X0120130Y0114825D01*
X0120198Y0114848D01*
X0120266Y0114866D01*
X0120336Y0114881D01*
X0120406Y0114892D01*
X0120477Y0114899D01*
X0120548Y0114902D01*
X0120619Y0114901D01*
X0120690Y0114896D01*
X0120761Y0114887D01*
X0120831Y0114874D01*
X0120900Y0114858D01*
X0120968Y0114837D01*
X0121035Y0114813D01*
X0121101Y0114785D01*
X0121164Y0114753D01*
X0121226Y0114718D01*
X0121286Y0114680D01*
X0121344Y0114638D01*
X0121399Y0114594D01*
X0121452Y0114546D01*
X0121502Y0114495D01*
X0121549Y0114442D01*
X0121593Y0114386D01*
X0121634Y0114328D01*
X0121672Y0114267D01*
X0121706Y0114205D01*
X0121736Y0114140D01*
X0121763Y0114075D01*
X0121787Y0114007D01*
X0121806Y0113939D01*
X0121822Y0113870D01*
X0121834Y0113799D01*
X0121842Y0113729D01*
X0121846Y0113658D01*
X0121846Y0113586D01*
X0121842Y0113515D01*
X0121834Y0113445D01*
X0121822Y0113374D01*
X0121806Y0113305D01*
X0121787Y0113237D01*
X0121763Y0113169D01*
X0121736Y0113104D01*
X0121706Y0113039D01*
X0121672Y0112977D01*
X0121634Y0112916D01*
X0121593Y0112858D01*
X0121549Y0112802D01*
X0121502Y0112749D01*
X0121452Y0112698D01*
X0121399Y0112650D01*
X0121344Y0112606D01*
X0121286Y0112564D01*
X0121226Y0112526D01*
X0121164Y0112491D01*
X0121101Y0112459D01*
X0121035Y0112431D01*
X0120968Y0112407D01*
X0120900Y0112386D01*
X0120831Y0112370D01*
X0120761Y0112357D01*
X0120690Y0112348D01*
X0120619Y0112343D01*
X0120548Y0112342D01*
X0120477Y0112345D01*
X0120406Y0112352D01*
X0120336Y0112363D01*
X0120266Y0112378D01*
X0120198Y0112396D01*
X0120130Y0112419D01*
X0120064Y0112445D01*
X0119999Y0112474D01*
X0119936Y0112508D01*
X0119875Y0112544D01*
X0119817Y0112584D01*
X0119760Y0112628D01*
X0119706Y0112674D01*
X0119655Y0112723D01*
X0119606Y0112775D01*
X0119561Y0112830D01*
X0119518Y0112887D01*
X0119479Y0112946D01*
X0119443Y0113008D01*
X0119411Y0113071D01*
X0119382Y0113136D01*
X0119357Y0113203D01*
X0119335Y0113271D01*
X0119318Y0113340D01*
X0119304Y0113409D01*
X0119294Y0113480D01*
X0119288Y0113551D01*
X0119286Y0113622D01*
X0119286Y0136378D02*
X0119288Y0136449D01*
X0119294Y0136520D01*
X0119304Y0136591D01*
X0119318Y0136660D01*
X0119335Y0136729D01*
X0119357Y0136797D01*
X0119382Y0136864D01*
X0119411Y0136929D01*
X0119443Y0136992D01*
X0119479Y0137054D01*
X0119518Y0137113D01*
X0119561Y0137170D01*
X0119606Y0137225D01*
X0119655Y0137277D01*
X0119706Y0137326D01*
X0119760Y0137372D01*
X0119817Y0137416D01*
X0119875Y0137456D01*
X0119936Y0137492D01*
X0119999Y0137526D01*
X0120064Y0137555D01*
X0120130Y0137581D01*
X0120198Y0137604D01*
X0120266Y0137622D01*
X0120336Y0137637D01*
X0120406Y0137648D01*
X0120477Y0137655D01*
X0120548Y0137658D01*
X0120619Y0137657D01*
X0120690Y0137652D01*
X0120761Y0137643D01*
X0120831Y0137630D01*
X0120900Y0137614D01*
X0120968Y0137593D01*
X0121035Y0137569D01*
X0121101Y0137541D01*
X0121164Y0137509D01*
X0121226Y0137474D01*
X0121286Y0137436D01*
X0121344Y0137394D01*
X0121399Y0137350D01*
X0121452Y0137302D01*
X0121502Y0137251D01*
X0121549Y0137198D01*
X0121593Y0137142D01*
X0121634Y0137084D01*
X0121672Y0137023D01*
X0121706Y0136961D01*
X0121736Y0136896D01*
X0121763Y0136831D01*
X0121787Y0136763D01*
X0121806Y0136695D01*
X0121822Y0136626D01*
X0121834Y0136555D01*
X0121842Y0136485D01*
X0121846Y0136414D01*
X0121846Y0136342D01*
X0121842Y0136271D01*
X0121834Y0136201D01*
X0121822Y0136130D01*
X0121806Y0136061D01*
X0121787Y0135993D01*
X0121763Y0135925D01*
X0121736Y0135860D01*
X0121706Y0135795D01*
X0121672Y0135733D01*
X0121634Y0135672D01*
X0121593Y0135614D01*
X0121549Y0135558D01*
X0121502Y0135505D01*
X0121452Y0135454D01*
X0121399Y0135406D01*
X0121344Y0135362D01*
X0121286Y0135320D01*
X0121226Y0135282D01*
X0121164Y0135247D01*
X0121101Y0135215D01*
X0121035Y0135187D01*
X0120968Y0135163D01*
X0120900Y0135142D01*
X0120831Y0135126D01*
X0120761Y0135113D01*
X0120690Y0135104D01*
X0120619Y0135099D01*
X0120548Y0135098D01*
X0120477Y0135101D01*
X0120406Y0135108D01*
X0120336Y0135119D01*
X0120266Y0135134D01*
X0120198Y0135152D01*
X0120130Y0135175D01*
X0120064Y0135201D01*
X0119999Y0135230D01*
X0119936Y0135264D01*
X0119875Y0135300D01*
X0119817Y0135340D01*
X0119760Y0135384D01*
X0119706Y0135430D01*
X0119655Y0135479D01*
X0119606Y0135531D01*
X0119561Y0135586D01*
X0119518Y0135643D01*
X0119479Y0135702D01*
X0119443Y0135764D01*
X0119411Y0135827D01*
X0119382Y0135892D01*
X0119357Y0135959D01*
X0119335Y0136027D01*
X0119318Y0136096D01*
X0119304Y0136165D01*
X0119294Y0136236D01*
X0119288Y0136307D01*
X0119286Y0136378D01*
X0099755Y0175000D02*
X0099757Y0175161D01*
X0099763Y0175321D01*
X0099773Y0175482D01*
X0099787Y0175642D01*
X0099805Y0175802D01*
X0099826Y0175961D01*
X0099852Y0176120D01*
X0099882Y0176278D01*
X0099915Y0176435D01*
X0099953Y0176592D01*
X0099994Y0176747D01*
X0100039Y0176901D01*
X0100088Y0177054D01*
X0100141Y0177206D01*
X0100197Y0177357D01*
X0100258Y0177506D01*
X0100321Y0177654D01*
X0100389Y0177800D01*
X0100460Y0177944D01*
X0100534Y0178086D01*
X0100612Y0178227D01*
X0100694Y0178365D01*
X0100779Y0178502D01*
X0100867Y0178636D01*
X0100959Y0178768D01*
X0101054Y0178898D01*
X0101152Y0179026D01*
X0101253Y0179151D01*
X0101357Y0179273D01*
X0101464Y0179393D01*
X0101574Y0179510D01*
X0101687Y0179625D01*
X0101803Y0179736D01*
X0101922Y0179845D01*
X0102043Y0179950D01*
X0102167Y0180053D01*
X0102293Y0180153D01*
X0102421Y0180249D01*
X0102552Y0180342D01*
X0102686Y0180432D01*
X0102821Y0180519D01*
X0102959Y0180602D01*
X0103098Y0180682D01*
X0103240Y0180758D01*
X0103383Y0180831D01*
X0103528Y0180900D01*
X0103675Y0180966D01*
X0103823Y0181028D01*
X0103973Y0181086D01*
X0104124Y0181141D01*
X0104277Y0181192D01*
X0104431Y0181239D01*
X0104586Y0181282D01*
X0104742Y0181321D01*
X0104898Y0181357D01*
X0105056Y0181388D01*
X0105214Y0181416D01*
X0105373Y0181440D01*
X0105533Y0181460D01*
X0105693Y0181476D01*
X0105853Y0181488D01*
X0106014Y0181496D01*
X0106175Y0181500D01*
X0106335Y0181500D01*
X0106496Y0181496D01*
X0106657Y0181488D01*
X0106817Y0181476D01*
X0106977Y0181460D01*
X0107137Y0181440D01*
X0107296Y0181416D01*
X0107454Y0181388D01*
X0107612Y0181357D01*
X0107768Y0181321D01*
X0107924Y0181282D01*
X0108079Y0181239D01*
X0108233Y0181192D01*
X0108386Y0181141D01*
X0108537Y0181086D01*
X0108687Y0181028D01*
X0108835Y0180966D01*
X0108982Y0180900D01*
X0109127Y0180831D01*
X0109270Y0180758D01*
X0109412Y0180682D01*
X0109551Y0180602D01*
X0109689Y0180519D01*
X0109824Y0180432D01*
X0109958Y0180342D01*
X0110089Y0180249D01*
X0110217Y0180153D01*
X0110343Y0180053D01*
X0110467Y0179950D01*
X0110588Y0179845D01*
X0110707Y0179736D01*
X0110823Y0179625D01*
X0110936Y0179510D01*
X0111046Y0179393D01*
X0111153Y0179273D01*
X0111257Y0179151D01*
X0111358Y0179026D01*
X0111456Y0178898D01*
X0111551Y0178768D01*
X0111643Y0178636D01*
X0111731Y0178502D01*
X0111816Y0178365D01*
X0111898Y0178227D01*
X0111976Y0178086D01*
X0112050Y0177944D01*
X0112121Y0177800D01*
X0112189Y0177654D01*
X0112252Y0177506D01*
X0112313Y0177357D01*
X0112369Y0177206D01*
X0112422Y0177054D01*
X0112471Y0176901D01*
X0112516Y0176747D01*
X0112557Y0176592D01*
X0112595Y0176435D01*
X0112628Y0176278D01*
X0112658Y0176120D01*
X0112684Y0175961D01*
X0112705Y0175802D01*
X0112723Y0175642D01*
X0112737Y0175482D01*
X0112747Y0175321D01*
X0112753Y0175161D01*
X0112755Y0175000D01*
X0112753Y0174839D01*
X0112747Y0174679D01*
X0112737Y0174518D01*
X0112723Y0174358D01*
X0112705Y0174198D01*
X0112684Y0174039D01*
X0112658Y0173880D01*
X0112628Y0173722D01*
X0112595Y0173565D01*
X0112557Y0173408D01*
X0112516Y0173253D01*
X0112471Y0173099D01*
X0112422Y0172946D01*
X0112369Y0172794D01*
X0112313Y0172643D01*
X0112252Y0172494D01*
X0112189Y0172346D01*
X0112121Y0172200D01*
X0112050Y0172056D01*
X0111976Y0171914D01*
X0111898Y0171773D01*
X0111816Y0171635D01*
X0111731Y0171498D01*
X0111643Y0171364D01*
X0111551Y0171232D01*
X0111456Y0171102D01*
X0111358Y0170974D01*
X0111257Y0170849D01*
X0111153Y0170727D01*
X0111046Y0170607D01*
X0110936Y0170490D01*
X0110823Y0170375D01*
X0110707Y0170264D01*
X0110588Y0170155D01*
X0110467Y0170050D01*
X0110343Y0169947D01*
X0110217Y0169847D01*
X0110089Y0169751D01*
X0109958Y0169658D01*
X0109824Y0169568D01*
X0109689Y0169481D01*
X0109551Y0169398D01*
X0109412Y0169318D01*
X0109270Y0169242D01*
X0109127Y0169169D01*
X0108982Y0169100D01*
X0108835Y0169034D01*
X0108687Y0168972D01*
X0108537Y0168914D01*
X0108386Y0168859D01*
X0108233Y0168808D01*
X0108079Y0168761D01*
X0107924Y0168718D01*
X0107768Y0168679D01*
X0107612Y0168643D01*
X0107454Y0168612D01*
X0107296Y0168584D01*
X0107137Y0168560D01*
X0106977Y0168540D01*
X0106817Y0168524D01*
X0106657Y0168512D01*
X0106496Y0168504D01*
X0106335Y0168500D01*
X0106175Y0168500D01*
X0106014Y0168504D01*
X0105853Y0168512D01*
X0105693Y0168524D01*
X0105533Y0168540D01*
X0105373Y0168560D01*
X0105214Y0168584D01*
X0105056Y0168612D01*
X0104898Y0168643D01*
X0104742Y0168679D01*
X0104586Y0168718D01*
X0104431Y0168761D01*
X0104277Y0168808D01*
X0104124Y0168859D01*
X0103973Y0168914D01*
X0103823Y0168972D01*
X0103675Y0169034D01*
X0103528Y0169100D01*
X0103383Y0169169D01*
X0103240Y0169242D01*
X0103098Y0169318D01*
X0102959Y0169398D01*
X0102821Y0169481D01*
X0102686Y0169568D01*
X0102552Y0169658D01*
X0102421Y0169751D01*
X0102293Y0169847D01*
X0102167Y0169947D01*
X0102043Y0170050D01*
X0101922Y0170155D01*
X0101803Y0170264D01*
X0101687Y0170375D01*
X0101574Y0170490D01*
X0101464Y0170607D01*
X0101357Y0170727D01*
X0101253Y0170849D01*
X0101152Y0170974D01*
X0101054Y0171102D01*
X0100959Y0171232D01*
X0100867Y0171364D01*
X0100779Y0171498D01*
X0100694Y0171635D01*
X0100612Y0171773D01*
X0100534Y0171914D01*
X0100460Y0172056D01*
X0100389Y0172200D01*
X0100321Y0172346D01*
X0100258Y0172494D01*
X0100197Y0172643D01*
X0100141Y0172794D01*
X0100088Y0172946D01*
X0100039Y0173099D01*
X0099994Y0173253D01*
X0099953Y0173408D01*
X0099915Y0173565D01*
X0099882Y0173722D01*
X0099852Y0173880D01*
X0099826Y0174039D01*
X0099805Y0174198D01*
X0099787Y0174358D01*
X0099773Y0174518D01*
X0099763Y0174679D01*
X0099757Y0174839D01*
X0099755Y0175000D01*
X0160034Y0081142D02*
X0160036Y0081221D01*
X0160042Y0081300D01*
X0160052Y0081379D01*
X0160066Y0081457D01*
X0160083Y0081534D01*
X0160105Y0081610D01*
X0160130Y0081685D01*
X0160160Y0081758D01*
X0160192Y0081830D01*
X0160229Y0081901D01*
X0160269Y0081969D01*
X0160312Y0082035D01*
X0160358Y0082099D01*
X0160408Y0082161D01*
X0160461Y0082220D01*
X0160516Y0082276D01*
X0160575Y0082330D01*
X0160636Y0082380D01*
X0160699Y0082428D01*
X0160765Y0082472D01*
X0160833Y0082513D01*
X0160903Y0082550D01*
X0160974Y0082584D01*
X0161048Y0082614D01*
X0161122Y0082640D01*
X0161198Y0082662D01*
X0161275Y0082681D01*
X0161353Y0082696D01*
X0161431Y0082707D01*
X0161510Y0082714D01*
X0161589Y0082717D01*
X0161668Y0082716D01*
X0161747Y0082711D01*
X0161826Y0082702D01*
X0161904Y0082689D01*
X0161981Y0082672D01*
X0162058Y0082652D01*
X0162133Y0082627D01*
X0162207Y0082599D01*
X0162280Y0082567D01*
X0162350Y0082532D01*
X0162419Y0082493D01*
X0162486Y0082450D01*
X0162551Y0082404D01*
X0162613Y0082356D01*
X0162673Y0082304D01*
X0162730Y0082249D01*
X0162784Y0082191D01*
X0162835Y0082131D01*
X0162883Y0082068D01*
X0162928Y0082003D01*
X0162970Y0081935D01*
X0163008Y0081866D01*
X0163042Y0081795D01*
X0163073Y0081722D01*
X0163101Y0081647D01*
X0163124Y0081572D01*
X0163144Y0081495D01*
X0163160Y0081418D01*
X0163172Y0081339D01*
X0163180Y0081261D01*
X0163184Y0081182D01*
X0163184Y0081102D01*
X0163180Y0081023D01*
X0163172Y0080945D01*
X0163160Y0080866D01*
X0163144Y0080789D01*
X0163124Y0080712D01*
X0163101Y0080637D01*
X0163073Y0080562D01*
X0163042Y0080489D01*
X0163008Y0080418D01*
X0162970Y0080349D01*
X0162928Y0080281D01*
X0162883Y0080216D01*
X0162835Y0080153D01*
X0162784Y0080093D01*
X0162730Y0080035D01*
X0162673Y0079980D01*
X0162613Y0079928D01*
X0162551Y0079880D01*
X0162486Y0079834D01*
X0162419Y0079791D01*
X0162350Y0079752D01*
X0162280Y0079717D01*
X0162207Y0079685D01*
X0162133Y0079657D01*
X0162058Y0079632D01*
X0161981Y0079612D01*
X0161904Y0079595D01*
X0161826Y0079582D01*
X0161747Y0079573D01*
X0161668Y0079568D01*
X0161589Y0079567D01*
X0161510Y0079570D01*
X0161431Y0079577D01*
X0161353Y0079588D01*
X0161275Y0079603D01*
X0161198Y0079622D01*
X0161122Y0079644D01*
X0161048Y0079670D01*
X0160974Y0079700D01*
X0160903Y0079734D01*
X0160833Y0079771D01*
X0160765Y0079812D01*
X0160699Y0079856D01*
X0160636Y0079904D01*
X0160575Y0079954D01*
X0160516Y0080008D01*
X0160461Y0080064D01*
X0160408Y0080123D01*
X0160358Y0080185D01*
X0160312Y0080249D01*
X0160269Y0080315D01*
X0160229Y0080383D01*
X0160192Y0080454D01*
X0160160Y0080526D01*
X0160130Y0080599D01*
X0160105Y0080674D01*
X0160083Y0080750D01*
X0160066Y0080827D01*
X0160052Y0080905D01*
X0160042Y0080984D01*
X0160036Y0081063D01*
X0160034Y0081142D01*
X0279755Y0075000D02*
X0279757Y0075161D01*
X0279763Y0075321D01*
X0279773Y0075482D01*
X0279787Y0075642D01*
X0279805Y0075802D01*
X0279826Y0075961D01*
X0279852Y0076120D01*
X0279882Y0076278D01*
X0279915Y0076435D01*
X0279953Y0076592D01*
X0279994Y0076747D01*
X0280039Y0076901D01*
X0280088Y0077054D01*
X0280141Y0077206D01*
X0280197Y0077357D01*
X0280258Y0077506D01*
X0280321Y0077654D01*
X0280389Y0077800D01*
X0280460Y0077944D01*
X0280534Y0078086D01*
X0280612Y0078227D01*
X0280694Y0078365D01*
X0280779Y0078502D01*
X0280867Y0078636D01*
X0280959Y0078768D01*
X0281054Y0078898D01*
X0281152Y0079026D01*
X0281253Y0079151D01*
X0281357Y0079273D01*
X0281464Y0079393D01*
X0281574Y0079510D01*
X0281687Y0079625D01*
X0281803Y0079736D01*
X0281922Y0079845D01*
X0282043Y0079950D01*
X0282167Y0080053D01*
X0282293Y0080153D01*
X0282421Y0080249D01*
X0282552Y0080342D01*
X0282686Y0080432D01*
X0282821Y0080519D01*
X0282959Y0080602D01*
X0283098Y0080682D01*
X0283240Y0080758D01*
X0283383Y0080831D01*
X0283528Y0080900D01*
X0283675Y0080966D01*
X0283823Y0081028D01*
X0283973Y0081086D01*
X0284124Y0081141D01*
X0284277Y0081192D01*
X0284431Y0081239D01*
X0284586Y0081282D01*
X0284742Y0081321D01*
X0284898Y0081357D01*
X0285056Y0081388D01*
X0285214Y0081416D01*
X0285373Y0081440D01*
X0285533Y0081460D01*
X0285693Y0081476D01*
X0285853Y0081488D01*
X0286014Y0081496D01*
X0286175Y0081500D01*
X0286335Y0081500D01*
X0286496Y0081496D01*
X0286657Y0081488D01*
X0286817Y0081476D01*
X0286977Y0081460D01*
X0287137Y0081440D01*
X0287296Y0081416D01*
X0287454Y0081388D01*
X0287612Y0081357D01*
X0287768Y0081321D01*
X0287924Y0081282D01*
X0288079Y0081239D01*
X0288233Y0081192D01*
X0288386Y0081141D01*
X0288537Y0081086D01*
X0288687Y0081028D01*
X0288835Y0080966D01*
X0288982Y0080900D01*
X0289127Y0080831D01*
X0289270Y0080758D01*
X0289412Y0080682D01*
X0289551Y0080602D01*
X0289689Y0080519D01*
X0289824Y0080432D01*
X0289958Y0080342D01*
X0290089Y0080249D01*
X0290217Y0080153D01*
X0290343Y0080053D01*
X0290467Y0079950D01*
X0290588Y0079845D01*
X0290707Y0079736D01*
X0290823Y0079625D01*
X0290936Y0079510D01*
X0291046Y0079393D01*
X0291153Y0079273D01*
X0291257Y0079151D01*
X0291358Y0079026D01*
X0291456Y0078898D01*
X0291551Y0078768D01*
X0291643Y0078636D01*
X0291731Y0078502D01*
X0291816Y0078365D01*
X0291898Y0078227D01*
X0291976Y0078086D01*
X0292050Y0077944D01*
X0292121Y0077800D01*
X0292189Y0077654D01*
X0292252Y0077506D01*
X0292313Y0077357D01*
X0292369Y0077206D01*
X0292422Y0077054D01*
X0292471Y0076901D01*
X0292516Y0076747D01*
X0292557Y0076592D01*
X0292595Y0076435D01*
X0292628Y0076278D01*
X0292658Y0076120D01*
X0292684Y0075961D01*
X0292705Y0075802D01*
X0292723Y0075642D01*
X0292737Y0075482D01*
X0292747Y0075321D01*
X0292753Y0075161D01*
X0292755Y0075000D01*
X0292753Y0074839D01*
X0292747Y0074679D01*
X0292737Y0074518D01*
X0292723Y0074358D01*
X0292705Y0074198D01*
X0292684Y0074039D01*
X0292658Y0073880D01*
X0292628Y0073722D01*
X0292595Y0073565D01*
X0292557Y0073408D01*
X0292516Y0073253D01*
X0292471Y0073099D01*
X0292422Y0072946D01*
X0292369Y0072794D01*
X0292313Y0072643D01*
X0292252Y0072494D01*
X0292189Y0072346D01*
X0292121Y0072200D01*
X0292050Y0072056D01*
X0291976Y0071914D01*
X0291898Y0071773D01*
X0291816Y0071635D01*
X0291731Y0071498D01*
X0291643Y0071364D01*
X0291551Y0071232D01*
X0291456Y0071102D01*
X0291358Y0070974D01*
X0291257Y0070849D01*
X0291153Y0070727D01*
X0291046Y0070607D01*
X0290936Y0070490D01*
X0290823Y0070375D01*
X0290707Y0070264D01*
X0290588Y0070155D01*
X0290467Y0070050D01*
X0290343Y0069947D01*
X0290217Y0069847D01*
X0290089Y0069751D01*
X0289958Y0069658D01*
X0289824Y0069568D01*
X0289689Y0069481D01*
X0289551Y0069398D01*
X0289412Y0069318D01*
X0289270Y0069242D01*
X0289127Y0069169D01*
X0288982Y0069100D01*
X0288835Y0069034D01*
X0288687Y0068972D01*
X0288537Y0068914D01*
X0288386Y0068859D01*
X0288233Y0068808D01*
X0288079Y0068761D01*
X0287924Y0068718D01*
X0287768Y0068679D01*
X0287612Y0068643D01*
X0287454Y0068612D01*
X0287296Y0068584D01*
X0287137Y0068560D01*
X0286977Y0068540D01*
X0286817Y0068524D01*
X0286657Y0068512D01*
X0286496Y0068504D01*
X0286335Y0068500D01*
X0286175Y0068500D01*
X0286014Y0068504D01*
X0285853Y0068512D01*
X0285693Y0068524D01*
X0285533Y0068540D01*
X0285373Y0068560D01*
X0285214Y0068584D01*
X0285056Y0068612D01*
X0284898Y0068643D01*
X0284742Y0068679D01*
X0284586Y0068718D01*
X0284431Y0068761D01*
X0284277Y0068808D01*
X0284124Y0068859D01*
X0283973Y0068914D01*
X0283823Y0068972D01*
X0283675Y0069034D01*
X0283528Y0069100D01*
X0283383Y0069169D01*
X0283240Y0069242D01*
X0283098Y0069318D01*
X0282959Y0069398D01*
X0282821Y0069481D01*
X0282686Y0069568D01*
X0282552Y0069658D01*
X0282421Y0069751D01*
X0282293Y0069847D01*
X0282167Y0069947D01*
X0282043Y0070050D01*
X0281922Y0070155D01*
X0281803Y0070264D01*
X0281687Y0070375D01*
X0281574Y0070490D01*
X0281464Y0070607D01*
X0281357Y0070727D01*
X0281253Y0070849D01*
X0281152Y0070974D01*
X0281054Y0071102D01*
X0280959Y0071232D01*
X0280867Y0071364D01*
X0280779Y0071498D01*
X0280694Y0071635D01*
X0280612Y0071773D01*
X0280534Y0071914D01*
X0280460Y0072056D01*
X0280389Y0072200D01*
X0280321Y0072346D01*
X0280258Y0072494D01*
X0280197Y0072643D01*
X0280141Y0072794D01*
X0280088Y0072946D01*
X0280039Y0073099D01*
X0279994Y0073253D01*
X0279953Y0073408D01*
X0279915Y0073565D01*
X0279882Y0073722D01*
X0279852Y0073880D01*
X0279826Y0074039D01*
X0279805Y0074198D01*
X0279787Y0074358D01*
X0279773Y0074518D01*
X0279763Y0074679D01*
X0279757Y0074839D01*
X0279755Y0075000D01*
X0279755Y0175000D02*
X0279757Y0175161D01*
X0279763Y0175321D01*
X0279773Y0175482D01*
X0279787Y0175642D01*
X0279805Y0175802D01*
X0279826Y0175961D01*
X0279852Y0176120D01*
X0279882Y0176278D01*
X0279915Y0176435D01*
X0279953Y0176592D01*
X0279994Y0176747D01*
X0280039Y0176901D01*
X0280088Y0177054D01*
X0280141Y0177206D01*
X0280197Y0177357D01*
X0280258Y0177506D01*
X0280321Y0177654D01*
X0280389Y0177800D01*
X0280460Y0177944D01*
X0280534Y0178086D01*
X0280612Y0178227D01*
X0280694Y0178365D01*
X0280779Y0178502D01*
X0280867Y0178636D01*
X0280959Y0178768D01*
X0281054Y0178898D01*
X0281152Y0179026D01*
X0281253Y0179151D01*
X0281357Y0179273D01*
X0281464Y0179393D01*
X0281574Y0179510D01*
X0281687Y0179625D01*
X0281803Y0179736D01*
X0281922Y0179845D01*
X0282043Y0179950D01*
X0282167Y0180053D01*
X0282293Y0180153D01*
X0282421Y0180249D01*
X0282552Y0180342D01*
X0282686Y0180432D01*
X0282821Y0180519D01*
X0282959Y0180602D01*
X0283098Y0180682D01*
X0283240Y0180758D01*
X0283383Y0180831D01*
X0283528Y0180900D01*
X0283675Y0180966D01*
X0283823Y0181028D01*
X0283973Y0181086D01*
X0284124Y0181141D01*
X0284277Y0181192D01*
X0284431Y0181239D01*
X0284586Y0181282D01*
X0284742Y0181321D01*
X0284898Y0181357D01*
X0285056Y0181388D01*
X0285214Y0181416D01*
X0285373Y0181440D01*
X0285533Y0181460D01*
X0285693Y0181476D01*
X0285853Y0181488D01*
X0286014Y0181496D01*
X0286175Y0181500D01*
X0286335Y0181500D01*
X0286496Y0181496D01*
X0286657Y0181488D01*
X0286817Y0181476D01*
X0286977Y0181460D01*
X0287137Y0181440D01*
X0287296Y0181416D01*
X0287454Y0181388D01*
X0287612Y0181357D01*
X0287768Y0181321D01*
X0287924Y0181282D01*
X0288079Y0181239D01*
X0288233Y0181192D01*
X0288386Y0181141D01*
X0288537Y0181086D01*
X0288687Y0181028D01*
X0288835Y0180966D01*
X0288982Y0180900D01*
X0289127Y0180831D01*
X0289270Y0180758D01*
X0289412Y0180682D01*
X0289551Y0180602D01*
X0289689Y0180519D01*
X0289824Y0180432D01*
X0289958Y0180342D01*
X0290089Y0180249D01*
X0290217Y0180153D01*
X0290343Y0180053D01*
X0290467Y0179950D01*
X0290588Y0179845D01*
X0290707Y0179736D01*
X0290823Y0179625D01*
X0290936Y0179510D01*
X0291046Y0179393D01*
X0291153Y0179273D01*
X0291257Y0179151D01*
X0291358Y0179026D01*
X0291456Y0178898D01*
X0291551Y0178768D01*
X0291643Y0178636D01*
X0291731Y0178502D01*
X0291816Y0178365D01*
X0291898Y0178227D01*
X0291976Y0178086D01*
X0292050Y0177944D01*
X0292121Y0177800D01*
X0292189Y0177654D01*
X0292252Y0177506D01*
X0292313Y0177357D01*
X0292369Y0177206D01*
X0292422Y0177054D01*
X0292471Y0176901D01*
X0292516Y0176747D01*
X0292557Y0176592D01*
X0292595Y0176435D01*
X0292628Y0176278D01*
X0292658Y0176120D01*
X0292684Y0175961D01*
X0292705Y0175802D01*
X0292723Y0175642D01*
X0292737Y0175482D01*
X0292747Y0175321D01*
X0292753Y0175161D01*
X0292755Y0175000D01*
X0292753Y0174839D01*
X0292747Y0174679D01*
X0292737Y0174518D01*
X0292723Y0174358D01*
X0292705Y0174198D01*
X0292684Y0174039D01*
X0292658Y0173880D01*
X0292628Y0173722D01*
X0292595Y0173565D01*
X0292557Y0173408D01*
X0292516Y0173253D01*
X0292471Y0173099D01*
X0292422Y0172946D01*
X0292369Y0172794D01*
X0292313Y0172643D01*
X0292252Y0172494D01*
X0292189Y0172346D01*
X0292121Y0172200D01*
X0292050Y0172056D01*
X0291976Y0171914D01*
X0291898Y0171773D01*
X0291816Y0171635D01*
X0291731Y0171498D01*
X0291643Y0171364D01*
X0291551Y0171232D01*
X0291456Y0171102D01*
X0291358Y0170974D01*
X0291257Y0170849D01*
X0291153Y0170727D01*
X0291046Y0170607D01*
X0290936Y0170490D01*
X0290823Y0170375D01*
X0290707Y0170264D01*
X0290588Y0170155D01*
X0290467Y0170050D01*
X0290343Y0169947D01*
X0290217Y0169847D01*
X0290089Y0169751D01*
X0289958Y0169658D01*
X0289824Y0169568D01*
X0289689Y0169481D01*
X0289551Y0169398D01*
X0289412Y0169318D01*
X0289270Y0169242D01*
X0289127Y0169169D01*
X0288982Y0169100D01*
X0288835Y0169034D01*
X0288687Y0168972D01*
X0288537Y0168914D01*
X0288386Y0168859D01*
X0288233Y0168808D01*
X0288079Y0168761D01*
X0287924Y0168718D01*
X0287768Y0168679D01*
X0287612Y0168643D01*
X0287454Y0168612D01*
X0287296Y0168584D01*
X0287137Y0168560D01*
X0286977Y0168540D01*
X0286817Y0168524D01*
X0286657Y0168512D01*
X0286496Y0168504D01*
X0286335Y0168500D01*
X0286175Y0168500D01*
X0286014Y0168504D01*
X0285853Y0168512D01*
X0285693Y0168524D01*
X0285533Y0168540D01*
X0285373Y0168560D01*
X0285214Y0168584D01*
X0285056Y0168612D01*
X0284898Y0168643D01*
X0284742Y0168679D01*
X0284586Y0168718D01*
X0284431Y0168761D01*
X0284277Y0168808D01*
X0284124Y0168859D01*
X0283973Y0168914D01*
X0283823Y0168972D01*
X0283675Y0169034D01*
X0283528Y0169100D01*
X0283383Y0169169D01*
X0283240Y0169242D01*
X0283098Y0169318D01*
X0282959Y0169398D01*
X0282821Y0169481D01*
X0282686Y0169568D01*
X0282552Y0169658D01*
X0282421Y0169751D01*
X0282293Y0169847D01*
X0282167Y0169947D01*
X0282043Y0170050D01*
X0281922Y0170155D01*
X0281803Y0170264D01*
X0281687Y0170375D01*
X0281574Y0170490D01*
X0281464Y0170607D01*
X0281357Y0170727D01*
X0281253Y0170849D01*
X0281152Y0170974D01*
X0281054Y0171102D01*
X0280959Y0171232D01*
X0280867Y0171364D01*
X0280779Y0171498D01*
X0280694Y0171635D01*
X0280612Y0171773D01*
X0280534Y0171914D01*
X0280460Y0172056D01*
X0280389Y0172200D01*
X0280321Y0172346D01*
X0280258Y0172494D01*
X0280197Y0172643D01*
X0280141Y0172794D01*
X0280088Y0172946D01*
X0280039Y0173099D01*
X0279994Y0173253D01*
X0279953Y0173408D01*
X0279915Y0173565D01*
X0279882Y0173722D01*
X0279852Y0173880D01*
X0279826Y0174039D01*
X0279805Y0174198D01*
X0279787Y0174358D01*
X0279773Y0174518D01*
X0279763Y0174679D01*
X0279757Y0174839D01*
X0279755Y0175000D01*
D12*
X0124818Y0143189D02*
X0120487Y0143189D01*
X0120420Y0143187D01*
X0120352Y0143181D01*
X0120286Y0143172D01*
X0120220Y0143158D01*
X0120154Y0143141D01*
X0120090Y0143120D01*
X0120027Y0143096D01*
X0119966Y0143068D01*
X0119906Y0143036D01*
X0119849Y0143002D01*
X0119793Y0142963D01*
X0119739Y0142922D01*
X0119688Y0142878D01*
X0119640Y0142831D01*
X0119594Y0142781D01*
X0119552Y0142729D01*
X0119512Y0142675D01*
X0119476Y0142618D01*
X0119442Y0142559D01*
X0119413Y0142499D01*
X0119386Y0142436D01*
X0119364Y0142373D01*
X0119345Y0142308D01*
X0119330Y0142243D01*
X0119318Y0142176D01*
X0119310Y0142109D01*
X0119306Y0142042D01*
X0119306Y0141974D01*
X0119310Y0141907D01*
X0119318Y0141840D01*
X0119330Y0141773D01*
X0119345Y0141708D01*
X0119364Y0141643D01*
X0119386Y0141580D01*
X0119413Y0141517D01*
X0119442Y0141457D01*
X0119476Y0141398D01*
X0119512Y0141341D01*
X0119552Y0141287D01*
X0119594Y0141235D01*
X0119640Y0141185D01*
X0119688Y0141138D01*
X0119739Y0141094D01*
X0119793Y0141053D01*
X0119849Y0141014D01*
X0119906Y0140980D01*
X0119966Y0140948D01*
X0120027Y0140920D01*
X0120090Y0140896D01*
X0120154Y0140875D01*
X0120220Y0140858D01*
X0120286Y0140844D01*
X0120352Y0140835D01*
X0120420Y0140829D01*
X0120487Y0140827D01*
X0124818Y0140827D01*
X0124885Y0140829D01*
X0124953Y0140835D01*
X0125019Y0140844D01*
X0125085Y0140858D01*
X0125151Y0140875D01*
X0125215Y0140896D01*
X0125278Y0140920D01*
X0125339Y0140948D01*
X0125399Y0140980D01*
X0125456Y0141014D01*
X0125512Y0141053D01*
X0125566Y0141094D01*
X0125617Y0141138D01*
X0125665Y0141185D01*
X0125711Y0141235D01*
X0125753Y0141287D01*
X0125793Y0141341D01*
X0125829Y0141398D01*
X0125863Y0141457D01*
X0125892Y0141517D01*
X0125919Y0141580D01*
X0125941Y0141643D01*
X0125960Y0141708D01*
X0125975Y0141773D01*
X0125987Y0141840D01*
X0125995Y0141907D01*
X0125999Y0141974D01*
X0125999Y0142042D01*
X0125995Y0142109D01*
X0125987Y0142176D01*
X0125975Y0142243D01*
X0125960Y0142308D01*
X0125941Y0142373D01*
X0125919Y0142436D01*
X0125892Y0142499D01*
X0125863Y0142559D01*
X0125829Y0142618D01*
X0125793Y0142675D01*
X0125753Y0142729D01*
X0125711Y0142781D01*
X0125665Y0142831D01*
X0125617Y0142878D01*
X0125566Y0142922D01*
X0125512Y0142963D01*
X0125456Y0143002D01*
X0125399Y0143036D01*
X0125339Y0143068D01*
X0125278Y0143096D01*
X0125215Y0143120D01*
X0125151Y0143141D01*
X0125085Y0143158D01*
X0125019Y0143172D01*
X0124953Y0143181D01*
X0124885Y0143187D01*
X0124818Y0143189D01*
X0107436Y0143189D02*
X0104995Y0143189D01*
X0104928Y0143187D01*
X0104860Y0143181D01*
X0104794Y0143172D01*
X0104728Y0143158D01*
X0104662Y0143141D01*
X0104598Y0143120D01*
X0104535Y0143096D01*
X0104474Y0143068D01*
X0104414Y0143036D01*
X0104357Y0143002D01*
X0104301Y0142963D01*
X0104247Y0142922D01*
X0104196Y0142878D01*
X0104148Y0142831D01*
X0104102Y0142781D01*
X0104060Y0142729D01*
X0104020Y0142675D01*
X0103984Y0142618D01*
X0103950Y0142559D01*
X0103921Y0142499D01*
X0103894Y0142436D01*
X0103872Y0142373D01*
X0103853Y0142308D01*
X0103838Y0142243D01*
X0103826Y0142176D01*
X0103818Y0142109D01*
X0103814Y0142042D01*
X0103814Y0141974D01*
X0103818Y0141907D01*
X0103826Y0141840D01*
X0103838Y0141773D01*
X0103853Y0141708D01*
X0103872Y0141643D01*
X0103894Y0141580D01*
X0103921Y0141517D01*
X0103950Y0141457D01*
X0103984Y0141398D01*
X0104020Y0141341D01*
X0104060Y0141287D01*
X0104102Y0141235D01*
X0104148Y0141185D01*
X0104196Y0141138D01*
X0104247Y0141094D01*
X0104301Y0141053D01*
X0104357Y0141014D01*
X0104414Y0140980D01*
X0104474Y0140948D01*
X0104535Y0140920D01*
X0104598Y0140896D01*
X0104662Y0140875D01*
X0104728Y0140858D01*
X0104794Y0140844D01*
X0104860Y0140835D01*
X0104928Y0140829D01*
X0104995Y0140827D01*
X0107436Y0140827D01*
X0107503Y0140829D01*
X0107571Y0140835D01*
X0107637Y0140844D01*
X0107703Y0140858D01*
X0107769Y0140875D01*
X0107833Y0140896D01*
X0107896Y0140920D01*
X0107957Y0140948D01*
X0108017Y0140980D01*
X0108074Y0141014D01*
X0108130Y0141053D01*
X0108184Y0141094D01*
X0108235Y0141138D01*
X0108283Y0141185D01*
X0108329Y0141235D01*
X0108371Y0141287D01*
X0108411Y0141341D01*
X0108447Y0141398D01*
X0108481Y0141457D01*
X0108510Y0141517D01*
X0108537Y0141580D01*
X0108559Y0141643D01*
X0108578Y0141708D01*
X0108593Y0141773D01*
X0108605Y0141840D01*
X0108613Y0141907D01*
X0108617Y0141974D01*
X0108617Y0142042D01*
X0108613Y0142109D01*
X0108605Y0142176D01*
X0108593Y0142243D01*
X0108578Y0142308D01*
X0108559Y0142373D01*
X0108537Y0142436D01*
X0108510Y0142499D01*
X0108481Y0142559D01*
X0108447Y0142618D01*
X0108411Y0142675D01*
X0108371Y0142729D01*
X0108329Y0142781D01*
X0108283Y0142831D01*
X0108235Y0142878D01*
X0108184Y0142922D01*
X0108130Y0142963D01*
X0108074Y0143002D01*
X0108017Y0143036D01*
X0107957Y0143068D01*
X0107896Y0143096D01*
X0107833Y0143120D01*
X0107769Y0143141D01*
X0107703Y0143158D01*
X0107637Y0143172D01*
X0107571Y0143181D01*
X0107503Y0143187D01*
X0107436Y0143189D01*
X0107436Y0109173D02*
X0104995Y0109173D01*
X0104928Y0109171D01*
X0104860Y0109165D01*
X0104794Y0109156D01*
X0104728Y0109142D01*
X0104662Y0109125D01*
X0104598Y0109104D01*
X0104535Y0109080D01*
X0104474Y0109052D01*
X0104414Y0109020D01*
X0104357Y0108986D01*
X0104301Y0108947D01*
X0104247Y0108906D01*
X0104196Y0108862D01*
X0104148Y0108815D01*
X0104102Y0108765D01*
X0104060Y0108713D01*
X0104020Y0108659D01*
X0103984Y0108602D01*
X0103950Y0108543D01*
X0103921Y0108483D01*
X0103894Y0108420D01*
X0103872Y0108357D01*
X0103853Y0108292D01*
X0103838Y0108227D01*
X0103826Y0108160D01*
X0103818Y0108093D01*
X0103814Y0108026D01*
X0103814Y0107958D01*
X0103818Y0107891D01*
X0103826Y0107824D01*
X0103838Y0107757D01*
X0103853Y0107692D01*
X0103872Y0107627D01*
X0103894Y0107564D01*
X0103921Y0107501D01*
X0103950Y0107441D01*
X0103984Y0107382D01*
X0104020Y0107325D01*
X0104060Y0107271D01*
X0104102Y0107219D01*
X0104148Y0107169D01*
X0104196Y0107122D01*
X0104247Y0107078D01*
X0104301Y0107037D01*
X0104357Y0106998D01*
X0104414Y0106964D01*
X0104474Y0106932D01*
X0104535Y0106904D01*
X0104598Y0106880D01*
X0104662Y0106859D01*
X0104728Y0106842D01*
X0104794Y0106828D01*
X0104860Y0106819D01*
X0104928Y0106813D01*
X0104995Y0106811D01*
X0107436Y0106811D01*
X0107503Y0106813D01*
X0107571Y0106819D01*
X0107637Y0106828D01*
X0107703Y0106842D01*
X0107769Y0106859D01*
X0107833Y0106880D01*
X0107896Y0106904D01*
X0107957Y0106932D01*
X0108017Y0106964D01*
X0108074Y0106998D01*
X0108130Y0107037D01*
X0108184Y0107078D01*
X0108235Y0107122D01*
X0108283Y0107169D01*
X0108329Y0107219D01*
X0108371Y0107271D01*
X0108411Y0107325D01*
X0108447Y0107382D01*
X0108481Y0107441D01*
X0108510Y0107501D01*
X0108537Y0107564D01*
X0108559Y0107627D01*
X0108578Y0107692D01*
X0108593Y0107757D01*
X0108605Y0107824D01*
X0108613Y0107891D01*
X0108617Y0107958D01*
X0108617Y0108026D01*
X0108613Y0108093D01*
X0108605Y0108160D01*
X0108593Y0108227D01*
X0108578Y0108292D01*
X0108559Y0108357D01*
X0108537Y0108420D01*
X0108510Y0108483D01*
X0108481Y0108543D01*
X0108447Y0108602D01*
X0108411Y0108659D01*
X0108371Y0108713D01*
X0108329Y0108765D01*
X0108283Y0108815D01*
X0108235Y0108862D01*
X0108184Y0108906D01*
X0108130Y0108947D01*
X0108074Y0108986D01*
X0108017Y0109020D01*
X0107957Y0109052D01*
X0107896Y0109080D01*
X0107833Y0109104D01*
X0107769Y0109125D01*
X0107703Y0109142D01*
X0107637Y0109156D01*
X0107571Y0109165D01*
X0107503Y0109171D01*
X0107436Y0109173D01*
X0120487Y0109173D02*
X0124818Y0109173D01*
X0124885Y0109171D01*
X0124953Y0109165D01*
X0125019Y0109156D01*
X0125085Y0109142D01*
X0125151Y0109125D01*
X0125215Y0109104D01*
X0125278Y0109080D01*
X0125339Y0109052D01*
X0125399Y0109020D01*
X0125456Y0108986D01*
X0125512Y0108947D01*
X0125566Y0108906D01*
X0125617Y0108862D01*
X0125665Y0108815D01*
X0125711Y0108765D01*
X0125753Y0108713D01*
X0125793Y0108659D01*
X0125829Y0108602D01*
X0125863Y0108543D01*
X0125892Y0108483D01*
X0125919Y0108420D01*
X0125941Y0108357D01*
X0125960Y0108292D01*
X0125975Y0108227D01*
X0125987Y0108160D01*
X0125995Y0108093D01*
X0125999Y0108026D01*
X0125999Y0107958D01*
X0125995Y0107891D01*
X0125987Y0107824D01*
X0125975Y0107757D01*
X0125960Y0107692D01*
X0125941Y0107627D01*
X0125919Y0107564D01*
X0125892Y0107501D01*
X0125863Y0107441D01*
X0125829Y0107382D01*
X0125793Y0107325D01*
X0125753Y0107271D01*
X0125711Y0107219D01*
X0125665Y0107169D01*
X0125617Y0107122D01*
X0125566Y0107078D01*
X0125512Y0107037D01*
X0125456Y0106998D01*
X0125399Y0106964D01*
X0125339Y0106932D01*
X0125278Y0106904D01*
X0125215Y0106880D01*
X0125151Y0106859D01*
X0125085Y0106842D01*
X0125019Y0106828D01*
X0124953Y0106819D01*
X0124885Y0106813D01*
X0124818Y0106811D01*
X0120487Y0106811D01*
X0120420Y0106813D01*
X0120352Y0106819D01*
X0120286Y0106828D01*
X0120220Y0106842D01*
X0120154Y0106859D01*
X0120090Y0106880D01*
X0120027Y0106904D01*
X0119966Y0106932D01*
X0119906Y0106964D01*
X0119849Y0106998D01*
X0119793Y0107037D01*
X0119739Y0107078D01*
X0119688Y0107122D01*
X0119640Y0107169D01*
X0119594Y0107219D01*
X0119552Y0107271D01*
X0119512Y0107325D01*
X0119476Y0107382D01*
X0119442Y0107441D01*
X0119413Y0107501D01*
X0119386Y0107564D01*
X0119364Y0107627D01*
X0119345Y0107692D01*
X0119330Y0107757D01*
X0119318Y0107824D01*
X0119310Y0107891D01*
X0119306Y0107958D01*
X0119306Y0108026D01*
X0119310Y0108093D01*
X0119318Y0108160D01*
X0119330Y0108227D01*
X0119345Y0108292D01*
X0119364Y0108357D01*
X0119386Y0108420D01*
X0119413Y0108483D01*
X0119442Y0108543D01*
X0119476Y0108602D01*
X0119512Y0108659D01*
X0119552Y0108713D01*
X0119594Y0108765D01*
X0119640Y0108815D01*
X0119688Y0108862D01*
X0119739Y0108906D01*
X0119793Y0108947D01*
X0119849Y0108986D01*
X0119906Y0109020D01*
X0119966Y0109052D01*
X0120027Y0109080D01*
X0120090Y0109104D01*
X0120154Y0109125D01*
X0120220Y0109142D01*
X0120286Y0109156D01*
X0120352Y0109165D01*
X0120420Y0109171D01*
X0120487Y0109173D01*
M02*
