G75*
%MOIN*%
%OFA0B0*%
%FSLAX25Y25*%
%IPPOS*%
%LPD*%
%AMOC8*
5,1,8,0,0,1.08239X$1,22.5*
%
%ADD10C,0.01181*%
%ADD11R,0.03937X0.04331*%
%ADD12R,0.03543X0.03150*%
%ADD13R,0.09843X0.12598*%
%ADD14R,0.04724X0.02362*%
%ADD15R,0.03937X0.01181*%
%ADD16R,0.03937X0.02362*%
%ADD17C,0.00039*%
%ADD18R,0.04331X0.03937*%
%ADD19R,0.03346X0.06693*%
D10*
X0101424Y0091122D02*
X0101424Y0093878D01*
X0104180Y0093878D01*
X0104180Y0091122D01*
X0101424Y0091122D01*
X0101424Y0092244D02*
X0104180Y0092244D01*
X0104180Y0093366D02*
X0101424Y0093366D01*
X0108330Y0093878D02*
X0108330Y0091122D01*
X0108330Y0093878D02*
X0111086Y0093878D01*
X0111086Y0091122D01*
X0108330Y0091122D01*
X0108330Y0092244D02*
X0111086Y0092244D01*
X0111086Y0093366D02*
X0108330Y0093366D01*
D11*
X0116255Y0092904D03*
X0116255Y0099596D03*
X0166255Y0104154D03*
X0166255Y0110846D03*
X0135255Y0170154D03*
X0135255Y0176846D03*
D12*
X0160192Y0121240D03*
X0151924Y0117500D03*
X0160192Y0113760D03*
D13*
X0146255Y0074252D03*
X0146255Y0105748D03*
D14*
X0135231Y0127500D03*
X0135231Y0132500D03*
X0135231Y0137500D03*
X0135231Y0142500D03*
X0135231Y0147500D03*
X0135231Y0152500D03*
X0135231Y0157500D03*
X0135231Y0162500D03*
X0157279Y0162500D03*
X0157279Y0157500D03*
X0157279Y0152500D03*
X0157279Y0147500D03*
X0157279Y0142500D03*
X0157279Y0137500D03*
X0157279Y0132500D03*
X0157279Y0127500D03*
D15*
X0124916Y0127953D03*
X0124916Y0129921D03*
X0124916Y0131890D03*
X0124916Y0125984D03*
X0124916Y0124016D03*
X0124916Y0122047D03*
X0124916Y0120079D03*
X0124916Y0118110D03*
D16*
X0124916Y0115354D03*
X0124916Y0112303D03*
X0124916Y0134646D03*
X0124916Y0137697D03*
D17*
X0124995Y0140039D02*
X0120271Y0140039D01*
X0119855Y0140131D01*
X0119470Y0140312D01*
X0119136Y0140574D01*
X0118867Y0140905D01*
X0118680Y0141287D01*
X0118581Y0141701D01*
X0118578Y0142126D01*
X0118605Y0142522D01*
X0118719Y0142902D01*
X0118915Y0143248D01*
X0119183Y0143541D01*
X0119510Y0143767D01*
X0119879Y0143914D01*
X0120271Y0143976D01*
X0124995Y0143976D01*
X0125407Y0143930D01*
X0125798Y0143793D01*
X0126149Y0143573D01*
X0126442Y0143280D01*
X0126662Y0142929D01*
X0126799Y0142538D01*
X0126846Y0142126D01*
X0126823Y0141685D01*
X0126702Y0141260D01*
X0126490Y0140873D01*
X0126197Y0140542D01*
X0125838Y0140286D01*
X0125430Y0140115D01*
X0124995Y0140039D01*
X0125016Y0140043D02*
X0120254Y0140043D01*
X0120081Y0140081D02*
X0125234Y0140081D01*
X0125439Y0140119D02*
X0119909Y0140119D01*
X0119800Y0140157D02*
X0125530Y0140157D01*
X0125620Y0140195D02*
X0119719Y0140195D01*
X0119639Y0140232D02*
X0125711Y0140232D01*
X0125801Y0140270D02*
X0119559Y0140270D01*
X0119478Y0140308D02*
X0125869Y0140308D01*
X0125922Y0140346D02*
X0119427Y0140346D01*
X0119378Y0140384D02*
X0125975Y0140384D01*
X0126028Y0140422D02*
X0119330Y0140422D01*
X0119282Y0140460D02*
X0126081Y0140460D01*
X0126134Y0140498D02*
X0119233Y0140498D01*
X0119185Y0140536D02*
X0126187Y0140536D01*
X0126224Y0140573D02*
X0119137Y0140573D01*
X0119106Y0140611D02*
X0126258Y0140611D01*
X0126291Y0140649D02*
X0119075Y0140649D01*
X0119044Y0140687D02*
X0126325Y0140687D01*
X0126359Y0140725D02*
X0119013Y0140725D01*
X0118983Y0140763D02*
X0126392Y0140763D01*
X0126426Y0140801D02*
X0118952Y0140801D01*
X0118921Y0140839D02*
X0126459Y0140839D01*
X0126492Y0140876D02*
X0118890Y0140876D01*
X0118863Y0140914D02*
X0126513Y0140914D01*
X0126533Y0140952D02*
X0118844Y0140952D01*
X0118826Y0140990D02*
X0126554Y0140990D01*
X0126575Y0141028D02*
X0118807Y0141028D01*
X0118788Y0141066D02*
X0126595Y0141066D01*
X0126616Y0141104D02*
X0118770Y0141104D01*
X0118751Y0141142D02*
X0126637Y0141142D01*
X0126658Y0141179D02*
X0118732Y0141179D01*
X0118714Y0141217D02*
X0126678Y0141217D01*
X0126699Y0141255D02*
X0118695Y0141255D01*
X0118678Y0141293D02*
X0126711Y0141293D01*
X0126722Y0141331D02*
X0118669Y0141331D01*
X0118660Y0141369D02*
X0126733Y0141369D01*
X0126744Y0141407D02*
X0118651Y0141407D01*
X0118642Y0141445D02*
X0126754Y0141445D01*
X0126765Y0141483D02*
X0118633Y0141483D01*
X0118624Y0141520D02*
X0126776Y0141520D01*
X0126787Y0141558D02*
X0118615Y0141558D01*
X0118606Y0141596D02*
X0126797Y0141596D01*
X0126808Y0141634D02*
X0118597Y0141634D01*
X0118588Y0141672D02*
X0126819Y0141672D01*
X0126824Y0141710D02*
X0118581Y0141710D01*
X0118581Y0141748D02*
X0126826Y0141748D01*
X0126828Y0141786D02*
X0118581Y0141786D01*
X0118580Y0141823D02*
X0126830Y0141823D01*
X0126832Y0141861D02*
X0118580Y0141861D01*
X0118580Y0141899D02*
X0126834Y0141899D01*
X0126836Y0141937D02*
X0118580Y0141937D01*
X0118579Y0141975D02*
X0126838Y0141975D01*
X0126840Y0142013D02*
X0118579Y0142013D01*
X0118579Y0142051D02*
X0126842Y0142051D01*
X0126844Y0142089D02*
X0118578Y0142089D01*
X0118578Y0142127D02*
X0126846Y0142127D01*
X0126841Y0142164D02*
X0118580Y0142164D01*
X0118583Y0142202D02*
X0126837Y0142202D01*
X0126833Y0142240D02*
X0118586Y0142240D01*
X0118588Y0142278D02*
X0126828Y0142278D01*
X0126824Y0142316D02*
X0118591Y0142316D01*
X0118593Y0142354D02*
X0126820Y0142354D01*
X0126816Y0142392D02*
X0118596Y0142392D01*
X0118599Y0142430D02*
X0126811Y0142430D01*
X0126807Y0142467D02*
X0118601Y0142467D01*
X0118604Y0142505D02*
X0126803Y0142505D01*
X0126797Y0142543D02*
X0118611Y0142543D01*
X0118623Y0142581D02*
X0126784Y0142581D01*
X0126771Y0142619D02*
X0118634Y0142619D01*
X0118645Y0142657D02*
X0126758Y0142657D01*
X0126744Y0142695D02*
X0118657Y0142695D01*
X0118668Y0142733D02*
X0126731Y0142733D01*
X0126718Y0142771D02*
X0118679Y0142771D01*
X0118691Y0142808D02*
X0126705Y0142808D01*
X0126691Y0142846D02*
X0118702Y0142846D01*
X0118714Y0142884D02*
X0126678Y0142884D01*
X0126665Y0142922D02*
X0118730Y0142922D01*
X0118752Y0142960D02*
X0126643Y0142960D01*
X0126619Y0142998D02*
X0118773Y0142998D01*
X0118795Y0143036D02*
X0126595Y0143036D01*
X0126571Y0143074D02*
X0118816Y0143074D01*
X0118838Y0143111D02*
X0126548Y0143111D01*
X0126524Y0143149D02*
X0118859Y0143149D01*
X0118881Y0143187D02*
X0126500Y0143187D01*
X0126476Y0143225D02*
X0118902Y0143225D01*
X0118929Y0143263D02*
X0126452Y0143263D01*
X0126421Y0143301D02*
X0118964Y0143301D01*
X0118999Y0143339D02*
X0126383Y0143339D01*
X0126345Y0143377D02*
X0119033Y0143377D01*
X0119068Y0143414D02*
X0126307Y0143414D01*
X0126269Y0143452D02*
X0119103Y0143452D01*
X0119137Y0143490D02*
X0126231Y0143490D01*
X0126193Y0143528D02*
X0119172Y0143528D01*
X0119220Y0143566D02*
X0126156Y0143566D01*
X0126099Y0143604D02*
X0119275Y0143604D01*
X0119329Y0143642D02*
X0126039Y0143642D01*
X0125979Y0143680D02*
X0119384Y0143680D01*
X0119439Y0143718D02*
X0125918Y0143718D01*
X0125858Y0143755D02*
X0119494Y0143755D01*
X0119576Y0143793D02*
X0125798Y0143793D01*
X0125689Y0143831D02*
X0119671Y0143831D01*
X0119765Y0143869D02*
X0125581Y0143869D01*
X0125473Y0143907D02*
X0119860Y0143907D01*
X0120071Y0143945D02*
X0125275Y0143945D01*
X0109284Y0142377D02*
X0109326Y0141929D01*
X0109269Y0141501D01*
X0109118Y0141096D01*
X0108881Y0140735D01*
X0108569Y0140436D01*
X0108198Y0140213D01*
X0107788Y0140079D01*
X0107357Y0140039D01*
X0104995Y0140039D01*
X0104565Y0140079D01*
X0104154Y0140213D01*
X0103784Y0140436D01*
X0103472Y0140735D01*
X0103235Y0141096D01*
X0103084Y0141501D01*
X0103027Y0141929D01*
X0103068Y0142377D01*
X0103208Y0142804D01*
X0103440Y0143190D01*
X0103752Y0143514D01*
X0104128Y0143760D01*
X0104549Y0143917D01*
X0104995Y0143976D01*
X0107357Y0143976D01*
X0107803Y0143917D01*
X0108225Y0143760D01*
X0108601Y0143514D01*
X0108912Y0143190D01*
X0109144Y0142804D01*
X0109284Y0142377D01*
X0109280Y0142392D02*
X0103073Y0142392D01*
X0103066Y0142354D02*
X0109286Y0142354D01*
X0109290Y0142316D02*
X0103063Y0142316D01*
X0103059Y0142278D02*
X0109294Y0142278D01*
X0109297Y0142240D02*
X0103056Y0142240D01*
X0103052Y0142202D02*
X0109301Y0142202D01*
X0109304Y0142164D02*
X0103049Y0142164D01*
X0103045Y0142127D02*
X0109308Y0142127D01*
X0109311Y0142089D02*
X0103042Y0142089D01*
X0103038Y0142051D02*
X0109315Y0142051D01*
X0109318Y0142013D02*
X0103034Y0142013D01*
X0103031Y0141975D02*
X0109322Y0141975D01*
X0109325Y0141937D02*
X0103027Y0141937D01*
X0103031Y0141899D02*
X0109322Y0141899D01*
X0109317Y0141861D02*
X0103036Y0141861D01*
X0103041Y0141823D02*
X0109312Y0141823D01*
X0109307Y0141786D02*
X0103046Y0141786D01*
X0103051Y0141748D02*
X0109302Y0141748D01*
X0109297Y0141710D02*
X0103056Y0141710D01*
X0103061Y0141672D02*
X0109292Y0141672D01*
X0109287Y0141634D02*
X0103066Y0141634D01*
X0103071Y0141596D02*
X0109282Y0141596D01*
X0109276Y0141558D02*
X0103076Y0141558D01*
X0103081Y0141520D02*
X0109271Y0141520D01*
X0109262Y0141483D02*
X0103091Y0141483D01*
X0103105Y0141445D02*
X0109248Y0141445D01*
X0109234Y0141407D02*
X0103119Y0141407D01*
X0103133Y0141369D02*
X0109220Y0141369D01*
X0109205Y0141331D02*
X0103147Y0141331D01*
X0103161Y0141293D02*
X0109191Y0141293D01*
X0109177Y0141255D02*
X0103175Y0141255D01*
X0103190Y0141217D02*
X0109163Y0141217D01*
X0109149Y0141179D02*
X0103204Y0141179D01*
X0103218Y0141142D02*
X0109135Y0141142D01*
X0109121Y0141104D02*
X0103232Y0141104D01*
X0103255Y0141066D02*
X0109098Y0141066D01*
X0109073Y0141028D02*
X0103280Y0141028D01*
X0103304Y0140990D02*
X0109048Y0140990D01*
X0109023Y0140952D02*
X0103329Y0140952D01*
X0103354Y0140914D02*
X0108998Y0140914D01*
X0108974Y0140876D02*
X0103379Y0140876D01*
X0103404Y0140839D02*
X0108949Y0140839D01*
X0108924Y0140801D02*
X0103429Y0140801D01*
X0103454Y0140763D02*
X0108899Y0140763D01*
X0108870Y0140725D02*
X0103483Y0140725D01*
X0103522Y0140687D02*
X0108831Y0140687D01*
X0108791Y0140649D02*
X0103562Y0140649D01*
X0103601Y0140611D02*
X0108752Y0140611D01*
X0108712Y0140573D02*
X0103640Y0140573D01*
X0103680Y0140536D02*
X0108673Y0140536D01*
X0108633Y0140498D02*
X0103719Y0140498D01*
X0103759Y0140460D02*
X0108594Y0140460D01*
X0108546Y0140422D02*
X0103807Y0140422D01*
X0103870Y0140384D02*
X0108483Y0140384D01*
X0108420Y0140346D02*
X0103933Y0140346D01*
X0103996Y0140308D02*
X0108356Y0140308D01*
X0108293Y0140270D02*
X0104059Y0140270D01*
X0104122Y0140232D02*
X0108230Y0140232D01*
X0108141Y0140195D02*
X0104212Y0140195D01*
X0104327Y0140157D02*
X0108025Y0140157D01*
X0107909Y0140119D02*
X0104443Y0140119D01*
X0104559Y0140081D02*
X0107794Y0140081D01*
X0107397Y0140043D02*
X0104955Y0140043D01*
X0103086Y0142430D02*
X0109267Y0142430D01*
X0109255Y0142467D02*
X0103098Y0142467D01*
X0103110Y0142505D02*
X0109242Y0142505D01*
X0109230Y0142543D02*
X0103123Y0142543D01*
X0103135Y0142581D02*
X0109217Y0142581D01*
X0109205Y0142619D02*
X0103148Y0142619D01*
X0103160Y0142657D02*
X0109193Y0142657D01*
X0109180Y0142695D02*
X0103173Y0142695D01*
X0103185Y0142733D02*
X0109168Y0142733D01*
X0109155Y0142771D02*
X0103197Y0142771D01*
X0103211Y0142808D02*
X0109142Y0142808D01*
X0109119Y0142846D02*
X0103234Y0142846D01*
X0103257Y0142884D02*
X0109096Y0142884D01*
X0109073Y0142922D02*
X0103279Y0142922D01*
X0103302Y0142960D02*
X0109051Y0142960D01*
X0109028Y0142998D02*
X0103325Y0142998D01*
X0103348Y0143036D02*
X0109005Y0143036D01*
X0108982Y0143074D02*
X0103370Y0143074D01*
X0103393Y0143111D02*
X0108959Y0143111D01*
X0108937Y0143149D02*
X0103416Y0143149D01*
X0103439Y0143187D02*
X0108914Y0143187D01*
X0108878Y0143225D02*
X0103474Y0143225D01*
X0103511Y0143263D02*
X0108842Y0143263D01*
X0108805Y0143301D02*
X0103547Y0143301D01*
X0103584Y0143339D02*
X0108769Y0143339D01*
X0108733Y0143377D02*
X0103620Y0143377D01*
X0103656Y0143414D02*
X0108696Y0143414D01*
X0108660Y0143452D02*
X0103693Y0143452D01*
X0103729Y0143490D02*
X0108623Y0143490D01*
X0108579Y0143528D02*
X0103774Y0143528D01*
X0103832Y0143566D02*
X0108521Y0143566D01*
X0108463Y0143604D02*
X0103889Y0143604D01*
X0103947Y0143642D02*
X0108406Y0143642D01*
X0108348Y0143680D02*
X0104005Y0143680D01*
X0104063Y0143718D02*
X0108290Y0143718D01*
X0108232Y0143755D02*
X0104120Y0143755D01*
X0104216Y0143793D02*
X0108136Y0143793D01*
X0108035Y0143831D02*
X0104318Y0143831D01*
X0104420Y0143869D02*
X0107933Y0143869D01*
X0107831Y0143907D02*
X0104522Y0143907D01*
X0104757Y0143945D02*
X0107595Y0143945D01*
X0107161Y0109961D02*
X0107615Y0109940D01*
X0108054Y0109820D01*
X0108455Y0109604D01*
X0108798Y0109305D01*
X0109065Y0108937D01*
X0109244Y0108519D01*
X0109326Y0108071D01*
X0109284Y0107623D01*
X0109144Y0107196D01*
X0108912Y0106810D01*
X0108601Y0106486D01*
X0108225Y0106240D01*
X0107803Y0106083D01*
X0107357Y0106024D01*
X0104995Y0106024D01*
X0104569Y0106058D01*
X0104161Y0106187D01*
X0103792Y0106403D01*
X0103480Y0106696D01*
X0103241Y0107051D01*
X0103088Y0107451D01*
X0103027Y0107874D01*
X0103040Y0108307D01*
X0103149Y0108727D01*
X0103349Y0109111D01*
X0103630Y0109442D01*
X0103977Y0109701D01*
X0104373Y0109877D01*
X0104798Y0109961D01*
X0107161Y0109961D01*
X0107663Y0109927D02*
X0104629Y0109927D01*
X0104435Y0109889D02*
X0107800Y0109889D01*
X0107938Y0109852D02*
X0104315Y0109852D01*
X0104230Y0109814D02*
X0108065Y0109814D01*
X0108135Y0109776D02*
X0104145Y0109776D01*
X0104060Y0109738D02*
X0108206Y0109738D01*
X0108276Y0109700D02*
X0103975Y0109700D01*
X0103925Y0109662D02*
X0108347Y0109662D01*
X0108417Y0109624D02*
X0103874Y0109624D01*
X0103823Y0109586D02*
X0108475Y0109586D01*
X0108519Y0109549D02*
X0103773Y0109549D01*
X0103722Y0109511D02*
X0108562Y0109511D01*
X0108605Y0109473D02*
X0103672Y0109473D01*
X0103624Y0109435D02*
X0108649Y0109435D01*
X0108692Y0109397D02*
X0103592Y0109397D01*
X0103560Y0109359D02*
X0108736Y0109359D01*
X0108779Y0109321D02*
X0103528Y0109321D01*
X0103496Y0109283D02*
X0108813Y0109283D01*
X0108841Y0109245D02*
X0103463Y0109245D01*
X0103431Y0109208D02*
X0108868Y0109208D01*
X0108896Y0109170D02*
X0103399Y0109170D01*
X0103367Y0109132D02*
X0108924Y0109132D01*
X0108951Y0109094D02*
X0103340Y0109094D01*
X0103321Y0109056D02*
X0108979Y0109056D01*
X0109006Y0109018D02*
X0103301Y0109018D01*
X0103281Y0108980D02*
X0109034Y0108980D01*
X0109061Y0108942D02*
X0103262Y0108942D01*
X0103242Y0108905D02*
X0109079Y0108905D01*
X0109095Y0108867D02*
X0103222Y0108867D01*
X0103203Y0108829D02*
X0109112Y0108829D01*
X0109128Y0108791D02*
X0103183Y0108791D01*
X0103163Y0108753D02*
X0109144Y0108753D01*
X0109160Y0108715D02*
X0103146Y0108715D01*
X0103137Y0108677D02*
X0109177Y0108677D01*
X0109193Y0108639D02*
X0103127Y0108639D01*
X0103117Y0108601D02*
X0109209Y0108601D01*
X0109225Y0108564D02*
X0103107Y0108564D01*
X0103097Y0108526D02*
X0109241Y0108526D01*
X0109250Y0108488D02*
X0103087Y0108488D01*
X0103077Y0108450D02*
X0109257Y0108450D01*
X0109264Y0108412D02*
X0103067Y0108412D01*
X0103058Y0108374D02*
X0109271Y0108374D01*
X0109278Y0108336D02*
X0103048Y0108336D01*
X0103040Y0108298D02*
X0109285Y0108298D01*
X0109291Y0108261D02*
X0103039Y0108261D01*
X0103037Y0108223D02*
X0109298Y0108223D01*
X0109305Y0108185D02*
X0103036Y0108185D01*
X0103035Y0108147D02*
X0109312Y0108147D01*
X0109319Y0108109D02*
X0103034Y0108109D01*
X0103033Y0108071D02*
X0109326Y0108071D01*
X0109322Y0108033D02*
X0103032Y0108033D01*
X0103030Y0107995D02*
X0109319Y0107995D01*
X0109315Y0107958D02*
X0103029Y0107958D01*
X0103028Y0107920D02*
X0109312Y0107920D01*
X0109308Y0107882D02*
X0103027Y0107882D01*
X0103031Y0107844D02*
X0109305Y0107844D01*
X0109301Y0107806D02*
X0103037Y0107806D01*
X0103042Y0107768D02*
X0109298Y0107768D01*
X0109294Y0107730D02*
X0103047Y0107730D01*
X0103053Y0107692D02*
X0109291Y0107692D01*
X0109287Y0107654D02*
X0103058Y0107654D01*
X0103064Y0107617D02*
X0109282Y0107617D01*
X0109270Y0107579D02*
X0103069Y0107579D01*
X0103075Y0107541D02*
X0109257Y0107541D01*
X0109245Y0107503D02*
X0103080Y0107503D01*
X0103086Y0107465D02*
X0109233Y0107465D01*
X0109220Y0107427D02*
X0103097Y0107427D01*
X0103111Y0107389D02*
X0109208Y0107389D01*
X0109195Y0107351D02*
X0103126Y0107351D01*
X0103141Y0107314D02*
X0109183Y0107314D01*
X0109170Y0107276D02*
X0103155Y0107276D01*
X0103170Y0107238D02*
X0109158Y0107238D01*
X0109146Y0107200D02*
X0103184Y0107200D01*
X0103199Y0107162D02*
X0109124Y0107162D01*
X0109101Y0107124D02*
X0103213Y0107124D01*
X0103228Y0107086D02*
X0109078Y0107086D01*
X0109056Y0107048D02*
X0103243Y0107048D01*
X0103269Y0107010D02*
X0109033Y0107010D01*
X0109010Y0106973D02*
X0103294Y0106973D01*
X0103320Y0106935D02*
X0108987Y0106935D01*
X0108964Y0106897D02*
X0103345Y0106897D01*
X0103371Y0106859D02*
X0108942Y0106859D01*
X0108919Y0106821D02*
X0103396Y0106821D01*
X0103422Y0106783D02*
X0108886Y0106783D01*
X0108850Y0106745D02*
X0103447Y0106745D01*
X0103473Y0106707D02*
X0108813Y0106707D01*
X0108777Y0106670D02*
X0103509Y0106670D01*
X0103549Y0106632D02*
X0108741Y0106632D01*
X0108704Y0106594D02*
X0103589Y0106594D01*
X0103630Y0106556D02*
X0108668Y0106556D01*
X0108631Y0106518D02*
X0103670Y0106518D01*
X0103710Y0106480D02*
X0108591Y0106480D01*
X0108534Y0106442D02*
X0103750Y0106442D01*
X0103791Y0106404D02*
X0108476Y0106404D01*
X0108418Y0106366D02*
X0103855Y0106366D01*
X0103919Y0106329D02*
X0108360Y0106329D01*
X0108303Y0106291D02*
X0103984Y0106291D01*
X0104049Y0106253D02*
X0108245Y0106253D01*
X0108159Y0106215D02*
X0104113Y0106215D01*
X0104193Y0106177D02*
X0108057Y0106177D01*
X0107955Y0106139D02*
X0104313Y0106139D01*
X0104433Y0106101D02*
X0107853Y0106101D01*
X0107658Y0106063D02*
X0104553Y0106063D01*
X0104972Y0106026D02*
X0107372Y0106026D01*
X0118585Y0107650D02*
X0118578Y0108071D01*
X0118577Y0108453D01*
X0118660Y0108825D01*
X0118825Y0109169D01*
X0119061Y0109469D01*
X0119359Y0109708D01*
X0119702Y0109874D01*
X0120074Y0109961D01*
X0124798Y0109961D01*
X0125238Y0109929D01*
X0125660Y0109800D01*
X0126043Y0109580D01*
X0126367Y0109281D01*
X0126617Y0108917D01*
X0126779Y0108507D01*
X0126846Y0108071D01*
X0126819Y0107635D01*
X0126695Y0107216D01*
X0126482Y0106834D01*
X0126189Y0106510D01*
X0125831Y0106259D01*
X0125426Y0106094D01*
X0124995Y0106024D01*
X0120271Y0106024D01*
X0119859Y0106110D01*
X0119477Y0106286D01*
X0119143Y0106542D01*
X0118875Y0106866D01*
X0118686Y0107242D01*
X0118585Y0107650D01*
X0118585Y0107654D02*
X0126820Y0107654D01*
X0126813Y0107617D02*
X0118594Y0107617D01*
X0118603Y0107579D02*
X0126802Y0107579D01*
X0126791Y0107541D02*
X0118612Y0107541D01*
X0118622Y0107503D02*
X0126780Y0107503D01*
X0126769Y0107465D02*
X0118631Y0107465D01*
X0118640Y0107427D02*
X0126758Y0107427D01*
X0126746Y0107389D02*
X0118650Y0107389D01*
X0118659Y0107351D02*
X0126735Y0107351D01*
X0126724Y0107314D02*
X0118669Y0107314D01*
X0118678Y0107276D02*
X0126713Y0107276D01*
X0126702Y0107238D02*
X0118688Y0107238D01*
X0118707Y0107200D02*
X0126687Y0107200D01*
X0126665Y0107162D02*
X0118726Y0107162D01*
X0118746Y0107124D02*
X0126644Y0107124D01*
X0126623Y0107086D02*
X0118765Y0107086D01*
X0118784Y0107048D02*
X0126602Y0107048D01*
X0126580Y0107010D02*
X0118803Y0107010D01*
X0118822Y0106973D02*
X0126559Y0106973D01*
X0126538Y0106935D02*
X0118841Y0106935D01*
X0118860Y0106897D02*
X0126517Y0106897D01*
X0126496Y0106859D02*
X0118881Y0106859D01*
X0118913Y0106821D02*
X0126470Y0106821D01*
X0126436Y0106783D02*
X0118944Y0106783D01*
X0118975Y0106745D02*
X0126401Y0106745D01*
X0126367Y0106707D02*
X0119007Y0106707D01*
X0119038Y0106670D02*
X0126333Y0106670D01*
X0126299Y0106632D02*
X0119069Y0106632D01*
X0119101Y0106594D02*
X0126264Y0106594D01*
X0126230Y0106556D02*
X0119132Y0106556D01*
X0119175Y0106518D02*
X0126196Y0106518D01*
X0126146Y0106480D02*
X0119224Y0106480D01*
X0119273Y0106442D02*
X0126092Y0106442D01*
X0126038Y0106404D02*
X0119323Y0106404D01*
X0119372Y0106366D02*
X0125984Y0106366D01*
X0125930Y0106329D02*
X0119421Y0106329D01*
X0119470Y0106291D02*
X0125876Y0106291D01*
X0125815Y0106253D02*
X0119548Y0106253D01*
X0119631Y0106215D02*
X0125722Y0106215D01*
X0125629Y0106177D02*
X0119713Y0106177D01*
X0119795Y0106139D02*
X0125536Y0106139D01*
X0125443Y0106101D02*
X0119900Y0106101D01*
X0120081Y0106063D02*
X0125238Y0106063D01*
X0125007Y0106026D02*
X0120262Y0106026D01*
X0118585Y0107692D02*
X0126822Y0107692D01*
X0126825Y0107730D02*
X0118584Y0107730D01*
X0118583Y0107768D02*
X0126827Y0107768D01*
X0126829Y0107806D02*
X0118583Y0107806D01*
X0118582Y0107844D02*
X0126832Y0107844D01*
X0126834Y0107882D02*
X0118581Y0107882D01*
X0118581Y0107920D02*
X0126836Y0107920D01*
X0126839Y0107958D02*
X0118580Y0107958D01*
X0118579Y0107995D02*
X0126841Y0107995D01*
X0126843Y0108033D02*
X0118579Y0108033D01*
X0118578Y0108071D02*
X0126846Y0108071D01*
X0126840Y0108109D02*
X0118578Y0108109D01*
X0118578Y0108147D02*
X0126834Y0108147D01*
X0126828Y0108185D02*
X0118578Y0108185D01*
X0118577Y0108223D02*
X0126822Y0108223D01*
X0126817Y0108261D02*
X0118577Y0108261D01*
X0118577Y0108298D02*
X0126811Y0108298D01*
X0126805Y0108336D02*
X0118577Y0108336D01*
X0118577Y0108374D02*
X0126799Y0108374D01*
X0126793Y0108412D02*
X0118577Y0108412D01*
X0118577Y0108450D02*
X0126787Y0108450D01*
X0126782Y0108488D02*
X0118584Y0108488D01*
X0118593Y0108526D02*
X0126771Y0108526D01*
X0126756Y0108564D02*
X0118601Y0108564D01*
X0118610Y0108601D02*
X0126741Y0108601D01*
X0126726Y0108639D02*
X0118618Y0108639D01*
X0118627Y0108677D02*
X0126711Y0108677D01*
X0126696Y0108715D02*
X0118636Y0108715D01*
X0118644Y0108753D02*
X0126681Y0108753D01*
X0126666Y0108791D02*
X0118653Y0108791D01*
X0118662Y0108829D02*
X0126651Y0108829D01*
X0126636Y0108867D02*
X0118680Y0108867D01*
X0118698Y0108905D02*
X0126622Y0108905D01*
X0126599Y0108942D02*
X0118716Y0108942D01*
X0118734Y0108980D02*
X0126573Y0108980D01*
X0126547Y0109018D02*
X0118752Y0109018D01*
X0118770Y0109056D02*
X0126521Y0109056D01*
X0126495Y0109094D02*
X0118789Y0109094D01*
X0118807Y0109132D02*
X0126469Y0109132D01*
X0126443Y0109170D02*
X0118825Y0109170D01*
X0118855Y0109208D02*
X0126417Y0109208D01*
X0126391Y0109245D02*
X0118885Y0109245D01*
X0118915Y0109283D02*
X0126365Y0109283D01*
X0126323Y0109321D02*
X0118945Y0109321D01*
X0118975Y0109359D02*
X0126282Y0109359D01*
X0126241Y0109397D02*
X0119005Y0109397D01*
X0119035Y0109435D02*
X0126200Y0109435D01*
X0126159Y0109473D02*
X0119067Y0109473D01*
X0119114Y0109511D02*
X0126118Y0109511D01*
X0126077Y0109549D02*
X0119161Y0109549D01*
X0119208Y0109586D02*
X0126032Y0109586D01*
X0125966Y0109624D02*
X0119255Y0109624D01*
X0119302Y0109662D02*
X0125900Y0109662D01*
X0125834Y0109700D02*
X0119350Y0109700D01*
X0119421Y0109738D02*
X0125768Y0109738D01*
X0125702Y0109776D02*
X0119499Y0109776D01*
X0119577Y0109814D02*
X0125615Y0109814D01*
X0125491Y0109852D02*
X0119655Y0109852D01*
X0119767Y0109889D02*
X0125367Y0109889D01*
X0125243Y0109927D02*
X0119930Y0109927D01*
D18*
X0109602Y0100000D03*
X0102909Y0100000D03*
X0102909Y0150000D03*
X0109602Y0150000D03*
X0142909Y0170000D03*
X0149602Y0170000D03*
X0149602Y0177500D03*
X0142909Y0177500D03*
X0227909Y0070000D03*
X0234602Y0070000D03*
D19*
X0233040Y0089574D03*
X0217292Y0089574D03*
X0201544Y0089574D03*
X0209418Y0101385D03*
X0225166Y0101385D03*
X0217292Y0148674D03*
X0201544Y0148674D03*
X0209418Y0160485D03*
X0225166Y0160485D03*
X0240914Y0160485D03*
X0233040Y0148674D03*
X0248788Y0148674D03*
M02*
