G75*
%MOIN*%
%OFA0B0*%
%FSLAX25Y25*%
%IPPOS*%
%LPD*%
%AMOC8*
5,1,8,0,0,1.08239X$1,22.5*
%
%ADD10C,0.00800*%
%ADD11C,0.01000*%
%ADD12R,0.09449X0.00157*%
%ADD13R,0.09606X0.00157*%
%ADD14R,0.09921X0.00157*%
%ADD15R,0.10079X0.00157*%
%ADD16R,0.10236X0.00157*%
%ADD17R,0.10394X0.00157*%
%ADD18R,0.10551X0.00157*%
%ADD19R,0.03780X0.00157*%
%ADD20R,0.06457X0.00157*%
%ADD21R,0.03307X0.00157*%
%ADD22R,0.00945X0.00157*%
%ADD23R,0.02677X0.00157*%
%ADD24R,0.03150X0.00157*%
%ADD25R,0.00630X0.00157*%
%ADD26R,0.02362X0.00157*%
%ADD27R,0.00472X0.00157*%
%ADD28R,0.02205X0.00157*%
%ADD29R,0.02047X0.00157*%
%ADD30R,0.01890X0.00157*%
%ADD31R,0.01102X0.00157*%
%ADD32R,0.01732X0.00157*%
%ADD33R,0.01417X0.00157*%
%ADD34R,0.00787X0.00157*%
%ADD35R,0.01260X0.00157*%
%ADD36R,0.02835X0.00157*%
%ADD37R,0.02992X0.00157*%
%ADD38R,0.02520X0.00157*%
%ADD39R,0.03937X0.00157*%
%ADD40R,0.04094X0.00157*%
%ADD41R,0.13858X0.00157*%
%ADD42R,0.01575X0.00157*%
%ADD43R,0.00315X0.00157*%
%ADD44R,0.00157X0.00157*%
%ADD45R,0.13071X0.00157*%
%ADD46R,0.12913X0.00157*%
%ADD47R,0.12756X0.00157*%
%ADD48R,0.12598X0.00157*%
%ADD49R,0.12441X0.00157*%
%ADD50R,0.12283X0.00157*%
%ADD51R,0.12126X0.00157*%
%ADD52R,0.06614X0.00157*%
%ADD53R,0.03465X0.00157*%
%ADD54R,0.16535X0.00157*%
%ADD55R,0.16378X0.00157*%
%ADD56R,0.16220X0.00157*%
%ADD57R,0.16063X0.00157*%
%ADD58R,0.15906X0.00157*%
%ADD59R,0.15748X0.00157*%
%ADD60R,0.15591X0.00157*%
%ADD61R,0.05512X0.00157*%
%ADD62R,0.14961X0.00157*%
%ADD63R,0.04252X0.00157*%
%ADD64C,0.00300*%
%ADD65R,0.17008X0.00157*%
%ADD66R,0.17165X0.00157*%
%ADD67R,0.17480X0.00157*%
%ADD68R,0.17638X0.00157*%
%ADD69R,0.17795X0.00157*%
%ADD70R,0.17953X0.00157*%
%ADD71R,0.18110X0.00157*%
%ADD72R,0.18268X0.00157*%
%ADD73R,0.03622X0.00157*%
%ADD74R,0.18425X0.00157*%
%ADD75R,0.18583X0.00157*%
%ADD76R,0.18740X0.00157*%
%ADD77R,0.18898X0.00157*%
%ADD78R,0.19055X0.00157*%
D10*
X0122633Y0079764D02*
X0131688Y0079764D01*
X0122633Y0079764D02*
X0122633Y0100236D01*
X0132082Y0100236D01*
X0117594Y0107992D02*
X0110507Y0107992D01*
X0112505Y0094375D02*
X0112505Y0090625D01*
X0132081Y0100237D02*
X0132270Y0100534D01*
X0132465Y0100828D01*
X0132667Y0101116D01*
X0132875Y0101401D01*
X0133090Y0101680D01*
X0133311Y0101954D01*
X0133538Y0102224D01*
X0133771Y0102488D01*
X0134010Y0102747D01*
X0134255Y0103001D01*
X0153499Y0111988D02*
X0156649Y0111988D01*
X0153499Y0111988D02*
X0153499Y0114350D01*
X0153499Y0120650D02*
X0153499Y0123012D01*
X0156649Y0123012D01*
X0153918Y0125800D02*
X0153918Y0164200D01*
X0153906Y0164281D01*
X0153891Y0164361D01*
X0153872Y0164440D01*
X0153850Y0164518D01*
X0153823Y0164595D01*
X0153794Y0164671D01*
X0153760Y0164745D01*
X0153723Y0164817D01*
X0153683Y0164888D01*
X0153639Y0164956D01*
X0153592Y0165023D01*
X0153542Y0165087D01*
X0153489Y0165148D01*
X0153433Y0165207D01*
X0153374Y0165264D01*
X0153313Y0165317D01*
X0153249Y0165368D01*
X0153183Y0165415D01*
X0153115Y0165459D01*
X0153045Y0165500D01*
X0152973Y0165538D01*
X0152899Y0165572D01*
X0152823Y0165602D01*
X0152747Y0165629D01*
X0152669Y0165652D01*
X0152590Y0165672D01*
X0152510Y0165687D01*
X0152429Y0165699D01*
X0152349Y0165707D01*
X0152267Y0165711D01*
X0152186Y0165712D01*
X0152105Y0165708D01*
X0152024Y0165701D01*
X0151974Y0165700D02*
X0148655Y0165700D01*
X0148655Y0165500D02*
X0148653Y0165402D01*
X0148647Y0165304D01*
X0148638Y0165206D01*
X0148624Y0165109D01*
X0148607Y0165012D01*
X0148586Y0164916D01*
X0148561Y0164821D01*
X0148533Y0164727D01*
X0148500Y0164635D01*
X0148465Y0164543D01*
X0148425Y0164453D01*
X0148383Y0164365D01*
X0148336Y0164278D01*
X0148287Y0164194D01*
X0148234Y0164111D01*
X0148178Y0164031D01*
X0148118Y0163952D01*
X0148056Y0163876D01*
X0147991Y0163803D01*
X0147923Y0163732D01*
X0147852Y0163664D01*
X0147779Y0163599D01*
X0147703Y0163537D01*
X0147624Y0163477D01*
X0147544Y0163421D01*
X0147461Y0163368D01*
X0147377Y0163319D01*
X0147290Y0163272D01*
X0147202Y0163230D01*
X0147112Y0163190D01*
X0147020Y0163155D01*
X0146928Y0163122D01*
X0146834Y0163094D01*
X0146739Y0163069D01*
X0146643Y0163048D01*
X0146546Y0163031D01*
X0146449Y0163017D01*
X0146351Y0163008D01*
X0146253Y0163002D01*
X0146155Y0163000D01*
X0146057Y0163002D01*
X0145959Y0163008D01*
X0145861Y0163017D01*
X0145764Y0163031D01*
X0145667Y0163048D01*
X0145571Y0163069D01*
X0145476Y0163094D01*
X0145382Y0163122D01*
X0145290Y0163155D01*
X0145198Y0163190D01*
X0145108Y0163230D01*
X0145020Y0163272D01*
X0144933Y0163319D01*
X0144849Y0163368D01*
X0144766Y0163421D01*
X0144686Y0163477D01*
X0144607Y0163537D01*
X0144531Y0163599D01*
X0144458Y0163664D01*
X0144387Y0163732D01*
X0144319Y0163803D01*
X0144254Y0163876D01*
X0144192Y0163952D01*
X0144132Y0164031D01*
X0144076Y0164111D01*
X0144023Y0164194D01*
X0143974Y0164278D01*
X0143927Y0164365D01*
X0143885Y0164453D01*
X0143845Y0164543D01*
X0143810Y0164635D01*
X0143777Y0164727D01*
X0143749Y0164821D01*
X0143724Y0164916D01*
X0143703Y0165012D01*
X0143686Y0165109D01*
X0143672Y0165206D01*
X0143663Y0165304D01*
X0143657Y0165402D01*
X0143655Y0165500D01*
X0143655Y0165700D02*
X0139699Y0165700D01*
X0139699Y0165699D02*
X0139629Y0165687D01*
X0139559Y0165670D01*
X0139491Y0165650D01*
X0139423Y0165627D01*
X0139357Y0165599D01*
X0139293Y0165568D01*
X0139231Y0165534D01*
X0139170Y0165496D01*
X0139111Y0165456D01*
X0139055Y0165412D01*
X0139002Y0165365D01*
X0138950Y0165315D01*
X0138902Y0165262D01*
X0138857Y0165207D01*
X0138814Y0165150D01*
X0138775Y0165090D01*
X0138739Y0165028D01*
X0138707Y0164965D01*
X0138678Y0164900D01*
X0138652Y0164833D01*
X0138630Y0164765D01*
X0138612Y0164696D01*
X0138598Y0164626D01*
X0138588Y0164555D01*
X0138581Y0164484D01*
X0138578Y0164413D01*
X0138579Y0164342D01*
X0138584Y0164270D01*
X0138593Y0164200D01*
X0138592Y0164200D02*
X0138592Y0125406D01*
X0138593Y0125406D02*
X0138605Y0125336D01*
X0138622Y0125266D01*
X0138642Y0125198D01*
X0138666Y0125131D01*
X0138693Y0125065D01*
X0138724Y0125000D01*
X0138758Y0124938D01*
X0138796Y0124877D01*
X0138837Y0124819D01*
X0138881Y0124762D01*
X0138928Y0124709D01*
X0138978Y0124658D01*
X0139030Y0124609D01*
X0139085Y0124564D01*
X0139143Y0124521D01*
X0139202Y0124482D01*
X0139264Y0124446D01*
X0139328Y0124414D01*
X0139393Y0124385D01*
X0139459Y0124359D01*
X0139527Y0124338D01*
X0139597Y0124319D01*
X0139666Y0124305D01*
X0139737Y0124295D01*
X0139808Y0124288D01*
X0139879Y0124285D01*
X0139951Y0124286D01*
X0140022Y0124291D01*
X0140093Y0124300D01*
X0140092Y0124300D02*
X0152418Y0124300D01*
X0152494Y0124302D01*
X0152569Y0124308D01*
X0152645Y0124317D01*
X0152720Y0124331D01*
X0152794Y0124348D01*
X0152867Y0124369D01*
X0152939Y0124393D01*
X0153009Y0124421D01*
X0153078Y0124453D01*
X0153146Y0124488D01*
X0153211Y0124527D01*
X0153275Y0124569D01*
X0153336Y0124614D01*
X0153395Y0124662D01*
X0153451Y0124713D01*
X0153505Y0124767D01*
X0153556Y0124823D01*
X0153604Y0124882D01*
X0153649Y0124943D01*
X0153691Y0125007D01*
X0153730Y0125072D01*
X0153765Y0125140D01*
X0153797Y0125209D01*
X0153825Y0125279D01*
X0153849Y0125351D01*
X0153870Y0125424D01*
X0153887Y0125498D01*
X0153901Y0125573D01*
X0153910Y0125649D01*
X0153916Y0125724D01*
X0153918Y0125800D01*
X0117594Y0142008D02*
X0110507Y0142008D01*
X0152755Y0168000D02*
X0152755Y0172000D01*
X0286255Y0157500D02*
X0286255Y0152500D01*
X0288755Y0150000D01*
X0286255Y0147500D01*
X0286255Y0142500D01*
X0288755Y0140000D01*
X0286255Y0137500D01*
X0286255Y0132500D01*
X0288755Y0130000D01*
X0286255Y0127500D01*
X0286255Y0122500D01*
X0288755Y0120000D01*
X0286255Y0117500D01*
X0286255Y0112500D01*
X0288755Y0110000D01*
X0286255Y0107500D01*
X0286255Y0102500D01*
X0288755Y0100000D01*
X0286255Y0097500D01*
X0286255Y0092500D01*
X0288755Y0090000D01*
X0293755Y0090000D01*
X0296255Y0092500D01*
X0296255Y0097500D01*
X0293755Y0100000D01*
X0296255Y0102500D01*
X0296255Y0107500D01*
X0293755Y0110000D01*
X0296255Y0112500D01*
X0296255Y0117500D01*
X0293755Y0120000D01*
X0296255Y0122500D01*
X0296255Y0127500D01*
X0293755Y0130000D01*
X0296255Y0132500D01*
X0296255Y0137500D01*
X0293755Y0140000D01*
X0296255Y0142500D01*
X0296255Y0147500D01*
X0293755Y0150000D01*
X0296255Y0152500D01*
X0296255Y0157500D01*
X0293755Y0160000D01*
X0288755Y0160000D01*
X0286255Y0157500D01*
X0139956Y0073464D02*
X0139532Y0073637D01*
X0139113Y0073820D01*
X0138698Y0074013D01*
X0138288Y0074216D01*
X0137882Y0074428D01*
X0137482Y0074651D01*
X0137088Y0074883D01*
X0136699Y0075124D01*
X0136316Y0075374D01*
X0135939Y0075634D01*
X0135568Y0075902D01*
X0135204Y0076180D01*
X0134847Y0076466D01*
X0134496Y0076760D01*
X0134153Y0077063D01*
X0133817Y0077374D01*
X0133489Y0077693D01*
X0133169Y0078020D01*
X0132856Y0078354D01*
X0132552Y0078696D01*
X0132255Y0079045D01*
X0131968Y0079401D01*
X0131689Y0079763D01*
X0152755Y0073500D02*
X0153143Y0073661D01*
X0153527Y0073830D01*
X0153906Y0074009D01*
X0154282Y0074197D01*
X0154652Y0074393D01*
X0155018Y0074599D01*
X0155379Y0074813D01*
X0155735Y0075035D01*
X0156086Y0075265D01*
X0156431Y0075504D01*
X0156770Y0075751D01*
X0157103Y0076006D01*
X0157430Y0076269D01*
X0157751Y0076539D01*
X0158066Y0076817D01*
X0158374Y0077102D01*
X0158675Y0077394D01*
X0158969Y0077694D01*
X0159256Y0078000D01*
X0163255Y0085000D02*
X0163372Y0085410D01*
X0163480Y0085823D01*
X0163577Y0086239D01*
X0163664Y0086657D01*
X0163741Y0087077D01*
X0163808Y0087499D01*
X0163865Y0087922D01*
X0163911Y0088346D01*
X0163947Y0088772D01*
X0163973Y0089198D01*
X0163988Y0089625D01*
X0163993Y0090051D01*
X0163988Y0090478D01*
X0163972Y0090905D01*
X0163946Y0091331D01*
X0163910Y0091757D01*
X0163863Y0092181D01*
X0163806Y0092604D01*
X0163739Y0093026D01*
X0163661Y0093446D01*
X0163574Y0093863D01*
X0163476Y0094279D01*
X0163368Y0094692D01*
X0163251Y0095103D01*
X0163123Y0095510D01*
X0162986Y0095914D01*
X0162838Y0096315D01*
X0162681Y0096712D01*
X0162515Y0097105D01*
X0162339Y0097494D01*
X0162154Y0097879D01*
X0161959Y0098259D01*
X0161755Y0098634D01*
X0161543Y0099004D01*
X0161321Y0099369D01*
X0161090Y0099728D01*
X0160851Y0100082D01*
X0160604Y0100430D01*
X0160348Y0100772D01*
X0160083Y0101107D01*
X0159811Y0101436D01*
X0159531Y0101758D01*
X0159243Y0102073D01*
X0158948Y0102381D01*
X0158645Y0102682D01*
X0158335Y0102976D01*
X0158018Y0103262D01*
X0157694Y0103540D01*
X0157363Y0103810D01*
X0157026Y0104072D01*
X0156683Y0104326D01*
X0156334Y0104572D01*
X0155978Y0104809D01*
X0155618Y0105037D01*
X0155251Y0105256D01*
X0154880Y0105467D01*
X0154503Y0105668D01*
X0154122Y0105860D01*
X0153736Y0106043D01*
X0153346Y0106217D01*
X0152952Y0106381D01*
X0152554Y0106535D01*
D11*
X0135755Y0167500D02*
X0135757Y0167544D01*
X0135763Y0167588D01*
X0135773Y0167631D01*
X0135786Y0167673D01*
X0135803Y0167714D01*
X0135824Y0167753D01*
X0135848Y0167790D01*
X0135875Y0167825D01*
X0135905Y0167857D01*
X0135938Y0167887D01*
X0135974Y0167913D01*
X0136011Y0167937D01*
X0136051Y0167956D01*
X0136092Y0167973D01*
X0136135Y0167985D01*
X0136178Y0167994D01*
X0136222Y0167999D01*
X0136266Y0168000D01*
X0136310Y0167997D01*
X0136354Y0167990D01*
X0136397Y0167979D01*
X0136439Y0167965D01*
X0136479Y0167947D01*
X0136518Y0167925D01*
X0136554Y0167901D01*
X0136588Y0167873D01*
X0136620Y0167842D01*
X0136649Y0167808D01*
X0136675Y0167772D01*
X0136697Y0167734D01*
X0136716Y0167694D01*
X0136731Y0167652D01*
X0136743Y0167610D01*
X0136751Y0167566D01*
X0136755Y0167522D01*
X0136755Y0167478D01*
X0136751Y0167434D01*
X0136743Y0167390D01*
X0136731Y0167348D01*
X0136716Y0167306D01*
X0136697Y0167266D01*
X0136675Y0167228D01*
X0136649Y0167192D01*
X0136620Y0167158D01*
X0136588Y0167127D01*
X0136554Y0167099D01*
X0136518Y0167075D01*
X0136479Y0167053D01*
X0136439Y0167035D01*
X0136397Y0167021D01*
X0136354Y0167010D01*
X0136310Y0167003D01*
X0136266Y0167000D01*
X0136222Y0167001D01*
X0136178Y0167006D01*
X0136135Y0167015D01*
X0136092Y0167027D01*
X0136051Y0167044D01*
X0136011Y0167063D01*
X0135974Y0167087D01*
X0135938Y0167113D01*
X0135905Y0167143D01*
X0135875Y0167175D01*
X0135848Y0167210D01*
X0135824Y0167247D01*
X0135803Y0167286D01*
X0135786Y0167327D01*
X0135773Y0167369D01*
X0135763Y0167412D01*
X0135757Y0167456D01*
X0135755Y0167500D01*
D12*
X0283129Y0098150D03*
X0283129Y0091850D03*
D13*
X0283050Y0092008D03*
X0283050Y0097992D03*
X0282950Y0147047D03*
D14*
X0282893Y0097835D03*
X0282893Y0092165D03*
D15*
X0282814Y0092323D03*
X0282814Y0097677D03*
D16*
X0282735Y0097520D03*
X0282735Y0092480D03*
D17*
X0282657Y0092638D03*
X0282657Y0097362D03*
D18*
X0282578Y0097205D03*
X0282578Y0092795D03*
D19*
X0279035Y0097047D03*
X0269617Y0104370D03*
X0269617Y0104528D03*
X0269617Y0104685D03*
X0270562Y0106575D03*
X0270720Y0106732D03*
X0271562Y0116982D03*
X0271720Y0117140D03*
X0274470Y0122953D03*
X0277812Y0132953D03*
D20*
X0284625Y0097047D03*
D21*
X0278641Y0096890D03*
X0277539Y0095630D03*
X0277381Y0095472D03*
X0277381Y0095315D03*
X0277381Y0095157D03*
X0277381Y0095000D03*
X0277381Y0094843D03*
X0277381Y0094685D03*
X0277381Y0094528D03*
X0278798Y0092953D03*
X0269696Y0104055D03*
X0283397Y0104843D03*
X0270539Y0114305D03*
X0274548Y0123268D03*
X0277891Y0133268D03*
X0275548Y0147047D03*
X0274548Y0153110D03*
X0274548Y0153268D03*
X0278643Y0152953D03*
X0282895Y0157047D03*
X0221383Y0116102D03*
X0221383Y0113898D03*
X0221383Y0113740D03*
X0226737Y0115000D03*
X0216344Y0116260D03*
X0216344Y0116417D03*
X0216344Y0116575D03*
X0216344Y0116732D03*
X0207682Y0113898D03*
X0109200Y0088602D03*
X0109200Y0086398D03*
X0109200Y0086240D03*
D22*
X0103924Y0085768D03*
X0103924Y0085610D03*
X0102507Y0085610D03*
X0102507Y0085768D03*
X0102507Y0085925D03*
X0102507Y0086083D03*
X0102507Y0086240D03*
X0102507Y0086398D03*
X0102507Y0086555D03*
X0102507Y0086713D03*
X0102507Y0086870D03*
X0102507Y0087028D03*
X0102507Y0087185D03*
X0102507Y0087343D03*
X0102507Y0087500D03*
X0102507Y0087657D03*
X0102507Y0087815D03*
X0102507Y0087972D03*
X0102507Y0088130D03*
X0102507Y0088287D03*
X0102507Y0088445D03*
X0102507Y0088602D03*
X0102507Y0088760D03*
X0102507Y0088917D03*
X0102507Y0089075D03*
X0102507Y0089232D03*
X0102507Y0089390D03*
X0103924Y0089390D03*
X0106602Y0089390D03*
X0106602Y0089232D03*
X0199257Y0114685D03*
X0199257Y0114843D03*
X0199257Y0115000D03*
X0199257Y0115157D03*
X0199257Y0115315D03*
X0199257Y0115472D03*
X0199257Y0115630D03*
X0199257Y0115787D03*
X0199257Y0115945D03*
X0199257Y0116102D03*
X0199257Y0116260D03*
X0199257Y0116417D03*
X0199257Y0116575D03*
X0199257Y0116732D03*
X0199257Y0116890D03*
X0201934Y0116890D03*
X0201934Y0116732D03*
X0203194Y0115945D03*
X0204769Y0116102D03*
X0206501Y0115945D03*
X0206501Y0115787D03*
X0206501Y0115630D03*
X0206501Y0115472D03*
X0206501Y0115315D03*
X0206501Y0115157D03*
X0206501Y0115000D03*
X0206501Y0114843D03*
X0206501Y0114685D03*
X0206501Y0114528D03*
X0206501Y0114370D03*
X0206501Y0114213D03*
X0206501Y0114055D03*
X0213903Y0113110D03*
X0215163Y0113110D03*
X0218785Y0113110D03*
X0218785Y0113268D03*
X0218785Y0113425D03*
X0218785Y0113583D03*
X0218785Y0113740D03*
X0218785Y0113898D03*
X0218785Y0114055D03*
X0218785Y0114213D03*
X0218785Y0114370D03*
X0218785Y0114528D03*
X0218785Y0114685D03*
X0218785Y0114843D03*
X0218785Y0115000D03*
X0218785Y0115157D03*
X0218785Y0115315D03*
X0218785Y0115472D03*
X0218785Y0115630D03*
X0218785Y0115787D03*
X0218785Y0115945D03*
X0218785Y0116102D03*
X0218785Y0116260D03*
X0218785Y0116417D03*
X0218785Y0116575D03*
X0218785Y0116732D03*
X0218785Y0116890D03*
X0227918Y0113110D03*
X0232328Y0114213D03*
X0232328Y0114528D03*
X0237682Y0115787D03*
X0237682Y0115945D03*
X0237682Y0116102D03*
X0237682Y0116260D03*
X0237682Y0116417D03*
X0237682Y0116575D03*
X0237682Y0116732D03*
X0237682Y0116890D03*
X0237682Y0117047D03*
X0242407Y0114685D03*
X0242407Y0114528D03*
X0242407Y0114370D03*
X0242407Y0114213D03*
X0242407Y0114055D03*
X0242407Y0113898D03*
X0242407Y0113740D03*
X0242407Y0113583D03*
X0242407Y0113425D03*
X0242407Y0113268D03*
X0242407Y0113110D03*
X0274972Y0104685D03*
X0274972Y0104528D03*
X0276861Y0104055D03*
X0277649Y0105787D03*
X0284893Y0105157D03*
X0285050Y0105315D03*
X0285050Y0105472D03*
X0285050Y0105787D03*
X0282499Y0096890D03*
X0284389Y0095945D03*
X0277861Y0114148D03*
X0278491Y0116037D03*
X0278491Y0116195D03*
X0275814Y0115093D03*
X0275814Y0114935D03*
X0284633Y0116667D03*
X0284791Y0116825D03*
X0284706Y0123740D03*
X0284706Y0123898D03*
X0284706Y0125945D03*
X0282659Y0125787D03*
X0282659Y0124213D03*
X0280769Y0123740D03*
X0284269Y0133740D03*
X0287281Y0143425D03*
X0287281Y0146417D03*
X0285391Y0145945D03*
X0281926Y0145945D03*
X0281926Y0145787D03*
X0281296Y0143898D03*
X0279407Y0143110D03*
X0277044Y0144685D03*
X0277044Y0144843D03*
X0277044Y0145000D03*
X0277044Y0145157D03*
X0282816Y0153425D03*
X0284706Y0153898D03*
X0284706Y0155945D03*
X0282816Y0156575D03*
X0278407Y0154843D03*
X0278407Y0154685D03*
X0276674Y0155157D03*
X0276674Y0155315D03*
D23*
X0274233Y0154528D03*
X0274233Y0154370D03*
X0281163Y0155000D03*
X0281320Y0155472D03*
X0281320Y0155630D03*
X0281320Y0154370D03*
X0275233Y0146732D03*
X0278206Y0136102D03*
X0278206Y0133898D03*
X0281828Y0134528D03*
X0281828Y0135472D03*
X0286552Y0135315D03*
X0286552Y0134685D03*
X0278485Y0125315D03*
X0278485Y0124685D03*
X0278485Y0124528D03*
X0274863Y0123898D03*
X0274863Y0126102D03*
X0270696Y0113833D03*
X0284082Y0113833D03*
X0284082Y0113990D03*
X0284082Y0114148D03*
X0284082Y0114305D03*
X0284082Y0114463D03*
X0284082Y0114620D03*
X0284082Y0114778D03*
X0284082Y0114935D03*
X0284082Y0115093D03*
X0284082Y0115250D03*
X0284082Y0115407D03*
X0284082Y0113675D03*
X0284082Y0113518D03*
X0284082Y0113360D03*
X0286515Y0096890D03*
X0281633Y0095630D03*
X0281633Y0094213D03*
X0240123Y0113425D03*
X0240123Y0115157D03*
X0240123Y0115315D03*
X0236816Y0115315D03*
X0236816Y0113425D03*
X0233509Y0113425D03*
X0233509Y0115315D03*
X0230044Y0115157D03*
X0226422Y0116732D03*
X0221068Y0116732D03*
X0216029Y0115157D03*
X0216029Y0115000D03*
X0216029Y0114843D03*
X0216029Y0114685D03*
X0212407Y0116732D03*
X0207367Y0116732D03*
X0204060Y0116417D03*
X0204060Y0116260D03*
X0204060Y0113425D03*
X0207367Y0113110D03*
X0200596Y0113425D03*
X0108885Y0089232D03*
D24*
X0109121Y0088760D03*
X0109121Y0086083D03*
X0200517Y0113740D03*
X0207603Y0113740D03*
X0207603Y0113583D03*
X0207603Y0116102D03*
X0207603Y0116260D03*
X0212643Y0116260D03*
X0212643Y0116102D03*
X0212643Y0115000D03*
X0212643Y0114843D03*
X0216265Y0116102D03*
X0216265Y0116890D03*
X0221304Y0116260D03*
X0221304Y0113583D03*
X0226659Y0114685D03*
X0226659Y0114843D03*
X0226659Y0116102D03*
X0226659Y0116260D03*
X0270617Y0114148D03*
X0274627Y0123425D03*
X0277970Y0133425D03*
X0275470Y0142953D03*
X0274470Y0153425D03*
X0274470Y0153583D03*
X0278405Y0096732D03*
X0278247Y0096575D03*
X0278090Y0096417D03*
X0277932Y0096260D03*
X0277775Y0096102D03*
X0277617Y0095945D03*
X0277617Y0095787D03*
X0277460Y0094370D03*
X0277617Y0094213D03*
X0277617Y0094055D03*
X0277775Y0093898D03*
X0278562Y0093110D03*
D25*
X0282657Y0093898D03*
X0282657Y0095945D03*
X0282657Y0096732D03*
X0276704Y0104370D03*
X0276704Y0104528D03*
X0277806Y0105315D03*
X0275129Y0104055D03*
X0275129Y0103898D03*
X0283476Y0106260D03*
X0283633Y0106575D03*
X0276129Y0113203D03*
X0275972Y0114305D03*
X0275972Y0114463D03*
X0277704Y0114620D03*
X0278649Y0115722D03*
X0273924Y0115093D03*
X0273924Y0114935D03*
X0284476Y0116510D03*
X0282974Y0123110D03*
X0282816Y0123898D03*
X0282816Y0126102D03*
X0282974Y0126890D03*
X0283659Y0143110D03*
X0285233Y0143898D03*
X0287438Y0143898D03*
X0287438Y0143740D03*
X0287438Y0146102D03*
X0283659Y0146890D03*
X0282084Y0145472D03*
X0281139Y0144370D03*
X0279407Y0145315D03*
X0279407Y0146102D03*
X0279407Y0146260D03*
X0279407Y0146417D03*
X0279407Y0146575D03*
X0279407Y0143268D03*
X0282659Y0153740D03*
X0282501Y0153898D03*
X0282344Y0155787D03*
X0282501Y0155945D03*
X0282659Y0156260D03*
X0279037Y0156260D03*
X0279037Y0156417D03*
X0278879Y0156102D03*
X0278722Y0155787D03*
X0278564Y0155472D03*
X0278564Y0155315D03*
X0276674Y0155000D03*
X0276674Y0154843D03*
X0237682Y0117205D03*
X0240989Y0113740D03*
X0230911Y0113740D03*
D26*
X0230202Y0113110D03*
X0230044Y0115472D03*
X0233666Y0115630D03*
X0233666Y0113110D03*
X0236974Y0113110D03*
X0236974Y0115630D03*
X0240123Y0115472D03*
X0226422Y0116890D03*
X0220911Y0116890D03*
X0207367Y0112953D03*
X0204060Y0113268D03*
X0204375Y0114843D03*
X0204218Y0115000D03*
X0204060Y0115157D03*
X0200596Y0113268D03*
X0269853Y0103425D03*
X0273003Y0102953D03*
X0282924Y0104213D03*
X0287176Y0104370D03*
X0287176Y0106732D03*
X0286672Y0096732D03*
X0270696Y0113675D03*
X0275021Y0124213D03*
X0275021Y0125787D03*
X0278328Y0125630D03*
X0278328Y0124213D03*
X0280848Y0122953D03*
X0280848Y0127047D03*
X0284190Y0132953D03*
X0281670Y0134213D03*
X0281670Y0135787D03*
X0278363Y0135787D03*
X0278363Y0134213D03*
X0286710Y0134213D03*
X0286710Y0135630D03*
X0275076Y0143425D03*
X0282895Y0152953D03*
X0286674Y0156890D03*
X0274076Y0155157D03*
X0274076Y0155000D03*
X0108728Y0089390D03*
X0105893Y0087343D03*
X0104633Y0087500D03*
D27*
X0200596Y0112795D03*
X0203115Y0114213D03*
X0204848Y0115945D03*
X0273003Y0105000D03*
X0273003Y0104843D03*
X0275208Y0103740D03*
X0275208Y0103583D03*
X0275208Y0103110D03*
X0276625Y0104685D03*
X0277885Y0105157D03*
X0279302Y0106260D03*
X0279145Y0106890D03*
X0283554Y0106417D03*
X0276208Y0113360D03*
X0276050Y0113990D03*
X0276050Y0114148D03*
X0277625Y0114778D03*
X0278728Y0115407D03*
X0278728Y0115565D03*
X0280145Y0116510D03*
X0280145Y0116667D03*
X0280145Y0117140D03*
X0280848Y0124055D03*
X0280848Y0125945D03*
X0282895Y0126260D03*
X0282895Y0123740D03*
X0278800Y0126260D03*
X0278800Y0126890D03*
X0284190Y0134055D03*
X0284190Y0135945D03*
X0282143Y0136260D03*
X0282143Y0136890D03*
X0283580Y0143268D03*
X0283580Y0143425D03*
X0283580Y0143583D03*
X0283580Y0143740D03*
X0283580Y0143898D03*
X0283580Y0144055D03*
X0283580Y0144213D03*
X0283580Y0144370D03*
X0283580Y0144528D03*
X0283580Y0144685D03*
X0283580Y0144843D03*
X0283580Y0145000D03*
X0283580Y0145157D03*
X0283580Y0145315D03*
X0283580Y0145472D03*
X0283580Y0145630D03*
X0283580Y0145787D03*
X0283580Y0145945D03*
X0283580Y0146102D03*
X0283580Y0146260D03*
X0283580Y0146417D03*
X0283580Y0146575D03*
X0283580Y0146732D03*
X0282163Y0145315D03*
X0282163Y0145157D03*
X0281060Y0144528D03*
X0279485Y0144528D03*
X0279485Y0144685D03*
X0279485Y0144843D03*
X0279485Y0145000D03*
X0279485Y0145157D03*
X0279485Y0144370D03*
X0279485Y0144213D03*
X0279485Y0144055D03*
X0279485Y0143898D03*
X0279485Y0143740D03*
X0279485Y0143583D03*
X0279485Y0143425D03*
X0287517Y0144055D03*
X0287517Y0144213D03*
X0287517Y0145787D03*
X0287517Y0145945D03*
X0278643Y0155630D03*
X0278800Y0155945D03*
X0282580Y0156102D03*
X0282735Y0096575D03*
X0282735Y0096417D03*
X0282735Y0096260D03*
X0282735Y0096102D03*
X0282735Y0093740D03*
X0282735Y0093583D03*
X0282735Y0093425D03*
X0282735Y0093268D03*
D28*
X0286751Y0094370D03*
X0286751Y0096575D03*
X0282688Y0102953D03*
X0282846Y0104055D03*
X0287255Y0104528D03*
X0287255Y0106575D03*
X0280853Y0113203D03*
X0275342Y0117140D03*
X0273924Y0113360D03*
X0271090Y0113203D03*
X0270775Y0113518D03*
X0273082Y0103110D03*
X0243037Y0115000D03*
X0243037Y0115157D03*
X0243037Y0115315D03*
X0243037Y0115472D03*
X0243037Y0115630D03*
X0240202Y0113110D03*
X0215792Y0115472D03*
X0212328Y0116890D03*
X0204139Y0116732D03*
X0275100Y0124370D03*
X0275100Y0124528D03*
X0275100Y0125472D03*
X0275100Y0125630D03*
X0278249Y0125787D03*
X0278249Y0125945D03*
X0278249Y0124055D03*
X0278092Y0122953D03*
X0286911Y0126732D03*
X0281434Y0132953D03*
X0281592Y0134055D03*
X0281592Y0135945D03*
X0284269Y0136890D03*
X0286789Y0135787D03*
X0286789Y0134055D03*
X0278442Y0134370D03*
X0278442Y0135630D03*
X0274997Y0143583D03*
X0274997Y0146260D03*
X0274997Y0146417D03*
X0278407Y0153425D03*
X0273997Y0155315D03*
X0273997Y0155472D03*
X0273997Y0157047D03*
X0276674Y0156732D03*
X0276674Y0156575D03*
X0286753Y0155787D03*
X0105972Y0087185D03*
X0105972Y0087028D03*
X0104554Y0087657D03*
X0104554Y0087815D03*
D29*
X0104476Y0087972D03*
X0106050Y0086870D03*
X0108728Y0085453D03*
X0200596Y0113110D03*
X0204060Y0113110D03*
X0204533Y0114685D03*
X0203745Y0115315D03*
X0220911Y0112953D03*
X0240123Y0115630D03*
X0269853Y0103268D03*
X0270011Y0103110D03*
X0270168Y0102953D03*
X0273003Y0103268D03*
X0274420Y0106732D03*
X0274420Y0106890D03*
X0274003Y0113518D03*
X0270853Y0113360D03*
X0287231Y0113203D03*
X0287334Y0106417D03*
X0287334Y0104685D03*
X0282767Y0103898D03*
X0279932Y0102953D03*
X0286830Y0096417D03*
X0286830Y0094528D03*
X0280848Y0123110D03*
X0278170Y0123898D03*
X0278170Y0126102D03*
X0280848Y0126890D03*
X0275178Y0125315D03*
X0275178Y0125157D03*
X0275178Y0125000D03*
X0275178Y0124843D03*
X0275178Y0124685D03*
X0273761Y0126890D03*
X0278521Y0134528D03*
X0278521Y0134685D03*
X0278521Y0134843D03*
X0278521Y0135000D03*
X0278521Y0135157D03*
X0278521Y0135315D03*
X0278521Y0135472D03*
X0277103Y0136890D03*
X0281513Y0136102D03*
X0281513Y0133898D03*
X0284190Y0133110D03*
X0286867Y0133898D03*
X0286867Y0135945D03*
X0286867Y0136102D03*
X0286867Y0137047D03*
X0274918Y0143740D03*
X0274918Y0143898D03*
X0274918Y0146102D03*
X0278328Y0153583D03*
X0273918Y0155630D03*
X0273918Y0155787D03*
X0282895Y0156890D03*
X0286832Y0156732D03*
X0286832Y0154055D03*
X0286832Y0153110D03*
X0286989Y0126575D03*
X0286989Y0124528D03*
X0286989Y0124370D03*
D30*
X0287068Y0124213D03*
X0287068Y0124055D03*
X0287068Y0123898D03*
X0287068Y0124685D03*
X0287068Y0126260D03*
X0287068Y0126417D03*
X0287068Y0122953D03*
X0280769Y0126732D03*
X0278092Y0123740D03*
X0278176Y0117140D03*
X0280853Y0116352D03*
X0280853Y0116195D03*
X0280853Y0116037D03*
X0280853Y0115880D03*
X0280853Y0115722D03*
X0280853Y0115565D03*
X0280853Y0115407D03*
X0280853Y0115250D03*
X0280853Y0115093D03*
X0280853Y0114935D03*
X0280853Y0114778D03*
X0280853Y0114620D03*
X0280853Y0114463D03*
X0280853Y0114305D03*
X0280853Y0114148D03*
X0280853Y0113990D03*
X0280853Y0113833D03*
X0280853Y0113675D03*
X0280853Y0113518D03*
X0280853Y0113360D03*
X0278176Y0113203D03*
X0273924Y0113675D03*
X0273924Y0113833D03*
X0275342Y0116825D03*
X0275342Y0116982D03*
X0283688Y0116352D03*
X0283688Y0115565D03*
X0287310Y0115565D03*
X0287310Y0115722D03*
X0287310Y0115880D03*
X0287310Y0116037D03*
X0287310Y0116195D03*
X0287310Y0116352D03*
X0287310Y0116510D03*
X0287310Y0116667D03*
X0287310Y0116825D03*
X0287310Y0116982D03*
X0287310Y0117140D03*
X0287310Y0115407D03*
X0287310Y0115250D03*
X0287310Y0115093D03*
X0287310Y0114935D03*
X0287310Y0114778D03*
X0287310Y0114620D03*
X0287310Y0114463D03*
X0287310Y0114305D03*
X0287310Y0114148D03*
X0287310Y0113990D03*
X0287310Y0113833D03*
X0287310Y0113675D03*
X0287310Y0113518D03*
X0287310Y0113360D03*
X0287413Y0106260D03*
X0287413Y0106102D03*
X0287413Y0105945D03*
X0287413Y0105157D03*
X0287413Y0105000D03*
X0287413Y0104843D03*
X0282688Y0105157D03*
X0282688Y0105315D03*
X0282688Y0105472D03*
X0282688Y0105787D03*
X0282688Y0105945D03*
X0282688Y0106102D03*
X0282688Y0103740D03*
X0282688Y0103583D03*
X0282688Y0103268D03*
X0282688Y0103110D03*
X0277176Y0102953D03*
X0273082Y0103425D03*
X0274499Y0106417D03*
X0274499Y0106575D03*
X0286909Y0096260D03*
X0286909Y0096102D03*
X0286909Y0094843D03*
X0286909Y0094685D03*
X0230123Y0115630D03*
X0204139Y0116890D03*
X0274840Y0144055D03*
X0274840Y0144213D03*
X0274840Y0144370D03*
X0274840Y0145630D03*
X0274840Y0145787D03*
X0274840Y0145945D03*
X0281611Y0146890D03*
X0281611Y0142953D03*
X0286808Y0142953D03*
X0286946Y0136890D03*
X0286946Y0136260D03*
X0286946Y0133740D03*
X0286946Y0132953D03*
X0281434Y0133110D03*
X0281434Y0133583D03*
X0281434Y0133740D03*
X0284269Y0136732D03*
X0277182Y0136732D03*
X0286911Y0153268D03*
X0286911Y0153740D03*
X0286911Y0153898D03*
X0286911Y0155945D03*
X0286911Y0156102D03*
X0286911Y0156575D03*
X0276674Y0156417D03*
X0276674Y0156260D03*
X0273840Y0156102D03*
X0273840Y0155945D03*
X0273840Y0156890D03*
X0106129Y0086713D03*
X0104397Y0088130D03*
D31*
X0104003Y0087343D03*
X0104003Y0087185D03*
X0104003Y0087028D03*
X0104003Y0086870D03*
X0104003Y0086713D03*
X0104003Y0086555D03*
X0104003Y0086398D03*
X0104003Y0086240D03*
X0104003Y0086083D03*
X0104003Y0085925D03*
X0106523Y0085768D03*
X0106523Y0085610D03*
X0108098Y0086555D03*
X0108098Y0086713D03*
X0108098Y0086870D03*
X0108098Y0087028D03*
X0108098Y0087185D03*
X0108098Y0087343D03*
X0108098Y0087500D03*
X0108098Y0087657D03*
X0108098Y0087815D03*
X0108098Y0087972D03*
X0108098Y0088130D03*
X0108098Y0088287D03*
X0108098Y0088445D03*
X0106523Y0088445D03*
X0106523Y0088602D03*
X0106523Y0088760D03*
X0106523Y0088917D03*
X0106523Y0089075D03*
X0106523Y0088287D03*
X0106523Y0088130D03*
X0106523Y0087972D03*
X0106523Y0087815D03*
X0106523Y0087657D03*
X0106523Y0087500D03*
X0104003Y0089232D03*
X0110460Y0088130D03*
X0110617Y0087972D03*
X0110617Y0087815D03*
X0110617Y0087657D03*
X0110617Y0087500D03*
X0110617Y0087343D03*
X0110617Y0087185D03*
X0110617Y0087028D03*
X0199336Y0114213D03*
X0199336Y0114370D03*
X0199336Y0114528D03*
X0201698Y0114055D03*
X0201855Y0114213D03*
X0201855Y0114370D03*
X0201855Y0114528D03*
X0201855Y0114685D03*
X0201855Y0114843D03*
X0201855Y0115000D03*
X0201855Y0115157D03*
X0201855Y0115315D03*
X0201855Y0115472D03*
X0201855Y0115630D03*
X0201855Y0115787D03*
X0201855Y0115945D03*
X0201855Y0116102D03*
X0201855Y0116260D03*
X0201855Y0116417D03*
X0201855Y0116575D03*
X0203115Y0115787D03*
X0203273Y0115630D03*
X0203273Y0116102D03*
X0204060Y0117047D03*
X0205163Y0114213D03*
X0205163Y0114055D03*
X0205005Y0113898D03*
X0208785Y0114055D03*
X0208785Y0114213D03*
X0208785Y0114370D03*
X0208785Y0114528D03*
X0208627Y0115630D03*
X0208627Y0115787D03*
X0208627Y0115945D03*
X0211619Y0115945D03*
X0211619Y0115787D03*
X0211619Y0115630D03*
X0211619Y0115472D03*
X0211619Y0115315D03*
X0211619Y0115157D03*
X0211619Y0113898D03*
X0211619Y0113740D03*
X0211619Y0113583D03*
X0211619Y0113425D03*
X0211619Y0113268D03*
X0211619Y0113110D03*
X0213666Y0113740D03*
X0213824Y0113425D03*
X0213824Y0113268D03*
X0215241Y0113268D03*
X0215241Y0113425D03*
X0215241Y0113583D03*
X0215241Y0113740D03*
X0215241Y0113898D03*
X0215241Y0114055D03*
X0215241Y0114213D03*
X0215241Y0114370D03*
X0215241Y0115630D03*
X0215241Y0115787D03*
X0215241Y0115945D03*
X0213824Y0115787D03*
X0213824Y0115630D03*
X0213824Y0115472D03*
X0213824Y0115315D03*
X0220281Y0115315D03*
X0220281Y0115472D03*
X0220281Y0115630D03*
X0220281Y0115787D03*
X0220281Y0115945D03*
X0220281Y0115157D03*
X0220281Y0115000D03*
X0220281Y0114843D03*
X0220281Y0114685D03*
X0220281Y0114528D03*
X0220281Y0114370D03*
X0220281Y0114213D03*
X0220281Y0114055D03*
X0222800Y0114528D03*
X0222800Y0114685D03*
X0222800Y0114843D03*
X0222800Y0115000D03*
X0222800Y0115157D03*
X0222800Y0115315D03*
X0222800Y0115472D03*
X0222643Y0115630D03*
X0225635Y0115630D03*
X0225635Y0115787D03*
X0225635Y0115945D03*
X0225635Y0115472D03*
X0225635Y0115315D03*
X0225635Y0115157D03*
X0225635Y0113898D03*
X0225635Y0113740D03*
X0225635Y0113583D03*
X0225635Y0113425D03*
X0225635Y0113268D03*
X0225635Y0113110D03*
X0227682Y0113740D03*
X0227682Y0113898D03*
X0227840Y0113425D03*
X0227840Y0113268D03*
X0229100Y0113898D03*
X0229100Y0114685D03*
X0227840Y0115315D03*
X0227840Y0115472D03*
X0227840Y0115630D03*
X0227840Y0115787D03*
X0230989Y0114843D03*
X0230989Y0114685D03*
X0232249Y0114370D03*
X0232407Y0114055D03*
X0232407Y0114685D03*
X0234296Y0114528D03*
X0234296Y0114370D03*
X0234296Y0114213D03*
X0235714Y0114213D03*
X0235714Y0114370D03*
X0235714Y0114528D03*
X0235714Y0114685D03*
X0235714Y0114055D03*
X0237603Y0114055D03*
X0237603Y0114213D03*
X0237603Y0114370D03*
X0237603Y0114528D03*
X0237603Y0114685D03*
X0239178Y0114685D03*
X0239178Y0113898D03*
X0241068Y0114685D03*
X0241068Y0114843D03*
X0242485Y0114843D03*
X0274893Y0105000D03*
X0274893Y0104843D03*
X0276940Y0103898D03*
X0276940Y0103740D03*
X0277570Y0105945D03*
X0283712Y0106890D03*
X0285129Y0105630D03*
X0281161Y0095945D03*
X0284468Y0095157D03*
X0277940Y0113990D03*
X0278413Y0116352D03*
X0275735Y0115407D03*
X0275735Y0115250D03*
X0284869Y0116982D03*
X0284785Y0123268D03*
X0284785Y0123425D03*
X0284785Y0123583D03*
X0284785Y0125157D03*
X0284785Y0125315D03*
X0284785Y0125472D03*
X0284785Y0125630D03*
X0284785Y0125787D03*
X0282580Y0125630D03*
X0282580Y0124370D03*
X0280848Y0126260D03*
X0284190Y0136260D03*
X0287202Y0143268D03*
X0285470Y0144055D03*
X0285470Y0145787D03*
X0287202Y0146575D03*
X0281848Y0146102D03*
X0281375Y0143740D03*
X0277753Y0145945D03*
X0277123Y0145315D03*
X0278328Y0154370D03*
X0278328Y0154528D03*
X0279273Y0156732D03*
X0281005Y0155945D03*
D32*
X0278328Y0153898D03*
X0278328Y0153740D03*
X0276753Y0156102D03*
X0273761Y0156260D03*
X0273761Y0156417D03*
X0273761Y0156575D03*
X0273761Y0156732D03*
X0286989Y0156417D03*
X0286989Y0156260D03*
X0286989Y0153583D03*
X0286989Y0153425D03*
X0274761Y0145472D03*
X0274761Y0145315D03*
X0274761Y0145157D03*
X0274761Y0145000D03*
X0274761Y0144843D03*
X0274761Y0144685D03*
X0274761Y0144528D03*
X0281533Y0143110D03*
X0277261Y0136575D03*
X0281355Y0133425D03*
X0281355Y0133268D03*
X0284190Y0133268D03*
X0287025Y0133268D03*
X0287025Y0133425D03*
X0287025Y0133583D03*
X0287025Y0133110D03*
X0287025Y0136417D03*
X0287025Y0136575D03*
X0287025Y0136732D03*
X0287147Y0126102D03*
X0287147Y0125945D03*
X0287147Y0125157D03*
X0287147Y0125000D03*
X0287147Y0124843D03*
X0287147Y0123740D03*
X0287147Y0123583D03*
X0280848Y0123268D03*
X0278013Y0123268D03*
X0278013Y0123425D03*
X0278013Y0123583D03*
X0278013Y0123110D03*
X0273761Y0126732D03*
X0275420Y0116667D03*
X0275420Y0116510D03*
X0283609Y0116195D03*
X0283609Y0116037D03*
X0283609Y0115880D03*
X0283609Y0115722D03*
X0278098Y0113360D03*
X0277255Y0106890D03*
X0277255Y0106732D03*
X0274578Y0106260D03*
X0274578Y0106102D03*
X0273003Y0103583D03*
X0279932Y0103583D03*
X0279932Y0103740D03*
X0279932Y0103898D03*
X0279932Y0104055D03*
X0279932Y0104213D03*
X0279932Y0104370D03*
X0279932Y0104528D03*
X0279932Y0104685D03*
X0279932Y0104843D03*
X0279932Y0105000D03*
X0279932Y0105157D03*
X0279932Y0105315D03*
X0279932Y0105472D03*
X0279932Y0105630D03*
X0279932Y0105787D03*
X0279932Y0105945D03*
X0279932Y0106102D03*
X0279932Y0103425D03*
X0279932Y0103268D03*
X0279932Y0103110D03*
X0282609Y0103425D03*
X0282609Y0105630D03*
X0287491Y0105630D03*
X0287491Y0105787D03*
X0287491Y0105472D03*
X0287491Y0105315D03*
X0287491Y0103740D03*
X0287491Y0102953D03*
X0286987Y0095945D03*
X0286987Y0095787D03*
X0286987Y0095630D03*
X0286987Y0095472D03*
X0286987Y0095315D03*
X0286987Y0095157D03*
X0286987Y0095000D03*
X0240281Y0112953D03*
X0230202Y0112953D03*
X0208312Y0114843D03*
X0207210Y0117047D03*
X0106208Y0086555D03*
X0106208Y0086398D03*
X0104318Y0088287D03*
X0104318Y0088445D03*
D33*
X0104161Y0088760D03*
X0106365Y0086083D03*
X0110302Y0086555D03*
X0108570Y0089547D03*
X0200596Y0112953D03*
X0201541Y0113898D03*
X0203430Y0115472D03*
X0204060Y0112953D03*
X0208470Y0115472D03*
X0212249Y0117047D03*
X0220753Y0117047D03*
X0222485Y0114055D03*
X0226265Y0117047D03*
X0229257Y0113740D03*
X0239336Y0113740D03*
X0274735Y0105630D03*
X0274735Y0105472D03*
X0277413Y0106417D03*
X0277098Y0103425D03*
X0281161Y0095787D03*
X0281161Y0094055D03*
X0278098Y0113518D03*
X0278255Y0116667D03*
X0278255Y0116825D03*
X0275578Y0116037D03*
X0275578Y0115880D03*
X0284869Y0117140D03*
X0284785Y0122953D03*
X0284785Y0123110D03*
X0282422Y0124685D03*
X0282422Y0125157D03*
X0280848Y0126417D03*
X0280848Y0123425D03*
X0274076Y0126260D03*
X0284190Y0136417D03*
X0287044Y0143110D03*
X0285627Y0144370D03*
X0285627Y0144528D03*
X0285627Y0145472D03*
X0281690Y0146417D03*
X0281690Y0146575D03*
X0281533Y0143268D03*
X0277596Y0144213D03*
X0278328Y0154055D03*
X0278328Y0154213D03*
X0276753Y0155787D03*
X0281005Y0154055D03*
X0284627Y0154055D03*
D34*
X0282737Y0153583D03*
X0282422Y0154055D03*
X0281005Y0153898D03*
X0278485Y0155000D03*
X0278485Y0155157D03*
X0279273Y0156575D03*
X0282737Y0156417D03*
X0279328Y0146732D03*
X0279328Y0145945D03*
X0281218Y0144213D03*
X0281218Y0144055D03*
X0282005Y0145630D03*
X0283580Y0142953D03*
X0287359Y0143583D03*
X0287359Y0146260D03*
X0277753Y0143898D03*
X0284190Y0136102D03*
X0284190Y0133898D03*
X0282737Y0125945D03*
X0282737Y0124055D03*
X0282895Y0122953D03*
X0280848Y0123898D03*
X0280848Y0126102D03*
X0278570Y0115880D03*
X0277783Y0114463D03*
X0277783Y0114305D03*
X0275893Y0114620D03*
X0275893Y0114778D03*
X0277728Y0105630D03*
X0277728Y0105472D03*
X0276783Y0104213D03*
X0275050Y0104213D03*
X0275050Y0104370D03*
X0275208Y0102953D03*
X0273003Y0104685D03*
X0283712Y0106732D03*
X0285129Y0105945D03*
X0282578Y0095787D03*
X0282578Y0094055D03*
X0282578Y0093110D03*
X0281161Y0093898D03*
X0242328Y0112953D03*
X0240281Y0112795D03*
X0237603Y0112953D03*
X0236501Y0112953D03*
X0234296Y0112953D03*
X0233194Y0112953D03*
X0230202Y0112795D03*
X0227840Y0112953D03*
X0225635Y0112953D03*
X0218706Y0112953D03*
X0215241Y0112953D03*
X0213824Y0112953D03*
X0211619Y0112953D03*
X0203115Y0114055D03*
X0233194Y0115787D03*
X0234296Y0115787D03*
X0236501Y0115787D03*
X0242328Y0115787D03*
X0243588Y0115787D03*
X0106523Y0085453D03*
X0104003Y0085453D03*
X0102428Y0085453D03*
D35*
X0104082Y0088917D03*
X0104082Y0089075D03*
X0110381Y0088287D03*
X0110539Y0086870D03*
X0110381Y0086713D03*
X0106444Y0085925D03*
X0199415Y0114055D03*
X0199572Y0113898D03*
X0203194Y0113898D03*
X0205084Y0114370D03*
X0213588Y0113898D03*
X0213745Y0113583D03*
X0213745Y0115157D03*
X0213745Y0115945D03*
X0222564Y0115787D03*
X0222722Y0114370D03*
X0222564Y0114213D03*
X0227761Y0113583D03*
X0227761Y0115157D03*
X0227761Y0115945D03*
X0229178Y0114843D03*
X0234218Y0114685D03*
X0234218Y0114055D03*
X0239257Y0114843D03*
X0274814Y0105315D03*
X0274814Y0105157D03*
X0277019Y0103583D03*
X0277491Y0106102D03*
X0277491Y0106260D03*
X0278019Y0113675D03*
X0278019Y0113833D03*
X0278334Y0116510D03*
X0275657Y0115722D03*
X0275657Y0115565D03*
X0280769Y0123583D03*
X0282501Y0124528D03*
X0282501Y0125315D03*
X0282501Y0125472D03*
X0284269Y0133583D03*
X0281454Y0143425D03*
X0281454Y0143583D03*
X0279249Y0142953D03*
X0277674Y0144055D03*
X0279249Y0146890D03*
X0281769Y0146260D03*
X0285548Y0145630D03*
X0285548Y0144213D03*
X0287123Y0146732D03*
X0282816Y0153268D03*
X0276674Y0155472D03*
X0276674Y0155630D03*
X0284546Y0095787D03*
X0284546Y0095630D03*
X0284546Y0095472D03*
X0284546Y0095315D03*
X0282499Y0092953D03*
D36*
X0281554Y0094370D03*
X0281554Y0094528D03*
X0281554Y0095315D03*
X0281554Y0095472D03*
X0283161Y0104528D03*
X0286940Y0104055D03*
X0269775Y0103740D03*
X0270617Y0113990D03*
X0274785Y0123740D03*
X0278564Y0124843D03*
X0278564Y0125157D03*
X0278127Y0133740D03*
X0281907Y0134685D03*
X0281907Y0135157D03*
X0281907Y0135315D03*
X0286474Y0135157D03*
X0286474Y0134843D03*
X0275312Y0143110D03*
X0278304Y0145787D03*
X0278564Y0153110D03*
X0281241Y0154528D03*
X0281241Y0154685D03*
X0281241Y0154843D03*
X0281241Y0155157D03*
X0281241Y0155315D03*
X0276674Y0157047D03*
X0274312Y0154213D03*
X0274312Y0154055D03*
X0286438Y0157047D03*
X0226501Y0116575D03*
X0229966Y0114370D03*
X0229966Y0114213D03*
X0233430Y0113583D03*
X0233430Y0115157D03*
X0236737Y0115157D03*
X0236737Y0115000D03*
X0236737Y0113740D03*
X0236737Y0113583D03*
X0240044Y0114213D03*
X0221147Y0113268D03*
X0221147Y0116575D03*
X0212485Y0116575D03*
X0212485Y0114370D03*
X0207446Y0113268D03*
X0207446Y0116575D03*
X0108964Y0089075D03*
X0108964Y0085768D03*
D37*
X0109042Y0085925D03*
X0109042Y0088917D03*
X0200596Y0113583D03*
X0204060Y0113583D03*
X0204060Y0113740D03*
X0207525Y0113425D03*
X0212564Y0114055D03*
X0212564Y0114213D03*
X0212564Y0114528D03*
X0212564Y0114685D03*
X0212564Y0116417D03*
X0207525Y0116417D03*
X0221226Y0116417D03*
X0226580Y0116417D03*
X0226580Y0114528D03*
X0226580Y0114370D03*
X0226580Y0114213D03*
X0226580Y0114055D03*
X0230044Y0114528D03*
X0230044Y0115000D03*
X0233352Y0115000D03*
X0233352Y0114843D03*
X0233352Y0113898D03*
X0233352Y0113740D03*
X0236659Y0113898D03*
X0236659Y0114843D03*
X0239966Y0114370D03*
X0240123Y0114528D03*
X0240123Y0115000D03*
X0221226Y0113425D03*
X0269696Y0103898D03*
X0283239Y0104685D03*
X0286861Y0103898D03*
X0286861Y0107047D03*
X0284082Y0113203D03*
X0274706Y0123583D03*
X0278643Y0125000D03*
X0278048Y0133583D03*
X0281985Y0134843D03*
X0281985Y0135000D03*
X0286395Y0135000D03*
X0278226Y0145472D03*
X0278226Y0145630D03*
X0275391Y0146890D03*
X0274391Y0153740D03*
X0274391Y0153898D03*
X0281476Y0095157D03*
X0281476Y0095000D03*
X0281476Y0094843D03*
X0281476Y0094685D03*
X0278326Y0093268D03*
X0278168Y0093425D03*
X0278011Y0093583D03*
X0277853Y0093740D03*
X0286357Y0094055D03*
D38*
X0286594Y0094213D03*
X0287098Y0104213D03*
X0283003Y0104370D03*
X0287098Y0106890D03*
X0273924Y0113203D03*
X0269775Y0103583D03*
X0240202Y0113268D03*
X0240044Y0113583D03*
X0239887Y0114055D03*
X0236895Y0113268D03*
X0236895Y0115472D03*
X0233588Y0115472D03*
X0233588Y0113268D03*
X0230123Y0113268D03*
X0230123Y0113425D03*
X0229966Y0113583D03*
X0229808Y0114055D03*
X0230123Y0115315D03*
X0220989Y0113110D03*
X0215950Y0114528D03*
X0215950Y0115315D03*
X0216265Y0117047D03*
X0207289Y0116890D03*
X0204139Y0116575D03*
X0274942Y0124055D03*
X0274942Y0125945D03*
X0278407Y0125472D03*
X0278407Y0124370D03*
X0286753Y0126890D03*
X0286631Y0134370D03*
X0286631Y0134528D03*
X0286631Y0135472D03*
X0284269Y0137047D03*
X0281749Y0135630D03*
X0281749Y0134370D03*
X0278285Y0134055D03*
X0278285Y0135945D03*
X0275155Y0143268D03*
X0275155Y0146575D03*
X0278407Y0153268D03*
X0281399Y0154213D03*
X0279509Y0157047D03*
X0276674Y0156890D03*
X0274155Y0154843D03*
X0274155Y0154685D03*
X0286596Y0152953D03*
X0108806Y0085610D03*
D39*
X0269696Y0104843D03*
X0269696Y0105000D03*
X0270326Y0106260D03*
X0270483Y0106417D03*
X0270539Y0114778D03*
X0270539Y0114935D03*
X0270539Y0115093D03*
X0271326Y0116667D03*
X0271483Y0116825D03*
X0285885Y0093898D03*
X0285885Y0093740D03*
X0285885Y0093583D03*
X0285885Y0093425D03*
X0285885Y0093268D03*
X0285885Y0093110D03*
D40*
X0285806Y0092953D03*
X0269775Y0105157D03*
X0269775Y0105315D03*
X0270090Y0105945D03*
X0270247Y0106102D03*
X0270617Y0115250D03*
X0270617Y0115407D03*
X0270932Y0116037D03*
X0271090Y0116352D03*
X0271247Y0116510D03*
X0285808Y0154213D03*
X0285808Y0154370D03*
X0285808Y0155630D03*
D41*
X0280824Y0148150D03*
X0280824Y0147992D03*
X0280824Y0147835D03*
X0280824Y0147677D03*
X0280824Y0147520D03*
X0280824Y0147362D03*
X0280824Y0147205D03*
X0280824Y0142795D03*
X0280824Y0142638D03*
X0280824Y0142480D03*
X0280824Y0142323D03*
X0280824Y0142165D03*
X0280824Y0142008D03*
X0280824Y0141850D03*
D42*
X0277517Y0144370D03*
X0277517Y0144528D03*
X0281611Y0146732D03*
X0285706Y0145315D03*
X0285706Y0145157D03*
X0285706Y0145000D03*
X0285706Y0144843D03*
X0285706Y0144685D03*
X0286966Y0146890D03*
X0282816Y0153110D03*
X0280926Y0155787D03*
X0279352Y0156890D03*
X0276674Y0155945D03*
X0282816Y0156732D03*
X0284706Y0155787D03*
X0284269Y0136575D03*
X0284269Y0133425D03*
X0277497Y0136260D03*
X0277340Y0136417D03*
X0280769Y0126575D03*
X0282344Y0125000D03*
X0282344Y0124843D03*
X0287226Y0125315D03*
X0287226Y0125472D03*
X0287226Y0125630D03*
X0287226Y0125787D03*
X0287226Y0123425D03*
X0287226Y0123268D03*
X0287226Y0123110D03*
X0278176Y0116982D03*
X0275499Y0116352D03*
X0275499Y0116195D03*
X0273924Y0113990D03*
X0274657Y0105945D03*
X0274657Y0105787D03*
X0273082Y0103740D03*
X0277176Y0103268D03*
X0277176Y0103110D03*
X0277334Y0106575D03*
X0287570Y0103583D03*
X0287570Y0103425D03*
X0287570Y0103268D03*
X0287570Y0103110D03*
X0273997Y0126417D03*
X0273840Y0126575D03*
X0240202Y0115787D03*
X0230123Y0115787D03*
X0222407Y0115945D03*
X0208391Y0114685D03*
X0208233Y0115000D03*
X0208233Y0115157D03*
X0208233Y0115315D03*
X0204769Y0114528D03*
X0110224Y0088445D03*
X0106287Y0086240D03*
X0104239Y0088602D03*
D43*
X0103924Y0089547D03*
X0102507Y0089547D03*
X0199257Y0117047D03*
X0201934Y0117047D03*
X0204139Y0112795D03*
X0218785Y0117047D03*
X0230123Y0115945D03*
X0240202Y0115945D03*
X0273924Y0115407D03*
X0273924Y0115250D03*
X0276129Y0113833D03*
X0276129Y0113675D03*
X0276129Y0113518D03*
X0277546Y0114935D03*
X0277546Y0115093D03*
X0278806Y0115250D03*
X0280066Y0116825D03*
X0280066Y0116982D03*
X0282974Y0123268D03*
X0282974Y0123425D03*
X0282974Y0123583D03*
X0282974Y0126417D03*
X0282974Y0126575D03*
X0282974Y0126732D03*
X0278722Y0126417D03*
X0280981Y0144685D03*
X0280981Y0144843D03*
X0282241Y0145000D03*
X0287596Y0145000D03*
X0287596Y0144843D03*
X0287596Y0144685D03*
X0287596Y0144528D03*
X0287596Y0144370D03*
X0287596Y0145157D03*
X0287596Y0145315D03*
X0287596Y0145472D03*
X0287596Y0145630D03*
X0276674Y0154528D03*
X0276674Y0154685D03*
X0279224Y0106732D03*
X0279224Y0106575D03*
X0279224Y0106417D03*
X0277964Y0105000D03*
X0277964Y0104843D03*
X0276546Y0104843D03*
X0275287Y0103425D03*
X0275287Y0103268D03*
D44*
X0276468Y0105000D03*
X0273003Y0105157D03*
X0277468Y0115250D03*
X0278885Y0115093D03*
X0285342Y0115565D03*
X0280848Y0124213D03*
X0280848Y0125787D03*
X0278800Y0126575D03*
X0278800Y0126732D03*
X0284190Y0134213D03*
X0284190Y0135787D03*
X0282143Y0136417D03*
X0282143Y0136575D03*
X0282143Y0136732D03*
X0282320Y0144843D03*
X0280903Y0145000D03*
X0243745Y0114843D03*
X0106523Y0089547D03*
D45*
X0281355Y0131850D03*
X0281355Y0138150D03*
D46*
X0281434Y0137992D03*
X0281434Y0132008D03*
D47*
X0281513Y0132165D03*
X0281513Y0137835D03*
D48*
X0281592Y0137677D03*
X0281592Y0132323D03*
D49*
X0281670Y0132480D03*
X0281670Y0137520D03*
D50*
X0281749Y0137362D03*
X0281749Y0132638D03*
D51*
X0281828Y0132795D03*
X0281828Y0137205D03*
D52*
X0279229Y0137047D03*
X0275887Y0127047D03*
D53*
X0274470Y0123110D03*
X0270617Y0114463D03*
X0283476Y0105000D03*
X0269617Y0104213D03*
X0277812Y0133110D03*
X0274627Y0152953D03*
D54*
X0279745Y0128150D03*
X0279745Y0121850D03*
D55*
X0279824Y0122008D03*
X0279824Y0127992D03*
D56*
X0279903Y0127835D03*
X0279903Y0122165D03*
D57*
X0279981Y0122323D03*
X0279981Y0127677D03*
D58*
X0280060Y0127520D03*
X0280060Y0122480D03*
D59*
X0280139Y0122638D03*
X0280139Y0127362D03*
D60*
X0280218Y0127205D03*
X0280218Y0122795D03*
X0276940Y0107047D03*
D61*
X0285257Y0127047D03*
D62*
X0280375Y0151850D03*
X0280375Y0152008D03*
X0280375Y0152165D03*
X0280375Y0152323D03*
X0280375Y0152480D03*
X0280375Y0152638D03*
X0280375Y0152795D03*
X0280375Y0157205D03*
X0280375Y0157362D03*
X0280375Y0157520D03*
X0280375Y0157677D03*
X0280375Y0157835D03*
X0280375Y0157992D03*
X0280375Y0158150D03*
D63*
X0285729Y0155472D03*
X0285729Y0155315D03*
X0285729Y0155157D03*
X0285729Y0155000D03*
X0285729Y0154843D03*
X0285729Y0154685D03*
X0285729Y0154528D03*
X0271011Y0116195D03*
X0270853Y0115880D03*
X0270696Y0115722D03*
X0270696Y0115565D03*
X0270011Y0105787D03*
X0269853Y0105630D03*
X0269853Y0105472D03*
D64*
X0242361Y0122701D02*
X0240826Y0122701D01*
X0240826Y0125850D01*
X0240787Y0126165D01*
X0240747Y0126441D01*
X0240708Y0126677D01*
X0240590Y0126874D01*
X0240472Y0127031D01*
X0240275Y0127150D01*
X0240078Y0127189D01*
X0239842Y0127228D01*
X0239527Y0127189D01*
X0239291Y0127150D01*
X0239094Y0127031D01*
X0238936Y0126835D01*
X0238818Y0126638D01*
X0238700Y0126362D01*
X0238661Y0126008D01*
X0238661Y0122701D01*
X0237125Y0122701D01*
X0237125Y0128291D01*
X0238582Y0128291D01*
X0238582Y0127504D01*
X0238621Y0127504D01*
X0238779Y0127740D01*
X0238936Y0127898D01*
X0239133Y0128055D01*
X0239369Y0128213D01*
X0239842Y0128370D01*
X0240078Y0128409D01*
X0240314Y0128409D01*
X0240865Y0128370D01*
X0241298Y0128252D01*
X0241653Y0128055D01*
X0241928Y0127780D01*
X0242125Y0127465D01*
X0242243Y0127071D01*
X0242322Y0126638D01*
X0242361Y0126126D01*
X0242361Y0122701D01*
X0242361Y0122911D02*
X0240826Y0122911D01*
X0240826Y0123210D02*
X0242361Y0123210D01*
X0242361Y0123508D02*
X0240826Y0123508D01*
X0240826Y0123807D02*
X0242361Y0123807D01*
X0242361Y0124105D02*
X0240826Y0124105D01*
X0240826Y0124404D02*
X0242361Y0124404D01*
X0242361Y0124702D02*
X0240826Y0124702D01*
X0240826Y0125001D02*
X0242361Y0125001D01*
X0242361Y0125299D02*
X0240826Y0125299D01*
X0240826Y0125598D02*
X0242361Y0125598D01*
X0242361Y0125896D02*
X0240820Y0125896D01*
X0240782Y0126195D02*
X0242356Y0126195D01*
X0242333Y0126493D02*
X0240738Y0126493D01*
X0240639Y0126792D02*
X0242294Y0126792D01*
X0242237Y0127090D02*
X0240374Y0127090D01*
X0239192Y0127090D02*
X0237125Y0127090D01*
X0237125Y0126792D02*
X0238910Y0126792D01*
X0238756Y0126493D02*
X0237125Y0126493D01*
X0237125Y0126195D02*
X0238681Y0126195D01*
X0238661Y0125896D02*
X0237125Y0125896D01*
X0237125Y0125598D02*
X0238661Y0125598D01*
X0238661Y0125299D02*
X0237125Y0125299D01*
X0237125Y0125001D02*
X0238661Y0125001D01*
X0238661Y0124702D02*
X0237125Y0124702D01*
X0237125Y0124404D02*
X0238661Y0124404D01*
X0238661Y0124105D02*
X0237125Y0124105D01*
X0237125Y0123807D02*
X0238661Y0123807D01*
X0238661Y0123508D02*
X0237125Y0123508D01*
X0237125Y0123210D02*
X0238661Y0123210D01*
X0238661Y0122911D02*
X0237125Y0122911D01*
X0236298Y0122911D02*
X0234842Y0122911D01*
X0234842Y0122701D02*
X0234842Y0123488D01*
X0234802Y0123488D01*
X0234645Y0123252D01*
X0234487Y0123055D01*
X0234291Y0122898D01*
X0234054Y0122780D01*
X0233857Y0122701D01*
X0233621Y0122622D01*
X0233346Y0122583D01*
X0233109Y0122543D01*
X0232558Y0122583D01*
X0232125Y0122740D01*
X0231771Y0122937D01*
X0231495Y0123173D01*
X0231298Y0123528D01*
X0231180Y0123921D01*
X0231102Y0124354D01*
X0231102Y0128291D01*
X0232598Y0128291D01*
X0232598Y0125142D01*
X0232676Y0124512D01*
X0232716Y0124276D01*
X0232952Y0123961D01*
X0233149Y0123843D01*
X0233346Y0123803D01*
X0233582Y0123764D01*
X0233897Y0123803D01*
X0234133Y0123843D01*
X0234330Y0123961D01*
X0234487Y0124118D01*
X0234605Y0124354D01*
X0234724Y0124630D01*
X0234763Y0124945D01*
X0234763Y0128291D01*
X0236298Y0128291D01*
X0236298Y0122701D01*
X0234842Y0122701D01*
X0234842Y0123210D02*
X0236298Y0123210D01*
X0236298Y0123508D02*
X0231309Y0123508D01*
X0231215Y0123807D02*
X0233328Y0123807D01*
X0232843Y0124105D02*
X0231147Y0124105D01*
X0231102Y0124404D02*
X0232694Y0124404D01*
X0232653Y0124702D02*
X0231102Y0124702D01*
X0231102Y0125001D02*
X0232615Y0125001D01*
X0232598Y0125299D02*
X0231102Y0125299D01*
X0231102Y0125598D02*
X0232598Y0125598D01*
X0232598Y0125896D02*
X0231102Y0125896D01*
X0231102Y0126195D02*
X0232598Y0126195D01*
X0232598Y0126493D02*
X0231102Y0126493D01*
X0231102Y0126792D02*
X0232598Y0126792D01*
X0232598Y0127090D02*
X0231102Y0127090D01*
X0231102Y0127389D02*
X0232598Y0127389D01*
X0232598Y0127687D02*
X0231102Y0127687D01*
X0231102Y0127986D02*
X0232598Y0127986D01*
X0232598Y0128284D02*
X0231102Y0128284D01*
X0230629Y0128284D02*
X0227592Y0128284D01*
X0227598Y0128291D02*
X0228070Y0128291D01*
X0228070Y0129079D01*
X0228188Y0129394D01*
X0228306Y0129669D01*
X0228503Y0129906D01*
X0228779Y0130102D01*
X0229094Y0130260D01*
X0229487Y0130378D01*
X0230629Y0130378D01*
X0230708Y0130339D01*
X0230708Y0129236D01*
X0230039Y0129236D01*
X0229881Y0129197D01*
X0229724Y0129118D01*
X0229645Y0129000D01*
X0229605Y0128921D01*
X0229605Y0128764D01*
X0229566Y0128606D01*
X0229566Y0128291D01*
X0230629Y0128291D01*
X0230629Y0127268D01*
X0229566Y0127268D01*
X0229566Y0122701D01*
X0228070Y0122701D01*
X0228070Y0127268D01*
X0226535Y0127268D01*
X0226692Y0127386D01*
X0227322Y0128016D01*
X0227479Y0128134D01*
X0227598Y0128291D01*
X0227292Y0127986D02*
X0230629Y0127986D01*
X0230629Y0127687D02*
X0226994Y0127687D01*
X0226695Y0127389D02*
X0230629Y0127389D01*
X0229566Y0127090D02*
X0228070Y0127090D01*
X0228070Y0126792D02*
X0229566Y0126792D01*
X0229566Y0126493D02*
X0228070Y0126493D01*
X0228070Y0126195D02*
X0229566Y0126195D01*
X0229566Y0125896D02*
X0228070Y0125896D01*
X0228070Y0125598D02*
X0229566Y0125598D01*
X0229566Y0125299D02*
X0228070Y0125299D01*
X0228070Y0125001D02*
X0229566Y0125001D01*
X0229566Y0124702D02*
X0228070Y0124702D01*
X0228070Y0124404D02*
X0229566Y0124404D01*
X0229566Y0124105D02*
X0228070Y0124105D01*
X0228070Y0123807D02*
X0229566Y0123807D01*
X0229566Y0123508D02*
X0228070Y0123508D01*
X0228070Y0123210D02*
X0229566Y0123210D01*
X0229566Y0122911D02*
X0228070Y0122911D01*
X0227125Y0122701D02*
X0224802Y0126244D01*
X0226889Y0128291D01*
X0225078Y0128291D01*
X0223149Y0126283D01*
X0223149Y0130378D01*
X0221613Y0129551D01*
X0221613Y0122701D01*
X0223149Y0122701D01*
X0223149Y0124630D01*
X0223739Y0125181D01*
X0225275Y0122701D01*
X0227125Y0122701D01*
X0226987Y0122911D02*
X0225145Y0122911D01*
X0224960Y0123210D02*
X0226792Y0123210D01*
X0226596Y0123508D02*
X0224775Y0123508D01*
X0224590Y0123807D02*
X0226400Y0123807D01*
X0226204Y0124105D02*
X0224405Y0124105D01*
X0224221Y0124404D02*
X0226009Y0124404D01*
X0225813Y0124702D02*
X0224036Y0124702D01*
X0223851Y0125001D02*
X0225617Y0125001D01*
X0225422Y0125299D02*
X0221613Y0125299D01*
X0221613Y0125001D02*
X0223546Y0125001D01*
X0223226Y0124702D02*
X0221613Y0124702D01*
X0221613Y0124404D02*
X0223149Y0124404D01*
X0223149Y0124105D02*
X0221613Y0124105D01*
X0221613Y0123807D02*
X0223149Y0123807D01*
X0223149Y0123508D02*
X0221613Y0123508D01*
X0221613Y0123210D02*
X0223149Y0123210D01*
X0223149Y0122911D02*
X0221613Y0122911D01*
X0218976Y0122911D02*
X0217440Y0122911D01*
X0217440Y0122701D02*
X0217440Y0128016D01*
X0217637Y0128055D01*
X0217794Y0128094D01*
X0217991Y0128094D01*
X0218188Y0128134D01*
X0218346Y0128173D01*
X0218739Y0128252D01*
X0218897Y0128291D01*
X0218897Y0127228D01*
X0219054Y0127504D01*
X0219212Y0127701D01*
X0219409Y0127937D01*
X0219605Y0128094D01*
X0219881Y0128252D01*
X0220117Y0128331D01*
X0220393Y0128409D01*
X0220944Y0128409D01*
X0220983Y0128370D01*
X0221023Y0128370D01*
X0221023Y0126953D01*
X0220983Y0126953D01*
X0220905Y0126992D01*
X0220472Y0126992D01*
X0220078Y0126953D01*
X0219763Y0126874D01*
X0219487Y0126717D01*
X0219291Y0126480D01*
X0219133Y0126205D01*
X0219054Y0125929D01*
X0218976Y0125575D01*
X0218976Y0122701D01*
X0217440Y0122701D01*
X0217440Y0123210D02*
X0218976Y0123210D01*
X0218976Y0123508D02*
X0217440Y0123508D01*
X0217440Y0123807D02*
X0218976Y0123807D01*
X0218976Y0124105D02*
X0217440Y0124105D01*
X0217440Y0124404D02*
X0218976Y0124404D01*
X0218976Y0124702D02*
X0217440Y0124702D01*
X0217440Y0125001D02*
X0218976Y0125001D01*
X0218976Y0125299D02*
X0217440Y0125299D01*
X0217440Y0125598D02*
X0218981Y0125598D01*
X0219047Y0125896D02*
X0217440Y0125896D01*
X0217440Y0126195D02*
X0219130Y0126195D01*
X0219301Y0126493D02*
X0217440Y0126493D01*
X0217440Y0126792D02*
X0219619Y0126792D01*
X0218989Y0127389D02*
X0221023Y0127389D01*
X0221023Y0127687D02*
X0219201Y0127687D01*
X0218897Y0127687D02*
X0217440Y0127687D01*
X0217440Y0127389D02*
X0218897Y0127389D01*
X0218897Y0127986D02*
X0217440Y0127986D01*
X0217440Y0127090D02*
X0221023Y0127090D01*
X0221613Y0127090D02*
X0223149Y0127090D01*
X0223149Y0126792D02*
X0221613Y0126792D01*
X0221613Y0126493D02*
X0223149Y0126493D01*
X0223350Y0126493D02*
X0225056Y0126493D01*
X0224835Y0126195D02*
X0221613Y0126195D01*
X0221613Y0125896D02*
X0225030Y0125896D01*
X0225226Y0125598D02*
X0221613Y0125598D01*
X0221613Y0127389D02*
X0223149Y0127389D01*
X0223149Y0127687D02*
X0221613Y0127687D01*
X0221613Y0127986D02*
X0223149Y0127986D01*
X0223149Y0128284D02*
X0221613Y0128284D01*
X0221613Y0128583D02*
X0223149Y0128583D01*
X0223149Y0128881D02*
X0221613Y0128881D01*
X0221613Y0129180D02*
X0223149Y0129180D01*
X0223149Y0129478D02*
X0221613Y0129478D01*
X0222033Y0129777D02*
X0223149Y0129777D01*
X0223149Y0130075D02*
X0222587Y0130075D01*
X0223141Y0130374D02*
X0223149Y0130374D01*
X0224763Y0130374D02*
X0225625Y0130374D01*
X0225511Y0130260D02*
X0225747Y0130496D01*
X0225944Y0130772D01*
X0226456Y0131283D01*
X0226653Y0131520D01*
X0227046Y0131835D01*
X0227243Y0131953D01*
X0227479Y0131992D01*
X0228228Y0131992D01*
X0228700Y0132071D01*
X0229133Y0132189D01*
X0229527Y0132346D01*
X0229920Y0132583D01*
X0230235Y0132858D01*
X0230550Y0133173D01*
X0230826Y0133528D01*
X0231220Y0134236D01*
X0231416Y0134945D01*
X0231456Y0135654D01*
X0231338Y0136283D01*
X0231141Y0136835D01*
X0230865Y0137307D01*
X0230550Y0137661D01*
X0230235Y0137819D01*
X0230235Y0137504D01*
X0230157Y0137268D01*
X0230039Y0137189D01*
X0229920Y0137150D01*
X0229645Y0137150D01*
X0229330Y0137307D01*
X0229212Y0137386D01*
X0229054Y0137504D01*
X0228936Y0137583D01*
X0228818Y0137701D01*
X0228739Y0137858D01*
X0228661Y0137976D01*
X0228621Y0138134D01*
X0228582Y0138252D01*
X0228621Y0138370D01*
X0228661Y0138449D01*
X0228700Y0138567D01*
X0228779Y0138685D01*
X0228936Y0138803D01*
X0229094Y0138882D01*
X0229291Y0138921D01*
X0229448Y0138961D01*
X0229566Y0138961D01*
X0229684Y0138921D01*
X0229802Y0138921D01*
X0229763Y0138961D01*
X0229605Y0139079D01*
X0229369Y0139197D01*
X0229054Y0139315D01*
X0228700Y0139433D01*
X0228306Y0139433D01*
X0227873Y0139354D01*
X0227440Y0139118D01*
X0227086Y0138803D01*
X0226889Y0138528D01*
X0226771Y0138173D01*
X0226771Y0137858D01*
X0226850Y0137504D01*
X0227046Y0137150D01*
X0227322Y0136835D01*
X0227637Y0136480D01*
X0227913Y0136165D01*
X0228031Y0135890D01*
X0228031Y0135614D01*
X0227952Y0135378D01*
X0227794Y0135181D01*
X0227558Y0135024D01*
X0227243Y0134945D01*
X0226928Y0134945D01*
X0226731Y0134984D01*
X0226535Y0135063D01*
X0226416Y0135142D01*
X0226298Y0135260D01*
X0226220Y0135417D01*
X0226180Y0135535D01*
X0226180Y0135654D01*
X0226220Y0135772D01*
X0226298Y0135890D01*
X0226456Y0136047D01*
X0226574Y0136087D01*
X0226731Y0136165D01*
X0226771Y0136205D01*
X0226692Y0136244D01*
X0226613Y0136244D01*
X0226456Y0136283D01*
X0226141Y0136283D01*
X0225905Y0136244D01*
X0225511Y0136087D01*
X0225353Y0135969D01*
X0225157Y0135850D01*
X0225039Y0135654D01*
X0224920Y0135417D01*
X0224842Y0135181D01*
X0224763Y0134472D01*
X0224763Y0129433D01*
X0224802Y0129433D01*
X0224881Y0129551D01*
X0224999Y0129669D01*
X0225117Y0129827D01*
X0225314Y0130024D01*
X0225511Y0130260D01*
X0225357Y0130075D02*
X0224763Y0130075D01*
X0224763Y0129777D02*
X0225080Y0129777D01*
X0224833Y0129478D02*
X0224763Y0129478D01*
X0224763Y0130672D02*
X0225873Y0130672D01*
X0226143Y0130971D02*
X0224763Y0130971D01*
X0224763Y0131270D02*
X0226442Y0131270D01*
X0226713Y0131568D02*
X0224763Y0131568D01*
X0224763Y0131867D02*
X0227100Y0131867D01*
X0229045Y0132165D02*
X0224763Y0132165D01*
X0224763Y0132464D02*
X0229722Y0132464D01*
X0230125Y0132762D02*
X0224763Y0132762D01*
X0224763Y0133061D02*
X0230438Y0133061D01*
X0230695Y0133359D02*
X0224763Y0133359D01*
X0224763Y0133658D02*
X0230898Y0133658D01*
X0231064Y0133956D02*
X0224763Y0133956D01*
X0224763Y0134255D02*
X0231225Y0134255D01*
X0231308Y0134553D02*
X0224772Y0134553D01*
X0224805Y0134852D02*
X0231391Y0134852D01*
X0231428Y0135150D02*
X0227748Y0135150D01*
X0227975Y0135449D02*
X0231444Y0135449D01*
X0231438Y0135747D02*
X0228031Y0135747D01*
X0227964Y0136046D02*
X0231382Y0136046D01*
X0231316Y0136344D02*
X0227756Y0136344D01*
X0227493Y0136643D02*
X0231209Y0136643D01*
X0231079Y0136941D02*
X0227229Y0136941D01*
X0226996Y0137240D02*
X0229465Y0137240D01*
X0229003Y0137538D02*
X0226842Y0137538D01*
X0226776Y0137837D02*
X0228750Y0137837D01*
X0228621Y0138135D02*
X0226771Y0138135D01*
X0226858Y0138434D02*
X0228653Y0138434D01*
X0228842Y0138732D02*
X0227035Y0138732D01*
X0227342Y0139031D02*
X0229669Y0139031D01*
X0229011Y0139329D02*
X0227827Y0139329D01*
X0230235Y0137538D02*
X0230660Y0137538D01*
X0230905Y0137240D02*
X0230115Y0137240D01*
X0226454Y0136046D02*
X0225456Y0136046D01*
X0225095Y0135747D02*
X0226211Y0135747D01*
X0226209Y0135449D02*
X0224936Y0135449D01*
X0224838Y0135150D02*
X0226408Y0135150D01*
X0228741Y0130075D02*
X0230708Y0130075D01*
X0230708Y0129777D02*
X0228396Y0129777D01*
X0228224Y0129478D02*
X0230708Y0129478D01*
X0230637Y0130374D02*
X0229474Y0130374D01*
X0229847Y0129180D02*
X0228108Y0129180D01*
X0228070Y0128881D02*
X0229605Y0128881D01*
X0229566Y0128583D02*
X0228070Y0128583D01*
X0226882Y0128284D02*
X0225071Y0128284D01*
X0224784Y0127986D02*
X0226578Y0127986D01*
X0226273Y0127687D02*
X0224498Y0127687D01*
X0224211Y0127389D02*
X0225969Y0127389D01*
X0225665Y0127090D02*
X0223924Y0127090D01*
X0223637Y0126792D02*
X0225361Y0126792D01*
X0221023Y0127986D02*
X0219470Y0127986D01*
X0219978Y0128284D02*
X0221023Y0128284D01*
X0218897Y0128284D02*
X0218869Y0128284D01*
X0216486Y0127389D02*
X0211783Y0127389D01*
X0211810Y0127425D02*
X0211928Y0127622D01*
X0212046Y0127780D01*
X0212204Y0127898D01*
X0212598Y0128134D01*
X0212794Y0128213D01*
X0212991Y0128252D01*
X0213228Y0128331D01*
X0213464Y0128370D01*
X0213661Y0128409D01*
X0214566Y0128409D01*
X0214763Y0128370D01*
X0214999Y0128370D01*
X0215196Y0128331D01*
X0215393Y0128252D01*
X0215590Y0128213D01*
X0215787Y0128134D01*
X0216259Y0127780D01*
X0216377Y0127622D01*
X0216456Y0127465D01*
X0216535Y0127268D01*
X0216574Y0127071D01*
X0216574Y0123646D01*
X0216613Y0123567D01*
X0216613Y0123213D01*
X0216653Y0123134D01*
X0216653Y0123055D01*
X0216692Y0122976D01*
X0216692Y0122858D01*
X0216731Y0122780D01*
X0216771Y0122740D01*
X0216771Y0122701D01*
X0215235Y0122701D01*
X0215235Y0122740D01*
X0215196Y0122780D01*
X0215196Y0122819D01*
X0215157Y0122858D01*
X0215157Y0122976D01*
X0215117Y0123016D01*
X0215117Y0123252D01*
X0215039Y0123134D01*
X0214920Y0123055D01*
X0214842Y0122976D01*
X0214724Y0122898D01*
X0214605Y0122858D01*
X0214487Y0122780D01*
X0214015Y0122622D01*
X0213897Y0122622D01*
X0213779Y0122583D01*
X0213621Y0122583D01*
X0213503Y0122543D01*
X0213070Y0122543D01*
X0212873Y0122583D01*
X0212676Y0122583D01*
X0212519Y0122622D01*
X0212322Y0122701D01*
X0212165Y0122780D01*
X0212046Y0122858D01*
X0211889Y0122937D01*
X0211771Y0123055D01*
X0211692Y0123173D01*
X0211574Y0123331D01*
X0211495Y0123449D01*
X0211456Y0123646D01*
X0211377Y0123803D01*
X0211377Y0124000D01*
X0211338Y0124197D01*
X0211416Y0124630D01*
X0211535Y0124984D01*
X0211692Y0125260D01*
X0211968Y0125496D01*
X0212243Y0125654D01*
X0212558Y0125772D01*
X0212873Y0125850D01*
X0213228Y0125890D01*
X0213542Y0125063D01*
X0213424Y0125024D01*
X0213346Y0124984D01*
X0213306Y0124945D01*
X0213149Y0124866D01*
X0213109Y0124827D01*
X0213031Y0124787D01*
X0212913Y0124551D01*
X0212913Y0124472D01*
X0212873Y0124394D01*
X0212873Y0124197D01*
X0212913Y0124079D01*
X0212913Y0124000D01*
X0212952Y0123921D01*
X0212991Y0123882D01*
X0213031Y0123803D01*
X0213109Y0123764D01*
X0213149Y0123724D01*
X0213306Y0123646D01*
X0213385Y0123646D01*
X0213464Y0123606D01*
X0213542Y0123606D01*
X0213621Y0123567D01*
X0213818Y0123567D01*
X0214015Y0123606D01*
X0214212Y0123606D01*
X0214369Y0123685D01*
X0214527Y0123724D01*
X0214645Y0123803D01*
X0214724Y0123882D01*
X0214802Y0124000D01*
X0214881Y0124079D01*
X0214960Y0124315D01*
X0214999Y0124394D01*
X0215039Y0124512D01*
X0215039Y0125417D01*
X0214960Y0125339D01*
X0214881Y0125339D01*
X0214724Y0125260D01*
X0214645Y0125260D01*
X0214566Y0125220D01*
X0214409Y0125220D01*
X0214212Y0126008D01*
X0214487Y0126087D01*
X0214724Y0126165D01*
X0214920Y0126283D01*
X0215039Y0126441D01*
X0215039Y0126874D01*
X0214920Y0127110D01*
X0214881Y0127150D01*
X0214842Y0127228D01*
X0214605Y0127346D01*
X0214527Y0127346D01*
X0214448Y0127386D01*
X0213739Y0127386D01*
X0213346Y0127189D01*
X0213188Y0127031D01*
X0213149Y0126953D01*
X0213109Y0126835D01*
X0213070Y0126756D01*
X0213070Y0126559D01*
X0211535Y0126559D01*
X0211613Y0127031D01*
X0211692Y0127268D01*
X0211810Y0127425D01*
X0211977Y0127687D02*
X0216328Y0127687D01*
X0215984Y0127986D02*
X0212351Y0127986D01*
X0213089Y0128284D02*
X0215312Y0128284D01*
X0214930Y0127090D02*
X0216570Y0127090D01*
X0216574Y0126792D02*
X0215039Y0126792D01*
X0215039Y0126493D02*
X0216574Y0126493D01*
X0216574Y0126195D02*
X0214773Y0126195D01*
X0214212Y0126008D02*
X0214409Y0125220D01*
X0214330Y0125181D01*
X0214251Y0125181D01*
X0214133Y0125142D01*
X0213976Y0125142D01*
X0213857Y0125102D01*
X0213700Y0125102D01*
X0213621Y0125063D01*
X0213542Y0125063D01*
X0213228Y0125890D01*
X0213936Y0125969D01*
X0214212Y0126008D01*
X0214240Y0125896D02*
X0216574Y0125896D01*
X0216574Y0125598D02*
X0214314Y0125598D01*
X0213339Y0125598D01*
X0212146Y0125598D01*
X0211738Y0125299D02*
X0213452Y0125299D01*
X0214389Y0125299D01*
X0214802Y0125299D01*
X0215039Y0125299D02*
X0216574Y0125299D01*
X0216574Y0125001D02*
X0215039Y0125001D01*
X0215039Y0124702D02*
X0216574Y0124702D01*
X0216574Y0124404D02*
X0215003Y0124404D01*
X0214890Y0124105D02*
X0216574Y0124105D01*
X0216574Y0123807D02*
X0214648Y0123807D01*
X0215089Y0123210D02*
X0211665Y0123210D01*
X0211483Y0123508D02*
X0216613Y0123508D01*
X0216615Y0123210D02*
X0215117Y0123210D01*
X0215157Y0122911D02*
X0216692Y0122911D01*
X0214744Y0122911D02*
X0211941Y0122911D01*
X0212556Y0122613D02*
X0213869Y0122613D01*
X0213029Y0123807D02*
X0211377Y0123807D01*
X0211356Y0124105D02*
X0212904Y0124105D01*
X0212878Y0124404D02*
X0211375Y0124404D01*
X0211441Y0124702D02*
X0212988Y0124702D01*
X0213379Y0125001D02*
X0211544Y0125001D01*
X0210875Y0125001D02*
X0209352Y0125001D01*
X0209369Y0125142D02*
X0209369Y0125457D01*
X0209369Y0125811D01*
X0209330Y0126126D01*
X0209212Y0126441D01*
X0209094Y0126717D01*
X0208897Y0126953D01*
X0208661Y0127110D01*
X0208385Y0127228D01*
X0208031Y0127268D01*
X0207716Y0127228D01*
X0207401Y0127110D01*
X0207204Y0126953D01*
X0207007Y0126717D01*
X0206889Y0126441D01*
X0206771Y0126126D01*
X0206731Y0125811D01*
X0206731Y0125142D01*
X0206889Y0124512D01*
X0207007Y0124236D01*
X0207204Y0124039D01*
X0207440Y0123843D01*
X0207716Y0123764D01*
X0208070Y0123724D01*
X0208385Y0123764D01*
X0208700Y0123843D01*
X0208936Y0124039D01*
X0209094Y0124236D01*
X0209212Y0124512D01*
X0210550Y0123882D01*
X0210314Y0123449D01*
X0209960Y0123094D01*
X0209527Y0122780D01*
X0209054Y0122622D01*
X0208464Y0122543D01*
X0207755Y0122661D01*
X0207519Y0122780D01*
X0207125Y0123016D01*
X0206810Y0123409D01*
X0206771Y0123409D01*
X0206771Y0119394D01*
X0206416Y0119748D01*
X0205826Y0120220D01*
X0205472Y0120575D01*
X0205275Y0120732D01*
X0205275Y0128016D01*
X0205432Y0128055D01*
X0205629Y0128094D01*
X0205826Y0128094D01*
X0205983Y0128134D01*
X0206180Y0128173D01*
X0206338Y0128213D01*
X0206731Y0128291D01*
X0206731Y0127583D01*
X0206889Y0127780D01*
X0207046Y0127937D01*
X0207243Y0128094D01*
X0207637Y0128331D01*
X0208109Y0128409D01*
X0208385Y0128409D01*
X0208976Y0128370D01*
X0209527Y0128173D01*
X0209960Y0127898D01*
X0210314Y0127504D01*
X0210590Y0127071D01*
X0210747Y0126559D01*
X0210865Y0126008D01*
X0210905Y0125417D01*
X0209369Y0125457D01*
X0210905Y0125417D01*
X0210865Y0124866D01*
X0210747Y0124354D01*
X0210550Y0123882D01*
X0209212Y0124512D01*
X0209330Y0124827D01*
X0209369Y0125142D01*
X0209369Y0125299D02*
X0210896Y0125299D01*
X0210893Y0125598D02*
X0209369Y0125598D01*
X0209359Y0125896D02*
X0210873Y0125896D01*
X0210825Y0126195D02*
X0209304Y0126195D01*
X0209189Y0126493D02*
X0210761Y0126493D01*
X0210676Y0126792D02*
X0209031Y0126792D01*
X0208690Y0127090D02*
X0210577Y0127090D01*
X0210387Y0127389D02*
X0205275Y0127389D01*
X0205275Y0127687D02*
X0206731Y0127687D01*
X0206815Y0127687D02*
X0210149Y0127687D01*
X0209821Y0127986D02*
X0207108Y0127986D01*
X0206731Y0127986D02*
X0205275Y0127986D01*
X0205275Y0127090D02*
X0207376Y0127090D01*
X0207070Y0126792D02*
X0205275Y0126792D01*
X0205275Y0126493D02*
X0206911Y0126493D01*
X0206797Y0126195D02*
X0205275Y0126195D01*
X0205275Y0125896D02*
X0206742Y0125896D01*
X0206731Y0125598D02*
X0205275Y0125598D01*
X0205275Y0125299D02*
X0206731Y0125299D01*
X0206767Y0125001D02*
X0205275Y0125001D01*
X0205275Y0124702D02*
X0206841Y0124702D01*
X0206935Y0124404D02*
X0205275Y0124404D01*
X0205275Y0124105D02*
X0207138Y0124105D01*
X0207565Y0123807D02*
X0205275Y0123807D01*
X0205275Y0123508D02*
X0210347Y0123508D01*
X0210509Y0123807D02*
X0208557Y0123807D01*
X0208989Y0124105D02*
X0210076Y0124105D01*
X0210643Y0124105D01*
X0210759Y0124404D02*
X0209441Y0124404D01*
X0209165Y0124404D01*
X0209283Y0124702D02*
X0210827Y0124702D01*
X0210075Y0123210D02*
X0206970Y0123210D01*
X0206771Y0123210D02*
X0205275Y0123210D01*
X0205275Y0122911D02*
X0206771Y0122911D01*
X0206771Y0122613D02*
X0205275Y0122613D01*
X0205275Y0122314D02*
X0206771Y0122314D01*
X0206771Y0122016D02*
X0205275Y0122016D01*
X0205275Y0121717D02*
X0206771Y0121717D01*
X0206771Y0121419D02*
X0205275Y0121419D01*
X0205275Y0121120D02*
X0206771Y0121120D01*
X0206771Y0120822D02*
X0205275Y0120822D01*
X0205523Y0120523D02*
X0206771Y0120523D01*
X0206771Y0120225D02*
X0205822Y0120225D01*
X0206194Y0119926D02*
X0206771Y0119926D01*
X0206771Y0119628D02*
X0206537Y0119628D01*
X0208047Y0122613D02*
X0208984Y0122613D01*
X0209708Y0122911D02*
X0207299Y0122911D01*
X0204566Y0124000D02*
X0204409Y0123567D01*
X0204172Y0123252D01*
X0203857Y0122976D01*
X0203464Y0122780D01*
X0203031Y0122661D01*
X0202558Y0122583D01*
X0202086Y0122543D01*
X0201613Y0122583D01*
X0201141Y0122661D01*
X0200708Y0122780D01*
X0200314Y0122976D01*
X0199999Y0123252D01*
X0199724Y0123606D01*
X0199566Y0124000D01*
X0199487Y0124512D01*
X0200944Y0124512D01*
X0200944Y0124276D01*
X0201023Y0124079D01*
X0201141Y0123921D01*
X0201456Y0123685D01*
X0201692Y0123646D01*
X0201889Y0123606D01*
X0202125Y0123567D01*
X0202283Y0123606D01*
X0202440Y0123606D01*
X0202598Y0123646D01*
X0202755Y0123724D01*
X0202913Y0123843D01*
X0203031Y0123961D01*
X0203109Y0124276D01*
X0203070Y0124433D01*
X0202991Y0124591D01*
X0202834Y0124709D01*
X0202637Y0124827D01*
X0202401Y0124906D01*
X0201771Y0125063D01*
X0201377Y0125142D01*
X0201023Y0125220D01*
X0200708Y0125339D01*
X0200432Y0125457D01*
X0200157Y0125614D01*
X0199920Y0125772D01*
X0199763Y0126008D01*
X0199645Y0126283D01*
X0199605Y0126638D01*
X0199645Y0127110D01*
X0199802Y0127504D01*
X0200078Y0127819D01*
X0200353Y0128055D01*
X0200747Y0128252D01*
X0201141Y0128331D01*
X0201574Y0128409D01*
X0202479Y0128409D01*
X0202913Y0128331D01*
X0203306Y0128213D01*
X0203661Y0128055D01*
X0203976Y0127819D01*
X0204212Y0127504D01*
X0204409Y0127110D01*
X0204487Y0126638D01*
X0203031Y0126638D01*
X0202991Y0126835D01*
X0202913Y0127031D01*
X0202834Y0127150D01*
X0202716Y0127228D01*
X0202558Y0127307D01*
X0202361Y0127386D01*
X0201692Y0127386D01*
X0201574Y0127346D01*
X0201416Y0127307D01*
X0201298Y0127268D01*
X0201141Y0127031D01*
X0201141Y0126874D01*
X0201180Y0126717D01*
X0201298Y0126559D01*
X0201456Y0126441D01*
X0201692Y0126323D01*
X0201928Y0126244D01*
X0202243Y0126205D01*
X0203188Y0125969D01*
X0203542Y0125890D01*
X0204094Y0125575D01*
X0204330Y0125378D01*
X0204487Y0125142D01*
X0204605Y0124866D01*
X0204645Y0124512D01*
X0204566Y0124000D01*
X0204582Y0124105D02*
X0203067Y0124105D01*
X0203077Y0124404D02*
X0204628Y0124404D01*
X0204624Y0124702D02*
X0202842Y0124702D01*
X0202020Y0125001D02*
X0204548Y0125001D01*
X0204382Y0125299D02*
X0200813Y0125299D01*
X0200185Y0125598D02*
X0204053Y0125598D01*
X0203513Y0125896D02*
X0199837Y0125896D01*
X0199683Y0126195D02*
X0202283Y0126195D01*
X0203000Y0126792D02*
X0204462Y0126792D01*
X0204412Y0127090D02*
X0202873Y0127090D01*
X0203067Y0128284D02*
X0200909Y0128284D01*
X0200273Y0127986D02*
X0203753Y0127986D01*
X0204074Y0127687D02*
X0199963Y0127687D01*
X0199756Y0127389D02*
X0204269Y0127389D01*
X0206697Y0128284D02*
X0206731Y0128284D01*
X0207560Y0128284D02*
X0209215Y0128284D01*
X0211633Y0127090D02*
X0213247Y0127090D01*
X0213088Y0126792D02*
X0211573Y0126792D01*
X0213286Y0125896D02*
X0214240Y0125896D01*
X0204496Y0123807D02*
X0202865Y0123807D01*
X0202738Y0122613D02*
X0201433Y0122613D01*
X0200444Y0122911D02*
X0203727Y0122911D01*
X0204124Y0123210D02*
X0200047Y0123210D01*
X0199800Y0123508D02*
X0204365Y0123508D01*
X0201294Y0123807D02*
X0199643Y0123807D01*
X0199550Y0124105D02*
X0201012Y0124105D01*
X0200944Y0124404D02*
X0199504Y0124404D01*
X0199622Y0126493D02*
X0201386Y0126493D01*
X0201161Y0126792D02*
X0199618Y0126792D01*
X0199643Y0127090D02*
X0201180Y0127090D01*
X0231475Y0123210D02*
X0234611Y0123210D01*
X0234307Y0122911D02*
X0231817Y0122911D01*
X0232476Y0122613D02*
X0233556Y0122613D01*
X0233918Y0123807D02*
X0236298Y0123807D01*
X0236298Y0124105D02*
X0234474Y0124105D01*
X0234627Y0124404D02*
X0236298Y0124404D01*
X0236298Y0124702D02*
X0234733Y0124702D01*
X0234763Y0125001D02*
X0236298Y0125001D01*
X0236298Y0125299D02*
X0234763Y0125299D01*
X0234763Y0125598D02*
X0236298Y0125598D01*
X0236298Y0125896D02*
X0234763Y0125896D01*
X0234763Y0126195D02*
X0236298Y0126195D01*
X0236298Y0126493D02*
X0234763Y0126493D01*
X0234763Y0126792D02*
X0236298Y0126792D01*
X0236298Y0127090D02*
X0234763Y0127090D01*
X0234763Y0127389D02*
X0236298Y0127389D01*
X0236298Y0127687D02*
X0234763Y0127687D01*
X0234763Y0127986D02*
X0236298Y0127986D01*
X0236298Y0128284D02*
X0234763Y0128284D01*
X0237125Y0128284D02*
X0238582Y0128284D01*
X0238582Y0127986D02*
X0237125Y0127986D01*
X0237125Y0127687D02*
X0238582Y0127687D01*
X0238744Y0127687D02*
X0241986Y0127687D01*
X0242148Y0127389D02*
X0237125Y0127389D01*
X0239046Y0127986D02*
X0241722Y0127986D01*
X0241179Y0128284D02*
X0239585Y0128284D01*
D65*
X0279751Y0118400D03*
X0279751Y0112100D03*
D66*
X0279672Y0112258D03*
X0279672Y0118242D03*
D67*
X0279515Y0118085D03*
X0279515Y0112415D03*
D68*
X0279436Y0112573D03*
X0279436Y0117927D03*
D69*
X0279357Y0117770D03*
X0279357Y0112730D03*
D70*
X0279279Y0112888D03*
X0279279Y0117612D03*
X0279381Y0108150D03*
X0279381Y0101850D03*
D71*
X0279200Y0113045D03*
X0279200Y0117455D03*
D72*
X0279121Y0117297D03*
X0279224Y0107992D03*
X0279224Y0102008D03*
D73*
X0270798Y0106890D03*
X0270539Y0114620D03*
D74*
X0279145Y0107835D03*
X0279145Y0102165D03*
D75*
X0279066Y0102323D03*
X0279066Y0107677D03*
D76*
X0278987Y0107520D03*
X0278987Y0102480D03*
D77*
X0278909Y0102638D03*
X0278909Y0107362D03*
D78*
X0278830Y0107205D03*
X0278830Y0102795D03*
M02*
