G75*
%MOIN*%
%OFA0B0*%
%FSLAX25Y25*%
%IPPOS*%
%LPD*%
%AMOC8*
5,1,8,0,0,1.08239X$1,22.5*
%
%ADD10R,0.14961X0.00157*%
%ADD11R,0.02205X0.00157*%
%ADD12R,0.02835X0.00157*%
%ADD13R,0.02520X0.00157*%
%ADD14R,0.03307X0.00157*%
%ADD15R,0.01890X0.00157*%
%ADD16R,0.01575X0.00157*%
%ADD17R,0.02047X0.00157*%
%ADD18R,0.02362X0.00157*%
%ADD19R,0.01732X0.00157*%
%ADD20R,0.01102X0.00157*%
%ADD21R,0.00787X0.00157*%
%ADD22R,0.00945X0.00157*%
%ADD23R,0.00630X0.00157*%
%ADD24R,0.00472X0.00157*%
%ADD25R,0.01417X0.00157*%
%ADD26R,0.01260X0.00157*%
%ADD27R,0.02677X0.00157*%
%ADD28R,0.04094X0.00157*%
%ADD29R,0.04252X0.00157*%
%ADD30R,0.00315X0.00157*%
%ADD31R,0.02992X0.00157*%
%ADD32R,0.03150X0.00157*%
%ADD33R,0.03465X0.00157*%
%ADD34R,0.13858X0.00157*%
%ADD35R,0.09606X0.00157*%
%ADD36R,0.00157X0.00157*%
%ADD37R,0.13071X0.00157*%
%ADD38R,0.12913X0.00157*%
%ADD39R,0.12756X0.00157*%
%ADD40R,0.12598X0.00157*%
%ADD41R,0.12441X0.00157*%
%ADD42R,0.12283X0.00157*%
%ADD43R,0.12126X0.00157*%
%ADD44R,0.06142X0.00157*%
%ADD45R,0.16535X0.00157*%
%ADD46R,0.16378X0.00157*%
%ADD47R,0.16220X0.00157*%
%ADD48R,0.16063X0.00157*%
%ADD49R,0.15906X0.00157*%
%ADD50R,0.15748X0.00157*%
%ADD51R,0.15591X0.00157*%
%ADD52R,0.05984X0.00157*%
%ADD53R,0.09449X0.00157*%
%ADD54R,0.09921X0.00157*%
%ADD55R,0.10079X0.00157*%
%ADD56R,0.10236X0.00157*%
%ADD57R,0.10394X0.00157*%
%ADD58R,0.10551X0.00157*%
%ADD59R,0.03622X0.00157*%
%ADD60R,0.06614X0.00157*%
%ADD61R,0.03780X0.00157*%
%ADD62R,0.05039X0.00157*%
%ADD63R,0.04882X0.00157*%
%ADD64R,0.04724X0.00157*%
%ADD65R,0.04567X0.00157*%
%ADD66R,0.04409X0.00157*%
%ADD67C,0.00300*%
%ADD68C,0.00591*%
%ADD69R,0.17008X0.00157*%
%ADD70R,0.17323X0.00157*%
%ADD71R,0.17480X0.00157*%
%ADD72R,0.17638X0.00157*%
%ADD73R,0.17795X0.00157*%
%ADD74R,0.17953X0.00157*%
%ADD75R,0.18110X0.00157*%
%ADD76R,0.18268X0.00157*%
%ADD77R,0.18425X0.00157*%
%ADD78R,0.18583X0.00157*%
%ADD79R,0.18740X0.00157*%
%ADD80R,0.18898X0.00157*%
%ADD81R,0.19055X0.00157*%
%ADD82R,0.15433X0.00157*%
%ADD83R,0.03937X0.00157*%
D10*
X0280385Y0151850D03*
X0280385Y0152008D03*
X0280385Y0152165D03*
X0280385Y0152323D03*
X0280385Y0152480D03*
X0280385Y0152638D03*
X0280385Y0152795D03*
X0280385Y0157205D03*
X0280385Y0157362D03*
X0280385Y0157520D03*
X0280385Y0157677D03*
X0280385Y0157835D03*
X0280385Y0157992D03*
X0280385Y0158150D03*
D11*
X0284086Y0156732D03*
X0284086Y0156575D03*
X0286763Y0157047D03*
X0286763Y0155472D03*
X0286763Y0155315D03*
X0282353Y0153425D03*
X0274007Y0155787D03*
X0286763Y0146417D03*
X0286763Y0146260D03*
X0286763Y0143583D03*
X0282668Y0135945D03*
X0282668Y0134055D03*
X0282826Y0132953D03*
X0279991Y0136890D03*
X0277157Y0136890D03*
X0282761Y0125945D03*
X0282761Y0125787D03*
X0282761Y0124055D03*
X0282918Y0122953D03*
X0283168Y0117140D03*
X0287263Y0114620D03*
X0287263Y0114463D03*
X0284586Y0113360D03*
X0277657Y0113203D03*
X0271200Y0113203D03*
X0271042Y0113360D03*
X0271042Y0117140D03*
X0287355Y0104685D03*
X0287355Y0104528D03*
X0287355Y0104370D03*
X0284678Y0103110D03*
X0286855Y0096260D03*
X0286855Y0093583D03*
X0275072Y0102953D03*
X0274915Y0104055D03*
X0269875Y0103425D03*
X0203621Y0116732D03*
X0195432Y0116890D03*
X0191968Y0115472D03*
X0167558Y0113110D03*
X0164724Y0115000D03*
X0164724Y0115157D03*
X0164724Y0115315D03*
X0164724Y0115472D03*
X0164724Y0115630D03*
D12*
X0167716Y0114213D03*
X0171023Y0113740D03*
X0171023Y0113583D03*
X0171023Y0115000D03*
X0171023Y0115157D03*
X0174330Y0115157D03*
X0174330Y0113583D03*
X0177794Y0114213D03*
X0177794Y0114370D03*
X0181259Y0116575D03*
X0186613Y0116575D03*
X0186613Y0113268D03*
X0195275Y0114370D03*
X0195275Y0116575D03*
X0200314Y0116575D03*
X0200314Y0113268D03*
X0150058Y0084825D03*
X0142972Y0084825D03*
X0150058Y0081518D03*
X0269875Y0106260D03*
X0270033Y0106417D03*
X0270190Y0106575D03*
X0270348Y0106732D03*
X0270505Y0106890D03*
X0274600Y0104528D03*
X0278352Y0096732D03*
X0278194Y0096575D03*
X0278037Y0096417D03*
X0277879Y0096260D03*
X0283706Y0095472D03*
X0283706Y0095315D03*
X0283706Y0094528D03*
X0283706Y0094370D03*
X0286541Y0093110D03*
X0287041Y0105787D03*
X0287041Y0105945D03*
X0270728Y0113990D03*
X0270728Y0116510D03*
X0282446Y0124843D03*
X0282446Y0125157D03*
X0274100Y0126890D03*
X0282353Y0134685D03*
X0282353Y0135157D03*
X0282353Y0135315D03*
X0286448Y0143110D03*
X0283456Y0145787D03*
X0282196Y0153110D03*
X0279519Y0154528D03*
X0279519Y0154685D03*
X0279519Y0154843D03*
X0279519Y0155157D03*
X0279519Y0155315D03*
X0284086Y0157047D03*
X0286448Y0154213D03*
X0286448Y0154055D03*
X0274322Y0157047D03*
X0286948Y0116037D03*
X0286948Y0115880D03*
D13*
X0287105Y0115407D03*
X0287105Y0115250D03*
X0284586Y0113203D03*
X0287198Y0105315D03*
X0287198Y0105157D03*
X0274757Y0104370D03*
X0286698Y0096575D03*
X0286698Y0093268D03*
X0270885Y0113675D03*
X0270885Y0116825D03*
X0282603Y0124370D03*
X0282603Y0125472D03*
X0282511Y0134370D03*
X0282511Y0135630D03*
X0279991Y0137047D03*
X0277157Y0137047D03*
X0286605Y0143268D03*
X0286605Y0146575D03*
X0282353Y0153268D03*
X0279361Y0154213D03*
X0281251Y0157047D03*
X0284086Y0156890D03*
X0286605Y0154843D03*
X0286605Y0154685D03*
X0274165Y0152953D03*
X0203621Y0116575D03*
X0200472Y0116890D03*
X0191810Y0115315D03*
X0191810Y0114528D03*
X0191495Y0117047D03*
X0186771Y0113110D03*
X0177952Y0114055D03*
X0177794Y0113583D03*
X0177637Y0113425D03*
X0177637Y0113268D03*
X0177637Y0115315D03*
X0174172Y0115472D03*
X0174172Y0113268D03*
X0170865Y0113268D03*
X0170865Y0115472D03*
X0167873Y0114055D03*
X0167716Y0113583D03*
X0167558Y0113268D03*
X0150216Y0085140D03*
X0146436Y0085297D03*
D14*
X0146357Y0084825D03*
X0146357Y0084667D03*
X0142735Y0083250D03*
X0146357Y0081990D03*
X0146357Y0081833D03*
X0146357Y0081675D03*
X0146357Y0081518D03*
X0146357Y0081360D03*
X0149822Y0082148D03*
X0181023Y0115000D03*
X0186377Y0116102D03*
X0186377Y0113898D03*
X0186377Y0113740D03*
X0191416Y0116260D03*
X0191416Y0116417D03*
X0191416Y0116575D03*
X0191416Y0116732D03*
X0200078Y0113898D03*
X0269481Y0105472D03*
X0269481Y0105315D03*
X0274363Y0104843D03*
X0286804Y0106732D03*
X0286804Y0106890D03*
X0286712Y0116825D03*
X0286712Y0116982D03*
X0286304Y0122953D03*
X0286212Y0132953D03*
X0286212Y0147047D03*
X0286212Y0153110D03*
X0286212Y0153268D03*
X0282117Y0152953D03*
X0277865Y0157047D03*
X0270491Y0116037D03*
X0270491Y0115880D03*
X0270491Y0114620D03*
X0270491Y0114463D03*
X0277485Y0095472D03*
X0277485Y0095315D03*
X0277485Y0095157D03*
X0277485Y0095000D03*
D15*
X0287013Y0095630D03*
X0287013Y0095787D03*
X0287013Y0095945D03*
X0287013Y0094213D03*
X0287013Y0094055D03*
X0287513Y0102953D03*
X0287513Y0103740D03*
X0287513Y0103898D03*
X0284678Y0103425D03*
X0283261Y0106417D03*
X0283261Y0106575D03*
X0280584Y0102953D03*
X0275072Y0103110D03*
X0275072Y0103268D03*
X0275072Y0103583D03*
X0275072Y0103740D03*
X0275072Y0105157D03*
X0275072Y0105315D03*
X0275072Y0105472D03*
X0275072Y0105787D03*
X0275072Y0105945D03*
X0275072Y0106102D03*
X0270190Y0102953D03*
X0270033Y0103110D03*
X0277657Y0113360D03*
X0277657Y0113518D03*
X0277657Y0113675D03*
X0277657Y0113833D03*
X0277657Y0113990D03*
X0277657Y0114148D03*
X0277657Y0114305D03*
X0277657Y0114463D03*
X0277657Y0114620D03*
X0277657Y0114778D03*
X0277657Y0114935D03*
X0277657Y0115093D03*
X0277657Y0115250D03*
X0277657Y0115407D03*
X0277657Y0115565D03*
X0277657Y0115722D03*
X0277657Y0115880D03*
X0277657Y0116037D03*
X0277657Y0116195D03*
X0277657Y0116352D03*
X0280334Y0117140D03*
X0283168Y0116982D03*
X0283168Y0116825D03*
X0284586Y0113833D03*
X0284586Y0113675D03*
X0287420Y0113833D03*
X0287420Y0113990D03*
X0280334Y0113203D03*
X0274822Y0115565D03*
X0274822Y0116352D03*
X0273627Y0123110D03*
X0280241Y0126732D03*
X0282918Y0123740D03*
X0282826Y0133110D03*
X0282826Y0133583D03*
X0282826Y0133740D03*
X0279991Y0136732D03*
X0278416Y0135000D03*
X0277157Y0133268D03*
X0277157Y0136732D03*
X0286920Y0136260D03*
X0286920Y0144055D03*
X0286920Y0144213D03*
X0286920Y0144370D03*
X0286920Y0145630D03*
X0286920Y0145787D03*
X0286920Y0145945D03*
X0280149Y0146890D03*
X0280149Y0142953D03*
X0274952Y0142953D03*
X0273850Y0153268D03*
X0273850Y0153740D03*
X0273850Y0153898D03*
X0273850Y0155945D03*
X0273850Y0156102D03*
X0273850Y0156575D03*
X0284086Y0156417D03*
X0284086Y0156260D03*
X0286920Y0156102D03*
X0286920Y0155945D03*
X0286920Y0156890D03*
X0203621Y0116890D03*
X0177637Y0115630D03*
D16*
X0177637Y0115787D03*
X0185353Y0115945D03*
X0199369Y0114685D03*
X0199527Y0115000D03*
X0199527Y0115157D03*
X0199527Y0115315D03*
X0202991Y0114528D03*
X0167558Y0115787D03*
X0149271Y0083565D03*
X0149271Y0083407D03*
X0149271Y0083250D03*
X0149113Y0082935D03*
X0273785Y0123425D03*
X0273942Y0123583D03*
X0274100Y0126260D03*
X0278666Y0125000D03*
X0278666Y0124843D03*
X0280241Y0126575D03*
X0287170Y0126575D03*
X0287170Y0126732D03*
X0279991Y0133425D03*
X0278102Y0134370D03*
X0277944Y0134213D03*
X0277787Y0134055D03*
X0277629Y0133898D03*
X0277472Y0133740D03*
X0277314Y0133583D03*
X0278259Y0134685D03*
X0278259Y0135315D03*
X0277629Y0136102D03*
X0277472Y0136260D03*
X0277314Y0136417D03*
X0279991Y0136575D03*
X0284243Y0144370D03*
X0284243Y0144528D03*
X0280149Y0146732D03*
X0276054Y0145315D03*
X0276054Y0145157D03*
X0276054Y0145000D03*
X0276054Y0144843D03*
X0276054Y0144685D03*
X0274794Y0146890D03*
X0277944Y0153110D03*
X0276054Y0155787D03*
X0277944Y0156732D03*
X0279834Y0155787D03*
X0281409Y0156890D03*
X0284086Y0155945D03*
X0280334Y0116982D03*
X0283011Y0116352D03*
X0283011Y0116195D03*
X0284586Y0113990D03*
X0283103Y0105945D03*
X0283103Y0105787D03*
X0284678Y0103740D03*
X0287670Y0103268D03*
X0280584Y0103268D03*
X0280584Y0103110D03*
X0280426Y0106575D03*
D17*
X0283340Y0106732D03*
X0283340Y0106890D03*
X0284757Y0103268D03*
X0287434Y0104055D03*
X0287434Y0104213D03*
X0277828Y0102953D03*
X0274993Y0103898D03*
X0269954Y0103268D03*
X0284507Y0113518D03*
X0287342Y0113203D03*
X0287342Y0114148D03*
X0287342Y0114305D03*
X0282840Y0123898D03*
X0282840Y0126102D03*
X0280163Y0126890D03*
X0280163Y0123110D03*
X0274021Y0126575D03*
X0277078Y0133110D03*
X0280070Y0133110D03*
X0282747Y0133898D03*
X0282747Y0136102D03*
X0286842Y0143740D03*
X0286842Y0143898D03*
X0286842Y0146102D03*
X0282432Y0153583D03*
X0286842Y0155630D03*
X0286842Y0155787D03*
X0277865Y0156890D03*
X0273928Y0156732D03*
X0273928Y0154055D03*
X0273928Y0153110D03*
X0204015Y0115315D03*
X0203228Y0114685D03*
X0203700Y0113110D03*
X0207165Y0113110D03*
X0186850Y0112953D03*
X0167637Y0115630D03*
X0286934Y0096102D03*
X0286934Y0093898D03*
X0286934Y0093740D03*
D18*
X0286777Y0093425D03*
X0286777Y0096417D03*
X0284757Y0102953D03*
X0287277Y0104843D03*
X0287277Y0105000D03*
X0274836Y0104213D03*
X0269796Y0103583D03*
X0270964Y0113518D03*
X0270964Y0116982D03*
X0273706Y0122953D03*
X0274021Y0126732D03*
X0280163Y0127047D03*
X0282682Y0125630D03*
X0282682Y0124213D03*
X0280163Y0122953D03*
X0280070Y0132953D03*
X0282590Y0134213D03*
X0282590Y0135787D03*
X0277078Y0132953D03*
X0286684Y0143425D03*
X0277865Y0152953D03*
X0274086Y0156890D03*
X0286684Y0155157D03*
X0286684Y0155000D03*
X0287184Y0115093D03*
X0287184Y0114935D03*
X0287184Y0114778D03*
X0207165Y0113268D03*
X0203700Y0113268D03*
X0203385Y0114843D03*
X0203542Y0115000D03*
X0203700Y0115157D03*
X0200393Y0112953D03*
X0186850Y0116890D03*
X0181338Y0116890D03*
X0177716Y0115472D03*
X0177558Y0113110D03*
X0174094Y0113110D03*
X0174094Y0115630D03*
X0170787Y0115630D03*
X0170787Y0113110D03*
X0167637Y0115472D03*
X0143050Y0085140D03*
X0150137Y0081203D03*
D19*
X0149192Y0083093D03*
X0150294Y0085297D03*
X0167479Y0112953D03*
X0177558Y0112953D03*
X0199448Y0114843D03*
X0200550Y0117047D03*
X0273706Y0123268D03*
X0274021Y0126417D03*
X0280163Y0123268D03*
X0282997Y0123268D03*
X0282997Y0123425D03*
X0282997Y0123583D03*
X0282997Y0123110D03*
X0287092Y0126260D03*
X0287092Y0126417D03*
X0287092Y0126890D03*
X0282905Y0133268D03*
X0282905Y0133425D03*
X0280070Y0133268D03*
X0278338Y0134843D03*
X0278338Y0135157D03*
X0277235Y0136575D03*
X0277235Y0133425D03*
X0286999Y0136417D03*
X0286999Y0136575D03*
X0286999Y0136732D03*
X0286999Y0136890D03*
X0286999Y0144528D03*
X0286999Y0144685D03*
X0286999Y0144843D03*
X0286999Y0145000D03*
X0286999Y0145157D03*
X0286999Y0145315D03*
X0286999Y0145472D03*
X0280228Y0143110D03*
X0273771Y0153425D03*
X0273771Y0153583D03*
X0273771Y0156260D03*
X0273771Y0156417D03*
X0282432Y0153898D03*
X0282432Y0153740D03*
X0284007Y0156102D03*
X0286999Y0156260D03*
X0286999Y0156417D03*
X0286999Y0156575D03*
X0286999Y0156732D03*
X0283090Y0116667D03*
X0283090Y0116510D03*
X0287499Y0113675D03*
X0287499Y0113518D03*
X0287499Y0113360D03*
X0280413Y0113360D03*
X0274901Y0115722D03*
X0274901Y0115880D03*
X0274901Y0116037D03*
X0274901Y0116195D03*
X0280505Y0106890D03*
X0280505Y0106732D03*
X0283182Y0106260D03*
X0283182Y0106102D03*
X0284757Y0103583D03*
X0287592Y0103583D03*
X0287592Y0103425D03*
X0287592Y0103110D03*
X0277828Y0103110D03*
X0277828Y0103268D03*
X0277828Y0103425D03*
X0277828Y0103583D03*
X0277828Y0103740D03*
X0277828Y0103898D03*
X0277828Y0104055D03*
X0277828Y0104213D03*
X0277828Y0104370D03*
X0277828Y0104528D03*
X0277828Y0104685D03*
X0277828Y0104843D03*
X0277828Y0105000D03*
X0277828Y0105157D03*
X0277828Y0105315D03*
X0277828Y0105472D03*
X0277828Y0105630D03*
X0277828Y0105787D03*
X0277828Y0105945D03*
X0277828Y0106102D03*
X0275151Y0105630D03*
X0275151Y0103425D03*
X0287092Y0095472D03*
X0287092Y0095315D03*
X0287092Y0095157D03*
X0287092Y0095000D03*
X0287092Y0094843D03*
X0287092Y0094685D03*
X0287092Y0094528D03*
X0287092Y0094370D03*
D20*
X0284100Y0095945D03*
X0280792Y0095157D03*
X0280820Y0103740D03*
X0280820Y0103898D03*
X0280190Y0105945D03*
X0282867Y0105000D03*
X0282867Y0104843D03*
X0274048Y0106890D03*
X0272631Y0105630D03*
X0280570Y0113990D03*
X0280098Y0116352D03*
X0282775Y0115407D03*
X0282775Y0115250D03*
X0273641Y0116982D03*
X0276226Y0123268D03*
X0276226Y0123425D03*
X0276226Y0123583D03*
X0276226Y0125157D03*
X0276226Y0125315D03*
X0276226Y0125472D03*
X0276226Y0125630D03*
X0276226Y0125787D03*
X0274178Y0125945D03*
X0274493Y0124370D03*
X0274336Y0124213D03*
X0278430Y0124370D03*
X0278430Y0125630D03*
X0280163Y0126260D03*
X0280070Y0136260D03*
X0280385Y0143740D03*
X0279913Y0146102D03*
X0276291Y0145787D03*
X0276291Y0144055D03*
X0274558Y0143268D03*
X0274558Y0146575D03*
X0284007Y0145945D03*
X0284637Y0145315D03*
X0282432Y0154370D03*
X0282432Y0154528D03*
X0281487Y0156732D03*
X0279755Y0155945D03*
X0205905Y0116575D03*
X0205905Y0116417D03*
X0205905Y0116260D03*
X0205905Y0116102D03*
X0205905Y0115945D03*
X0205905Y0115787D03*
X0205905Y0115630D03*
X0205905Y0115472D03*
X0205905Y0115315D03*
X0205905Y0115157D03*
X0205905Y0115000D03*
X0205905Y0114843D03*
X0205905Y0114685D03*
X0205905Y0114528D03*
X0205905Y0114370D03*
X0205905Y0114213D03*
X0206062Y0114055D03*
X0204487Y0115630D03*
X0204645Y0115787D03*
X0204487Y0116102D03*
X0203700Y0117047D03*
X0202598Y0114213D03*
X0202598Y0114055D03*
X0202755Y0113898D03*
X0198976Y0114055D03*
X0198976Y0114213D03*
X0198976Y0114370D03*
X0198976Y0114528D03*
X0199133Y0115630D03*
X0199133Y0115787D03*
X0199133Y0115945D03*
X0196141Y0115945D03*
X0196141Y0115787D03*
X0196141Y0115630D03*
X0196141Y0115472D03*
X0196141Y0115315D03*
X0196141Y0115157D03*
X0196141Y0113898D03*
X0196141Y0113740D03*
X0196141Y0113583D03*
X0196141Y0113425D03*
X0196141Y0113268D03*
X0196141Y0113110D03*
X0194094Y0113740D03*
X0193936Y0113425D03*
X0193936Y0113268D03*
X0192519Y0113268D03*
X0192519Y0113425D03*
X0192519Y0113583D03*
X0192519Y0113740D03*
X0192519Y0113898D03*
X0192519Y0114055D03*
X0192519Y0114213D03*
X0192519Y0114370D03*
X0192519Y0115630D03*
X0192519Y0115787D03*
X0192519Y0115945D03*
X0193936Y0115787D03*
X0193936Y0115630D03*
X0193936Y0115472D03*
X0193936Y0115315D03*
X0187479Y0115315D03*
X0187479Y0115472D03*
X0187479Y0115630D03*
X0187479Y0115787D03*
X0187479Y0115945D03*
X0187479Y0115157D03*
X0187479Y0115000D03*
X0187479Y0114843D03*
X0187479Y0114685D03*
X0187479Y0114528D03*
X0187479Y0114370D03*
X0187479Y0114213D03*
X0187479Y0114055D03*
X0184960Y0114528D03*
X0184960Y0114685D03*
X0184960Y0114843D03*
X0184960Y0115000D03*
X0184960Y0115157D03*
X0184960Y0115315D03*
X0184960Y0115472D03*
X0185117Y0115630D03*
X0182125Y0115630D03*
X0182125Y0115787D03*
X0182125Y0115945D03*
X0182125Y0115472D03*
X0182125Y0115315D03*
X0182125Y0115157D03*
X0182125Y0113898D03*
X0182125Y0113740D03*
X0182125Y0113583D03*
X0182125Y0113425D03*
X0182125Y0113268D03*
X0182125Y0113110D03*
X0180078Y0113740D03*
X0180078Y0113898D03*
X0179920Y0113425D03*
X0179920Y0113268D03*
X0178661Y0113898D03*
X0178661Y0114685D03*
X0179920Y0115315D03*
X0179920Y0115472D03*
X0179920Y0115630D03*
X0179920Y0115787D03*
X0176771Y0114843D03*
X0176771Y0114685D03*
X0175511Y0114370D03*
X0175353Y0114055D03*
X0175353Y0114685D03*
X0173464Y0114528D03*
X0173464Y0114370D03*
X0173464Y0114213D03*
X0172046Y0114213D03*
X0172046Y0114370D03*
X0172046Y0114528D03*
X0172046Y0114685D03*
X0172046Y0114055D03*
X0170157Y0114055D03*
X0170157Y0114213D03*
X0170157Y0114370D03*
X0170157Y0114528D03*
X0170157Y0114685D03*
X0168582Y0114685D03*
X0168582Y0113898D03*
X0166692Y0114685D03*
X0166692Y0114843D03*
X0165275Y0114843D03*
X0208424Y0114528D03*
X0208424Y0114370D03*
X0208424Y0114213D03*
X0148877Y0084195D03*
X0148877Y0084037D03*
X0148877Y0083880D03*
X0148720Y0082778D03*
X0148720Y0082620D03*
X0148720Y0082463D03*
X0148720Y0082305D03*
X0143838Y0082148D03*
X0143838Y0081990D03*
X0143838Y0081833D03*
X0143838Y0081675D03*
X0143838Y0081518D03*
X0143838Y0081360D03*
X0143838Y0083407D03*
X0143838Y0083565D03*
X0143838Y0083722D03*
X0143838Y0083880D03*
X0143838Y0084037D03*
X0143838Y0084195D03*
X0141633Y0084037D03*
X0141633Y0083880D03*
X0141633Y0083722D03*
X0141633Y0083565D03*
X0141791Y0082148D03*
X0141791Y0081990D03*
X0141633Y0081675D03*
X0141633Y0081518D03*
D21*
X0141633Y0081203D03*
X0143838Y0081203D03*
X0165432Y0112953D03*
X0167479Y0112795D03*
X0170157Y0112953D03*
X0171259Y0112953D03*
X0173464Y0112953D03*
X0174566Y0112953D03*
X0177558Y0112795D03*
X0179920Y0112953D03*
X0182125Y0112953D03*
X0189054Y0112953D03*
X0192519Y0112953D03*
X0193936Y0112953D03*
X0196141Y0112953D03*
X0204645Y0114055D03*
X0174566Y0115787D03*
X0173464Y0115787D03*
X0171259Y0115787D03*
X0165432Y0115787D03*
X0164172Y0115787D03*
X0272631Y0105945D03*
X0274048Y0106732D03*
X0280033Y0105630D03*
X0280033Y0105472D03*
X0280978Y0104213D03*
X0282710Y0104213D03*
X0282710Y0104370D03*
X0282552Y0102953D03*
X0284757Y0104685D03*
X0282682Y0095787D03*
X0282682Y0094055D03*
X0282682Y0093110D03*
X0284100Y0093898D03*
X0280728Y0114305D03*
X0280728Y0114463D03*
X0279940Y0115880D03*
X0282617Y0114778D03*
X0282617Y0114620D03*
X0278115Y0122953D03*
X0278273Y0124055D03*
X0278273Y0125945D03*
X0280163Y0126102D03*
X0280163Y0123898D03*
X0274493Y0124685D03*
X0274178Y0125787D03*
X0280070Y0133898D03*
X0280070Y0136102D03*
X0278180Y0142953D03*
X0280542Y0144055D03*
X0280542Y0144213D03*
X0279755Y0145630D03*
X0282432Y0145945D03*
X0282432Y0146732D03*
X0284007Y0143898D03*
X0274401Y0143583D03*
X0274401Y0146260D03*
X0278023Y0153583D03*
X0278338Y0154055D03*
X0279755Y0153898D03*
X0282275Y0155000D03*
X0282275Y0155157D03*
X0281487Y0156575D03*
X0278023Y0156417D03*
D22*
X0277944Y0156575D03*
X0276054Y0155945D03*
X0276054Y0153898D03*
X0277944Y0153425D03*
X0282353Y0154685D03*
X0282353Y0154843D03*
X0284086Y0155157D03*
X0284086Y0155315D03*
X0284716Y0145157D03*
X0284716Y0145000D03*
X0284716Y0144843D03*
X0284716Y0144685D03*
X0282353Y0143110D03*
X0280464Y0143898D03*
X0279834Y0145787D03*
X0279834Y0145945D03*
X0276369Y0145945D03*
X0274479Y0146417D03*
X0274479Y0143425D03*
X0279991Y0133740D03*
X0278352Y0125787D03*
X0278352Y0124213D03*
X0280241Y0123740D03*
X0276304Y0123740D03*
X0276304Y0123898D03*
X0274572Y0124528D03*
X0276304Y0125945D03*
X0273720Y0116825D03*
X0273877Y0116667D03*
X0280019Y0116195D03*
X0280019Y0116037D03*
X0280649Y0114148D03*
X0282696Y0114935D03*
X0282696Y0115093D03*
X0280111Y0105787D03*
X0280899Y0104055D03*
X0282789Y0104528D03*
X0282789Y0104685D03*
X0272867Y0105157D03*
X0272710Y0105315D03*
X0272710Y0105472D03*
X0272710Y0105787D03*
X0280871Y0095945D03*
X0282761Y0096890D03*
X0208503Y0114685D03*
X0208503Y0114843D03*
X0208503Y0115000D03*
X0208503Y0115157D03*
X0208503Y0115315D03*
X0208503Y0115472D03*
X0208503Y0115630D03*
X0208503Y0115787D03*
X0208503Y0115945D03*
X0208503Y0116102D03*
X0208503Y0116260D03*
X0208503Y0116417D03*
X0208503Y0116575D03*
X0208503Y0116732D03*
X0208503Y0116890D03*
X0205826Y0116890D03*
X0205826Y0116732D03*
X0204566Y0115945D03*
X0202991Y0116102D03*
X0201259Y0115945D03*
X0201259Y0115787D03*
X0201259Y0115630D03*
X0201259Y0115472D03*
X0201259Y0115315D03*
X0201259Y0115157D03*
X0201259Y0115000D03*
X0201259Y0114843D03*
X0201259Y0114685D03*
X0201259Y0114528D03*
X0201259Y0114370D03*
X0201259Y0114213D03*
X0201259Y0114055D03*
X0193857Y0113110D03*
X0192598Y0113110D03*
X0188976Y0113110D03*
X0188976Y0113268D03*
X0188976Y0113425D03*
X0188976Y0113583D03*
X0188976Y0113740D03*
X0188976Y0113898D03*
X0188976Y0114055D03*
X0188976Y0114213D03*
X0188976Y0114370D03*
X0188976Y0114528D03*
X0188976Y0114685D03*
X0188976Y0114843D03*
X0188976Y0115000D03*
X0188976Y0115157D03*
X0188976Y0115315D03*
X0188976Y0115472D03*
X0188976Y0115630D03*
X0188976Y0115787D03*
X0188976Y0115945D03*
X0188976Y0116102D03*
X0188976Y0116260D03*
X0188976Y0116417D03*
X0188976Y0116575D03*
X0188976Y0116732D03*
X0188976Y0116890D03*
X0179842Y0113110D03*
X0175432Y0114213D03*
X0175432Y0114528D03*
X0170078Y0115787D03*
X0170078Y0115945D03*
X0170078Y0116102D03*
X0170078Y0116260D03*
X0170078Y0116417D03*
X0170078Y0116575D03*
X0170078Y0116732D03*
X0170078Y0116890D03*
X0170078Y0117047D03*
X0165353Y0114685D03*
X0165353Y0114528D03*
X0165353Y0114370D03*
X0165353Y0114213D03*
X0165353Y0114055D03*
X0165353Y0113898D03*
X0165353Y0113740D03*
X0165353Y0113583D03*
X0165353Y0113425D03*
X0165353Y0113268D03*
X0165353Y0113110D03*
X0151003Y0084195D03*
X0151003Y0084037D03*
X0151003Y0083880D03*
X0151003Y0083722D03*
X0151003Y0083565D03*
X0151003Y0083407D03*
X0151003Y0083250D03*
X0151003Y0083093D03*
X0151003Y0082935D03*
X0151003Y0082778D03*
X0151003Y0082620D03*
X0151003Y0082463D03*
X0151003Y0082305D03*
X0141554Y0081360D03*
D23*
X0166771Y0113740D03*
X0170078Y0117205D03*
X0176850Y0113740D03*
X0274035Y0116510D03*
X0279861Y0115722D03*
X0280806Y0114620D03*
X0282539Y0114463D03*
X0282539Y0114305D03*
X0282381Y0113203D03*
X0284586Y0114935D03*
X0284586Y0115093D03*
X0278037Y0123110D03*
X0278194Y0123898D03*
X0278194Y0126102D03*
X0278037Y0126890D03*
X0274257Y0125630D03*
X0274415Y0125157D03*
X0274415Y0125000D03*
X0274415Y0124843D03*
X0278102Y0143110D03*
X0276527Y0143898D03*
X0274322Y0143898D03*
X0274322Y0143740D03*
X0274322Y0146102D03*
X0278102Y0146890D03*
X0279676Y0145472D03*
X0280621Y0144370D03*
X0282353Y0145315D03*
X0282353Y0146102D03*
X0282353Y0146260D03*
X0282353Y0146417D03*
X0282353Y0146575D03*
X0282353Y0143268D03*
X0278102Y0153740D03*
X0278259Y0153898D03*
X0278416Y0155787D03*
X0278259Y0155945D03*
X0278102Y0156260D03*
X0281724Y0156260D03*
X0281724Y0156417D03*
X0281881Y0156102D03*
X0282039Y0155787D03*
X0282196Y0155472D03*
X0282196Y0155315D03*
X0284086Y0155000D03*
X0284086Y0154843D03*
X0274127Y0106575D03*
X0274285Y0106260D03*
X0279954Y0105315D03*
X0281056Y0104528D03*
X0281056Y0104370D03*
X0282631Y0104055D03*
X0282631Y0103898D03*
X0282603Y0096732D03*
X0282603Y0095945D03*
X0282603Y0093898D03*
D24*
X0282525Y0093740D03*
X0282525Y0093583D03*
X0282525Y0093425D03*
X0282525Y0093268D03*
X0282525Y0096102D03*
X0282525Y0096260D03*
X0282525Y0096417D03*
X0282525Y0096575D03*
X0282552Y0103110D03*
X0282552Y0103583D03*
X0282552Y0103740D03*
X0281135Y0104685D03*
X0279875Y0105157D03*
X0278458Y0106260D03*
X0278615Y0106890D03*
X0274206Y0106417D03*
X0284757Y0105000D03*
X0284757Y0104843D03*
X0282302Y0113360D03*
X0282460Y0113990D03*
X0282460Y0114148D03*
X0280885Y0114778D03*
X0279783Y0115407D03*
X0279783Y0115565D03*
X0278365Y0116510D03*
X0278365Y0116667D03*
X0278365Y0117140D03*
X0278115Y0123740D03*
X0280163Y0124055D03*
X0280163Y0125945D03*
X0282210Y0126260D03*
X0282210Y0126890D03*
X0278115Y0126260D03*
X0274336Y0125472D03*
X0274336Y0125315D03*
X0280070Y0134055D03*
X0280070Y0135945D03*
X0282117Y0136260D03*
X0282117Y0136890D03*
X0282275Y0143425D03*
X0282275Y0143583D03*
X0282275Y0143740D03*
X0282275Y0143898D03*
X0282275Y0144055D03*
X0282275Y0144213D03*
X0282275Y0144370D03*
X0282275Y0144528D03*
X0282275Y0144685D03*
X0282275Y0144843D03*
X0282275Y0145000D03*
X0282275Y0145157D03*
X0280700Y0144528D03*
X0279598Y0145157D03*
X0279598Y0145315D03*
X0278180Y0145315D03*
X0278180Y0145472D03*
X0278180Y0145630D03*
X0278180Y0145787D03*
X0278180Y0145945D03*
X0278180Y0146102D03*
X0278180Y0146260D03*
X0278180Y0146417D03*
X0278180Y0146575D03*
X0278180Y0146732D03*
X0278180Y0145157D03*
X0278180Y0145000D03*
X0278180Y0144843D03*
X0278180Y0144685D03*
X0278180Y0144528D03*
X0278180Y0144370D03*
X0278180Y0144213D03*
X0278180Y0144055D03*
X0278180Y0143898D03*
X0278180Y0143740D03*
X0278180Y0143583D03*
X0278180Y0143425D03*
X0278180Y0143268D03*
X0274243Y0144055D03*
X0274243Y0144213D03*
X0274243Y0145787D03*
X0274243Y0145945D03*
X0282117Y0155630D03*
X0281960Y0155945D03*
X0278180Y0156102D03*
X0202913Y0115945D03*
X0204645Y0114213D03*
X0207165Y0112795D03*
D25*
X0207165Y0112953D03*
X0206220Y0113898D03*
X0204330Y0115472D03*
X0203700Y0112953D03*
X0199291Y0115472D03*
X0195511Y0117047D03*
X0187007Y0117047D03*
X0185275Y0114055D03*
X0181495Y0117047D03*
X0178503Y0113740D03*
X0168424Y0113740D03*
X0143208Y0085297D03*
X0146042Y0083722D03*
X0146357Y0083250D03*
X0146830Y0082620D03*
X0147145Y0082148D03*
X0149035Y0083722D03*
X0273641Y0117140D03*
X0280255Y0116825D03*
X0280255Y0116667D03*
X0282932Y0116037D03*
X0282932Y0115880D03*
X0280413Y0113518D03*
X0280348Y0106417D03*
X0283025Y0105630D03*
X0283025Y0105472D03*
X0280663Y0103425D03*
X0284100Y0095787D03*
X0284100Y0094055D03*
X0280163Y0123425D03*
X0278588Y0124685D03*
X0278588Y0125157D03*
X0280163Y0126417D03*
X0276226Y0123110D03*
X0276226Y0122953D03*
X0274178Y0123898D03*
X0274021Y0123740D03*
X0278180Y0134528D03*
X0278180Y0135472D03*
X0278023Y0135630D03*
X0277865Y0135787D03*
X0277708Y0135945D03*
X0280070Y0136417D03*
X0280228Y0143268D03*
X0280070Y0146417D03*
X0280070Y0146575D03*
X0276133Y0145472D03*
X0276133Y0144528D03*
X0276133Y0144370D03*
X0274716Y0143110D03*
X0284165Y0144213D03*
X0282432Y0154055D03*
X0282432Y0154213D03*
X0284007Y0155787D03*
X0279755Y0154055D03*
X0276133Y0154055D03*
D26*
X0277944Y0153268D03*
X0284086Y0155472D03*
X0284086Y0155630D03*
X0282511Y0146890D03*
X0279991Y0146260D03*
X0280306Y0143583D03*
X0280306Y0143425D03*
X0282511Y0142953D03*
X0284086Y0144055D03*
X0276212Y0144213D03*
X0276212Y0145630D03*
X0274637Y0146732D03*
X0279991Y0133583D03*
X0278509Y0125472D03*
X0278509Y0125315D03*
X0278509Y0124528D03*
X0280241Y0123583D03*
X0274257Y0124055D03*
X0274100Y0126102D03*
X0280176Y0116510D03*
X0280491Y0113833D03*
X0280491Y0113675D03*
X0282853Y0115565D03*
X0282853Y0115722D03*
X0280269Y0106260D03*
X0280269Y0106102D03*
X0280741Y0103583D03*
X0282946Y0105157D03*
X0282946Y0105315D03*
X0280714Y0095787D03*
X0280714Y0095630D03*
X0280714Y0095472D03*
X0280714Y0095315D03*
X0282761Y0092953D03*
X0208346Y0114055D03*
X0208188Y0113898D03*
X0204566Y0113898D03*
X0202676Y0114370D03*
X0194172Y0113898D03*
X0194015Y0113583D03*
X0194015Y0115157D03*
X0194015Y0115945D03*
X0185196Y0115787D03*
X0185039Y0114370D03*
X0185196Y0114213D03*
X0179999Y0113583D03*
X0179999Y0115157D03*
X0179999Y0115945D03*
X0178582Y0114843D03*
X0173542Y0114685D03*
X0173542Y0114055D03*
X0168503Y0114843D03*
X0145649Y0084195D03*
X0145806Y0084037D03*
X0145964Y0083880D03*
X0146121Y0083565D03*
X0146279Y0083407D03*
X0146436Y0083093D03*
X0146594Y0082935D03*
X0146751Y0082778D03*
X0146909Y0082463D03*
X0147066Y0082305D03*
X0141712Y0081833D03*
X0141712Y0083407D03*
X0141712Y0084195D03*
D27*
X0143050Y0084982D03*
X0150137Y0084982D03*
X0150137Y0081360D03*
X0167637Y0113425D03*
X0167637Y0115157D03*
X0167637Y0115315D03*
X0170944Y0115315D03*
X0170944Y0113425D03*
X0174251Y0113425D03*
X0174251Y0115315D03*
X0177716Y0115157D03*
X0181338Y0116732D03*
X0186692Y0116732D03*
X0191731Y0115157D03*
X0191731Y0115000D03*
X0191731Y0114843D03*
X0191731Y0114685D03*
X0195353Y0116732D03*
X0200393Y0116732D03*
X0203700Y0116417D03*
X0203700Y0116260D03*
X0203700Y0113425D03*
X0200393Y0113110D03*
X0207165Y0113425D03*
X0269796Y0103740D03*
X0274428Y0113360D03*
X0274428Y0113518D03*
X0274428Y0113675D03*
X0274428Y0113833D03*
X0274428Y0113990D03*
X0274428Y0114148D03*
X0274428Y0114305D03*
X0274428Y0114463D03*
X0274428Y0114620D03*
X0274428Y0114778D03*
X0274428Y0114935D03*
X0274428Y0115093D03*
X0274428Y0115250D03*
X0274428Y0115407D03*
X0270806Y0116667D03*
X0270806Y0113833D03*
X0282525Y0124528D03*
X0282525Y0124685D03*
X0282525Y0125315D03*
X0282432Y0134528D03*
X0282432Y0135472D03*
X0286527Y0146732D03*
X0286527Y0154370D03*
X0286527Y0154528D03*
X0279598Y0155000D03*
X0279440Y0155472D03*
X0279440Y0155630D03*
X0279440Y0154370D03*
X0287027Y0115722D03*
X0287027Y0115565D03*
X0287119Y0105630D03*
X0287119Y0105472D03*
X0286619Y0096732D03*
X0283627Y0095630D03*
X0283627Y0094213D03*
D28*
X0270348Y0103898D03*
X0270190Y0104055D03*
X0274952Y0154213D03*
X0274952Y0154370D03*
X0274952Y0155630D03*
D29*
X0275031Y0155472D03*
X0275031Y0155315D03*
X0275031Y0155157D03*
X0275031Y0155000D03*
X0275031Y0154843D03*
X0275031Y0154685D03*
X0275031Y0154528D03*
X0278273Y0094055D03*
X0279218Y0093110D03*
X0279375Y0092953D03*
D30*
X0282474Y0103268D03*
X0282474Y0103425D03*
X0281214Y0104843D03*
X0279796Y0104843D03*
X0279796Y0105000D03*
X0278537Y0106417D03*
X0278537Y0106575D03*
X0278537Y0106732D03*
X0282381Y0113518D03*
X0282381Y0113675D03*
X0282381Y0113833D03*
X0280964Y0114935D03*
X0280964Y0115093D03*
X0279704Y0115250D03*
X0278444Y0116825D03*
X0278444Y0116982D03*
X0284586Y0115407D03*
X0284586Y0115250D03*
X0278037Y0123268D03*
X0278037Y0123425D03*
X0278037Y0123583D03*
X0278037Y0126417D03*
X0278037Y0126575D03*
X0278037Y0126732D03*
X0282289Y0126417D03*
X0280779Y0144685D03*
X0280779Y0144843D03*
X0279519Y0145000D03*
X0274165Y0145000D03*
X0274165Y0144843D03*
X0274165Y0144685D03*
X0274165Y0144528D03*
X0274165Y0144370D03*
X0274165Y0145157D03*
X0274165Y0145315D03*
X0274165Y0145472D03*
X0274165Y0145630D03*
X0284086Y0154528D03*
X0284086Y0154685D03*
X0208503Y0117047D03*
X0205826Y0117047D03*
X0203621Y0112795D03*
X0188976Y0117047D03*
X0177637Y0115945D03*
X0167558Y0115945D03*
D31*
X0167637Y0115000D03*
X0167637Y0114528D03*
X0167794Y0114370D03*
X0171102Y0113898D03*
X0171102Y0114843D03*
X0174409Y0114843D03*
X0174409Y0115000D03*
X0174409Y0113898D03*
X0174409Y0113740D03*
X0177716Y0114528D03*
X0177716Y0115000D03*
X0181180Y0114528D03*
X0181180Y0114370D03*
X0181180Y0114213D03*
X0181180Y0114055D03*
X0181180Y0116417D03*
X0186535Y0116417D03*
X0186535Y0113425D03*
X0195196Y0114055D03*
X0195196Y0114213D03*
X0195196Y0114528D03*
X0195196Y0114685D03*
X0195196Y0116417D03*
X0200235Y0116417D03*
X0203700Y0113740D03*
X0203700Y0113583D03*
X0207165Y0113583D03*
X0200235Y0113425D03*
X0149979Y0084667D03*
X0146357Y0084352D03*
X0142893Y0084667D03*
X0142893Y0082778D03*
X0142893Y0082620D03*
X0142893Y0082463D03*
X0142893Y0082305D03*
X0149979Y0081675D03*
X0269796Y0106102D03*
X0274521Y0104685D03*
X0274428Y0113203D03*
X0270649Y0114148D03*
X0270649Y0116352D03*
X0282367Y0125000D03*
X0286869Y0116352D03*
X0286869Y0116195D03*
X0286962Y0106260D03*
X0286962Y0106102D03*
X0286462Y0096890D03*
X0283785Y0095157D03*
X0283785Y0095000D03*
X0283785Y0094843D03*
X0283785Y0094685D03*
X0278588Y0096890D03*
X0277800Y0096102D03*
X0277643Y0095945D03*
X0277643Y0095787D03*
X0282275Y0134843D03*
X0282275Y0135000D03*
X0283535Y0145472D03*
X0283535Y0145630D03*
X0286369Y0146890D03*
X0286369Y0153740D03*
X0286369Y0153898D03*
D32*
X0286291Y0153583D03*
X0286291Y0153425D03*
X0286291Y0142953D03*
X0286291Y0136102D03*
X0286291Y0135945D03*
X0286291Y0135787D03*
X0286291Y0135630D03*
X0286291Y0135472D03*
X0286291Y0135315D03*
X0286291Y0135157D03*
X0286291Y0135000D03*
X0286291Y0134843D03*
X0286291Y0134685D03*
X0286291Y0134528D03*
X0286291Y0134370D03*
X0286291Y0134213D03*
X0286291Y0134055D03*
X0286291Y0133898D03*
X0286291Y0133740D03*
X0286291Y0133583D03*
X0286291Y0133425D03*
X0286291Y0133268D03*
X0286291Y0133110D03*
X0286383Y0126102D03*
X0286383Y0125945D03*
X0286383Y0125787D03*
X0286383Y0125630D03*
X0286383Y0125472D03*
X0286383Y0125315D03*
X0286383Y0125157D03*
X0286383Y0125000D03*
X0286383Y0124843D03*
X0286383Y0124685D03*
X0286383Y0124528D03*
X0286383Y0124370D03*
X0286383Y0124213D03*
X0286383Y0124055D03*
X0286383Y0123898D03*
X0286383Y0123740D03*
X0286383Y0123583D03*
X0286383Y0123425D03*
X0286383Y0123268D03*
X0286383Y0123110D03*
X0286791Y0116667D03*
X0286791Y0116510D03*
X0270570Y0116195D03*
X0270570Y0114305D03*
X0270820Y0107047D03*
X0269718Y0105945D03*
X0269560Y0105787D03*
X0269560Y0105630D03*
X0286883Y0106417D03*
X0286883Y0106575D03*
X0277564Y0095630D03*
X0286383Y0092953D03*
X0207243Y0113740D03*
X0200157Y0113740D03*
X0200157Y0113583D03*
X0200157Y0116102D03*
X0200157Y0116260D03*
X0195117Y0116260D03*
X0195117Y0116102D03*
X0195117Y0115000D03*
X0195117Y0114843D03*
X0191495Y0116102D03*
X0191495Y0116890D03*
X0186456Y0116260D03*
X0186456Y0113583D03*
X0181102Y0114685D03*
X0181102Y0114843D03*
X0181102Y0116102D03*
X0181102Y0116260D03*
X0146436Y0085140D03*
X0146436Y0084982D03*
X0146436Y0084510D03*
X0146279Y0081203D03*
X0149901Y0081833D03*
X0149901Y0081990D03*
X0149901Y0084352D03*
X0149901Y0084510D03*
X0142814Y0084510D03*
X0142814Y0084352D03*
X0142814Y0083093D03*
X0142814Y0082935D03*
D33*
X0269560Y0104843D03*
X0269560Y0105000D03*
X0269560Y0105157D03*
X0274285Y0105000D03*
X0270413Y0114778D03*
X0270413Y0114935D03*
X0270413Y0115093D03*
X0270413Y0115250D03*
X0270413Y0115407D03*
X0270413Y0115565D03*
X0270413Y0115722D03*
X0286633Y0117140D03*
X0277564Y0094843D03*
X0277564Y0094685D03*
X0286133Y0152953D03*
D34*
X0280936Y0148150D03*
X0280936Y0147992D03*
X0280936Y0147835D03*
X0280936Y0147677D03*
X0280936Y0147520D03*
X0280936Y0147362D03*
X0280936Y0147205D03*
X0280936Y0142795D03*
X0280936Y0142638D03*
X0280936Y0142480D03*
X0280936Y0142323D03*
X0280936Y0142165D03*
X0280936Y0142008D03*
X0280936Y0141850D03*
D35*
X0278810Y0147047D03*
X0283155Y0097992D03*
X0283155Y0092008D03*
D36*
X0281292Y0105000D03*
X0284757Y0105157D03*
X0281042Y0115250D03*
X0279625Y0115093D03*
X0273168Y0115565D03*
X0280163Y0124213D03*
X0280163Y0125787D03*
X0282210Y0126575D03*
X0282210Y0126732D03*
X0280070Y0134213D03*
X0280070Y0135787D03*
X0282117Y0136417D03*
X0282117Y0136575D03*
X0282117Y0136732D03*
X0280857Y0145000D03*
X0279440Y0144843D03*
X0164015Y0114843D03*
D37*
X0281330Y0131850D03*
X0281330Y0138150D03*
D38*
X0281409Y0137992D03*
X0281409Y0132008D03*
D39*
X0281487Y0132165D03*
X0281487Y0137835D03*
D40*
X0281566Y0137677D03*
X0281566Y0132323D03*
D41*
X0281645Y0132480D03*
X0281645Y0137520D03*
D42*
X0281724Y0137362D03*
X0281724Y0132638D03*
D43*
X0281802Y0132795D03*
X0281802Y0137205D03*
D44*
X0284794Y0137047D03*
X0284887Y0127047D03*
D45*
X0279690Y0128150D03*
X0279690Y0121850D03*
D46*
X0279769Y0122008D03*
X0279769Y0127992D03*
D47*
X0279848Y0127835D03*
X0279848Y0122165D03*
D48*
X0279926Y0122323D03*
X0279926Y0127677D03*
D49*
X0280005Y0127520D03*
X0280005Y0122480D03*
D50*
X0280084Y0122638D03*
X0280084Y0127362D03*
D51*
X0280163Y0127205D03*
X0280163Y0122795D03*
D52*
X0275517Y0127047D03*
D53*
X0283233Y0098150D03*
X0283233Y0091850D03*
D54*
X0282997Y0092165D03*
X0282997Y0097835D03*
D55*
X0282918Y0097677D03*
X0282918Y0092323D03*
D56*
X0282840Y0092480D03*
X0282840Y0097520D03*
D57*
X0282761Y0097362D03*
X0282761Y0092638D03*
D58*
X0282682Y0092795D03*
X0282682Y0097205D03*
D59*
X0286147Y0097047D03*
X0277800Y0094370D03*
X0277643Y0094528D03*
X0269639Y0104685D03*
D60*
X0280556Y0097047D03*
D61*
X0278037Y0094213D03*
X0269875Y0104370D03*
X0269718Y0104528D03*
D62*
X0278824Y0093898D03*
D63*
X0278903Y0093740D03*
D64*
X0278981Y0093583D03*
D65*
X0279060Y0093425D03*
D66*
X0279139Y0093268D03*
D67*
X0207787Y0123606D02*
X0207944Y0124000D01*
X0208023Y0124512D01*
X0206566Y0124512D01*
X0206566Y0124276D01*
X0206487Y0124079D01*
X0206369Y0123921D01*
X0206054Y0123685D01*
X0205818Y0123646D01*
X0205621Y0123606D01*
X0205385Y0123567D01*
X0205228Y0123606D01*
X0205070Y0123606D01*
X0204913Y0123646D01*
X0204755Y0123724D01*
X0204598Y0123843D01*
X0204479Y0123961D01*
X0204401Y0124276D01*
X0204440Y0124433D01*
X0204519Y0124591D01*
X0204676Y0124709D01*
X0204873Y0124827D01*
X0205109Y0124906D01*
X0205739Y0125063D01*
X0206133Y0125142D01*
X0206487Y0125220D01*
X0206802Y0125339D01*
X0207078Y0125457D01*
X0207353Y0125614D01*
X0207590Y0125772D01*
X0207747Y0126008D01*
X0207865Y0126283D01*
X0207905Y0126638D01*
X0207865Y0127110D01*
X0207708Y0127504D01*
X0207432Y0127819D01*
X0207157Y0128055D01*
X0206763Y0128252D01*
X0206369Y0128331D01*
X0205936Y0128409D01*
X0205031Y0128409D01*
X0204598Y0128331D01*
X0204204Y0128213D01*
X0203850Y0128055D01*
X0203535Y0127819D01*
X0203298Y0127504D01*
X0203102Y0127110D01*
X0203023Y0126638D01*
X0204479Y0126638D01*
X0204519Y0126835D01*
X0204598Y0127031D01*
X0204676Y0127150D01*
X0204794Y0127228D01*
X0204952Y0127307D01*
X0205149Y0127386D01*
X0205818Y0127386D01*
X0205936Y0127346D01*
X0206094Y0127307D01*
X0206212Y0127268D01*
X0206369Y0127031D01*
X0206369Y0126874D01*
X0206330Y0126717D01*
X0206212Y0126559D01*
X0206054Y0126441D01*
X0205818Y0126323D01*
X0205582Y0126244D01*
X0205267Y0126205D01*
X0204322Y0125969D01*
X0203968Y0125890D01*
X0203416Y0125575D01*
X0203180Y0125378D01*
X0203023Y0125142D01*
X0202905Y0124866D01*
X0202865Y0124512D01*
X0202944Y0124000D01*
X0203102Y0123567D01*
X0203338Y0123252D01*
X0203653Y0122976D01*
X0204046Y0122780D01*
X0204479Y0122661D01*
X0204952Y0122583D01*
X0205424Y0122543D01*
X0205897Y0122583D01*
X0206369Y0122661D01*
X0206802Y0122780D01*
X0207196Y0122976D01*
X0207511Y0123252D01*
X0207787Y0123606D01*
X0207710Y0123508D02*
X0203146Y0123508D01*
X0203014Y0123807D02*
X0204645Y0123807D01*
X0204443Y0124105D02*
X0202928Y0124105D01*
X0202882Y0124404D02*
X0204433Y0124404D01*
X0204668Y0124702D02*
X0202886Y0124702D01*
X0202962Y0125001D02*
X0205490Y0125001D01*
X0205227Y0126195D02*
X0207827Y0126195D01*
X0207889Y0126493D02*
X0206124Y0126493D01*
X0206349Y0126792D02*
X0207892Y0126792D01*
X0207867Y0127090D02*
X0206330Y0127090D01*
X0206601Y0128284D02*
X0204443Y0128284D01*
X0203757Y0127986D02*
X0207237Y0127986D01*
X0207547Y0127687D02*
X0203436Y0127687D01*
X0203241Y0127389D02*
X0207754Y0127389D01*
X0207673Y0125896D02*
X0203997Y0125896D01*
X0203457Y0125598D02*
X0207325Y0125598D01*
X0206698Y0125299D02*
X0203128Y0125299D01*
X0202235Y0125299D02*
X0200779Y0125299D01*
X0200779Y0125142D02*
X0200621Y0124512D01*
X0200503Y0124236D01*
X0200306Y0124039D01*
X0200070Y0123843D01*
X0199794Y0123764D01*
X0199440Y0123724D01*
X0199125Y0123764D01*
X0198810Y0123843D01*
X0198574Y0124039D01*
X0198416Y0124236D01*
X0198298Y0124512D01*
X0196960Y0123882D01*
X0197196Y0123449D01*
X0197550Y0123094D01*
X0197983Y0122780D01*
X0198456Y0122622D01*
X0199046Y0122543D01*
X0199755Y0122661D01*
X0199991Y0122780D01*
X0200385Y0123016D01*
X0200700Y0123409D01*
X0200739Y0123409D01*
X0200739Y0119394D01*
X0201094Y0119748D01*
X0201684Y0120220D01*
X0202039Y0120575D01*
X0202235Y0120732D01*
X0202235Y0128016D01*
X0202078Y0128055D01*
X0201881Y0128094D01*
X0201684Y0128094D01*
X0201527Y0128134D01*
X0201330Y0128173D01*
X0201172Y0128213D01*
X0200779Y0128291D01*
X0200779Y0127583D01*
X0200621Y0127780D01*
X0200464Y0127937D01*
X0200267Y0128094D01*
X0199873Y0128331D01*
X0199401Y0128409D01*
X0199125Y0128409D01*
X0198535Y0128370D01*
X0197983Y0128173D01*
X0197550Y0127898D01*
X0197196Y0127504D01*
X0196920Y0127071D01*
X0196763Y0126559D01*
X0196645Y0126008D01*
X0196605Y0125417D01*
X0198141Y0125457D01*
X0198141Y0125811D01*
X0198180Y0126126D01*
X0198298Y0126441D01*
X0198416Y0126717D01*
X0198613Y0126953D01*
X0198850Y0127110D01*
X0199125Y0127228D01*
X0199479Y0127268D01*
X0199794Y0127228D01*
X0200109Y0127110D01*
X0200306Y0126953D01*
X0200503Y0126717D01*
X0200621Y0126441D01*
X0200739Y0126126D01*
X0200779Y0125811D01*
X0200779Y0125142D01*
X0200743Y0125001D02*
X0202235Y0125001D01*
X0202235Y0124702D02*
X0200669Y0124702D01*
X0200575Y0124404D02*
X0202235Y0124404D01*
X0202235Y0124105D02*
X0200372Y0124105D01*
X0199945Y0123807D02*
X0202235Y0123807D01*
X0202235Y0123508D02*
X0197164Y0123508D01*
X0197001Y0123807D02*
X0198953Y0123807D01*
X0198521Y0124105D02*
X0197434Y0124105D01*
X0196867Y0124105D01*
X0196960Y0123882D02*
X0198298Y0124512D01*
X0198180Y0124827D01*
X0198141Y0125142D01*
X0198141Y0125457D01*
X0196605Y0125417D01*
X0196645Y0124866D01*
X0196763Y0124354D01*
X0196960Y0123882D01*
X0196752Y0124404D02*
X0198069Y0124404D01*
X0198345Y0124404D01*
X0198227Y0124702D02*
X0196683Y0124702D01*
X0196635Y0125001D02*
X0198159Y0125001D01*
X0198141Y0125299D02*
X0196614Y0125299D01*
X0196617Y0125598D02*
X0198141Y0125598D01*
X0198152Y0125896D02*
X0196637Y0125896D01*
X0196685Y0126195D02*
X0198206Y0126195D01*
X0198321Y0126493D02*
X0196749Y0126493D01*
X0196835Y0126792D02*
X0198479Y0126792D01*
X0198820Y0127090D02*
X0196933Y0127090D01*
X0197123Y0127389D02*
X0202235Y0127389D01*
X0202235Y0127687D02*
X0200779Y0127687D01*
X0200695Y0127687D02*
X0197361Y0127687D01*
X0197689Y0127986D02*
X0200403Y0127986D01*
X0200779Y0127986D02*
X0202235Y0127986D01*
X0202235Y0127090D02*
X0200134Y0127090D01*
X0200440Y0126792D02*
X0202235Y0126792D01*
X0202235Y0126493D02*
X0200599Y0126493D01*
X0200713Y0126195D02*
X0202235Y0126195D01*
X0202235Y0125896D02*
X0200768Y0125896D01*
X0200779Y0125598D02*
X0202235Y0125598D01*
X0203048Y0126792D02*
X0204510Y0126792D01*
X0204637Y0127090D02*
X0203098Y0127090D01*
X0200813Y0128284D02*
X0200779Y0128284D01*
X0199950Y0128284D02*
X0198295Y0128284D01*
X0195818Y0127268D02*
X0195700Y0127425D01*
X0195582Y0127622D01*
X0195464Y0127780D01*
X0195306Y0127898D01*
X0194913Y0128134D01*
X0194716Y0128213D01*
X0194519Y0128252D01*
X0194283Y0128331D01*
X0194046Y0128370D01*
X0193850Y0128409D01*
X0192944Y0128409D01*
X0192747Y0128370D01*
X0192511Y0128370D01*
X0192314Y0128331D01*
X0192117Y0128252D01*
X0191920Y0128213D01*
X0191724Y0128134D01*
X0191251Y0127780D01*
X0191133Y0127622D01*
X0191054Y0127465D01*
X0190976Y0127268D01*
X0190936Y0127071D01*
X0190936Y0123646D01*
X0190897Y0123567D01*
X0190897Y0123213D01*
X0190857Y0123134D01*
X0190857Y0123055D01*
X0190818Y0122976D01*
X0190818Y0122858D01*
X0190779Y0122780D01*
X0190739Y0122740D01*
X0190739Y0122701D01*
X0192275Y0122701D01*
X0192275Y0122740D01*
X0192314Y0122780D01*
X0192314Y0122819D01*
X0192353Y0122858D01*
X0192353Y0122976D01*
X0192393Y0123016D01*
X0192393Y0123252D01*
X0192472Y0123134D01*
X0192590Y0123055D01*
X0192668Y0122976D01*
X0192787Y0122898D01*
X0192905Y0122858D01*
X0193023Y0122780D01*
X0193495Y0122622D01*
X0193613Y0122622D01*
X0193731Y0122583D01*
X0193889Y0122583D01*
X0194007Y0122543D01*
X0194440Y0122543D01*
X0194637Y0122583D01*
X0194834Y0122583D01*
X0194991Y0122622D01*
X0195188Y0122701D01*
X0195346Y0122780D01*
X0195464Y0122858D01*
X0195621Y0122937D01*
X0195739Y0123055D01*
X0195818Y0123173D01*
X0195936Y0123331D01*
X0196015Y0123449D01*
X0196054Y0123646D01*
X0196133Y0123803D01*
X0196133Y0124000D01*
X0196172Y0124197D01*
X0196094Y0124630D01*
X0195976Y0124984D01*
X0195818Y0125260D01*
X0195542Y0125496D01*
X0195267Y0125654D01*
X0194952Y0125772D01*
X0194637Y0125850D01*
X0194283Y0125890D01*
X0193968Y0125063D01*
X0194086Y0125024D01*
X0194165Y0124984D01*
X0194204Y0124945D01*
X0194361Y0124866D01*
X0194401Y0124827D01*
X0194479Y0124787D01*
X0194598Y0124551D01*
X0194598Y0124472D01*
X0194637Y0124394D01*
X0194637Y0124197D01*
X0194598Y0124079D01*
X0194598Y0124000D01*
X0194558Y0123921D01*
X0194519Y0123882D01*
X0194479Y0123803D01*
X0194401Y0123764D01*
X0194361Y0123724D01*
X0194204Y0123646D01*
X0194125Y0123646D01*
X0194046Y0123606D01*
X0193968Y0123606D01*
X0193889Y0123567D01*
X0193692Y0123567D01*
X0193495Y0123606D01*
X0193298Y0123606D01*
X0193141Y0123685D01*
X0192983Y0123724D01*
X0192865Y0123803D01*
X0192787Y0123882D01*
X0192708Y0124000D01*
X0192629Y0124079D01*
X0192550Y0124315D01*
X0192511Y0124394D01*
X0192472Y0124512D01*
X0192472Y0125417D01*
X0192550Y0125339D01*
X0192629Y0125339D01*
X0192787Y0125260D01*
X0192865Y0125260D01*
X0192944Y0125220D01*
X0193102Y0125220D01*
X0193298Y0126008D01*
X0193023Y0126087D01*
X0192787Y0126165D01*
X0192590Y0126283D01*
X0192472Y0126441D01*
X0192472Y0126874D01*
X0192590Y0127110D01*
X0192629Y0127150D01*
X0192668Y0127228D01*
X0192905Y0127346D01*
X0192983Y0127346D01*
X0193062Y0127386D01*
X0193771Y0127386D01*
X0194165Y0127189D01*
X0194322Y0127031D01*
X0194361Y0126953D01*
X0194401Y0126835D01*
X0194440Y0126756D01*
X0194440Y0126559D01*
X0195976Y0126559D01*
X0195897Y0127031D01*
X0195818Y0127268D01*
X0195727Y0127389D02*
X0191024Y0127389D01*
X0190940Y0127090D02*
X0192580Y0127090D01*
X0192472Y0126792D02*
X0190936Y0126792D01*
X0190936Y0126493D02*
X0192472Y0126493D01*
X0192737Y0126195D02*
X0190936Y0126195D01*
X0190936Y0125896D02*
X0193270Y0125896D01*
X0194224Y0125896D01*
X0194283Y0125890D02*
X0193968Y0125063D01*
X0193889Y0125063D01*
X0193810Y0125102D01*
X0193653Y0125102D01*
X0193535Y0125142D01*
X0193377Y0125142D01*
X0193259Y0125181D01*
X0193180Y0125181D01*
X0193102Y0125220D01*
X0193298Y0126008D01*
X0193574Y0125969D01*
X0194283Y0125890D01*
X0194171Y0125598D02*
X0195364Y0125598D01*
X0195772Y0125299D02*
X0194058Y0125299D01*
X0193121Y0125299D01*
X0192708Y0125299D01*
X0192472Y0125299D02*
X0190936Y0125299D01*
X0190936Y0125001D02*
X0192472Y0125001D01*
X0192472Y0124702D02*
X0190936Y0124702D01*
X0190936Y0124404D02*
X0192508Y0124404D01*
X0192620Y0124105D02*
X0190936Y0124105D01*
X0190936Y0123807D02*
X0192862Y0123807D01*
X0192421Y0123210D02*
X0195845Y0123210D01*
X0196027Y0123508D02*
X0190897Y0123508D01*
X0190895Y0123210D02*
X0192393Y0123210D01*
X0192353Y0122911D02*
X0190818Y0122911D01*
X0190070Y0122911D02*
X0188535Y0122911D01*
X0188535Y0122701D02*
X0190070Y0122701D01*
X0190070Y0128016D01*
X0189873Y0128055D01*
X0189716Y0128094D01*
X0189519Y0128094D01*
X0189322Y0128134D01*
X0189165Y0128173D01*
X0188771Y0128252D01*
X0188613Y0128291D01*
X0188613Y0127228D01*
X0188456Y0127504D01*
X0188298Y0127701D01*
X0188102Y0127937D01*
X0187905Y0128094D01*
X0187629Y0128252D01*
X0187393Y0128331D01*
X0187117Y0128409D01*
X0186566Y0128409D01*
X0186527Y0128370D01*
X0186487Y0128370D01*
X0186487Y0126953D01*
X0186527Y0126953D01*
X0186605Y0126992D01*
X0187039Y0126992D01*
X0187432Y0126953D01*
X0187747Y0126874D01*
X0188023Y0126717D01*
X0188220Y0126480D01*
X0188377Y0126205D01*
X0188456Y0125929D01*
X0188535Y0125575D01*
X0188535Y0122701D01*
X0188535Y0123210D02*
X0190070Y0123210D01*
X0190070Y0123508D02*
X0188535Y0123508D01*
X0188535Y0123807D02*
X0190070Y0123807D01*
X0190070Y0124105D02*
X0188535Y0124105D01*
X0188535Y0124404D02*
X0190070Y0124404D01*
X0190070Y0124702D02*
X0188535Y0124702D01*
X0188535Y0125001D02*
X0190070Y0125001D01*
X0190070Y0125299D02*
X0188535Y0125299D01*
X0188529Y0125598D02*
X0190070Y0125598D01*
X0190070Y0125896D02*
X0188463Y0125896D01*
X0188380Y0126195D02*
X0190070Y0126195D01*
X0190070Y0126493D02*
X0188209Y0126493D01*
X0187891Y0126792D02*
X0190070Y0126792D01*
X0190070Y0127090D02*
X0186487Y0127090D01*
X0186487Y0127389D02*
X0188522Y0127389D01*
X0188613Y0127389D02*
X0190070Y0127389D01*
X0190070Y0127687D02*
X0188613Y0127687D01*
X0188613Y0127986D02*
X0190070Y0127986D01*
X0191182Y0127687D02*
X0195533Y0127687D01*
X0195159Y0127986D02*
X0191526Y0127986D01*
X0192198Y0128284D02*
X0194422Y0128284D01*
X0194263Y0127090D02*
X0195877Y0127090D01*
X0195937Y0126792D02*
X0194422Y0126792D01*
X0194171Y0125598D02*
X0193196Y0125598D01*
X0190936Y0125598D01*
X0194131Y0125001D02*
X0195966Y0125001D01*
X0196070Y0124702D02*
X0194522Y0124702D01*
X0194632Y0124404D02*
X0196135Y0124404D01*
X0196154Y0124105D02*
X0194606Y0124105D01*
X0194481Y0123807D02*
X0196133Y0123807D01*
X0195570Y0122911D02*
X0192766Y0122911D01*
X0193641Y0122613D02*
X0194954Y0122613D01*
X0197435Y0123210D02*
X0200540Y0123210D01*
X0200739Y0123210D02*
X0202235Y0123210D01*
X0202235Y0122911D02*
X0200739Y0122911D01*
X0200739Y0122613D02*
X0202235Y0122613D01*
X0202235Y0122314D02*
X0200739Y0122314D01*
X0200739Y0122016D02*
X0202235Y0122016D01*
X0202235Y0121717D02*
X0200739Y0121717D01*
X0200739Y0121419D02*
X0202235Y0121419D01*
X0202235Y0121120D02*
X0200739Y0121120D01*
X0200739Y0120822D02*
X0202235Y0120822D01*
X0201987Y0120523D02*
X0200739Y0120523D01*
X0200739Y0120225D02*
X0201688Y0120225D01*
X0201316Y0119926D02*
X0200739Y0119926D01*
X0200739Y0119628D02*
X0200973Y0119628D01*
X0199463Y0122613D02*
X0198526Y0122613D01*
X0197802Y0122911D02*
X0200211Y0122911D01*
X0203386Y0123210D02*
X0207463Y0123210D01*
X0207066Y0122911D02*
X0203783Y0122911D01*
X0204772Y0122613D02*
X0206077Y0122613D01*
X0206217Y0123807D02*
X0207867Y0123807D01*
X0207960Y0124105D02*
X0206498Y0124105D01*
X0206566Y0124404D02*
X0208006Y0124404D01*
X0188641Y0128284D02*
X0188613Y0128284D01*
X0188040Y0127986D02*
X0186487Y0127986D01*
X0186487Y0128284D02*
X0187532Y0128284D01*
X0188309Y0127687D02*
X0186487Y0127687D01*
X0185897Y0127687D02*
X0184361Y0127687D01*
X0184361Y0127389D02*
X0185897Y0127389D01*
X0185897Y0127090D02*
X0184361Y0127090D01*
X0184361Y0126792D02*
X0185897Y0126792D01*
X0185897Y0126493D02*
X0184361Y0126493D01*
X0184160Y0126493D02*
X0182454Y0126493D01*
X0182708Y0126244D02*
X0180385Y0122701D01*
X0182235Y0122701D01*
X0183771Y0125181D01*
X0184361Y0124630D01*
X0184361Y0122701D01*
X0185897Y0122701D01*
X0185897Y0129551D01*
X0184361Y0130378D01*
X0184361Y0126283D01*
X0182432Y0128291D01*
X0180621Y0128291D01*
X0182708Y0126244D01*
X0182676Y0126195D02*
X0185897Y0126195D01*
X0185897Y0125896D02*
X0182480Y0125896D01*
X0182284Y0125598D02*
X0185897Y0125598D01*
X0185897Y0125299D02*
X0182088Y0125299D01*
X0181893Y0125001D02*
X0183659Y0125001D01*
X0183964Y0125001D02*
X0185897Y0125001D01*
X0185897Y0124702D02*
X0184284Y0124702D01*
X0184361Y0124404D02*
X0185897Y0124404D01*
X0185897Y0124105D02*
X0184361Y0124105D01*
X0184361Y0123807D02*
X0185897Y0123807D01*
X0185897Y0123508D02*
X0184361Y0123508D01*
X0184361Y0123210D02*
X0185897Y0123210D01*
X0185897Y0122911D02*
X0184361Y0122911D01*
X0182920Y0123807D02*
X0181110Y0123807D01*
X0181306Y0124105D02*
X0183105Y0124105D01*
X0183290Y0124404D02*
X0181501Y0124404D01*
X0181697Y0124702D02*
X0183474Y0124702D01*
X0182735Y0123508D02*
X0180914Y0123508D01*
X0180719Y0123210D02*
X0182550Y0123210D01*
X0182366Y0122911D02*
X0180523Y0122911D01*
X0179440Y0122911D02*
X0177944Y0122911D01*
X0177944Y0122701D02*
X0179440Y0122701D01*
X0179440Y0127268D01*
X0180976Y0127268D01*
X0180818Y0127386D01*
X0180188Y0128016D01*
X0180031Y0128134D01*
X0179913Y0128291D01*
X0179440Y0128291D01*
X0179440Y0129079D01*
X0179322Y0129394D01*
X0179204Y0129669D01*
X0179007Y0129906D01*
X0178731Y0130102D01*
X0178416Y0130260D01*
X0178023Y0130378D01*
X0176881Y0130378D01*
X0176802Y0130339D01*
X0176802Y0129236D01*
X0177472Y0129236D01*
X0177629Y0129197D01*
X0177787Y0129118D01*
X0177865Y0129000D01*
X0177905Y0128921D01*
X0177905Y0128764D01*
X0177944Y0128606D01*
X0177944Y0128291D01*
X0176881Y0128291D01*
X0176881Y0127268D01*
X0177944Y0127268D01*
X0177944Y0122701D01*
X0177944Y0123210D02*
X0179440Y0123210D01*
X0179440Y0123508D02*
X0177944Y0123508D01*
X0177944Y0123807D02*
X0179440Y0123807D01*
X0179440Y0124105D02*
X0177944Y0124105D01*
X0177944Y0124404D02*
X0179440Y0124404D01*
X0179440Y0124702D02*
X0177944Y0124702D01*
X0177944Y0125001D02*
X0179440Y0125001D01*
X0179440Y0125299D02*
X0177944Y0125299D01*
X0177944Y0125598D02*
X0179440Y0125598D01*
X0179440Y0125896D02*
X0177944Y0125896D01*
X0177944Y0126195D02*
X0179440Y0126195D01*
X0179440Y0126493D02*
X0177944Y0126493D01*
X0177944Y0126792D02*
X0179440Y0126792D01*
X0179440Y0127090D02*
X0177944Y0127090D01*
X0176881Y0127389D02*
X0180815Y0127389D01*
X0180517Y0127687D02*
X0176881Y0127687D01*
X0176881Y0127986D02*
X0180218Y0127986D01*
X0179918Y0128284D02*
X0176881Y0128284D01*
X0176409Y0128284D02*
X0174913Y0128284D01*
X0174913Y0128291D02*
X0174913Y0125142D01*
X0174834Y0124512D01*
X0174794Y0124276D01*
X0174558Y0123961D01*
X0174361Y0123843D01*
X0174165Y0123803D01*
X0173928Y0123764D01*
X0173613Y0123803D01*
X0173377Y0123843D01*
X0173180Y0123961D01*
X0173023Y0124118D01*
X0172905Y0124354D01*
X0172787Y0124630D01*
X0172747Y0124945D01*
X0172747Y0128291D01*
X0171212Y0128291D01*
X0171212Y0122701D01*
X0172668Y0122701D01*
X0172668Y0123488D01*
X0172708Y0123488D01*
X0172865Y0123252D01*
X0173023Y0123055D01*
X0173220Y0122898D01*
X0173456Y0122780D01*
X0173653Y0122701D01*
X0173889Y0122622D01*
X0174165Y0122583D01*
X0174401Y0122543D01*
X0174952Y0122583D01*
X0175385Y0122740D01*
X0175739Y0122937D01*
X0176015Y0123173D01*
X0176212Y0123528D01*
X0176330Y0123921D01*
X0176409Y0124354D01*
X0176409Y0128291D01*
X0174913Y0128291D01*
X0174913Y0127986D02*
X0176409Y0127986D01*
X0176409Y0127687D02*
X0174913Y0127687D01*
X0174913Y0127389D02*
X0176409Y0127389D01*
X0176409Y0127090D02*
X0174913Y0127090D01*
X0174913Y0126792D02*
X0176409Y0126792D01*
X0176409Y0126493D02*
X0174913Y0126493D01*
X0174913Y0126195D02*
X0176409Y0126195D01*
X0176409Y0125896D02*
X0174913Y0125896D01*
X0174913Y0125598D02*
X0176409Y0125598D01*
X0176409Y0125299D02*
X0174913Y0125299D01*
X0174895Y0125001D02*
X0176409Y0125001D01*
X0176409Y0124702D02*
X0174858Y0124702D01*
X0174816Y0124404D02*
X0176409Y0124404D01*
X0176363Y0124105D02*
X0174667Y0124105D01*
X0174182Y0123807D02*
X0176296Y0123807D01*
X0176201Y0123508D02*
X0171212Y0123508D01*
X0171212Y0123210D02*
X0172668Y0123210D01*
X0172899Y0123210D02*
X0176035Y0123210D01*
X0175693Y0122911D02*
X0173203Y0122911D01*
X0172668Y0122911D02*
X0171212Y0122911D01*
X0170385Y0122911D02*
X0168850Y0122911D01*
X0168850Y0122701D02*
X0170385Y0122701D01*
X0170385Y0128291D01*
X0168928Y0128291D01*
X0168928Y0127504D01*
X0168889Y0127504D01*
X0168731Y0127740D01*
X0168574Y0127898D01*
X0168377Y0128055D01*
X0168141Y0128213D01*
X0167668Y0128370D01*
X0167432Y0128409D01*
X0167196Y0128409D01*
X0166645Y0128370D01*
X0166212Y0128252D01*
X0165857Y0128055D01*
X0165582Y0127780D01*
X0165385Y0127465D01*
X0165267Y0127071D01*
X0165188Y0126638D01*
X0165149Y0126126D01*
X0165149Y0122701D01*
X0166684Y0122701D01*
X0166684Y0125850D01*
X0166724Y0126165D01*
X0166763Y0126441D01*
X0166802Y0126677D01*
X0166920Y0126874D01*
X0167039Y0127031D01*
X0167235Y0127150D01*
X0167432Y0127189D01*
X0167668Y0127228D01*
X0167983Y0127189D01*
X0168220Y0127150D01*
X0168416Y0127031D01*
X0168574Y0126835D01*
X0168692Y0126638D01*
X0168810Y0126362D01*
X0168850Y0126008D01*
X0168850Y0122701D01*
X0168850Y0123210D02*
X0170385Y0123210D01*
X0170385Y0123508D02*
X0168850Y0123508D01*
X0168850Y0123807D02*
X0170385Y0123807D01*
X0170385Y0124105D02*
X0168850Y0124105D01*
X0168850Y0124404D02*
X0170385Y0124404D01*
X0170385Y0124702D02*
X0168850Y0124702D01*
X0168850Y0125001D02*
X0170385Y0125001D01*
X0170385Y0125299D02*
X0168850Y0125299D01*
X0168850Y0125598D02*
X0170385Y0125598D01*
X0170385Y0125896D02*
X0168850Y0125896D01*
X0168829Y0126195D02*
X0170385Y0126195D01*
X0170385Y0126493D02*
X0168754Y0126493D01*
X0168600Y0126792D02*
X0170385Y0126792D01*
X0170385Y0127090D02*
X0168318Y0127090D01*
X0168767Y0127687D02*
X0165524Y0127687D01*
X0165362Y0127389D02*
X0170385Y0127389D01*
X0170385Y0127687D02*
X0168928Y0127687D01*
X0168928Y0127986D02*
X0170385Y0127986D01*
X0170385Y0128284D02*
X0168928Y0128284D01*
X0168464Y0127986D02*
X0165788Y0127986D01*
X0166331Y0128284D02*
X0167925Y0128284D01*
X0167137Y0127090D02*
X0165273Y0127090D01*
X0165216Y0126792D02*
X0166871Y0126792D01*
X0166772Y0126493D02*
X0165177Y0126493D01*
X0165154Y0126195D02*
X0166728Y0126195D01*
X0166690Y0125896D02*
X0165149Y0125896D01*
X0165149Y0125598D02*
X0166684Y0125598D01*
X0166684Y0125299D02*
X0165149Y0125299D01*
X0165149Y0125001D02*
X0166684Y0125001D01*
X0166684Y0124702D02*
X0165149Y0124702D01*
X0165149Y0124404D02*
X0166684Y0124404D01*
X0166684Y0124105D02*
X0165149Y0124105D01*
X0165149Y0123807D02*
X0166684Y0123807D01*
X0166684Y0123508D02*
X0165149Y0123508D01*
X0165149Y0123210D02*
X0166684Y0123210D01*
X0166684Y0122911D02*
X0165149Y0122911D01*
X0171212Y0123807D02*
X0173592Y0123807D01*
X0173036Y0124105D02*
X0171212Y0124105D01*
X0171212Y0124404D02*
X0172884Y0124404D01*
X0172778Y0124702D02*
X0171212Y0124702D01*
X0171212Y0125001D02*
X0172747Y0125001D01*
X0172747Y0125299D02*
X0171212Y0125299D01*
X0171212Y0125598D02*
X0172747Y0125598D01*
X0172747Y0125896D02*
X0171212Y0125896D01*
X0171212Y0126195D02*
X0172747Y0126195D01*
X0172747Y0126493D02*
X0171212Y0126493D01*
X0171212Y0126792D02*
X0172747Y0126792D01*
X0172747Y0127090D02*
X0171212Y0127090D01*
X0171212Y0127389D02*
X0172747Y0127389D01*
X0172747Y0127687D02*
X0171212Y0127687D01*
X0171212Y0127986D02*
X0172747Y0127986D01*
X0172747Y0128284D02*
X0171212Y0128284D01*
X0176802Y0129478D02*
X0179286Y0129478D01*
X0179402Y0129180D02*
X0177663Y0129180D01*
X0177905Y0128881D02*
X0179440Y0128881D01*
X0179440Y0128583D02*
X0177944Y0128583D01*
X0176802Y0129777D02*
X0179114Y0129777D01*
X0178769Y0130075D02*
X0176802Y0130075D01*
X0176873Y0130374D02*
X0178036Y0130374D01*
X0178465Y0132165D02*
X0182747Y0132165D01*
X0182747Y0131867D02*
X0180411Y0131867D01*
X0180464Y0131835D02*
X0180267Y0131953D01*
X0180031Y0131992D01*
X0179283Y0131992D01*
X0178810Y0132071D01*
X0178377Y0132189D01*
X0177983Y0132346D01*
X0177590Y0132583D01*
X0177275Y0132858D01*
X0176960Y0133173D01*
X0176684Y0133528D01*
X0176291Y0134236D01*
X0176094Y0134945D01*
X0176054Y0135654D01*
X0176172Y0136283D01*
X0176369Y0136835D01*
X0176645Y0137307D01*
X0176960Y0137661D01*
X0177275Y0137819D01*
X0177275Y0137504D01*
X0177353Y0137268D01*
X0177472Y0137189D01*
X0177590Y0137150D01*
X0177865Y0137150D01*
X0178180Y0137307D01*
X0178298Y0137386D01*
X0178456Y0137504D01*
X0178574Y0137583D01*
X0178692Y0137701D01*
X0178771Y0137858D01*
X0178850Y0137976D01*
X0178889Y0138134D01*
X0178928Y0138252D01*
X0178889Y0138370D01*
X0178850Y0138449D01*
X0178810Y0138567D01*
X0178731Y0138685D01*
X0178574Y0138803D01*
X0178416Y0138882D01*
X0178220Y0138921D01*
X0178062Y0138961D01*
X0177944Y0138961D01*
X0177826Y0138921D01*
X0177708Y0138921D01*
X0177747Y0138961D01*
X0177905Y0139079D01*
X0178141Y0139197D01*
X0178456Y0139315D01*
X0178810Y0139433D01*
X0179204Y0139433D01*
X0179637Y0139354D01*
X0180070Y0139118D01*
X0180424Y0138803D01*
X0180621Y0138528D01*
X0180739Y0138173D01*
X0180739Y0137858D01*
X0180661Y0137504D01*
X0180464Y0137150D01*
X0180188Y0136835D01*
X0179873Y0136480D01*
X0179598Y0136165D01*
X0179479Y0135890D01*
X0179479Y0135614D01*
X0179558Y0135378D01*
X0179716Y0135181D01*
X0179952Y0135024D01*
X0180267Y0134945D01*
X0180582Y0134945D01*
X0180779Y0134984D01*
X0180976Y0135063D01*
X0181094Y0135142D01*
X0181212Y0135260D01*
X0181291Y0135417D01*
X0181330Y0135535D01*
X0181330Y0135654D01*
X0181291Y0135772D01*
X0181212Y0135890D01*
X0181054Y0136047D01*
X0180936Y0136087D01*
X0180779Y0136165D01*
X0180739Y0136205D01*
X0180818Y0136244D01*
X0180897Y0136244D01*
X0181054Y0136283D01*
X0181369Y0136283D01*
X0181605Y0136244D01*
X0181999Y0136087D01*
X0182157Y0135969D01*
X0182353Y0135850D01*
X0182472Y0135654D01*
X0182590Y0135417D01*
X0182668Y0135181D01*
X0182747Y0134472D01*
X0182747Y0129433D01*
X0182708Y0129433D01*
X0182629Y0129551D01*
X0182511Y0129669D01*
X0182393Y0129827D01*
X0182196Y0130024D01*
X0181999Y0130260D01*
X0181763Y0130496D01*
X0181566Y0130772D01*
X0181054Y0131283D01*
X0180857Y0131520D01*
X0180464Y0131835D01*
X0180797Y0131568D02*
X0182747Y0131568D01*
X0182747Y0131270D02*
X0181068Y0131270D01*
X0181367Y0130971D02*
X0182747Y0130971D01*
X0182747Y0130672D02*
X0181637Y0130672D01*
X0181885Y0130374D02*
X0182747Y0130374D01*
X0182747Y0130075D02*
X0182153Y0130075D01*
X0182430Y0129777D02*
X0182747Y0129777D01*
X0182747Y0129478D02*
X0182678Y0129478D01*
X0182439Y0128284D02*
X0180628Y0128284D01*
X0180933Y0127986D02*
X0182726Y0127986D01*
X0183013Y0127687D02*
X0181237Y0127687D01*
X0181541Y0127389D02*
X0183299Y0127389D01*
X0183586Y0127090D02*
X0181845Y0127090D01*
X0182150Y0126792D02*
X0183873Y0126792D01*
X0184361Y0127986D02*
X0185897Y0127986D01*
X0185897Y0128284D02*
X0184361Y0128284D01*
X0184361Y0128583D02*
X0185897Y0128583D01*
X0185897Y0128881D02*
X0184361Y0128881D01*
X0184361Y0129180D02*
X0185897Y0129180D01*
X0185897Y0129478D02*
X0184361Y0129478D01*
X0184361Y0129777D02*
X0185478Y0129777D01*
X0184923Y0130075D02*
X0184361Y0130075D01*
X0184361Y0130374D02*
X0184369Y0130374D01*
X0182747Y0132464D02*
X0177788Y0132464D01*
X0177385Y0132762D02*
X0182747Y0132762D01*
X0182747Y0133061D02*
X0177072Y0133061D01*
X0176815Y0133359D02*
X0182747Y0133359D01*
X0182747Y0133658D02*
X0176612Y0133658D01*
X0176446Y0133956D02*
X0182747Y0133956D01*
X0182747Y0134255D02*
X0176285Y0134255D01*
X0176202Y0134553D02*
X0182738Y0134553D01*
X0182705Y0134852D02*
X0176120Y0134852D01*
X0176082Y0135150D02*
X0179762Y0135150D01*
X0179535Y0135449D02*
X0176066Y0135449D01*
X0176072Y0135747D02*
X0179479Y0135747D01*
X0179546Y0136046D02*
X0176128Y0136046D01*
X0176194Y0136344D02*
X0179754Y0136344D01*
X0180018Y0136643D02*
X0176301Y0136643D01*
X0176431Y0136941D02*
X0180281Y0136941D01*
X0180514Y0137240D02*
X0178046Y0137240D01*
X0178507Y0137538D02*
X0180668Y0137538D01*
X0180735Y0137837D02*
X0178760Y0137837D01*
X0178889Y0138135D02*
X0180739Y0138135D01*
X0180652Y0138434D02*
X0178857Y0138434D01*
X0178668Y0138732D02*
X0180475Y0138732D01*
X0180168Y0139031D02*
X0177841Y0139031D01*
X0178499Y0139329D02*
X0179683Y0139329D01*
X0177275Y0137538D02*
X0176850Y0137538D01*
X0176606Y0137240D02*
X0177395Y0137240D01*
X0181056Y0136046D02*
X0182054Y0136046D01*
X0182415Y0135747D02*
X0181299Y0135747D01*
X0181301Y0135449D02*
X0182574Y0135449D01*
X0182672Y0135150D02*
X0181102Y0135150D01*
X0175034Y0122613D02*
X0173954Y0122613D01*
D68*
X0261602Y0078636D02*
X0262619Y0079654D01*
X0264103Y0078443D01*
X0264701Y0078751D01*
X0265342Y0078956D01*
X0265535Y0080861D01*
X0266975Y0080861D01*
X0267168Y0078956D01*
X0267809Y0078751D01*
X0268407Y0078443D01*
X0269891Y0079654D01*
X0270909Y0078636D01*
X0269698Y0077152D01*
X0270006Y0076554D01*
X0270211Y0075913D01*
X0272116Y0075720D01*
X0272116Y0074280D01*
X0270211Y0074087D01*
X0270006Y0073446D01*
X0269698Y0072848D01*
X0270909Y0071364D01*
X0269891Y0070346D01*
X0268407Y0071557D01*
X0267809Y0071249D01*
X0266961Y0073295D01*
X0267340Y0073507D01*
X0267659Y0073801D01*
X0267900Y0074162D01*
X0268050Y0074569D01*
X0268101Y0075000D01*
X0268048Y0075439D01*
X0267892Y0075852D01*
X0267643Y0076217D01*
X0267314Y0076511D01*
X0266924Y0076720D01*
X0266496Y0076829D01*
X0266054Y0076834D01*
X0265624Y0076734D01*
X0265230Y0076534D01*
X0264895Y0076246D01*
X0264638Y0075887D01*
X0264473Y0075477D01*
X0264410Y0075040D01*
X0264454Y0074600D01*
X0264600Y0074184D01*
X0264842Y0073814D01*
X0265164Y0073512D01*
X0265549Y0073295D01*
X0264701Y0071249D01*
X0264103Y0071557D01*
X0262619Y0070346D01*
X0261602Y0071364D01*
X0262812Y0072848D01*
X0262504Y0073446D01*
X0262299Y0074087D01*
X0260394Y0074280D01*
X0260394Y0075720D01*
X0262299Y0075913D01*
X0262504Y0076554D01*
X0262812Y0077152D01*
X0261602Y0078636D01*
X0261673Y0078548D02*
X0263975Y0078548D01*
X0264308Y0078548D02*
X0268203Y0078548D01*
X0268536Y0078548D02*
X0270837Y0078548D01*
X0270407Y0079138D02*
X0269258Y0079138D01*
X0270357Y0077959D02*
X0262153Y0077959D01*
X0262633Y0077370D02*
X0269877Y0077370D01*
X0269889Y0076781D02*
X0266683Y0076781D01*
X0265828Y0076781D02*
X0262621Y0076781D01*
X0262388Y0076192D02*
X0264856Y0076192D01*
X0264523Y0075603D02*
X0260394Y0075603D01*
X0260394Y0075014D02*
X0264413Y0075014D01*
X0264515Y0074425D02*
X0260394Y0074425D01*
X0262379Y0073836D02*
X0264827Y0073836D01*
X0265529Y0073247D02*
X0262607Y0073247D01*
X0262656Y0072658D02*
X0265285Y0072658D01*
X0265041Y0072069D02*
X0262176Y0072069D01*
X0261696Y0071480D02*
X0264009Y0071480D01*
X0264253Y0071480D02*
X0264797Y0071480D01*
X0263287Y0070891D02*
X0262075Y0070891D01*
X0266981Y0073247D02*
X0269904Y0073247D01*
X0269854Y0072658D02*
X0267225Y0072658D01*
X0267469Y0072069D02*
X0270334Y0072069D01*
X0270814Y0071480D02*
X0268501Y0071480D01*
X0268257Y0071480D02*
X0267713Y0071480D01*
X0269224Y0070891D02*
X0270435Y0070891D01*
X0270131Y0073836D02*
X0267682Y0073836D01*
X0267997Y0074425D02*
X0272116Y0074425D01*
X0272116Y0075014D02*
X0268099Y0075014D01*
X0267986Y0075603D02*
X0272116Y0075603D01*
X0270122Y0076192D02*
X0267659Y0076192D01*
X0267150Y0079138D02*
X0265360Y0079138D01*
X0265420Y0079727D02*
X0267090Y0079727D01*
X0267030Y0080316D02*
X0265480Y0080316D01*
X0263252Y0079138D02*
X0262103Y0079138D01*
D69*
X0279861Y0112100D03*
X0279861Y0118400D03*
D70*
X0279704Y0118242D03*
X0279704Y0112258D03*
D71*
X0279625Y0112415D03*
X0279625Y0118085D03*
D72*
X0279546Y0117927D03*
X0279546Y0112573D03*
D73*
X0279468Y0112730D03*
X0279468Y0117770D03*
D74*
X0279389Y0117612D03*
X0279389Y0112888D03*
X0279481Y0108150D03*
X0279481Y0101850D03*
D75*
X0279310Y0113045D03*
X0279310Y0117455D03*
D76*
X0279231Y0117297D03*
X0279324Y0107992D03*
X0279324Y0102008D03*
D77*
X0279245Y0102165D03*
X0279245Y0107835D03*
D78*
X0279166Y0107677D03*
X0279166Y0102323D03*
D79*
X0279088Y0102480D03*
X0279088Y0107520D03*
D80*
X0279009Y0107362D03*
X0279009Y0102638D03*
D81*
X0278930Y0102795D03*
X0278930Y0107205D03*
D82*
X0280741Y0107047D03*
D83*
X0269954Y0104213D03*
M02*
