%TF.GenerationSoftware,KiCad,Pcbnew,8.0.7*%
%TF.CreationDate,2025-01-21T14:59:33-07:00*%
%TF.ProjectId,SparkFun_USB_RFID_Reader_panelized,53706172-6b46-4756-9e5f-5553425f5246,rev?*%
%TF.SameCoordinates,Original*%
%TF.FileFunction,Soldermask,Bot*%
%TF.FilePolarity,Negative*%
%FSLAX46Y46*%
G04 Gerber Fmt 4.6, Leading zero omitted, Abs format (unit mm)*
G04 Created by KiCad (PCBNEW 8.0.7) date 2025-01-21 14:59:33*
%MOMM*%
%LPD*%
G01*
G04 APERTURE LIST*
G04 Aperture macros list*
%AMRoundRect*
0 Rectangle with rounded corners*
0 $1 Rounding radius*
0 $2 $3 $4 $5 $6 $7 $8 $9 X,Y pos of 4 corners*
0 Add a 4 corners polygon primitive as box body*
4,1,4,$2,$3,$4,$5,$6,$7,$8,$9,$2,$3,0*
0 Add four circle primitives for the rounded corners*
1,1,$1+$1,$2,$3*
1,1,$1+$1,$4,$5*
1,1,$1+$1,$6,$7*
1,1,$1+$1,$8,$9*
0 Add four rect primitives between the rounded corners*
20,1,$1+$1,$2,$3,$4,$5,0*
20,1,$1+$1,$4,$5,$6,$7,0*
20,1,$1+$1,$6,$7,$8,$9,0*
20,1,$1+$1,$8,$9,$2,$3,0*%
G04 Aperture macros list end*
%ADD10C,0.000000*%
%ADD11C,3.000000*%
%ADD12C,0.750000*%
%ADD13O,1.700000X1.100000*%
%ADD14O,2.200000X1.100000*%
%ADD15C,0.600000*%
%ADD16RoundRect,0.050000X0.330200X0.635000X-0.330200X0.635000X-0.330200X-0.635000X0.330200X-0.635000X0*%
%ADD17RoundRect,0.050000X-0.330200X-0.635000X0.330200X-0.635000X0.330200X0.635000X-0.330200X0.635000X0*%
%ADD18C,3.200000*%
%ADD19C,0.900000*%
%ADD20C,1.979600*%
G04 APERTURE END LIST*
D10*
%TO.C,JP1*%
G36*
X133334000Y112384500D02*
G01*
X132826000Y112384500D01*
X132826000Y112865500D01*
X133334000Y112865500D01*
X133334000Y112384500D01*
G37*
G36*
X133334000Y80134500D02*
G01*
X132826000Y80134500D01*
X132826000Y80615500D01*
X133334000Y80615500D01*
X133334000Y80134500D01*
G37*
G36*
X133334000Y47884500D02*
G01*
X132826000Y47884500D01*
X132826000Y48365500D01*
X133334000Y48365500D01*
X133334000Y47884500D01*
G37*
G36*
X133334000Y15634500D02*
G01*
X132826000Y15634500D01*
X132826000Y16115500D01*
X133334000Y16115500D01*
X133334000Y15634500D01*
G37*
G36*
X85844000Y112384500D02*
G01*
X85336000Y112384500D01*
X85336000Y112865500D01*
X85844000Y112865500D01*
X85844000Y112384500D01*
G37*
G36*
X85844000Y80134500D02*
G01*
X85336000Y80134500D01*
X85336000Y80615500D01*
X85844000Y80615500D01*
X85844000Y80134500D01*
G37*
G36*
X85844000Y47884500D02*
G01*
X85336000Y47884500D01*
X85336000Y48365500D01*
X85844000Y48365500D01*
X85844000Y47884500D01*
G37*
G36*
X85844000Y15634500D02*
G01*
X85336000Y15634500D01*
X85336000Y16115500D01*
X85844000Y16115500D01*
X85844000Y15634500D01*
G37*
G36*
X38354000Y112384500D02*
G01*
X37846000Y112384500D01*
X37846000Y112865500D01*
X38354000Y112865500D01*
X38354000Y112384500D01*
G37*
G36*
X38354000Y80134500D02*
G01*
X37846000Y80134500D01*
X37846000Y80615500D01*
X38354000Y80615500D01*
X38354000Y80134500D01*
G37*
G36*
X38354000Y47884500D02*
G01*
X37846000Y47884500D01*
X37846000Y48365500D01*
X38354000Y48365500D01*
X38354000Y47884500D01*
G37*
%TO.C,JP2*%
G36*
X123021499Y98414500D02*
G01*
X122513499Y98414500D01*
X122513499Y98895500D01*
X123021499Y98895500D01*
X123021499Y98414500D01*
G37*
G36*
X123021499Y66164500D02*
G01*
X122513499Y66164500D01*
X122513499Y66645500D01*
X123021499Y66645500D01*
X123021499Y66164500D01*
G37*
G36*
X123021499Y33914500D02*
G01*
X122513499Y33914500D01*
X122513499Y34395500D01*
X123021499Y34395500D01*
X123021499Y33914500D01*
G37*
G36*
X123021499Y1664500D02*
G01*
X122513499Y1664500D01*
X122513499Y2145500D01*
X123021499Y2145500D01*
X123021499Y1664500D01*
G37*
G36*
X75531499Y98414500D02*
G01*
X75023499Y98414500D01*
X75023499Y98895500D01*
X75531499Y98895500D01*
X75531499Y98414500D01*
G37*
G36*
X75531499Y66164500D02*
G01*
X75023499Y66164500D01*
X75023499Y66645500D01*
X75531499Y66645500D01*
X75531499Y66164500D01*
G37*
G36*
X75531499Y33914500D02*
G01*
X75023499Y33914500D01*
X75023499Y34395500D01*
X75531499Y34395500D01*
X75531499Y33914500D01*
G37*
G36*
X75531499Y1664500D02*
G01*
X75023499Y1664500D01*
X75023499Y2145500D01*
X75531499Y2145500D01*
X75531499Y1664500D01*
G37*
G36*
X28041499Y98414500D02*
G01*
X27533499Y98414500D01*
X27533499Y98895500D01*
X28041499Y98895500D01*
X28041499Y98414500D01*
G37*
G36*
X28041499Y66164500D02*
G01*
X27533499Y66164500D01*
X27533499Y66645500D01*
X28041499Y66645500D01*
X28041499Y66164500D01*
G37*
G36*
X28041499Y33914500D02*
G01*
X27533499Y33914500D01*
X27533499Y34395500D01*
X28041499Y34395500D01*
X28041499Y33914500D01*
G37*
G36*
X28041499Y1664500D02*
G01*
X27533499Y1664500D01*
X27533499Y2145500D01*
X28041499Y2145500D01*
X28041499Y1664500D01*
G37*
%TO.C,JP1*%
G36*
X38354000Y15634500D02*
G01*
X37846000Y15634500D01*
X37846000Y16115500D01*
X38354000Y16115500D01*
X38354000Y15634500D01*
G37*
%TD*%
D11*
%TO.C,*%
X144082500Y126525000D03*
%TD*%
%TO.C,*%
X-4652500Y126525000D03*
%TD*%
%TO.C,*%
X-4652500Y1975000D03*
%TD*%
D12*
%TO.C,J1*%
X100198750Y115515000D03*
X100198750Y109735000D03*
D13*
X96548750Y116943000D03*
D14*
X100728750Y116943000D03*
X100728750Y108307000D03*
D13*
X96548750Y108307000D03*
%TD*%
D12*
%TO.C,J1*%
X100198750Y83265000D03*
X100198750Y77485000D03*
D13*
X96548750Y84693000D03*
D14*
X100728750Y84693000D03*
X100728750Y76057000D03*
D13*
X96548750Y76057000D03*
%TD*%
D12*
%TO.C,J1*%
X100198750Y51015000D03*
X100198750Y45235000D03*
D13*
X96548750Y52443000D03*
D14*
X100728750Y52443000D03*
X100728750Y43807000D03*
D13*
X96548750Y43807000D03*
%TD*%
D12*
%TO.C,J1*%
X100198750Y18765000D03*
X100198750Y12985000D03*
D13*
X96548750Y20193000D03*
D14*
X100728750Y20193000D03*
X100728750Y11557000D03*
D13*
X96548750Y11557000D03*
%TD*%
D12*
%TO.C,J1*%
X52708750Y115515000D03*
X52708750Y109735000D03*
D13*
X49058750Y116943000D03*
D14*
X53238750Y116943000D03*
X53238750Y108307000D03*
D13*
X49058750Y108307000D03*
%TD*%
D12*
%TO.C,J1*%
X52708750Y83265000D03*
X52708750Y77485000D03*
D13*
X49058750Y84693000D03*
D14*
X53238750Y84693000D03*
X53238750Y76057000D03*
D13*
X49058750Y76057000D03*
%TD*%
D12*
%TO.C,J1*%
X52708750Y51015000D03*
X52708750Y45235000D03*
D13*
X49058750Y52443000D03*
D14*
X53238750Y52443000D03*
X53238750Y43807000D03*
D13*
X49058750Y43807000D03*
%TD*%
D12*
%TO.C,J1*%
X52708750Y18765000D03*
X52708750Y12985000D03*
D13*
X49058750Y20193000D03*
D14*
X53238750Y20193000D03*
X53238750Y11557000D03*
D13*
X49058750Y11557000D03*
%TD*%
D12*
%TO.C,J1*%
X5218750Y115515000D03*
X5218750Y109735000D03*
D13*
X1568750Y116943000D03*
D14*
X5748750Y116943000D03*
X5748750Y108307000D03*
D13*
X1568750Y108307000D03*
%TD*%
D12*
%TO.C,J1*%
X5218750Y83265000D03*
X5218750Y77485000D03*
D13*
X1568750Y84693000D03*
D14*
X5748750Y84693000D03*
X5748750Y76057000D03*
D13*
X1568750Y76057000D03*
%TD*%
D12*
%TO.C,J1*%
X5218750Y51015000D03*
X5218750Y45235000D03*
D13*
X1568750Y52443000D03*
D14*
X5748750Y52443000D03*
X5748750Y43807000D03*
D13*
X1568750Y43807000D03*
%TD*%
D15*
%TO.C,FID1*%
X138795000Y97385000D03*
%TD*%
%TO.C,FID1*%
X138795000Y65135000D03*
%TD*%
%TO.C,FID1*%
X138795000Y32885000D03*
%TD*%
%TO.C,FID1*%
X138795000Y635000D03*
%TD*%
%TO.C,FID1*%
X91305000Y97385000D03*
%TD*%
%TO.C,FID1*%
X91305000Y65135000D03*
%TD*%
%TO.C,FID1*%
X91305000Y32885000D03*
%TD*%
%TO.C,FID1*%
X91305000Y635000D03*
%TD*%
%TO.C,FID1*%
X43815000Y97385000D03*
%TD*%
%TO.C,FID1*%
X43815000Y65135000D03*
%TD*%
%TO.C,FID1*%
X43815000Y32885000D03*
%TD*%
D16*
%TO.C,JP1*%
X133600700Y112625000D03*
X132559300Y112625000D03*
%TD*%
%TO.C,JP1*%
X133600700Y80375000D03*
X132559300Y80375000D03*
%TD*%
%TO.C,JP1*%
X133600700Y48125000D03*
X132559300Y48125000D03*
%TD*%
%TO.C,JP1*%
X133600700Y15875000D03*
X132559300Y15875000D03*
%TD*%
%TO.C,JP1*%
X86110700Y112625000D03*
X85069300Y112625000D03*
%TD*%
%TO.C,JP1*%
X86110700Y80375000D03*
X85069300Y80375000D03*
%TD*%
%TO.C,JP1*%
X86110700Y48125000D03*
X85069300Y48125000D03*
%TD*%
%TO.C,JP1*%
X86110700Y15875000D03*
X85069300Y15875000D03*
%TD*%
%TO.C,JP1*%
X38620700Y112625000D03*
X37579300Y112625000D03*
%TD*%
%TO.C,JP1*%
X38620700Y80375000D03*
X37579300Y80375000D03*
%TD*%
%TO.C,JP1*%
X38620700Y48125000D03*
X37579300Y48125000D03*
%TD*%
D15*
%TO.C,FID3*%
X108950000Y127230000D03*
%TD*%
%TO.C,FID3*%
X108950000Y94980000D03*
%TD*%
%TO.C,FID3*%
X108950000Y62730000D03*
%TD*%
%TO.C,FID3*%
X108950000Y30480000D03*
%TD*%
%TO.C,FID3*%
X61460000Y127230000D03*
%TD*%
%TO.C,FID3*%
X61460000Y94980000D03*
%TD*%
%TO.C,FID3*%
X61460000Y62730000D03*
%TD*%
%TO.C,FID3*%
X61460000Y30480000D03*
%TD*%
%TO.C,FID3*%
X13970000Y127230000D03*
%TD*%
%TO.C,FID3*%
X13970000Y94980000D03*
%TD*%
%TO.C,FID3*%
X13970000Y62730000D03*
%TD*%
D17*
%TO.C,JP2*%
X122246799Y98655000D03*
X123288199Y98655000D03*
%TD*%
%TO.C,JP2*%
X122246799Y66405000D03*
X123288199Y66405000D03*
%TD*%
%TO.C,JP2*%
X122246799Y34155000D03*
X123288199Y34155000D03*
%TD*%
%TO.C,JP2*%
X122246799Y1905000D03*
X123288199Y1905000D03*
%TD*%
%TO.C,JP2*%
X74756799Y98655000D03*
X75798199Y98655000D03*
%TD*%
%TO.C,JP2*%
X74756799Y66405000D03*
X75798199Y66405000D03*
%TD*%
%TO.C,JP2*%
X74756799Y34155000D03*
X75798199Y34155000D03*
%TD*%
%TO.C,JP2*%
X74756799Y1905000D03*
X75798199Y1905000D03*
%TD*%
%TO.C,JP2*%
X27266799Y98655000D03*
X28308199Y98655000D03*
%TD*%
%TO.C,JP2*%
X27266799Y66405000D03*
X28308199Y66405000D03*
%TD*%
%TO.C,JP2*%
X27266799Y34155000D03*
X28308199Y34155000D03*
%TD*%
D18*
%TO.C,ST4*%
X110855000Y99925000D03*
%TD*%
%TO.C,ST4*%
X110855000Y67675000D03*
%TD*%
%TO.C,ST4*%
X110855000Y35425000D03*
%TD*%
%TO.C,ST4*%
X110855000Y3175000D03*
%TD*%
%TO.C,ST4*%
X63365000Y99925000D03*
%TD*%
%TO.C,ST4*%
X63365000Y67675000D03*
%TD*%
%TO.C,ST4*%
X63365000Y35425000D03*
%TD*%
%TO.C,ST4*%
X63365000Y3175000D03*
%TD*%
%TO.C,ST4*%
X15875000Y99925000D03*
%TD*%
%TO.C,ST4*%
X15875000Y67675000D03*
%TD*%
%TO.C,ST4*%
X15875000Y35425000D03*
%TD*%
D19*
%TO.C,BZ1*%
X135380000Y108725000D03*
X129180000Y114925000D03*
%TD*%
%TO.C,BZ1*%
X135380000Y76475000D03*
X129180000Y82675000D03*
%TD*%
%TO.C,BZ1*%
X135380000Y44225000D03*
X129180000Y50425000D03*
%TD*%
%TO.C,BZ1*%
X135380000Y11975000D03*
X129180000Y18175000D03*
%TD*%
%TO.C,BZ1*%
X87890000Y108725000D03*
X81690000Y114925000D03*
%TD*%
%TO.C,BZ1*%
X87890000Y76475000D03*
X81690000Y82675000D03*
%TD*%
%TO.C,BZ1*%
X87890000Y44225000D03*
X81690000Y50425000D03*
%TD*%
%TO.C,BZ1*%
X87890000Y11975000D03*
X81690000Y18175000D03*
%TD*%
%TO.C,BZ1*%
X40400000Y108725000D03*
X34200000Y114925000D03*
%TD*%
%TO.C,BZ1*%
X40400000Y76475000D03*
X34200000Y82675000D03*
%TD*%
%TO.C,BZ1*%
X40400000Y44225000D03*
X34200000Y50425000D03*
%TD*%
D18*
%TO.C,ST3*%
X110855000Y125325000D03*
%TD*%
%TO.C,ST3*%
X110855000Y93075000D03*
%TD*%
%TO.C,ST3*%
X110855000Y60825000D03*
%TD*%
%TO.C,ST3*%
X110855000Y28575000D03*
%TD*%
%TO.C,ST3*%
X63365000Y125325000D03*
%TD*%
%TO.C,ST3*%
X63365000Y93075000D03*
%TD*%
%TO.C,ST3*%
X63365000Y60825000D03*
%TD*%
%TO.C,ST3*%
X63365000Y28575000D03*
%TD*%
%TO.C,ST3*%
X15875000Y125325000D03*
%TD*%
%TO.C,ST3*%
X15875000Y93075000D03*
%TD*%
%TO.C,ST3*%
X15875000Y60825000D03*
%TD*%
%TO.C,ST1*%
X136255000Y99925000D03*
%TD*%
%TO.C,ST1*%
X136255000Y67675000D03*
%TD*%
%TO.C,ST1*%
X136255000Y35425000D03*
%TD*%
%TO.C,ST1*%
X136255000Y3175000D03*
%TD*%
%TO.C,ST1*%
X88765000Y99925000D03*
%TD*%
%TO.C,ST1*%
X88765000Y67675000D03*
%TD*%
%TO.C,ST1*%
X88765000Y35425000D03*
%TD*%
%TO.C,ST1*%
X88765000Y3175000D03*
%TD*%
%TO.C,ST1*%
X41275000Y99925000D03*
%TD*%
%TO.C,ST1*%
X41275000Y67675000D03*
%TD*%
%TO.C,ST1*%
X41275000Y35425000D03*
%TD*%
%TO.C,ST2*%
X136255000Y125325000D03*
%TD*%
%TO.C,ST2*%
X136255000Y93075000D03*
%TD*%
%TO.C,ST2*%
X136255000Y60825000D03*
%TD*%
%TO.C,ST2*%
X136255000Y28575000D03*
%TD*%
%TO.C,ST2*%
X88765000Y125325000D03*
%TD*%
%TO.C,ST2*%
X88765000Y93075000D03*
%TD*%
%TO.C,ST2*%
X88765000Y60825000D03*
%TD*%
%TO.C,ST2*%
X88765000Y28575000D03*
%TD*%
%TO.C,ST2*%
X41275000Y125325000D03*
%TD*%
%TO.C,ST2*%
X41275000Y93075000D03*
%TD*%
%TO.C,ST2*%
X41275000Y60825000D03*
%TD*%
D20*
%TO.C,J6*%
X96250000Y127229999D03*
X96250000Y124689999D03*
X96250000Y122149999D03*
X96250000Y119609999D03*
%TD*%
%TO.C,J6*%
X96250000Y94979999D03*
X96250000Y92439999D03*
X96250000Y89899999D03*
X96250000Y87359999D03*
%TD*%
%TO.C,J6*%
X96250000Y62729999D03*
X96250000Y60189999D03*
X96250000Y57649999D03*
X96250000Y55109999D03*
%TD*%
%TO.C,J6*%
X96250000Y30479999D03*
X96250000Y27939999D03*
X96250000Y25399999D03*
X96250000Y22859999D03*
%TD*%
%TO.C,J6*%
X48760000Y127229999D03*
X48760000Y124689999D03*
X48760000Y122149999D03*
X48760000Y119609999D03*
%TD*%
%TO.C,J6*%
X48760000Y94979999D03*
X48760000Y92439999D03*
X48760000Y89899999D03*
X48760000Y87359999D03*
%TD*%
%TO.C,J6*%
X48760000Y62729999D03*
X48760000Y60189999D03*
X48760000Y57649999D03*
X48760000Y55109999D03*
%TD*%
%TO.C,J6*%
X48760000Y30479999D03*
X48760000Y27939999D03*
X48760000Y25399999D03*
X48760000Y22859999D03*
%TD*%
%TO.C,J6*%
X1270000Y127229999D03*
X1270000Y124689999D03*
X1270000Y122149999D03*
X1270000Y119609999D03*
%TD*%
%TO.C,J6*%
X1270000Y94979999D03*
X1270000Y92439999D03*
X1270000Y89899999D03*
X1270000Y87359999D03*
%TD*%
%TO.C,J6*%
X1270000Y62729999D03*
X1270000Y60189999D03*
X1270000Y57649999D03*
X1270000Y55109999D03*
%TD*%
%TO.C,J4*%
X96250000Y98020000D03*
X96250000Y100560000D03*
X96250000Y103100000D03*
X96250000Y105640000D03*
%TD*%
%TO.C,J4*%
X96250000Y65770000D03*
X96250000Y68310000D03*
X96250000Y70850000D03*
X96250000Y73390000D03*
%TD*%
%TO.C,J4*%
X96250000Y33520000D03*
X96250000Y36060000D03*
X96250000Y38600000D03*
X96250000Y41140000D03*
%TD*%
%TO.C,J4*%
X96250000Y1270000D03*
X96250000Y3810000D03*
X96250000Y6350000D03*
X96250000Y8890000D03*
%TD*%
%TO.C,J4*%
X48760000Y98020000D03*
X48760000Y100560000D03*
X48760000Y103100000D03*
X48760000Y105640000D03*
%TD*%
%TO.C,J4*%
X48760000Y65770000D03*
X48760000Y68310000D03*
X48760000Y70850000D03*
X48760000Y73390000D03*
%TD*%
%TO.C,J4*%
X48760000Y33520000D03*
X48760000Y36060000D03*
X48760000Y38600000D03*
X48760000Y41140000D03*
%TD*%
%TO.C,J4*%
X48760000Y1270000D03*
X48760000Y3810000D03*
X48760000Y6350000D03*
X48760000Y8890000D03*
%TD*%
%TO.C,J4*%
X1270000Y98020000D03*
X1270000Y100560000D03*
X1270000Y103100000D03*
X1270000Y105640000D03*
%TD*%
%TO.C,J4*%
X1270000Y65770000D03*
X1270000Y68310000D03*
X1270000Y70850000D03*
X1270000Y73390000D03*
%TD*%
%TO.C,J4*%
X1270000Y33520000D03*
X1270000Y36060000D03*
X1270000Y38600000D03*
X1270000Y41140000D03*
%TD*%
%TO.C,J4*%
X1270000Y1270000D03*
X1270000Y3810000D03*
X1270000Y6350000D03*
X1270000Y8890000D03*
%TD*%
%TO.C,J6*%
X1270000Y30479999D03*
X1270000Y27939999D03*
X1270000Y25399999D03*
X1270000Y22859999D03*
%TD*%
D18*
%TO.C,ST2*%
X41275000Y28575000D03*
%TD*%
%TO.C,ST1*%
X41275000Y3175000D03*
%TD*%
%TO.C,ST3*%
X15875000Y28575000D03*
%TD*%
D19*
%TO.C,BZ1*%
X40400000Y11975000D03*
X34200000Y18175000D03*
%TD*%
D18*
%TO.C,ST4*%
X15875000Y3175000D03*
%TD*%
D17*
%TO.C,JP2*%
X27266799Y1905000D03*
X28308199Y1905000D03*
%TD*%
D15*
%TO.C,FID3*%
X13970000Y30480000D03*
%TD*%
D16*
%TO.C,JP1*%
X38620700Y15875000D03*
X37579300Y15875000D03*
%TD*%
D15*
%TO.C,FID1*%
X43815000Y635000D03*
%TD*%
D12*
%TO.C,J1*%
X5218750Y18765000D03*
X5218750Y12985000D03*
D13*
X1568750Y20193000D03*
D14*
X5748750Y20193000D03*
X5748750Y11557000D03*
D13*
X1568750Y11557000D03*
%TD*%
M02*
