%TF.GenerationSoftware,KiCad,Pcbnew,8.0.7*%
%TF.CreationDate,2025-01-21T14:59:33-07:00*%
%TF.ProjectId,SparkFun_USB_RFID_Reader_panelized,53706172-6b46-4756-9e5f-5553425f5246,rev?*%
%TF.SameCoordinates,Original*%
%TF.FileFunction,Soldermask,Bot*%
%TF.FilePolarity,Negative*%
%FSLAX46Y46*%
G04 Gerber Fmt 4.6, Leading zero omitted, Abs format (unit mm)*
G04 Created by KiCad (PCBNEW 8.0.7) date 2025-01-21 14:59:33*
%MOMM*%
%LPD*%
G01*
G04 APERTURE LIST*
%TA.AperFunction,Profile*%
%ADD10C,0.100000*%
%TD*%
%TA.AperFunction,Profile*%
%ADD11C,0.050000*%
%TD*%
%ADD12C,0.250000*%
%ADD13C,0.500000*%
G04 APERTURE END LIST*
D10*
X-3040000Y-500000D02*
X-3040000Y129000000D01*
X142470000Y-500000D02*
X-3040000Y-500000D01*
X142470000Y129000000D02*
X142470000Y-500000D01*
X-3040000Y129000000D02*
X142470000Y129000000D01*
X-9390000Y-6850000D02*
X-9390000Y135350000D01*
X148820000Y-6850000D02*
X-9390000Y-6850000D01*
X148820000Y135350000D02*
X148820000Y-6850000D01*
X-9390000Y135350000D02*
X148820000Y135350000D01*
D11*
X94980000Y96750000D02*
X94980000Y128500000D01*
X94980000Y64500000D02*
X94980000Y96250000D01*
X94980000Y32250000D02*
X94980000Y64000000D01*
X94980000Y0D02*
X94980000Y31750000D01*
X47490000Y96750000D02*
X47490000Y128500000D01*
X47490000Y64500000D02*
X47490000Y96250000D01*
X47490000Y32250000D02*
X47490000Y64000000D01*
X47490000Y0D02*
X47490000Y31750000D01*
X0Y96750000D02*
X0Y128500000D01*
X0Y64500000D02*
X0Y96250000D01*
X0Y32250000D02*
X0Y64000000D01*
X139430000Y128500000D02*
X139430000Y96750000D01*
X139430000Y96250000D02*
X139430000Y64500000D01*
X139430000Y64000000D02*
X139430000Y32250000D01*
X139430000Y31750000D02*
X139430000Y0D01*
X91940000Y128500000D02*
X91940000Y96750000D01*
X91940000Y96250000D02*
X91940000Y64500000D01*
X91940000Y64000000D02*
X91940000Y32250000D01*
X91940000Y31750000D02*
X91940000Y0D01*
X44450000Y128500000D02*
X44450000Y96750000D01*
X44450000Y96250000D02*
X44450000Y64500000D01*
X44450000Y64000000D02*
X44450000Y32250000D01*
X94980000Y128500000D02*
X139430000Y128500000D01*
X94980000Y96250000D02*
X139430000Y96250000D01*
X94980000Y64000000D02*
X139430000Y64000000D01*
X94980000Y31750000D02*
X139430000Y31750000D01*
X47490000Y128500000D02*
X91940000Y128500000D01*
X47490000Y96250000D02*
X91940000Y96250000D01*
X47490000Y64000000D02*
X91940000Y64000000D01*
X47490000Y31750000D02*
X91940000Y31750000D01*
X0Y128500000D02*
X44450000Y128500000D01*
X0Y96250000D02*
X44450000Y96250000D01*
X0Y64000000D02*
X44450000Y64000000D01*
X139430000Y96750000D02*
X94980000Y96750000D01*
X139430000Y64500000D02*
X94980000Y64500000D01*
X139430000Y32250000D02*
X94980000Y32250000D01*
X139430000Y0D02*
X94980000Y0D01*
X91940000Y96750000D02*
X47490000Y96750000D01*
X91940000Y64500000D02*
X47490000Y64500000D01*
X91940000Y32250000D02*
X47490000Y32250000D01*
X91940000Y0D02*
X47490000Y0D01*
X44450000Y96750000D02*
X0Y96750000D01*
X44450000Y64500000D02*
X0Y64500000D01*
X44450000Y32250000D02*
X0Y32250000D01*
X44450000Y0D02*
X0Y0D01*
X0Y31750000D02*
X44450000Y31750000D01*
X44450000Y31750000D02*
X44450000Y0D01*
X0Y0D02*
X0Y31750000D01*
D12*
X141862238Y57488095D02*
X140909857Y56821428D01*
X141862238Y56345238D02*
X139862238Y56345238D01*
X139862238Y56345238D02*
X139862238Y57107143D01*
X139862238Y57107143D02*
X139957476Y57297619D01*
X139957476Y57297619D02*
X140052714Y57392857D01*
X140052714Y57392857D02*
X140243190Y57488095D01*
X140243190Y57488095D02*
X140528904Y57488095D01*
X140528904Y57488095D02*
X140719380Y57392857D01*
X140719380Y57392857D02*
X140814619Y57297619D01*
X140814619Y57297619D02*
X140909857Y57107143D01*
X140909857Y57107143D02*
X140909857Y56345238D01*
X139862238Y58726190D02*
X139862238Y59107143D01*
X139862238Y59107143D02*
X139957476Y59297619D01*
X139957476Y59297619D02*
X140147952Y59488095D01*
X140147952Y59488095D02*
X140528904Y59583333D01*
X140528904Y59583333D02*
X141195571Y59583333D01*
X141195571Y59583333D02*
X141576523Y59488095D01*
X141576523Y59488095D02*
X141767000Y59297619D01*
X141767000Y59297619D02*
X141862238Y59107143D01*
X141862238Y59107143D02*
X141862238Y58726190D01*
X141862238Y58726190D02*
X141767000Y58535714D01*
X141767000Y58535714D02*
X141576523Y58345238D01*
X141576523Y58345238D02*
X141195571Y58250000D01*
X141195571Y58250000D02*
X140528904Y58250000D01*
X140528904Y58250000D02*
X140147952Y58345238D01*
X140147952Y58345238D02*
X139957476Y58535714D01*
X139957476Y58535714D02*
X139862238Y58726190D01*
X139862238Y60440476D02*
X141481285Y60440476D01*
X141481285Y60440476D02*
X141671761Y60535714D01*
X141671761Y60535714D02*
X141767000Y60630952D01*
X141767000Y60630952D02*
X141862238Y60821428D01*
X141862238Y60821428D02*
X141862238Y61202381D01*
X141862238Y61202381D02*
X141767000Y61392857D01*
X141767000Y61392857D02*
X141671761Y61488095D01*
X141671761Y61488095D02*
X141481285Y61583333D01*
X141481285Y61583333D02*
X139862238Y61583333D01*
X139862238Y62250000D02*
X139862238Y63392857D01*
X141862238Y62821428D02*
X139862238Y62821428D01*
X140814619Y64059524D02*
X140814619Y64726191D01*
X141862238Y65011905D02*
X141862238Y64059524D01*
X141862238Y64059524D02*
X139862238Y64059524D01*
X139862238Y64059524D02*
X139862238Y65011905D01*
X139862238Y67773810D02*
X139862238Y68154763D01*
X139862238Y68154763D02*
X139957476Y68345239D01*
X139957476Y68345239D02*
X140147952Y68535715D01*
X140147952Y68535715D02*
X140528904Y68630953D01*
X140528904Y68630953D02*
X141195571Y68630953D01*
X141195571Y68630953D02*
X141576523Y68535715D01*
X141576523Y68535715D02*
X141767000Y68345239D01*
X141767000Y68345239D02*
X141862238Y68154763D01*
X141862238Y68154763D02*
X141862238Y67773810D01*
X141862238Y67773810D02*
X141767000Y67583334D01*
X141767000Y67583334D02*
X141576523Y67392858D01*
X141576523Y67392858D02*
X141195571Y67297620D01*
X141195571Y67297620D02*
X140528904Y67297620D01*
X140528904Y67297620D02*
X140147952Y67392858D01*
X140147952Y67392858D02*
X139957476Y67583334D01*
X139957476Y67583334D02*
X139862238Y67773810D01*
X139862238Y69488096D02*
X141481285Y69488096D01*
X141481285Y69488096D02*
X141671761Y69583334D01*
X141671761Y69583334D02*
X141767000Y69678572D01*
X141767000Y69678572D02*
X141862238Y69869048D01*
X141862238Y69869048D02*
X141862238Y70250001D01*
X141862238Y70250001D02*
X141767000Y70440477D01*
X141767000Y70440477D02*
X141671761Y70535715D01*
X141671761Y70535715D02*
X141481285Y70630953D01*
X141481285Y70630953D02*
X139862238Y70630953D01*
X139862238Y71297620D02*
X139862238Y72440477D01*
X141862238Y71869048D02*
X139862238Y71869048D01*
X94372238Y57488095D02*
X93419857Y56821428D01*
X94372238Y56345238D02*
X92372238Y56345238D01*
X92372238Y56345238D02*
X92372238Y57107143D01*
X92372238Y57107143D02*
X92467476Y57297619D01*
X92467476Y57297619D02*
X92562714Y57392857D01*
X92562714Y57392857D02*
X92753190Y57488095D01*
X92753190Y57488095D02*
X93038904Y57488095D01*
X93038904Y57488095D02*
X93229380Y57392857D01*
X93229380Y57392857D02*
X93324619Y57297619D01*
X93324619Y57297619D02*
X93419857Y57107143D01*
X93419857Y57107143D02*
X93419857Y56345238D01*
X92372238Y58726190D02*
X92372238Y59107143D01*
X92372238Y59107143D02*
X92467476Y59297619D01*
X92467476Y59297619D02*
X92657952Y59488095D01*
X92657952Y59488095D02*
X93038904Y59583333D01*
X93038904Y59583333D02*
X93705571Y59583333D01*
X93705571Y59583333D02*
X94086523Y59488095D01*
X94086523Y59488095D02*
X94277000Y59297619D01*
X94277000Y59297619D02*
X94372238Y59107143D01*
X94372238Y59107143D02*
X94372238Y58726190D01*
X94372238Y58726190D02*
X94277000Y58535714D01*
X94277000Y58535714D02*
X94086523Y58345238D01*
X94086523Y58345238D02*
X93705571Y58250000D01*
X93705571Y58250000D02*
X93038904Y58250000D01*
X93038904Y58250000D02*
X92657952Y58345238D01*
X92657952Y58345238D02*
X92467476Y58535714D01*
X92467476Y58535714D02*
X92372238Y58726190D01*
X92372238Y60440476D02*
X93991285Y60440476D01*
X93991285Y60440476D02*
X94181761Y60535714D01*
X94181761Y60535714D02*
X94277000Y60630952D01*
X94277000Y60630952D02*
X94372238Y60821428D01*
X94372238Y60821428D02*
X94372238Y61202381D01*
X94372238Y61202381D02*
X94277000Y61392857D01*
X94277000Y61392857D02*
X94181761Y61488095D01*
X94181761Y61488095D02*
X93991285Y61583333D01*
X93991285Y61583333D02*
X92372238Y61583333D01*
X92372238Y62250000D02*
X92372238Y63392857D01*
X94372238Y62821428D02*
X92372238Y62821428D01*
X93324619Y64059524D02*
X93324619Y64726191D01*
X94372238Y65011905D02*
X94372238Y64059524D01*
X94372238Y64059524D02*
X92372238Y64059524D01*
X92372238Y64059524D02*
X92372238Y65011905D01*
X92372238Y67773810D02*
X92372238Y68154763D01*
X92372238Y68154763D02*
X92467476Y68345239D01*
X92467476Y68345239D02*
X92657952Y68535715D01*
X92657952Y68535715D02*
X93038904Y68630953D01*
X93038904Y68630953D02*
X93705571Y68630953D01*
X93705571Y68630953D02*
X94086523Y68535715D01*
X94086523Y68535715D02*
X94277000Y68345239D01*
X94277000Y68345239D02*
X94372238Y68154763D01*
X94372238Y68154763D02*
X94372238Y67773810D01*
X94372238Y67773810D02*
X94277000Y67583334D01*
X94277000Y67583334D02*
X94086523Y67392858D01*
X94086523Y67392858D02*
X93705571Y67297620D01*
X93705571Y67297620D02*
X93038904Y67297620D01*
X93038904Y67297620D02*
X92657952Y67392858D01*
X92657952Y67392858D02*
X92467476Y67583334D01*
X92467476Y67583334D02*
X92372238Y67773810D01*
X92372238Y69488096D02*
X93991285Y69488096D01*
X93991285Y69488096D02*
X94181761Y69583334D01*
X94181761Y69583334D02*
X94277000Y69678572D01*
X94277000Y69678572D02*
X94372238Y69869048D01*
X94372238Y69869048D02*
X94372238Y70250001D01*
X94372238Y70250001D02*
X94277000Y70440477D01*
X94277000Y70440477D02*
X94181761Y70535715D01*
X94181761Y70535715D02*
X93991285Y70630953D01*
X93991285Y70630953D02*
X92372238Y70630953D01*
X92372238Y71297620D02*
X92372238Y72440477D01*
X94372238Y71869048D02*
X92372238Y71869048D01*
X46882238Y57488095D02*
X45929857Y56821428D01*
X46882238Y56345238D02*
X44882238Y56345238D01*
X44882238Y56345238D02*
X44882238Y57107143D01*
X44882238Y57107143D02*
X44977476Y57297619D01*
X44977476Y57297619D02*
X45072714Y57392857D01*
X45072714Y57392857D02*
X45263190Y57488095D01*
X45263190Y57488095D02*
X45548904Y57488095D01*
X45548904Y57488095D02*
X45739380Y57392857D01*
X45739380Y57392857D02*
X45834619Y57297619D01*
X45834619Y57297619D02*
X45929857Y57107143D01*
X45929857Y57107143D02*
X45929857Y56345238D01*
X44882238Y58726190D02*
X44882238Y59107143D01*
X44882238Y59107143D02*
X44977476Y59297619D01*
X44977476Y59297619D02*
X45167952Y59488095D01*
X45167952Y59488095D02*
X45548904Y59583333D01*
X45548904Y59583333D02*
X46215571Y59583333D01*
X46215571Y59583333D02*
X46596523Y59488095D01*
X46596523Y59488095D02*
X46787000Y59297619D01*
X46787000Y59297619D02*
X46882238Y59107143D01*
X46882238Y59107143D02*
X46882238Y58726190D01*
X46882238Y58726190D02*
X46787000Y58535714D01*
X46787000Y58535714D02*
X46596523Y58345238D01*
X46596523Y58345238D02*
X46215571Y58250000D01*
X46215571Y58250000D02*
X45548904Y58250000D01*
X45548904Y58250000D02*
X45167952Y58345238D01*
X45167952Y58345238D02*
X44977476Y58535714D01*
X44977476Y58535714D02*
X44882238Y58726190D01*
X44882238Y60440476D02*
X46501285Y60440476D01*
X46501285Y60440476D02*
X46691761Y60535714D01*
X46691761Y60535714D02*
X46787000Y60630952D01*
X46787000Y60630952D02*
X46882238Y60821428D01*
X46882238Y60821428D02*
X46882238Y61202381D01*
X46882238Y61202381D02*
X46787000Y61392857D01*
X46787000Y61392857D02*
X46691761Y61488095D01*
X46691761Y61488095D02*
X46501285Y61583333D01*
X46501285Y61583333D02*
X44882238Y61583333D01*
X44882238Y62250000D02*
X44882238Y63392857D01*
X46882238Y62821428D02*
X44882238Y62821428D01*
X45834619Y64059524D02*
X45834619Y64726191D01*
X46882238Y65011905D02*
X46882238Y64059524D01*
X46882238Y64059524D02*
X44882238Y64059524D01*
X44882238Y64059524D02*
X44882238Y65011905D01*
X44882238Y67773810D02*
X44882238Y68154763D01*
X44882238Y68154763D02*
X44977476Y68345239D01*
X44977476Y68345239D02*
X45167952Y68535715D01*
X45167952Y68535715D02*
X45548904Y68630953D01*
X45548904Y68630953D02*
X46215571Y68630953D01*
X46215571Y68630953D02*
X46596523Y68535715D01*
X46596523Y68535715D02*
X46787000Y68345239D01*
X46787000Y68345239D02*
X46882238Y68154763D01*
X46882238Y68154763D02*
X46882238Y67773810D01*
X46882238Y67773810D02*
X46787000Y67583334D01*
X46787000Y67583334D02*
X46596523Y67392858D01*
X46596523Y67392858D02*
X46215571Y67297620D01*
X46215571Y67297620D02*
X45548904Y67297620D01*
X45548904Y67297620D02*
X45167952Y67392858D01*
X45167952Y67392858D02*
X44977476Y67583334D01*
X44977476Y67583334D02*
X44882238Y67773810D01*
X44882238Y69488096D02*
X46501285Y69488096D01*
X46501285Y69488096D02*
X46691761Y69583334D01*
X46691761Y69583334D02*
X46787000Y69678572D01*
X46787000Y69678572D02*
X46882238Y69869048D01*
X46882238Y69869048D02*
X46882238Y70250001D01*
X46882238Y70250001D02*
X46787000Y70440477D01*
X46787000Y70440477D02*
X46691761Y70535715D01*
X46691761Y70535715D02*
X46501285Y70630953D01*
X46501285Y70630953D02*
X44882238Y70630953D01*
X44882238Y71297620D02*
X44882238Y72440477D01*
X46882238Y71869048D02*
X44882238Y71869048D01*
X-607762Y57488095D02*
X-1560143Y56821428D01*
X-607762Y56345238D02*
X-2607762Y56345238D01*
X-2607762Y56345238D02*
X-2607762Y57107143D01*
X-2607762Y57107143D02*
X-2512524Y57297619D01*
X-2512524Y57297619D02*
X-2417286Y57392857D01*
X-2417286Y57392857D02*
X-2226810Y57488095D01*
X-2226810Y57488095D02*
X-1941096Y57488095D01*
X-1941096Y57488095D02*
X-1750620Y57392857D01*
X-1750620Y57392857D02*
X-1655381Y57297619D01*
X-1655381Y57297619D02*
X-1560143Y57107143D01*
X-1560143Y57107143D02*
X-1560143Y56345238D01*
X-2607762Y58726190D02*
X-2607762Y59107143D01*
X-2607762Y59107143D02*
X-2512524Y59297619D01*
X-2512524Y59297619D02*
X-2322048Y59488095D01*
X-2322048Y59488095D02*
X-1941096Y59583333D01*
X-1941096Y59583333D02*
X-1274429Y59583333D01*
X-1274429Y59583333D02*
X-893477Y59488095D01*
X-893477Y59488095D02*
X-703000Y59297619D01*
X-703000Y59297619D02*
X-607762Y59107143D01*
X-607762Y59107143D02*
X-607762Y58726190D01*
X-607762Y58726190D02*
X-703000Y58535714D01*
X-703000Y58535714D02*
X-893477Y58345238D01*
X-893477Y58345238D02*
X-1274429Y58250000D01*
X-1274429Y58250000D02*
X-1941096Y58250000D01*
X-1941096Y58250000D02*
X-2322048Y58345238D01*
X-2322048Y58345238D02*
X-2512524Y58535714D01*
X-2512524Y58535714D02*
X-2607762Y58726190D01*
X-2607762Y60440476D02*
X-988715Y60440476D01*
X-988715Y60440476D02*
X-798239Y60535714D01*
X-798239Y60535714D02*
X-703000Y60630952D01*
X-703000Y60630952D02*
X-607762Y60821428D01*
X-607762Y60821428D02*
X-607762Y61202381D01*
X-607762Y61202381D02*
X-703000Y61392857D01*
X-703000Y61392857D02*
X-798239Y61488095D01*
X-798239Y61488095D02*
X-988715Y61583333D01*
X-988715Y61583333D02*
X-2607762Y61583333D01*
X-2607762Y62250000D02*
X-2607762Y63392857D01*
X-607762Y62821428D02*
X-2607762Y62821428D01*
X-1655381Y64059524D02*
X-1655381Y64726191D01*
X-607762Y65011905D02*
X-607762Y64059524D01*
X-607762Y64059524D02*
X-2607762Y64059524D01*
X-2607762Y64059524D02*
X-2607762Y65011905D01*
X-2607762Y67773810D02*
X-2607762Y68154763D01*
X-2607762Y68154763D02*
X-2512524Y68345239D01*
X-2512524Y68345239D02*
X-2322048Y68535715D01*
X-2322048Y68535715D02*
X-1941096Y68630953D01*
X-1941096Y68630953D02*
X-1274429Y68630953D01*
X-1274429Y68630953D02*
X-893477Y68535715D01*
X-893477Y68535715D02*
X-703000Y68345239D01*
X-703000Y68345239D02*
X-607762Y68154763D01*
X-607762Y68154763D02*
X-607762Y67773810D01*
X-607762Y67773810D02*
X-703000Y67583334D01*
X-703000Y67583334D02*
X-893477Y67392858D01*
X-893477Y67392858D02*
X-1274429Y67297620D01*
X-1274429Y67297620D02*
X-1941096Y67297620D01*
X-1941096Y67297620D02*
X-2322048Y67392858D01*
X-2322048Y67392858D02*
X-2512524Y67583334D01*
X-2512524Y67583334D02*
X-2607762Y67773810D01*
X-2607762Y69488096D02*
X-988715Y69488096D01*
X-988715Y69488096D02*
X-798239Y69583334D01*
X-798239Y69583334D02*
X-703000Y69678572D01*
X-703000Y69678572D02*
X-607762Y69869048D01*
X-607762Y69869048D02*
X-607762Y70250001D01*
X-607762Y70250001D02*
X-703000Y70440477D01*
X-703000Y70440477D02*
X-798239Y70535715D01*
X-798239Y70535715D02*
X-988715Y70630953D01*
X-988715Y70630953D02*
X-2607762Y70630953D01*
X-2607762Y71297620D02*
X-2607762Y72440477D01*
X-607762Y71869048D02*
X-2607762Y71869048D01*
X-25638997Y837762D02*
X-24972331Y-1162238D01*
X-24972331Y-1162238D02*
X-24305664Y837762D01*
X-23638997Y-400333D02*
X-22115187Y-400333D01*
X-21258045Y-1067000D02*
X-20972331Y-1162238D01*
X-20972331Y-1162238D02*
X-20496140Y-1162238D01*
X-20496140Y-1162238D02*
X-20305664Y-1067000D01*
X-20305664Y-1067000D02*
X-20210426Y-971761D01*
X-20210426Y-971761D02*
X-20115188Y-781285D01*
X-20115188Y-781285D02*
X-20115188Y-590809D01*
X-20115188Y-590809D02*
X-20210426Y-400333D01*
X-20210426Y-400333D02*
X-20305664Y-305095D01*
X-20305664Y-305095D02*
X-20496140Y-209857D01*
X-20496140Y-209857D02*
X-20877093Y-114619D01*
X-20877093Y-114619D02*
X-21067569Y-19380D01*
X-21067569Y-19380D02*
X-21162807Y75858D01*
X-21162807Y75858D02*
X-21258045Y266334D01*
X-21258045Y266334D02*
X-21258045Y456810D01*
X-21258045Y456810D02*
X-21162807Y647286D01*
X-21162807Y647286D02*
X-21067569Y742524D01*
X-21067569Y742524D02*
X-20877093Y837762D01*
X-20877093Y837762D02*
X-20400902Y837762D01*
X-20400902Y837762D02*
X-20115188Y742524D01*
X-18115188Y-971761D02*
X-18210426Y-1067000D01*
X-18210426Y-1067000D02*
X-18496140Y-1162238D01*
X-18496140Y-1162238D02*
X-18686616Y-1162238D01*
X-18686616Y-1162238D02*
X-18972331Y-1067000D01*
X-18972331Y-1067000D02*
X-19162807Y-876523D01*
X-19162807Y-876523D02*
X-19258045Y-686047D01*
X-19258045Y-686047D02*
X-19353283Y-305095D01*
X-19353283Y-305095D02*
X-19353283Y-19380D01*
X-19353283Y-19380D02*
X-19258045Y361572D01*
X-19258045Y361572D02*
X-19162807Y552048D01*
X-19162807Y552048D02*
X-18972331Y742524D01*
X-18972331Y742524D02*
X-18686616Y837762D01*
X-18686616Y837762D02*
X-18496140Y837762D01*
X-18496140Y837762D02*
X-18210426Y742524D01*
X-18210426Y742524D02*
X-18115188Y647286D01*
X-16877093Y837762D02*
X-16496140Y837762D01*
X-16496140Y837762D02*
X-16305664Y742524D01*
X-16305664Y742524D02*
X-16115188Y552048D01*
X-16115188Y552048D02*
X-16019950Y171096D01*
X-16019950Y171096D02*
X-16019950Y-495571D01*
X-16019950Y-495571D02*
X-16115188Y-876523D01*
X-16115188Y-876523D02*
X-16305664Y-1067000D01*
X-16305664Y-1067000D02*
X-16496140Y-1162238D01*
X-16496140Y-1162238D02*
X-16877093Y-1162238D01*
X-16877093Y-1162238D02*
X-17067569Y-1067000D01*
X-17067569Y-1067000D02*
X-17258045Y-876523D01*
X-17258045Y-876523D02*
X-17353283Y-495571D01*
X-17353283Y-495571D02*
X-17353283Y171096D01*
X-17353283Y171096D02*
X-17258045Y552048D01*
X-17258045Y552048D02*
X-17067569Y742524D01*
X-17067569Y742524D02*
X-16877093Y837762D01*
X-14019950Y-1162238D02*
X-14686617Y-209857D01*
X-15162807Y-1162238D02*
X-15162807Y837762D01*
X-15162807Y837762D02*
X-14400902Y837762D01*
X-14400902Y837762D02*
X-14210426Y742524D01*
X-14210426Y742524D02*
X-14115188Y647286D01*
X-14115188Y647286D02*
X-14019950Y456810D01*
X-14019950Y456810D02*
X-14019950Y171096D01*
X-14019950Y171096D02*
X-14115188Y-19380D01*
X-14115188Y-19380D02*
X-14210426Y-114619D01*
X-14210426Y-114619D02*
X-14400902Y-209857D01*
X-14400902Y-209857D02*
X-15162807Y-209857D01*
X-13162807Y-114619D02*
X-12496140Y-114619D01*
X-12210426Y-1162238D02*
X-13162807Y-1162238D01*
X-13162807Y-1162238D02*
X-13162807Y837762D01*
X-13162807Y837762D02*
X-12210426Y837762D01*
D13*
X-9665000Y-250000D02*
X149095000Y-250000D01*
D12*
X-25638997Y33087762D02*
X-24972331Y31087762D01*
X-24972331Y31087762D02*
X-24305664Y33087762D01*
X-23638997Y31849667D02*
X-22115187Y31849667D01*
X-21258045Y31183000D02*
X-20972331Y31087762D01*
X-20972331Y31087762D02*
X-20496140Y31087762D01*
X-20496140Y31087762D02*
X-20305664Y31183000D01*
X-20305664Y31183000D02*
X-20210426Y31278239D01*
X-20210426Y31278239D02*
X-20115188Y31468715D01*
X-20115188Y31468715D02*
X-20115188Y31659191D01*
X-20115188Y31659191D02*
X-20210426Y31849667D01*
X-20210426Y31849667D02*
X-20305664Y31944905D01*
X-20305664Y31944905D02*
X-20496140Y32040143D01*
X-20496140Y32040143D02*
X-20877093Y32135381D01*
X-20877093Y32135381D02*
X-21067569Y32230620D01*
X-21067569Y32230620D02*
X-21162807Y32325858D01*
X-21162807Y32325858D02*
X-21258045Y32516334D01*
X-21258045Y32516334D02*
X-21258045Y32706810D01*
X-21258045Y32706810D02*
X-21162807Y32897286D01*
X-21162807Y32897286D02*
X-21067569Y32992524D01*
X-21067569Y32992524D02*
X-20877093Y33087762D01*
X-20877093Y33087762D02*
X-20400902Y33087762D01*
X-20400902Y33087762D02*
X-20115188Y32992524D01*
X-18115188Y31278239D02*
X-18210426Y31183000D01*
X-18210426Y31183000D02*
X-18496140Y31087762D01*
X-18496140Y31087762D02*
X-18686616Y31087762D01*
X-18686616Y31087762D02*
X-18972331Y31183000D01*
X-18972331Y31183000D02*
X-19162807Y31373477D01*
X-19162807Y31373477D02*
X-19258045Y31563953D01*
X-19258045Y31563953D02*
X-19353283Y31944905D01*
X-19353283Y31944905D02*
X-19353283Y32230620D01*
X-19353283Y32230620D02*
X-19258045Y32611572D01*
X-19258045Y32611572D02*
X-19162807Y32802048D01*
X-19162807Y32802048D02*
X-18972331Y32992524D01*
X-18972331Y32992524D02*
X-18686616Y33087762D01*
X-18686616Y33087762D02*
X-18496140Y33087762D01*
X-18496140Y33087762D02*
X-18210426Y32992524D01*
X-18210426Y32992524D02*
X-18115188Y32897286D01*
X-16877093Y33087762D02*
X-16496140Y33087762D01*
X-16496140Y33087762D02*
X-16305664Y32992524D01*
X-16305664Y32992524D02*
X-16115188Y32802048D01*
X-16115188Y32802048D02*
X-16019950Y32421096D01*
X-16019950Y32421096D02*
X-16019950Y31754429D01*
X-16019950Y31754429D02*
X-16115188Y31373477D01*
X-16115188Y31373477D02*
X-16305664Y31183000D01*
X-16305664Y31183000D02*
X-16496140Y31087762D01*
X-16496140Y31087762D02*
X-16877093Y31087762D01*
X-16877093Y31087762D02*
X-17067569Y31183000D01*
X-17067569Y31183000D02*
X-17258045Y31373477D01*
X-17258045Y31373477D02*
X-17353283Y31754429D01*
X-17353283Y31754429D02*
X-17353283Y32421096D01*
X-17353283Y32421096D02*
X-17258045Y32802048D01*
X-17258045Y32802048D02*
X-17067569Y32992524D01*
X-17067569Y32992524D02*
X-16877093Y33087762D01*
X-14019950Y31087762D02*
X-14686617Y32040143D01*
X-15162807Y31087762D02*
X-15162807Y33087762D01*
X-15162807Y33087762D02*
X-14400902Y33087762D01*
X-14400902Y33087762D02*
X-14210426Y32992524D01*
X-14210426Y32992524D02*
X-14115188Y32897286D01*
X-14115188Y32897286D02*
X-14019950Y32706810D01*
X-14019950Y32706810D02*
X-14019950Y32421096D01*
X-14019950Y32421096D02*
X-14115188Y32230620D01*
X-14115188Y32230620D02*
X-14210426Y32135381D01*
X-14210426Y32135381D02*
X-14400902Y32040143D01*
X-14400902Y32040143D02*
X-15162807Y32040143D01*
X-13162807Y32135381D02*
X-12496140Y32135381D01*
X-12210426Y31087762D02*
X-13162807Y31087762D01*
X-13162807Y31087762D02*
X-13162807Y33087762D01*
X-13162807Y33087762D02*
X-12210426Y33087762D01*
D13*
X-9665000Y32000000D02*
X149095000Y32000000D01*
D12*
X-25638997Y65337762D02*
X-24972331Y63337762D01*
X-24972331Y63337762D02*
X-24305664Y65337762D01*
X-23638997Y64099667D02*
X-22115187Y64099667D01*
X-21258045Y63433000D02*
X-20972331Y63337762D01*
X-20972331Y63337762D02*
X-20496140Y63337762D01*
X-20496140Y63337762D02*
X-20305664Y63433000D01*
X-20305664Y63433000D02*
X-20210426Y63528239D01*
X-20210426Y63528239D02*
X-20115188Y63718715D01*
X-20115188Y63718715D02*
X-20115188Y63909191D01*
X-20115188Y63909191D02*
X-20210426Y64099667D01*
X-20210426Y64099667D02*
X-20305664Y64194905D01*
X-20305664Y64194905D02*
X-20496140Y64290143D01*
X-20496140Y64290143D02*
X-20877093Y64385381D01*
X-20877093Y64385381D02*
X-21067569Y64480620D01*
X-21067569Y64480620D02*
X-21162807Y64575858D01*
X-21162807Y64575858D02*
X-21258045Y64766334D01*
X-21258045Y64766334D02*
X-21258045Y64956810D01*
X-21258045Y64956810D02*
X-21162807Y65147286D01*
X-21162807Y65147286D02*
X-21067569Y65242524D01*
X-21067569Y65242524D02*
X-20877093Y65337762D01*
X-20877093Y65337762D02*
X-20400902Y65337762D01*
X-20400902Y65337762D02*
X-20115188Y65242524D01*
X-18115188Y63528239D02*
X-18210426Y63433000D01*
X-18210426Y63433000D02*
X-18496140Y63337762D01*
X-18496140Y63337762D02*
X-18686616Y63337762D01*
X-18686616Y63337762D02*
X-18972331Y63433000D01*
X-18972331Y63433000D02*
X-19162807Y63623477D01*
X-19162807Y63623477D02*
X-19258045Y63813953D01*
X-19258045Y63813953D02*
X-19353283Y64194905D01*
X-19353283Y64194905D02*
X-19353283Y64480620D01*
X-19353283Y64480620D02*
X-19258045Y64861572D01*
X-19258045Y64861572D02*
X-19162807Y65052048D01*
X-19162807Y65052048D02*
X-18972331Y65242524D01*
X-18972331Y65242524D02*
X-18686616Y65337762D01*
X-18686616Y65337762D02*
X-18496140Y65337762D01*
X-18496140Y65337762D02*
X-18210426Y65242524D01*
X-18210426Y65242524D02*
X-18115188Y65147286D01*
X-16877093Y65337762D02*
X-16496140Y65337762D01*
X-16496140Y65337762D02*
X-16305664Y65242524D01*
X-16305664Y65242524D02*
X-16115188Y65052048D01*
X-16115188Y65052048D02*
X-16019950Y64671096D01*
X-16019950Y64671096D02*
X-16019950Y64004429D01*
X-16019950Y64004429D02*
X-16115188Y63623477D01*
X-16115188Y63623477D02*
X-16305664Y63433000D01*
X-16305664Y63433000D02*
X-16496140Y63337762D01*
X-16496140Y63337762D02*
X-16877093Y63337762D01*
X-16877093Y63337762D02*
X-17067569Y63433000D01*
X-17067569Y63433000D02*
X-17258045Y63623477D01*
X-17258045Y63623477D02*
X-17353283Y64004429D01*
X-17353283Y64004429D02*
X-17353283Y64671096D01*
X-17353283Y64671096D02*
X-17258045Y65052048D01*
X-17258045Y65052048D02*
X-17067569Y65242524D01*
X-17067569Y65242524D02*
X-16877093Y65337762D01*
X-14019950Y63337762D02*
X-14686617Y64290143D01*
X-15162807Y63337762D02*
X-15162807Y65337762D01*
X-15162807Y65337762D02*
X-14400902Y65337762D01*
X-14400902Y65337762D02*
X-14210426Y65242524D01*
X-14210426Y65242524D02*
X-14115188Y65147286D01*
X-14115188Y65147286D02*
X-14019950Y64956810D01*
X-14019950Y64956810D02*
X-14019950Y64671096D01*
X-14019950Y64671096D02*
X-14115188Y64480620D01*
X-14115188Y64480620D02*
X-14210426Y64385381D01*
X-14210426Y64385381D02*
X-14400902Y64290143D01*
X-14400902Y64290143D02*
X-15162807Y64290143D01*
X-13162807Y64385381D02*
X-12496140Y64385381D01*
X-12210426Y63337762D02*
X-13162807Y63337762D01*
X-13162807Y63337762D02*
X-13162807Y65337762D01*
X-13162807Y65337762D02*
X-12210426Y65337762D01*
D13*
X-9665000Y64250000D02*
X149095000Y64250000D01*
D12*
X-25638997Y97587762D02*
X-24972331Y95587762D01*
X-24972331Y95587762D02*
X-24305664Y97587762D01*
X-23638997Y96349667D02*
X-22115187Y96349667D01*
X-21258045Y95683000D02*
X-20972331Y95587762D01*
X-20972331Y95587762D02*
X-20496140Y95587762D01*
X-20496140Y95587762D02*
X-20305664Y95683000D01*
X-20305664Y95683000D02*
X-20210426Y95778239D01*
X-20210426Y95778239D02*
X-20115188Y95968715D01*
X-20115188Y95968715D02*
X-20115188Y96159191D01*
X-20115188Y96159191D02*
X-20210426Y96349667D01*
X-20210426Y96349667D02*
X-20305664Y96444905D01*
X-20305664Y96444905D02*
X-20496140Y96540143D01*
X-20496140Y96540143D02*
X-20877093Y96635381D01*
X-20877093Y96635381D02*
X-21067569Y96730620D01*
X-21067569Y96730620D02*
X-21162807Y96825858D01*
X-21162807Y96825858D02*
X-21258045Y97016334D01*
X-21258045Y97016334D02*
X-21258045Y97206810D01*
X-21258045Y97206810D02*
X-21162807Y97397286D01*
X-21162807Y97397286D02*
X-21067569Y97492524D01*
X-21067569Y97492524D02*
X-20877093Y97587762D01*
X-20877093Y97587762D02*
X-20400902Y97587762D01*
X-20400902Y97587762D02*
X-20115188Y97492524D01*
X-18115188Y95778239D02*
X-18210426Y95683000D01*
X-18210426Y95683000D02*
X-18496140Y95587762D01*
X-18496140Y95587762D02*
X-18686616Y95587762D01*
X-18686616Y95587762D02*
X-18972331Y95683000D01*
X-18972331Y95683000D02*
X-19162807Y95873477D01*
X-19162807Y95873477D02*
X-19258045Y96063953D01*
X-19258045Y96063953D02*
X-19353283Y96444905D01*
X-19353283Y96444905D02*
X-19353283Y96730620D01*
X-19353283Y96730620D02*
X-19258045Y97111572D01*
X-19258045Y97111572D02*
X-19162807Y97302048D01*
X-19162807Y97302048D02*
X-18972331Y97492524D01*
X-18972331Y97492524D02*
X-18686616Y97587762D01*
X-18686616Y97587762D02*
X-18496140Y97587762D01*
X-18496140Y97587762D02*
X-18210426Y97492524D01*
X-18210426Y97492524D02*
X-18115188Y97397286D01*
X-16877093Y97587762D02*
X-16496140Y97587762D01*
X-16496140Y97587762D02*
X-16305664Y97492524D01*
X-16305664Y97492524D02*
X-16115188Y97302048D01*
X-16115188Y97302048D02*
X-16019950Y96921096D01*
X-16019950Y96921096D02*
X-16019950Y96254429D01*
X-16019950Y96254429D02*
X-16115188Y95873477D01*
X-16115188Y95873477D02*
X-16305664Y95683000D01*
X-16305664Y95683000D02*
X-16496140Y95587762D01*
X-16496140Y95587762D02*
X-16877093Y95587762D01*
X-16877093Y95587762D02*
X-17067569Y95683000D01*
X-17067569Y95683000D02*
X-17258045Y95873477D01*
X-17258045Y95873477D02*
X-17353283Y96254429D01*
X-17353283Y96254429D02*
X-17353283Y96921096D01*
X-17353283Y96921096D02*
X-17258045Y97302048D01*
X-17258045Y97302048D02*
X-17067569Y97492524D01*
X-17067569Y97492524D02*
X-16877093Y97587762D01*
X-14019950Y95587762D02*
X-14686617Y96540143D01*
X-15162807Y95587762D02*
X-15162807Y97587762D01*
X-15162807Y97587762D02*
X-14400902Y97587762D01*
X-14400902Y97587762D02*
X-14210426Y97492524D01*
X-14210426Y97492524D02*
X-14115188Y97397286D01*
X-14115188Y97397286D02*
X-14019950Y97206810D01*
X-14019950Y97206810D02*
X-14019950Y96921096D01*
X-14019950Y96921096D02*
X-14115188Y96730620D01*
X-14115188Y96730620D02*
X-14210426Y96635381D01*
X-14210426Y96635381D02*
X-14400902Y96540143D01*
X-14400902Y96540143D02*
X-15162807Y96540143D01*
X-13162807Y96635381D02*
X-12496140Y96635381D01*
X-12210426Y95587762D02*
X-13162807Y95587762D01*
X-13162807Y95587762D02*
X-13162807Y97587762D01*
X-13162807Y97587762D02*
X-12210426Y97587762D01*
D13*
X-9665000Y96500000D02*
X149095000Y96500000D01*
D12*
X-25638997Y129837761D02*
X-24972331Y127837761D01*
X-24972331Y127837761D02*
X-24305664Y129837761D01*
X-23638997Y128599666D02*
X-22115187Y128599666D01*
X-21258045Y127933000D02*
X-20972331Y127837761D01*
X-20972331Y127837761D02*
X-20496140Y127837761D01*
X-20496140Y127837761D02*
X-20305664Y127933000D01*
X-20305664Y127933000D02*
X-20210426Y128028238D01*
X-20210426Y128028238D02*
X-20115188Y128218714D01*
X-20115188Y128218714D02*
X-20115188Y128409190D01*
X-20115188Y128409190D02*
X-20210426Y128599666D01*
X-20210426Y128599666D02*
X-20305664Y128694904D01*
X-20305664Y128694904D02*
X-20496140Y128790142D01*
X-20496140Y128790142D02*
X-20877093Y128885380D01*
X-20877093Y128885380D02*
X-21067569Y128980619D01*
X-21067569Y128980619D02*
X-21162807Y129075857D01*
X-21162807Y129075857D02*
X-21258045Y129266333D01*
X-21258045Y129266333D02*
X-21258045Y129456809D01*
X-21258045Y129456809D02*
X-21162807Y129647285D01*
X-21162807Y129647285D02*
X-21067569Y129742523D01*
X-21067569Y129742523D02*
X-20877093Y129837761D01*
X-20877093Y129837761D02*
X-20400902Y129837761D01*
X-20400902Y129837761D02*
X-20115188Y129742523D01*
X-18115188Y128028238D02*
X-18210426Y127933000D01*
X-18210426Y127933000D02*
X-18496140Y127837761D01*
X-18496140Y127837761D02*
X-18686616Y127837761D01*
X-18686616Y127837761D02*
X-18972331Y127933000D01*
X-18972331Y127933000D02*
X-19162807Y128123476D01*
X-19162807Y128123476D02*
X-19258045Y128313952D01*
X-19258045Y128313952D02*
X-19353283Y128694904D01*
X-19353283Y128694904D02*
X-19353283Y128980619D01*
X-19353283Y128980619D02*
X-19258045Y129361571D01*
X-19258045Y129361571D02*
X-19162807Y129552047D01*
X-19162807Y129552047D02*
X-18972331Y129742523D01*
X-18972331Y129742523D02*
X-18686616Y129837761D01*
X-18686616Y129837761D02*
X-18496140Y129837761D01*
X-18496140Y129837761D02*
X-18210426Y129742523D01*
X-18210426Y129742523D02*
X-18115188Y129647285D01*
X-16877093Y129837761D02*
X-16496140Y129837761D01*
X-16496140Y129837761D02*
X-16305664Y129742523D01*
X-16305664Y129742523D02*
X-16115188Y129552047D01*
X-16115188Y129552047D02*
X-16019950Y129171095D01*
X-16019950Y129171095D02*
X-16019950Y128504428D01*
X-16019950Y128504428D02*
X-16115188Y128123476D01*
X-16115188Y128123476D02*
X-16305664Y127933000D01*
X-16305664Y127933000D02*
X-16496140Y127837761D01*
X-16496140Y127837761D02*
X-16877093Y127837761D01*
X-16877093Y127837761D02*
X-17067569Y127933000D01*
X-17067569Y127933000D02*
X-17258045Y128123476D01*
X-17258045Y128123476D02*
X-17353283Y128504428D01*
X-17353283Y128504428D02*
X-17353283Y129171095D01*
X-17353283Y129171095D02*
X-17258045Y129552047D01*
X-17258045Y129552047D02*
X-17067569Y129742523D01*
X-17067569Y129742523D02*
X-16877093Y129837761D01*
X-14019950Y127837761D02*
X-14686617Y128790142D01*
X-15162807Y127837761D02*
X-15162807Y129837761D01*
X-15162807Y129837761D02*
X-14400902Y129837761D01*
X-14400902Y129837761D02*
X-14210426Y129742523D01*
X-14210426Y129742523D02*
X-14115188Y129647285D01*
X-14115188Y129647285D02*
X-14019950Y129456809D01*
X-14019950Y129456809D02*
X-14019950Y129171095D01*
X-14019950Y129171095D02*
X-14115188Y128980619D01*
X-14115188Y128980619D02*
X-14210426Y128885380D01*
X-14210426Y128885380D02*
X-14400902Y128790142D01*
X-14400902Y128790142D02*
X-15162807Y128790142D01*
X-13162807Y128885380D02*
X-12496140Y128885380D01*
X-12210426Y127837761D02*
X-13162807Y127837761D01*
X-13162807Y127837761D02*
X-13162807Y129837761D01*
X-13162807Y129837761D02*
X-12210426Y129837761D01*
D13*
X-9665000Y128750000D02*
X149095000Y128750000D01*
M02*
