M48
; DRILL file {KiCad 8.0.7} date 2025-01-21T14:59:33-0700
; FORMAT={-:-/ absolute / metric / decimal}
; #@! TF.CreationDate,2025-01-21T14:59:33-07:00
; #@! TF.GenerationSoftware,Kicad,Pcbnew,8.0.7
; #@! TF.FileFunction,MixedPlating,1,2
FMAT,2
METRIC
; #@! TA.AperFunction,Plated,PTH,ViaDrill
T1C0.300
; #@! TA.AperFunction,Plated,PTH,ComponentDrill
T2C0.600
; #@! TA.AperFunction,Plated,PTH,ComponentDrill
T3C1.016
; #@! TA.AperFunction,NonPlated,NPTH,ComponentDrill
T4C0.650
; #@! TA.AperFunction,NonPlated,NPTH,ComponentDrill
T5C0.800
; #@! TA.AperFunction,NonPlated,NPTH,ComponentDrill
T6C3.100
%
G90
G05
T1
X7.938Y114.847
X7.938Y110.085
X7.938Y82.597
X7.938Y77.835
X7.938Y50.347
X7.938Y45.585
X7.938Y18.098
X7.938Y13.335
X21.59Y103.735
X21.59Y71.485
X21.59Y39.235
X21.59Y6.985
X23.495Y120.245
X23.495Y87.995
X23.495Y55.745
X23.495Y23.495
X26.987Y100.56
X26.987Y68.31
X26.987Y36.06
X26.987Y3.81
X28.575Y100.56
X28.575Y68.31
X28.575Y36.06
X28.575Y3.81
X30.162Y111.99
X30.162Y79.74
X30.162Y47.49
X30.162Y15.24
X32.067Y116.435
X32.067Y84.185
X32.067Y51.935
X32.067Y19.685
X34.29Y118.657
X34.29Y86.407
X34.29Y54.157
X34.29Y21.907
X35.56Y112.625
X35.56Y80.375
X35.56Y48.125
X35.56Y15.875
X40.322Y112.625
X40.322Y80.375
X40.322Y48.125
X40.322Y15.875
X55.427Y114.847
X55.427Y110.085
X55.427Y82.597
X55.427Y77.835
X55.427Y50.347
X55.427Y45.585
X55.427Y18.098
X55.427Y13.335
X69.08Y103.735
X69.08Y71.485
X69.08Y39.235
X69.08Y6.985
X70.985Y120.245
X70.985Y87.995
X70.985Y55.745
X70.985Y23.495
X74.477Y100.56
X74.477Y68.31
X74.477Y36.06
X74.477Y3.81
X76.065Y100.56
X76.065Y68.31
X76.065Y36.06
X76.065Y3.81
X77.653Y111.99
X77.653Y79.74
X77.653Y47.49
X77.653Y15.24
X79.557Y116.435
X79.557Y84.185
X79.557Y51.935
X79.557Y19.685
X81.78Y118.657
X81.78Y86.407
X81.78Y54.157
X81.78Y21.907
X83.05Y112.625
X83.05Y80.375
X83.05Y48.125
X83.05Y15.875
X87.812Y112.625
X87.812Y80.375
X87.812Y48.125
X87.812Y15.875
X102.917Y114.847
X102.917Y110.085
X102.917Y82.597
X102.917Y77.835
X102.917Y50.347
X102.917Y45.585
X102.917Y18.098
X102.917Y13.335
X116.57Y103.735
X116.57Y71.485
X116.57Y39.235
X116.57Y6.985
X118.475Y120.245
X118.475Y87.995
X118.475Y55.745
X118.475Y23.495
X121.968Y100.56
X121.968Y68.31
X121.968Y36.06
X121.968Y3.81
X123.555Y100.56
X123.555Y68.31
X123.555Y36.06
X123.555Y3.81
X125.142Y111.99
X125.142Y79.74
X125.142Y47.49
X125.142Y15.24
X127.047Y116.435
X127.047Y84.185
X127.047Y51.935
X127.047Y19.685
X129.27Y118.657
X129.27Y86.407
X129.27Y54.157
X129.27Y21.907
X130.54Y112.625
X130.54Y80.375
X130.54Y48.125
X130.54Y15.875
X135.302Y112.625
X135.302Y80.375
X135.302Y48.125
X135.302Y15.875
T3
X1.27Y127.23
X1.27Y124.69
X1.27Y122.15
X1.27Y119.61
X1.27Y105.64
X1.27Y103.1
X1.27Y100.56
X1.27Y98.02
X1.27Y94.98
X1.27Y92.44
X1.27Y89.9
X1.27Y87.36
X1.27Y73.39
X1.27Y70.85
X1.27Y68.31
X1.27Y65.77
X1.27Y62.73
X1.27Y60.19
X1.27Y57.65
X1.27Y55.11
X1.27Y41.14
X1.27Y38.6
X1.27Y36.06
X1.27Y33.52
X1.27Y30.48
X1.27Y27.94
X1.27Y25.4
X1.27Y22.86
X1.27Y8.89
X1.27Y6.35
X1.27Y3.81
X1.27Y1.27
X48.76Y127.23
X48.76Y124.69
X48.76Y122.15
X48.76Y119.61
X48.76Y105.64
X48.76Y103.1
X48.76Y100.56
X48.76Y98.02
X48.76Y94.98
X48.76Y92.44
X48.76Y89.9
X48.76Y87.36
X48.76Y73.39
X48.76Y70.85
X48.76Y68.31
X48.76Y65.77
X48.76Y62.73
X48.76Y60.19
X48.76Y57.65
X48.76Y55.11
X48.76Y41.14
X48.76Y38.6
X48.76Y36.06
X48.76Y33.52
X48.76Y30.48
X48.76Y27.94
X48.76Y25.4
X48.76Y22.86
X48.76Y8.89
X48.76Y6.35
X48.76Y3.81
X48.76Y1.27
X96.25Y127.23
X96.25Y124.69
X96.25Y122.15
X96.25Y119.61
X96.25Y105.64
X96.25Y103.1
X96.25Y100.56
X96.25Y98.02
X96.25Y94.98
X96.25Y92.44
X96.25Y89.9
X96.25Y87.36
X96.25Y73.39
X96.25Y70.85
X96.25Y68.31
X96.25Y65.77
X96.25Y62.73
X96.25Y60.19
X96.25Y57.65
X96.25Y55.11
X96.25Y41.14
X96.25Y38.6
X96.25Y36.06
X96.25Y33.52
X96.25Y30.48
X96.25Y27.94
X96.25Y25.4
X96.25Y22.86
X96.25Y8.89
X96.25Y6.35
X96.25Y3.81
X96.25Y1.27
T4
X5.219Y115.515
X5.219Y109.735
X5.219Y83.265
X5.219Y77.485
X5.219Y51.015
X5.219Y45.235
X5.219Y18.765
X5.219Y12.985
X52.709Y115.515
X52.709Y109.735
X52.709Y83.265
X52.709Y77.485
X52.709Y51.015
X52.709Y45.235
X52.709Y18.765
X52.709Y12.985
X100.199Y115.515
X100.199Y109.735
X100.199Y83.265
X100.199Y77.485
X100.199Y51.015
X100.199Y45.235
X100.199Y18.765
X100.199Y12.985
T5
X34.2Y114.925
X34.2Y82.675
X34.2Y50.425
X34.2Y18.175
X40.4Y108.725
X40.4Y76.475
X40.4Y44.225
X40.4Y11.975
X81.69Y114.925
X81.69Y82.675
X81.69Y50.425
X81.69Y18.175
X87.89Y108.725
X87.89Y76.475
X87.89Y44.225
X87.89Y11.975
X129.18Y114.925
X129.18Y82.675
X129.18Y50.425
X129.18Y18.175
X135.38Y108.725
X135.38Y76.475
X135.38Y44.225
X135.38Y11.975
T6
X15.875Y125.325
X15.875Y99.925
X15.875Y93.075
X15.875Y67.675
X15.875Y60.825
X15.875Y35.425
X15.875Y28.575
X15.875Y3.175
X41.275Y125.325
X41.275Y99.925
X41.275Y93.075
X41.275Y67.675
X41.275Y60.825
X41.275Y35.425
X41.275Y28.575
X41.275Y3.175
X63.365Y125.325
X63.365Y99.925
X63.365Y93.075
X63.365Y67.675
X63.365Y60.825
X63.365Y35.425
X63.365Y28.575
X63.365Y3.175
X88.765Y125.325
X88.765Y99.925
X88.765Y93.075
X88.765Y67.675
X88.765Y60.825
X88.765Y35.425
X88.765Y28.575
X88.765Y3.175
X110.855Y125.325
X110.855Y99.925
X110.855Y93.075
X110.855Y67.675
X110.855Y60.825
X110.855Y35.425
X110.855Y28.575
X110.855Y3.175
X136.255Y125.325
X136.255Y99.925
X136.255Y93.075
X136.255Y67.675
X136.255Y60.825
X136.255Y35.425
X136.255Y28.575
X136.255Y3.175
T2
G00X1.869Y116.943
M15
G01X1.269Y116.943
M16
G05
G00X1.869Y108.307
M15
G01X1.269Y108.307
M16
G05
G00X1.869Y84.693
M15
G01X1.269Y84.693
M16
G05
G00X1.869Y76.057
M15
G01X1.269Y76.057
M16
G05
G00X1.869Y52.443
M15
G01X1.269Y52.443
M16
G05
G00X1.869Y43.807
M15
G01X1.269Y43.807
M16
G05
G00X1.869Y20.193
M15
G01X1.269Y20.193
M16
G05
G00X1.869Y11.557
M15
G01X1.269Y11.557
M16
G05
G00X6.299Y116.943
M15
G01X5.199Y116.943
M16
G05
G00X6.299Y108.307
M15
G01X5.199Y108.307
M16
G05
G00X6.299Y84.693
M15
G01X5.199Y84.693
M16
G05
G00X6.299Y76.057
M15
G01X5.199Y76.057
M16
G05
G00X6.299Y52.443
M15
G01X5.199Y52.443
M16
G05
G00X6.299Y43.807
M15
G01X5.199Y43.807
M16
G05
G00X6.299Y20.193
M15
G01X5.199Y20.193
M16
G05
G00X6.299Y11.557
M15
G01X5.199Y11.557
M16
G05
G00X49.359Y116.943
M15
G01X48.759Y116.943
M16
G05
G00X49.359Y108.307
M15
G01X48.759Y108.307
M16
G05
G00X49.359Y84.693
M15
G01X48.759Y84.693
M16
G05
G00X49.359Y76.057
M15
G01X48.759Y76.057
M16
G05
G00X49.359Y52.443
M15
G01X48.759Y52.443
M16
G05
G00X49.359Y43.807
M15
G01X48.759Y43.807
M16
G05
G00X49.359Y20.193
M15
G01X48.759Y20.193
M16
G05
G00X49.359Y11.557
M15
G01X48.759Y11.557
M16
G05
G00X53.789Y116.943
M15
G01X52.689Y116.943
M16
G05
G00X53.789Y108.307
M15
G01X52.689Y108.307
M16
G05
G00X53.789Y84.693
M15
G01X52.689Y84.693
M16
G05
G00X53.789Y76.057
M15
G01X52.689Y76.057
M16
G05
G00X53.789Y52.443
M15
G01X52.689Y52.443
M16
G05
G00X53.789Y43.807
M15
G01X52.689Y43.807
M16
G05
G00X53.789Y20.193
M15
G01X52.689Y20.193
M16
G05
G00X53.789Y11.557
M15
G01X52.689Y11.557
M16
G05
G00X96.849Y116.943
M15
G01X96.249Y116.943
M16
G05
G00X96.849Y108.307
M15
G01X96.249Y108.307
M16
G05
G00X96.849Y84.693
M15
G01X96.249Y84.693
M16
G05
G00X96.849Y76.057
M15
G01X96.249Y76.057
M16
G05
G00X96.849Y52.443
M15
G01X96.249Y52.443
M16
G05
G00X96.849Y43.807
M15
G01X96.249Y43.807
M16
G05
G00X96.849Y20.193
M15
G01X96.249Y20.193
M16
G05
G00X96.849Y11.557
M15
G01X96.249Y11.557
M16
G05
G00X101.279Y116.943
M15
G01X100.179Y116.943
M16
G05
G00X101.279Y108.307
M15
G01X100.179Y108.307
M16
G05
G00X101.279Y84.693
M15
G01X100.179Y84.693
M16
G05
G00X101.279Y76.057
M15
G01X100.179Y76.057
M16
G05
G00X101.279Y52.443
M15
G01X100.179Y52.443
M16
G05
G00X101.279Y43.807
M15
G01X100.179Y43.807
M16
G05
G00X101.279Y20.193
M15
G01X100.179Y20.193
M16
G05
G00X101.279Y11.557
M15
G01X100.179Y11.557
M16
G05
M30
