%TF.GenerationSoftware,KiCad,Pcbnew,8.0.7*%
%TF.CreationDate,2025-01-21T14:59:33-07:00*%
%TF.ProjectId,SparkFun_USB_RFID_Reader_panelized,53706172-6b46-4756-9e5f-5553425f5246,rev?*%
%TF.SameCoordinates,Original*%
%TF.FileFunction,Paste,Top*%
%TF.FilePolarity,Positive*%
%FSLAX46Y46*%
G04 Gerber Fmt 4.6, Leading zero omitted, Abs format (unit mm)*
G04 Created by KiCad (PCBNEW 8.0.7) date 2025-01-21 14:59:33*
%MOMM*%
%LPD*%
G01*
G04 APERTURE LIST*
G04 Aperture macros list*
%AMRoundRect*
0 Rectangle with rounded corners*
0 $1 Rounding radius*
0 $2 $3 $4 $5 $6 $7 $8 $9 X,Y pos of 4 corners*
0 Add a 4 corners polygon primitive as box body*
4,1,4,$2,$3,$4,$5,$6,$7,$8,$9,$2,$3,0*
0 Add four circle primitives for the rounded corners*
1,1,$1+$1,$2,$3*
1,1,$1+$1,$4,$5*
1,1,$1+$1,$6,$7*
1,1,$1+$1,$8,$9*
0 Add four rect primitives between the rounded corners*
20,1,$1+$1,$2,$3,$4,$5,0*
20,1,$1+$1,$4,$5,$6,$7,0*
20,1,$1+$1,$6,$7,$8,$9,0*
20,1,$1+$1,$8,$9,$2,$3,0*%
G04 Aperture macros list end*
%ADD10R,1.000000X0.300000*%
%ADD11R,1.000000X0.600000*%
%ADD12O,1.600000X1.000000*%
%ADD13O,2.100000X1.000000*%
%ADD14RoundRect,0.225000X0.250000X-0.225000X0.250000X0.225000X-0.250000X0.225000X-0.250000X-0.225000X0*%
%ADD15RoundRect,0.212500X-0.212500X-0.637500X0.212500X-0.637500X0.212500X0.637500X-0.212500X0.637500X0*%
%ADD16RoundRect,0.200000X-0.275000X0.200000X-0.275000X-0.200000X0.275000X-0.200000X0.275000X0.200000X0*%
%ADD17R,0.600000X1.200000*%
%ADD18RoundRect,0.225000X-0.250000X0.225000X-0.250000X-0.225000X0.250000X-0.225000X0.250000X0.225000X0*%
%ADD19RoundRect,0.218750X0.218750X0.256250X-0.218750X0.256250X-0.218750X-0.256250X0.218750X-0.256250X0*%
%ADD20R,0.900000X0.800000*%
%ADD21R,2.500000X3.200000*%
%ADD22RoundRect,0.200000X0.200000X0.275000X-0.200000X0.275000X-0.200000X-0.275000X0.200000X-0.275000X0*%
%ADD23RoundRect,0.225000X0.225000X0.250000X-0.225000X0.250000X-0.225000X-0.250000X0.225000X-0.250000X0*%
%ADD24RoundRect,0.200000X0.275000X-0.200000X0.275000X0.200000X-0.275000X0.200000X-0.275000X-0.200000X0*%
G04 APERTURE END LIST*
D10*
%TO.C,J1*%
X101303750Y113875000D03*
X101303750Y112875000D03*
X101303750Y112375000D03*
X101303750Y111375000D03*
X101303750Y110875000D03*
X101303750Y111875000D03*
X101303750Y113375000D03*
X101303750Y114375000D03*
D11*
X101303750Y115850000D03*
X101303750Y109400000D03*
D12*
X96548750Y116943000D03*
D13*
X100728750Y116943000D03*
X100728750Y108307000D03*
D12*
X96548750Y108307000D03*
D11*
X101303750Y115075000D03*
X101303750Y110175000D03*
%TD*%
D10*
%TO.C,J1*%
X101303750Y81625000D03*
X101303750Y80625000D03*
X101303750Y80125000D03*
X101303750Y79125000D03*
X101303750Y78625000D03*
X101303750Y79625000D03*
X101303750Y81125000D03*
X101303750Y82125000D03*
D11*
X101303750Y83600000D03*
X101303750Y77150000D03*
D12*
X96548750Y84693000D03*
D13*
X100728750Y84693000D03*
X100728750Y76057000D03*
D12*
X96548750Y76057000D03*
D11*
X101303750Y82825000D03*
X101303750Y77925000D03*
%TD*%
D10*
%TO.C,J1*%
X101303750Y49375000D03*
X101303750Y48375000D03*
X101303750Y47875000D03*
X101303750Y46875000D03*
X101303750Y46375000D03*
X101303750Y47375000D03*
X101303750Y48875000D03*
X101303750Y49875000D03*
D11*
X101303750Y51350000D03*
X101303750Y44900000D03*
D12*
X96548750Y52443000D03*
D13*
X100728750Y52443000D03*
X100728750Y43807000D03*
D12*
X96548750Y43807000D03*
D11*
X101303750Y50575000D03*
X101303750Y45675000D03*
%TD*%
D10*
%TO.C,J1*%
X101303750Y17125000D03*
X101303750Y16125000D03*
X101303750Y15625000D03*
X101303750Y14625000D03*
X101303750Y14125000D03*
X101303750Y15125000D03*
X101303750Y16625000D03*
X101303750Y17625000D03*
D11*
X101303750Y19100000D03*
X101303750Y12650000D03*
D12*
X96548750Y20193000D03*
D13*
X100728750Y20193000D03*
X100728750Y11557000D03*
D12*
X96548750Y11557000D03*
D11*
X101303750Y18325000D03*
X101303750Y13425000D03*
%TD*%
D10*
%TO.C,J1*%
X53813750Y113875000D03*
X53813750Y112875000D03*
X53813750Y112375000D03*
X53813750Y111375000D03*
X53813750Y110875000D03*
X53813750Y111875000D03*
X53813750Y113375000D03*
X53813750Y114375000D03*
D11*
X53813750Y115850000D03*
X53813750Y109400000D03*
D12*
X49058750Y116943000D03*
D13*
X53238750Y116943000D03*
X53238750Y108307000D03*
D12*
X49058750Y108307000D03*
D11*
X53813750Y115075000D03*
X53813750Y110175000D03*
%TD*%
D10*
%TO.C,J1*%
X53813750Y81625000D03*
X53813750Y80625000D03*
X53813750Y80125000D03*
X53813750Y79125000D03*
X53813750Y78625000D03*
X53813750Y79625000D03*
X53813750Y81125000D03*
X53813750Y82125000D03*
D11*
X53813750Y83600000D03*
X53813750Y77150000D03*
D12*
X49058750Y84693000D03*
D13*
X53238750Y84693000D03*
X53238750Y76057000D03*
D12*
X49058750Y76057000D03*
D11*
X53813750Y82825000D03*
X53813750Y77925000D03*
%TD*%
D10*
%TO.C,J1*%
X53813750Y49375000D03*
X53813750Y48375000D03*
X53813750Y47875000D03*
X53813750Y46875000D03*
X53813750Y46375000D03*
X53813750Y47375000D03*
X53813750Y48875000D03*
X53813750Y49875000D03*
D11*
X53813750Y51350000D03*
X53813750Y44900000D03*
D12*
X49058750Y52443000D03*
D13*
X53238750Y52443000D03*
X53238750Y43807000D03*
D12*
X49058750Y43807000D03*
D11*
X53813750Y50575000D03*
X53813750Y45675000D03*
%TD*%
D10*
%TO.C,J1*%
X53813750Y17125000D03*
X53813750Y16125000D03*
X53813750Y15625000D03*
X53813750Y14625000D03*
X53813750Y14125000D03*
X53813750Y15125000D03*
X53813750Y16625000D03*
X53813750Y17625000D03*
D11*
X53813750Y19100000D03*
X53813750Y12650000D03*
D12*
X49058750Y20193000D03*
D13*
X53238750Y20193000D03*
X53238750Y11557000D03*
D12*
X49058750Y11557000D03*
D11*
X53813750Y18325000D03*
X53813750Y13425000D03*
%TD*%
D10*
%TO.C,J1*%
X6323750Y113875000D03*
X6323750Y112875000D03*
X6323750Y112375000D03*
X6323750Y111375000D03*
X6323750Y110875000D03*
X6323750Y111875000D03*
X6323750Y113375000D03*
X6323750Y114375000D03*
D11*
X6323750Y115850000D03*
X6323750Y109400000D03*
D12*
X1568750Y116943000D03*
D13*
X5748750Y116943000D03*
X5748750Y108307000D03*
D12*
X1568750Y108307000D03*
D11*
X6323750Y115075000D03*
X6323750Y110175000D03*
%TD*%
D10*
%TO.C,J1*%
X6323750Y81625000D03*
X6323750Y80625000D03*
X6323750Y80125000D03*
X6323750Y79125000D03*
X6323750Y78625000D03*
X6323750Y79625000D03*
X6323750Y81125000D03*
X6323750Y82125000D03*
D11*
X6323750Y83600000D03*
X6323750Y77150000D03*
D12*
X1568750Y84693000D03*
D13*
X5748750Y84693000D03*
X5748750Y76057000D03*
D12*
X1568750Y76057000D03*
D11*
X6323750Y82825000D03*
X6323750Y77925000D03*
%TD*%
D10*
%TO.C,J1*%
X6323750Y49375000D03*
X6323750Y48375000D03*
X6323750Y47875000D03*
X6323750Y46875000D03*
X6323750Y46375000D03*
X6323750Y47375000D03*
X6323750Y48875000D03*
X6323750Y49875000D03*
D11*
X6323750Y51350000D03*
X6323750Y44900000D03*
D12*
X1568750Y52443000D03*
D13*
X5748750Y52443000D03*
X5748750Y43807000D03*
D12*
X1568750Y43807000D03*
D11*
X6323750Y50575000D03*
X6323750Y45675000D03*
%TD*%
D14*
%TO.C,C1*%
X115617500Y119152500D03*
X115617500Y120702500D03*
%TD*%
%TO.C,C1*%
X115617500Y86902500D03*
X115617500Y88452500D03*
%TD*%
%TO.C,C1*%
X115617500Y54652500D03*
X115617500Y56202500D03*
%TD*%
%TO.C,C1*%
X115617500Y22402500D03*
X115617500Y23952500D03*
%TD*%
%TO.C,C1*%
X68127500Y119152500D03*
X68127500Y120702500D03*
%TD*%
%TO.C,C1*%
X68127500Y86902500D03*
X68127500Y88452500D03*
%TD*%
%TO.C,C1*%
X68127500Y54652500D03*
X68127500Y56202500D03*
%TD*%
%TO.C,C1*%
X68127500Y22402500D03*
X68127500Y23952500D03*
%TD*%
%TO.C,C1*%
X20637500Y119152500D03*
X20637500Y120702500D03*
%TD*%
%TO.C,C1*%
X20637500Y86902500D03*
X20637500Y88452500D03*
%TD*%
%TO.C,C1*%
X20637500Y54652500D03*
X20637500Y56202500D03*
%TD*%
D15*
%TO.C,J3*%
X126558320Y103622460D03*
X124558320Y106622460D03*
X122558320Y103622460D03*
X120558320Y106622460D03*
X118558320Y103622460D03*
%TD*%
%TO.C,J3*%
X126558320Y71372460D03*
X124558320Y74372460D03*
X122558320Y71372460D03*
X120558320Y74372460D03*
X118558320Y71372460D03*
%TD*%
%TO.C,J3*%
X126558320Y39122460D03*
X124558320Y42122460D03*
X122558320Y39122460D03*
X120558320Y42122460D03*
X118558320Y39122460D03*
%TD*%
%TO.C,J3*%
X126558320Y6872460D03*
X124558320Y9872460D03*
X122558320Y6872460D03*
X120558320Y9872460D03*
X118558320Y6872460D03*
%TD*%
%TO.C,J3*%
X79068320Y103622460D03*
X77068320Y106622460D03*
X75068320Y103622460D03*
X73068320Y106622460D03*
X71068320Y103622460D03*
%TD*%
%TO.C,J3*%
X79068320Y71372460D03*
X77068320Y74372460D03*
X75068320Y71372460D03*
X73068320Y74372460D03*
X71068320Y71372460D03*
%TD*%
%TO.C,J3*%
X79068320Y39122460D03*
X77068320Y42122460D03*
X75068320Y39122460D03*
X73068320Y42122460D03*
X71068320Y39122460D03*
%TD*%
%TO.C,J3*%
X79068320Y6872460D03*
X77068320Y9872460D03*
X75068320Y6872460D03*
X73068320Y9872460D03*
X71068320Y6872460D03*
%TD*%
%TO.C,J3*%
X31578320Y103622460D03*
X29578320Y106622460D03*
X27578320Y103622460D03*
X25578320Y106622460D03*
X23578320Y103622460D03*
%TD*%
%TO.C,J3*%
X31578320Y71372460D03*
X29578320Y74372460D03*
X27578320Y71372460D03*
X25578320Y74372460D03*
X23578320Y71372460D03*
%TD*%
%TO.C,J3*%
X31578320Y39122460D03*
X29578320Y42122460D03*
X27578320Y39122460D03*
X25578320Y42122460D03*
X23578320Y39122460D03*
%TD*%
D16*
%TO.C,R1*%
X105457500Y115672500D03*
X105457500Y114022500D03*
%TD*%
%TO.C,R1*%
X105457500Y83422500D03*
X105457500Y81772500D03*
%TD*%
%TO.C,R1*%
X105457500Y51172500D03*
X105457500Y49522500D03*
%TD*%
%TO.C,R1*%
X105457500Y18922500D03*
X105457500Y17272500D03*
%TD*%
%TO.C,R1*%
X57967500Y115672500D03*
X57967500Y114022500D03*
%TD*%
%TO.C,R1*%
X57967500Y83422500D03*
X57967500Y81772500D03*
%TD*%
%TO.C,R1*%
X57967500Y51172500D03*
X57967500Y49522500D03*
%TD*%
%TO.C,R1*%
X57967500Y18922500D03*
X57967500Y17272500D03*
%TD*%
%TO.C,R1*%
X10477500Y115672500D03*
X10477500Y114022500D03*
%TD*%
%TO.C,R1*%
X10477500Y83422500D03*
X10477500Y81772500D03*
%TD*%
%TO.C,R1*%
X10477500Y51172500D03*
X10477500Y49522500D03*
%TD*%
D17*
%TO.C,U3*%
X121650000Y115425000D03*
X120380000Y115425000D03*
X119110000Y115425000D03*
X117840000Y115425000D03*
X116570000Y115425000D03*
X115300000Y115425000D03*
X114030000Y115425000D03*
X112760000Y115425000D03*
X112760000Y109825000D03*
X114030000Y109825000D03*
X115300000Y109825000D03*
X116570000Y109825000D03*
X117840000Y109825000D03*
X119110000Y109825000D03*
X120380000Y109825000D03*
X121650000Y109825000D03*
%TD*%
%TO.C,U3*%
X121650000Y83175000D03*
X120380000Y83175000D03*
X119110000Y83175000D03*
X117840000Y83175000D03*
X116570000Y83175000D03*
X115300000Y83175000D03*
X114030000Y83175000D03*
X112760000Y83175000D03*
X112760000Y77575000D03*
X114030000Y77575000D03*
X115300000Y77575000D03*
X116570000Y77575000D03*
X117840000Y77575000D03*
X119110000Y77575000D03*
X120380000Y77575000D03*
X121650000Y77575000D03*
%TD*%
%TO.C,U3*%
X121650000Y50925000D03*
X120380000Y50925000D03*
X119110000Y50925000D03*
X117840000Y50925000D03*
X116570000Y50925000D03*
X115300000Y50925000D03*
X114030000Y50925000D03*
X112760000Y50925000D03*
X112760000Y45325000D03*
X114030000Y45325000D03*
X115300000Y45325000D03*
X116570000Y45325000D03*
X117840000Y45325000D03*
X119110000Y45325000D03*
X120380000Y45325000D03*
X121650000Y45325000D03*
%TD*%
%TO.C,U3*%
X121650000Y18675000D03*
X120380000Y18675000D03*
X119110000Y18675000D03*
X117840000Y18675000D03*
X116570000Y18675000D03*
X115300000Y18675000D03*
X114030000Y18675000D03*
X112760000Y18675000D03*
X112760000Y13075000D03*
X114030000Y13075000D03*
X115300000Y13075000D03*
X116570000Y13075000D03*
X117840000Y13075000D03*
X119110000Y13075000D03*
X120380000Y13075000D03*
X121650000Y13075000D03*
%TD*%
%TO.C,U3*%
X74160000Y115425000D03*
X72890000Y115425000D03*
X71620000Y115425000D03*
X70350000Y115425000D03*
X69080000Y115425000D03*
X67810000Y115425000D03*
X66540000Y115425000D03*
X65270000Y115425000D03*
X65270000Y109825000D03*
X66540000Y109825000D03*
X67810000Y109825000D03*
X69080000Y109825000D03*
X70350000Y109825000D03*
X71620000Y109825000D03*
X72890000Y109825000D03*
X74160000Y109825000D03*
%TD*%
%TO.C,U3*%
X74160000Y83175000D03*
X72890000Y83175000D03*
X71620000Y83175000D03*
X70350000Y83175000D03*
X69080000Y83175000D03*
X67810000Y83175000D03*
X66540000Y83175000D03*
X65270000Y83175000D03*
X65270000Y77575000D03*
X66540000Y77575000D03*
X67810000Y77575000D03*
X69080000Y77575000D03*
X70350000Y77575000D03*
X71620000Y77575000D03*
X72890000Y77575000D03*
X74160000Y77575000D03*
%TD*%
%TO.C,U3*%
X74160000Y50925000D03*
X72890000Y50925000D03*
X71620000Y50925000D03*
X70350000Y50925000D03*
X69080000Y50925000D03*
X67810000Y50925000D03*
X66540000Y50925000D03*
X65270000Y50925000D03*
X65270000Y45325000D03*
X66540000Y45325000D03*
X67810000Y45325000D03*
X69080000Y45325000D03*
X70350000Y45325000D03*
X71620000Y45325000D03*
X72890000Y45325000D03*
X74160000Y45325000D03*
%TD*%
%TO.C,U3*%
X74160000Y18675000D03*
X72890000Y18675000D03*
X71620000Y18675000D03*
X70350000Y18675000D03*
X69080000Y18675000D03*
X67810000Y18675000D03*
X66540000Y18675000D03*
X65270000Y18675000D03*
X65270000Y13075000D03*
X66540000Y13075000D03*
X67810000Y13075000D03*
X69080000Y13075000D03*
X70350000Y13075000D03*
X71620000Y13075000D03*
X72890000Y13075000D03*
X74160000Y13075000D03*
%TD*%
%TO.C,U3*%
X26670000Y115425000D03*
X25400000Y115425000D03*
X24130000Y115425000D03*
X22860000Y115425000D03*
X21590000Y115425000D03*
X20320000Y115425000D03*
X19050000Y115425000D03*
X17780000Y115425000D03*
X17780000Y109825000D03*
X19050000Y109825000D03*
X20320000Y109825000D03*
X21590000Y109825000D03*
X22860000Y109825000D03*
X24130000Y109825000D03*
X25400000Y109825000D03*
X26670000Y109825000D03*
%TD*%
%TO.C,U3*%
X26670000Y83175000D03*
X25400000Y83175000D03*
X24130000Y83175000D03*
X22860000Y83175000D03*
X21590000Y83175000D03*
X20320000Y83175000D03*
X19050000Y83175000D03*
X17780000Y83175000D03*
X17780000Y77575000D03*
X19050000Y77575000D03*
X20320000Y77575000D03*
X21590000Y77575000D03*
X22860000Y77575000D03*
X24130000Y77575000D03*
X25400000Y77575000D03*
X26670000Y77575000D03*
%TD*%
%TO.C,U3*%
X26670000Y50925000D03*
X25400000Y50925000D03*
X24130000Y50925000D03*
X22860000Y50925000D03*
X21590000Y50925000D03*
X20320000Y50925000D03*
X19050000Y50925000D03*
X17780000Y50925000D03*
X17780000Y45325000D03*
X19050000Y45325000D03*
X20320000Y45325000D03*
X21590000Y45325000D03*
X22860000Y45325000D03*
X24130000Y45325000D03*
X25400000Y45325000D03*
X26670000Y45325000D03*
%TD*%
D18*
%TO.C,C4*%
X124190000Y111850000D03*
X124190000Y113400000D03*
%TD*%
%TO.C,C4*%
X124190000Y79600000D03*
X124190000Y81150000D03*
%TD*%
%TO.C,C4*%
X124190000Y47350000D03*
X124190000Y48900000D03*
%TD*%
%TO.C,C4*%
X124190000Y15100000D03*
X124190000Y16650000D03*
%TD*%
%TO.C,C4*%
X76700000Y111850000D03*
X76700000Y113400000D03*
%TD*%
%TO.C,C4*%
X76700000Y79600000D03*
X76700000Y81150000D03*
%TD*%
%TO.C,C4*%
X76700000Y47350000D03*
X76700000Y48900000D03*
%TD*%
%TO.C,C4*%
X76700000Y15100000D03*
X76700000Y16650000D03*
%TD*%
%TO.C,C4*%
X29210000Y111850000D03*
X29210000Y113400000D03*
%TD*%
%TO.C,C4*%
X29210000Y79600000D03*
X29210000Y81150000D03*
%TD*%
%TO.C,C4*%
X29210000Y47350000D03*
X29210000Y48900000D03*
%TD*%
D19*
%TO.C,D1*%
X123554999Y98020000D03*
X121979999Y98020000D03*
%TD*%
%TO.C,D1*%
X123554999Y65770000D03*
X121979999Y65770000D03*
%TD*%
%TO.C,D1*%
X123554999Y33520000D03*
X121979999Y33520000D03*
%TD*%
%TO.C,D1*%
X123554999Y1270000D03*
X121979999Y1270000D03*
%TD*%
%TO.C,D1*%
X76064999Y98020000D03*
X74489999Y98020000D03*
%TD*%
%TO.C,D1*%
X76064999Y65770000D03*
X74489999Y65770000D03*
%TD*%
%TO.C,D1*%
X76064999Y33520000D03*
X74489999Y33520000D03*
%TD*%
%TO.C,D1*%
X76064999Y1270000D03*
X74489999Y1270000D03*
%TD*%
%TO.C,D1*%
X28574999Y98020000D03*
X26999999Y98020000D03*
%TD*%
%TO.C,D1*%
X28574999Y65770000D03*
X26999999Y65770000D03*
%TD*%
%TO.C,D1*%
X28574999Y33520000D03*
X26999999Y33520000D03*
%TD*%
D20*
%TO.C,Q1*%
X130810000Y105320000D03*
X130810000Y103420000D03*
X132910000Y104370000D03*
%TD*%
%TO.C,Q1*%
X130810000Y73070000D03*
X130810000Y71170000D03*
X132910000Y72120000D03*
%TD*%
%TO.C,Q1*%
X130810000Y40820000D03*
X130810000Y38920000D03*
X132910000Y39870000D03*
%TD*%
%TO.C,Q1*%
X130810000Y8570000D03*
X130810000Y6670000D03*
X132910000Y7620000D03*
%TD*%
%TO.C,Q1*%
X83320000Y105320000D03*
X83320000Y103420000D03*
X85420000Y104370000D03*
%TD*%
%TO.C,Q1*%
X83320000Y73070000D03*
X83320000Y71170000D03*
X85420000Y72120000D03*
%TD*%
%TO.C,Q1*%
X83320000Y40820000D03*
X83320000Y38920000D03*
X85420000Y39870000D03*
%TD*%
%TO.C,Q1*%
X83320000Y8570000D03*
X83320000Y6670000D03*
X85420000Y7620000D03*
%TD*%
%TO.C,Q1*%
X35830000Y105320000D03*
X35830000Y103420000D03*
X37930000Y104370000D03*
%TD*%
%TO.C,Q1*%
X35830000Y73070000D03*
X35830000Y71170000D03*
X37930000Y72120000D03*
%TD*%
%TO.C,Q1*%
X35830000Y40820000D03*
X35830000Y38920000D03*
X37930000Y39870000D03*
%TD*%
D21*
%TO.C,BZ1*%
X133080000Y116625000D03*
X133080000Y108625000D03*
%TD*%
%TO.C,BZ1*%
X133080000Y84375000D03*
X133080000Y76375000D03*
%TD*%
%TO.C,BZ1*%
X133080000Y52125000D03*
X133080000Y44125000D03*
%TD*%
%TO.C,BZ1*%
X133080000Y19875000D03*
X133080000Y11875000D03*
%TD*%
%TO.C,BZ1*%
X85590000Y116625000D03*
X85590000Y108625000D03*
%TD*%
%TO.C,BZ1*%
X85590000Y84375000D03*
X85590000Y76375000D03*
%TD*%
%TO.C,BZ1*%
X85590000Y52125000D03*
X85590000Y44125000D03*
%TD*%
%TO.C,BZ1*%
X85590000Y19875000D03*
X85590000Y11875000D03*
%TD*%
%TO.C,BZ1*%
X38100000Y116625000D03*
X38100000Y108625000D03*
%TD*%
%TO.C,BZ1*%
X38100000Y84375000D03*
X38100000Y76375000D03*
%TD*%
%TO.C,BZ1*%
X38100000Y52125000D03*
X38100000Y44125000D03*
%TD*%
D15*
%TO.C,J2*%
X130505000Y118645000D03*
X128505000Y121645000D03*
X126505000Y118645000D03*
X124505000Y121645000D03*
X122505000Y118645000D03*
X120505000Y121645000D03*
X118505000Y118645000D03*
%TD*%
%TO.C,J2*%
X130505000Y86395000D03*
X128505000Y89395000D03*
X126505000Y86395000D03*
X124505000Y89395000D03*
X122505000Y86395000D03*
X120505000Y89395000D03*
X118505000Y86395000D03*
%TD*%
%TO.C,J2*%
X130505000Y54145000D03*
X128505000Y57145000D03*
X126505000Y54145000D03*
X124505000Y57145000D03*
X122505000Y54145000D03*
X120505000Y57145000D03*
X118505000Y54145000D03*
%TD*%
%TO.C,J2*%
X130505000Y21895000D03*
X128505000Y24895000D03*
X126505000Y21895000D03*
X124505000Y24895000D03*
X122505000Y21895000D03*
X120505000Y24895000D03*
X118505000Y21895000D03*
%TD*%
%TO.C,J2*%
X83015000Y118645000D03*
X81015000Y121645000D03*
X79015000Y118645000D03*
X77015000Y121645000D03*
X75015000Y118645000D03*
X73015000Y121645000D03*
X71015000Y118645000D03*
%TD*%
%TO.C,J2*%
X83015000Y86395000D03*
X81015000Y89395000D03*
X79015000Y86395000D03*
X77015000Y89395000D03*
X75015000Y86395000D03*
X73015000Y89395000D03*
X71015000Y86395000D03*
%TD*%
%TO.C,J2*%
X83015000Y54145000D03*
X81015000Y57145000D03*
X79015000Y54145000D03*
X77015000Y57145000D03*
X75015000Y54145000D03*
X73015000Y57145000D03*
X71015000Y54145000D03*
%TD*%
%TO.C,J2*%
X83015000Y21895000D03*
X81015000Y24895000D03*
X79015000Y21895000D03*
X77015000Y24895000D03*
X75015000Y21895000D03*
X73015000Y24895000D03*
X71015000Y21895000D03*
%TD*%
%TO.C,J2*%
X35525000Y118645000D03*
X33525000Y121645000D03*
X31525000Y118645000D03*
X29525000Y121645000D03*
X27525000Y118645000D03*
X25525000Y121645000D03*
X23525000Y118645000D03*
%TD*%
%TO.C,J2*%
X35525000Y86395000D03*
X33525000Y89395000D03*
X31525000Y86395000D03*
X29525000Y89395000D03*
X27525000Y86395000D03*
X25525000Y89395000D03*
X23525000Y86395000D03*
%TD*%
%TO.C,J2*%
X35525000Y54145000D03*
X33525000Y57145000D03*
X31525000Y54145000D03*
X29525000Y57145000D03*
X27525000Y54145000D03*
X25525000Y57145000D03*
X23525000Y54145000D03*
%TD*%
D22*
%TO.C,R3*%
X127872500Y98020000D03*
X126222500Y98020000D03*
%TD*%
%TO.C,R3*%
X127872500Y65770000D03*
X126222500Y65770000D03*
%TD*%
%TO.C,R3*%
X127872500Y33520000D03*
X126222500Y33520000D03*
%TD*%
%TO.C,R3*%
X127872500Y1270000D03*
X126222500Y1270000D03*
%TD*%
%TO.C,R3*%
X80382500Y98020000D03*
X78732500Y98020000D03*
%TD*%
%TO.C,R3*%
X80382500Y65770000D03*
X78732500Y65770000D03*
%TD*%
%TO.C,R3*%
X80382500Y33520000D03*
X78732500Y33520000D03*
%TD*%
%TO.C,R3*%
X80382500Y1270000D03*
X78732500Y1270000D03*
%TD*%
%TO.C,R3*%
X32892500Y98020000D03*
X31242500Y98020000D03*
%TD*%
%TO.C,R3*%
X32892500Y65770000D03*
X31242500Y65770000D03*
%TD*%
%TO.C,R3*%
X32892500Y33520000D03*
X31242500Y33520000D03*
%TD*%
D16*
%TO.C,R4*%
X129270000Y105195000D03*
X129270000Y103545000D03*
%TD*%
%TO.C,R4*%
X129270000Y72945000D03*
X129270000Y71295000D03*
%TD*%
%TO.C,R4*%
X129270000Y40695000D03*
X129270000Y39045000D03*
%TD*%
%TO.C,R4*%
X129270000Y8445000D03*
X129270000Y6795000D03*
%TD*%
%TO.C,R4*%
X81780000Y105195000D03*
X81780000Y103545000D03*
%TD*%
%TO.C,R4*%
X81780000Y72945000D03*
X81780000Y71295000D03*
%TD*%
%TO.C,R4*%
X81780000Y40695000D03*
X81780000Y39045000D03*
%TD*%
%TO.C,R4*%
X81780000Y8445000D03*
X81780000Y6795000D03*
%TD*%
%TO.C,R4*%
X34290000Y105195000D03*
X34290000Y103545000D03*
%TD*%
%TO.C,R4*%
X34290000Y72945000D03*
X34290000Y71295000D03*
%TD*%
%TO.C,R4*%
X34290000Y40695000D03*
X34290000Y39045000D03*
%TD*%
D23*
%TO.C,C2*%
X125917500Y115800000D03*
X124367500Y115800000D03*
%TD*%
%TO.C,C2*%
X125917500Y83550000D03*
X124367500Y83550000D03*
%TD*%
%TO.C,C2*%
X125917500Y51300000D03*
X124367500Y51300000D03*
%TD*%
%TO.C,C2*%
X125917500Y19050000D03*
X124367500Y19050000D03*
%TD*%
%TO.C,C2*%
X78427500Y115800000D03*
X76877500Y115800000D03*
%TD*%
%TO.C,C2*%
X78427500Y83550000D03*
X76877500Y83550000D03*
%TD*%
%TO.C,C2*%
X78427500Y51300000D03*
X76877500Y51300000D03*
%TD*%
%TO.C,C2*%
X78427500Y19050000D03*
X76877500Y19050000D03*
%TD*%
%TO.C,C2*%
X30937500Y115800000D03*
X29387500Y115800000D03*
%TD*%
%TO.C,C2*%
X30937500Y83550000D03*
X29387500Y83550000D03*
%TD*%
%TO.C,C2*%
X30937500Y51300000D03*
X29387500Y51300000D03*
%TD*%
D14*
%TO.C,C3*%
X126095000Y111850000D03*
X126095000Y113400000D03*
%TD*%
%TO.C,C3*%
X126095000Y79600000D03*
X126095000Y81150000D03*
%TD*%
%TO.C,C3*%
X126095000Y47350000D03*
X126095000Y48900000D03*
%TD*%
%TO.C,C3*%
X126095000Y15100000D03*
X126095000Y16650000D03*
%TD*%
%TO.C,C3*%
X78605000Y111850000D03*
X78605000Y113400000D03*
%TD*%
%TO.C,C3*%
X78605000Y79600000D03*
X78605000Y81150000D03*
%TD*%
%TO.C,C3*%
X78605000Y47350000D03*
X78605000Y48900000D03*
%TD*%
%TO.C,C3*%
X78605000Y15100000D03*
X78605000Y16650000D03*
%TD*%
%TO.C,C3*%
X31115000Y111850000D03*
X31115000Y113400000D03*
%TD*%
%TO.C,C3*%
X31115000Y79600000D03*
X31115000Y81150000D03*
%TD*%
%TO.C,C3*%
X31115000Y47350000D03*
X31115000Y48900000D03*
%TD*%
D24*
%TO.C,R2*%
X105457500Y109260000D03*
X105457500Y110910000D03*
%TD*%
%TO.C,R2*%
X105457500Y77010000D03*
X105457500Y78660000D03*
%TD*%
%TO.C,R2*%
X105457500Y44760000D03*
X105457500Y46410000D03*
%TD*%
%TO.C,R2*%
X105457500Y12510000D03*
X105457500Y14160000D03*
%TD*%
%TO.C,R2*%
X57967500Y109260000D03*
X57967500Y110910000D03*
%TD*%
%TO.C,R2*%
X57967500Y77010000D03*
X57967500Y78660000D03*
%TD*%
%TO.C,R2*%
X57967500Y44760000D03*
X57967500Y46410000D03*
%TD*%
%TO.C,R2*%
X57967500Y12510000D03*
X57967500Y14160000D03*
%TD*%
%TO.C,R2*%
X10477500Y109260000D03*
X10477500Y110910000D03*
%TD*%
%TO.C,R2*%
X10477500Y77010000D03*
X10477500Y78660000D03*
%TD*%
%TO.C,R2*%
X10477500Y44760000D03*
X10477500Y46410000D03*
%TD*%
%TO.C,R2*%
X10477500Y12510000D03*
X10477500Y14160000D03*
%TD*%
D14*
%TO.C,C3*%
X31115000Y15100000D03*
X31115000Y16650000D03*
%TD*%
D23*
%TO.C,C2*%
X30937500Y19050000D03*
X29387500Y19050000D03*
%TD*%
D16*
%TO.C,R4*%
X34290000Y8445000D03*
X34290000Y6795000D03*
%TD*%
D22*
%TO.C,R3*%
X32892500Y1270000D03*
X31242500Y1270000D03*
%TD*%
D15*
%TO.C,J2*%
X35525000Y21895000D03*
X33525000Y24895000D03*
X31525000Y21895000D03*
X29525000Y24895000D03*
X27525000Y21895000D03*
X25525000Y24895000D03*
X23525000Y21895000D03*
%TD*%
D21*
%TO.C,BZ1*%
X38100000Y19875000D03*
X38100000Y11875000D03*
%TD*%
D20*
%TO.C,Q1*%
X35830000Y8570000D03*
X35830000Y6670000D03*
X37930000Y7620000D03*
%TD*%
D19*
%TO.C,D1*%
X28574999Y1270000D03*
X26999999Y1270000D03*
%TD*%
D18*
%TO.C,C4*%
X29210000Y15100000D03*
X29210000Y16650000D03*
%TD*%
D17*
%TO.C,U3*%
X26670000Y18675000D03*
X25400000Y18675000D03*
X24130000Y18675000D03*
X22860000Y18675000D03*
X21590000Y18675000D03*
X20320000Y18675000D03*
X19050000Y18675000D03*
X17780000Y18675000D03*
X17780000Y13075000D03*
X19050000Y13075000D03*
X20320000Y13075000D03*
X21590000Y13075000D03*
X22860000Y13075000D03*
X24130000Y13075000D03*
X25400000Y13075000D03*
X26670000Y13075000D03*
%TD*%
D16*
%TO.C,R1*%
X10477500Y18922500D03*
X10477500Y17272500D03*
%TD*%
D15*
%TO.C,J3*%
X31578320Y6872460D03*
X29578320Y9872460D03*
X27578320Y6872460D03*
X25578320Y9872460D03*
X23578320Y6872460D03*
%TD*%
D14*
%TO.C,C1*%
X20637500Y22402500D03*
X20637500Y23952500D03*
%TD*%
D10*
%TO.C,J1*%
X6323750Y17125000D03*
X6323750Y16125000D03*
X6323750Y15625000D03*
X6323750Y14625000D03*
X6323750Y14125000D03*
X6323750Y15125000D03*
X6323750Y16625000D03*
X6323750Y17625000D03*
D11*
X6323750Y19100000D03*
X6323750Y12650000D03*
D12*
X1568750Y20193000D03*
D13*
X5748750Y20193000D03*
X5748750Y11557000D03*
D12*
X1568750Y11557000D03*
D11*
X6323750Y18325000D03*
X6323750Y13425000D03*
%TD*%
M02*
